ply
format ascii 1.0
element vertex 35
property float x
property float y
property float z
property uchar diffuse_red
property uchar diffuse_green
property uchar diffuse_blue
end_header
0.0726976 -0.218579 -0.0444402 119 190 182
0.072236 -0.218649 -0.0450467 120 186 188
0.0717744 -0.218719 -0.0456533 101 172 181
0.0714073 -0.218722 -0.0463244 85 156 167
0.0727073 -0.217964 -0.0435481 121 183 180
0.0722456 -0.218033 -0.0441546 140 203 194
0.071784 -0.218103 -0.0447612 144 208 208
0.0713223 -0.218173 -0.0453679 107 170 182
0.0709549 -0.218176 -0.0460388 74 130 142
0.0721601 -0.217485 -0.0432002 130 196 193
0.0716988 -0.217555 -0.0438064 171 224 212
0.0713319 -0.217558 -0.0444757 171 252 236
0.0709645 -0.217561 -0.045146 131 208 202
0.0705965 -0.217563 -0.0458173 85 138 143
0.0721698 -0.216871 -0.0423086 82 160 162
0.0717084 -0.21694 -0.0429147 135 186 179
0.071247 -0.21701 -0.043521 179 238 221
0.0708797 -0.217013 -0.0441901 145 236 226
0.0705119 -0.217015 -0.0448602 112 194 194
0.071718 -0.216325 -0.042023 54 120 127
0.0711622 -0.216463 -0.0425675 120 166 162
0.0707951 -0.216465 -0.0432355 155 236 221
0.0704275 -0.216467 -0.0439045 121 199 193
0.0699657 -0.216537 -0.0445112 94 155 148
0.0713608 -0.215712 -0.0417986 37 98 100
0.0708047 -0.21585 -0.0423437 73 125 127
0.0703432 -0.21592 -0.04295 94 172 182
0.0699752 -0.215921 -0.0436188 87 158 163
0.0695133 -0.215991 -0.0442256 81 136 138
0.0709085 -0.215166 -0.0415128 29 78 80
0.0704467 -0.215236 -0.0421195 53 89 91
0.0699847 -0.215306 -0.0427262 75 122 117
0.0695228 -0.215376 -0.043333 81 135 128
0.0699943 -0.21469 -0.0418336 66 79 76
0.0695323 -0.21476 -0.0424404 85 103 91
