# Alias OBJ Model File
# Exported from SketchUp, (c) 2000-2012 Trimble Navigation Limited
# File units = meters

mtllib flatTop.mtl

g Mesh1 Model

usemtl Color_A01
v -0.01 0.01 2.67394e-018
vt 0.393701 0.393701
vn -4.44089e-016 -6.04087e-016 -1
v 0.01 0.01 -4.72848e-018
vt -0.393701 0.393701
v 0.01 -0.01 4.72253e-019
vt -0.393701 -0.393701
v -0.01 -0.01 5.23095e-018
vt 0.393701 -0.393701
f 1/1/1 2/2/1 3/3/1 4/4/1 

vt -0.393701 -2.95779e-016
vn -7.39557e-032 1 -4.83885e-016
v -0.01 0.01 0.230197
vt -0.393701 -9.06286
v 0.01 0.01 0.230197
vt 0.393701 -9.06286
vt 0.393701 -4.34542e-018
f 1/5/2 5/6/2 6/7/2 2/8/2 

vt 3.11045e-017 -0.393701
vn -1 1.35585e-031 4.44089e-016
v -0.01 -0.01 0.230197
vt 9.06286 -0.393701
vt 9.06286 0.393701
vt -6.95652e-017 0.393701
f 4/9/3 7/10/3 5/11/3 1/12/3 

vt -0.393701 1.74325e-016
vn 2.95823e-031 -1 4.9001e-016
v 0.01 -0.01 0.230197
vt 0.393701 -1.30254e-017
f 3/13/4 8/6/4 7/7/4 4/14/4 

vt 1.13222e-017 0.393701
vn 1 -1.35585e-031 -4.44089e-016
vt -9.06286 0.393701
vt -9.06286 -0.393701
vt -1.93431e-016 -0.393701
f 2/15/5 6/16/5 8/17/5 3/18/5 

v 0.05 0.05 0.230197
vt -1.9685 1.9685
vn -4.44089e-016 -9.6777e-016 -1
f 9/19/6 8/3/6 6/2/6

v 0.05 -0.05 0.230197
vt -1.9685 -1.9685
f 8/3/6 9/19/6 10/20/6

v 0.05 0.05 0.24
vt -9.44882 1.9685
v 0.05 -0.05 0.24
vt -9.44882 -1.9685
vt -9.06286 -1.9685
vt -9.06286 1.9685
f 11/21/5 12/22/5 10/23/5 9/24/5 

v -0.05 0.05 0.24
vn 4.44089e-016 6.04087e-016 1
v -0.05 -0.05 0.24
vt 1.9685 -1.9685
vt 1.9685 1.9685
f 13/19/7 14/20/7 12/25/7 11/26/7 

v -0.05 0.05 0.230197
vt 9.06286 1.9685
v -0.05 -0.05 0.230197
vt 9.06286 -1.9685
vt 9.44882 -1.9685
vt 9.44882 1.9685
f 15/27/3 16/28/3 14/29/3 13/30/3 

f 7/4/6 16/25/6 15/26/6

f 16/25/6 7/4/6 10/20/6

f 10/20/6 7/4/6 8/3/6

usemtl FrontColor
f 8/3/6 7/4/6 5/1/6 6/2/6 

usemtl Color_A01
f 7/4/6 15/26/6 5/1/6

f 9/19/6 5/1/6 15/26/6

f 9/19/6 6/2/6 5/1/6

vt -1.9685 -9.44882
vn -1.47911e-031 1 -9.6777e-016
vt 1.9685 -9.44882
vt 1.9685 -9.06286
vt -1.9685 -9.06286
f 13/31/8 11/32/8 9/33/8 15/34/8 

vn 4.93038e-032 -1 3.92466e-016
f 14/32/9 16/33/9 10/34/9 12/31/9 

