# Alias OBJ Model File
# Exported from SketchUp, (c) 2000-2012 Trimble Navigation Limited
# File units = meters

mtllib flatTop.mtl

g Mesh1 Model

usemtl Color_A01
v 0.01 0.01 -2.34809e-033
vt 0.393701 0.393701
vn 0 3.63683e-016 1
v -0.01 0.01 -2.34809e-033
vt -0.393701 0.393701
v -0.01 -0.01 7.27366e-018
vt -0.393701 -0.393701
v 0.01 -0.01 7.27366e-018
vt 0.393701 -0.393701
f 1/1/1 2/2/1 3/3/1 4/4/1 

vt 0.393701 -1.90506e-016
vn 0 1 -4.83885e-016
v 0.01 0.01 -0.230197
vt 0.393701 9.06286
v -0.01 0.01 -0.230197
vt -0.393701 9.06286
vt -0.393701 -1.90506e-016
f 1/5/2 5/6/2 6/7/2 2/8/2 

vt -2.86365e-016 -0.393701
vn 1 0 -0
v 0.01 -0.01 -0.230197
vt 9.06286 -0.393701
vt 9.06286 0.393701
vt 9.24446e-032 0.393701
f 4/9/3 7/10/3 5/11/3 1/12/3 

vt 0.393701 -9.82702e-017
vn 0 -1 4.7776e-016
v -0.01 -0.01 -0.230197
vt -0.393701 -9.82702e-017
f 3/13/4 8/6/4 7/7/4 4/14/4 

vt -9.24446e-032 0.393701
vn -1 0 -0
vt -9.06286 0.393701
vt -9.06286 -0.393701
vt 2.86365e-016 -0.393701
f 2/15/5 6/16/5 8/17/5 3/18/5 

v -0.05 0.05 -0.230197
vt -1.9685 1.9685
vn 0 0 1
f 9/19/6 8/3/6 6/2/6

v -0.05 -0.05 -0.230197
vt -1.9685 -1.9685
f 10/20/6 8/3/6 9/19/6

f 8/3/6 10/20/6 7/4/6

v 0.05 -0.05 -0.230197
vt 1.9685 -1.9685
f 11/21/6 7/4/6 10/20/6

v 0.05 0.05 -0.230197
vt 1.9685 1.9685
f 7/4/6 11/21/6 12/22/6

vt 9.06286 1.9685
vt 9.06286 -1.9685
v 0.05 -0.05 -0.24
vt 9.44882 -1.9685
v 0.05 0.05 -0.24
vt 9.44882 1.9685
f 12/23/3 11/24/3 13/25/3 14/26/3 

vt -1.9685 9.44882
vn 1.96093e-033 -1 5.75304e-016
vt -1.9685 9.06286
vt 1.9685 9.06286
v -0.05 -0.05 -0.24
vt 1.9685 9.44882
f 13/27/7 11/28/7 10/29/7 15/30/7 

v -0.05 0.05 -0.24
vt -9.44882 1.9685
vt -9.44882 -1.9685
vt -9.06286 -1.9685
vt -9.06286 1.9685
f 16/31/5 15/32/5 10/33/5 9/34/5 

vn 0 -3.63683e-016 -1
f 14/19/8 13/20/8 15/21/8 16/22/8 

vn 0 1 -0
f 14/30/9 16/27/9 9/28/9 12/29/9 

f 9/19/6 6/2/6 12/22/6

f 5/1/6 12/22/6 6/2/6

f 7/4/6 12/22/6 5/1/6

usemtl FrontColor
f 8/3/6 7/4/6 5/1/6 6/2/6 

