# Alias OBJ Model File
# Exported from SketchUp, (c) 2000-2012 Trimble Navigation Limited
# File units = meters

mtllib hoe2.mtl

g Mesh1 Model

usemtl Color_A01
v 0.01 0.01 -2.34809e-033
vt 0.393701 0.393701
vn 0 3.63683e-016 1
v -0.01 0.01 -2.34809e-033
vt -0.393701 0.393701
v -0.01 -0.01 7.27366e-018
vt -0.393701 -0.393701
v 0.01 -0.01 7.27366e-018
vt 0.393701 -0.393701
f 1/1/1 2/2/1 3/3/1 4/4/1 

vt 0.393701 -1.90506e-016
vn 0 1 -4.83885e-016
v 0.01 0.01 -0.230197
vt 0.393701 9.06286
v -0.01 0.01 -0.230197
vt -0.393701 9.06286
vt -0.393701 -1.90506e-016
f 1/5/2 5/6/2 6/7/2 2/8/2 

vt -2.86365e-016 -0.393701
vn 1 0 -0
v 0.01 -0.01 -0.230197
vt 9.06286 -0.393701
v 0.01 -1.08569e-016 -0.230197
vt 9.06286 -4.27436e-015
vt 9.06286 0.393701
vt 9.24446e-032 0.393701
f 4/9/3 7/10/3 8/11/3 5/12/3 1/13/3 

vt 0.393701 -9.82702e-017
vn 0 -1 4.7776e-016
v -0.01 -0.01 -0.230197
vt -0.393701 -9.82702e-017
f 3/14/4 9/6/4 7/7/4 4/15/4 

vt -9.24446e-032 0.393701
vn -1 0 -0
vt -9.06286 0.393701
v -0.01 -1.08569e-016 -0.230197
vt -9.06286 -4.27436e-015
vt -9.06286 -0.393701
vt 2.86365e-016 -0.393701
f 2/16/5 6/17/5 10/18/5 9/19/5 3/20/5 

v -0.03 0.06 -0.230197
vt -1.1811 2.3622
vn 0 0 1
v -0.03 -1.08569e-016 -0.230197
vt -1.1811 -4.27436e-015
vt -0.393701 -4.27436e-015
vt 0.393701 -4.27436e-015
v 0.03 -1.08569e-016 -0.230197
vt 1.1811 -4.27436e-015
v 0.03 0.06 -0.230197
vt 1.1811 2.3622
f 11/21/6 12/22/6 10/23/6 6/2/6 5/1/6 8/24/6 13/25/6 14/26/6 

v -0.03 0.06 -0.24
vt -9.44882 2.3622
v -0.03 -1.14209e-016 -0.24
vt -9.44882 -4.4964e-015
vt -9.06286 2.3622
f 15/27/5 16/28/5 12/18/5 11/29/5 

v 0.03 0.06 -0.24
vn 2.83489e-032 -7.51991e-016 -1
v 0.03 -1.14209e-016 -0.24
vt -1.1811 2.60902e-015
v 0.01 -1.08569e-016 -0.24
vt -0.393701 2.83107e-015
v -0.01 -1.11389e-016 -0.24
vt 0.393701 2.72005e-015
vt 1.1811 2.60902e-015
f 17/21/7 18/30/7 19/31/7 20/32/7 16/33/7 15/26/7 

vt 9.06286 2.3622
vt 9.44882 -4.4964e-015
vt 9.44882 2.3622
f 14/34/3 13/11/3 18/35/3 17/36/3 

vt -1.1811 9.06286
vn -1.40998e-016 -1 2.87652e-016
vt -0.393701 9.44882
vt -1.1811 9.44882
f 13/37/8 8/7/8 19/38/8 18/39/8 

v 0.01 -0.00870261 -0.230257
vt 9.06523 -0.342623
v 0.01 -0.00742457 -0.230488
vt 9.07433 -0.292306
v 0.01 -0.0061883 -0.230886
vt 9.09001 -0.243634
v 0.01 -0.00501549 -0.231444
vt 9.11198 -0.19746
v 0.01 -0.00392672 -0.232152
vt 9.13985 -0.154595
v 0.01 -0.00294109 -0.232998
vt 9.17315 -0.115791
v 0.01 -0.00207589 -0.233967
vt 9.21129 -0.0817278
v 0.01 -0.0013463 -0.235041
vt 9.25359 -0.0530039
v 0.01 -0.000765123 -0.236203
vt 9.29932 -0.030123
v 0.01 -0.000342558 -0.237431
vt 9.34767 -0.0134865
v 0.01 -8.60169e-005 -0.238704
vt 9.3978 -0.00338649
vt 9.44882 -4.27436e-015
f 7/10/3 21/40/3 22/41/3 23/42/3 24/43/3 25/44/3 26/45/3 27/46/3 28/47/3 29/48/3 30/49/3 31/50/3 19/51/3 8/11/3 

vt 0.393701 0.0272847
vn 0 -0.0464049 -0.998923
v -0.01 -0.00870261 -0.230257
vt 0.393701 0.078418
vn 0 -0.11246 -0.993656
vt -0.393701 0.078418
vt -0.393701 0.0272847
f 9/52/9 32/53/10 21/54/10 7/55/9 

vt -9.06523 -0.342623
vt -9.44882 -4.38538e-015
v -0.01 -8.60169e-005 -0.238704
vt -9.3978 -0.00338649
v -0.01 -0.000342558 -0.237431
vt -9.34767 -0.0134865
v -0.01 -0.000765123 -0.236203
vt -9.29932 -0.030123
v -0.01 -0.0013463 -0.235041
vt -9.25359 -0.0530039
v -0.01 -0.00207589 -0.233967
vt -9.21129 -0.0817278
v -0.01 -0.00294109 -0.232998
vt -9.17315 -0.115791
v -0.01 -0.00392672 -0.232152
vt -9.13985 -0.154595
v -0.01 -0.00501549 -0.231444
vt -9.11198 -0.19746
v -0.01 -0.0061883 -0.230886
vt -9.09001 -0.243634
v -0.01 -0.00742457 -0.230488
vt -9.07433 -0.292306
f 32/56/5 9/19/5 10/18/5 20/57/5 33/58/5 34/59/5 35/60/5 36/61/5 37/62/5 38/63/5 39/64/5 40/65/5 41/66/5 42/67/5 

f 9/3/6 7/4/6 8/24/6 10/23/6 

usemtl FrontColor
f 8/24/6 5/1/6 6/2/6 10/23/6 

vt 0.393701 9.44882
vn -7.04992e-017 1 -1.43826e-016
f 19/68/11 20/38/11 10/7/11 8/6/11 

usemtl Color_A01
vt 0.393701 9.37694
vn 3.52365e-017 -0.991228 -0.132166
vt 0.393701 9.42807
vn 7.03183e-017 -0.997804 -0.0662287
vt -0.393701 9.42807
vt -0.393701 9.37694
f 33/69/12 20/70/13 19/71/13 31/72/12 

vt 0.393701 9.16084
vn 0 -0.965064 -0.262014
vt 0.393701 9.21197
vt -0.393701 9.21197
vt -0.393701 9.16084
f 34/73/14 33/74/12 31/75/12 30/76/14 

vt 0.393701 8.78357
vn 0 -0.921969 -0.387265
vt 0.393701 8.8347
vt -0.393701 8.8347
vt -0.393701 8.78357
f 35/77/15 34/78/14 30/79/14 29/80/15 

vt 0.393701 8.25174
vn 0 -0.862697 -0.505721
vt 0.393701 8.30287
vt -0.393701 8.30287
vt -0.393701 8.25174
f 36/81/16 35/82/15 29/83/15 28/84/16 

vt 0.393701 7.57468
vn 0 -0.78829 -0.615304
vt 0.393701 7.62581
vt -0.393701 7.62581
vt -0.393701 7.57468
f 37/85/17 36/86/16 28/87/16 27/88/17 

vt 0.393701 6.76428
vn 0 -0.700052 -0.714092
vt 0.393701 6.81541
vt -0.393701 6.81541
vt -0.393701 6.76428
f 38/89/18 37/90/17 27/91/17 26/92/18 

vt 0.393701 5.83475
vn 0 -0.599532 -0.800351
vt 0.393701 5.88588
vt -0.393701 5.88588
vt -0.393701 5.83475
f 39/93/19 38/94/18 26/95/18 25/96/19 

vt 0.393701 4.8024
vn 0 -0.488493 -0.872568
vt 0.393701 4.85354
vt -0.393701 4.85354
vt -0.393701 4.8024
f 40/97/20 39/98/19 25/99/19 24/100/20 

vt 0.393701 3.68535
vn 0 -0.368883 -0.929476
vt 0.393701 3.73648
vt -0.393701 3.73648
vt -0.393701 3.68535
f 41/101/21 40/102/20 24/103/20 23/104/21 

vt 0.393701 2.50319
vn 0 -0.242802 -0.970076
vt 0.393701 2.55432
vt -0.393701 2.55432
vt -0.393701 2.50319
f 42/105/22 41/106/21 23/107/21 22/108/22 

vt 0.393701 1.27666
vt 0.393701 1.32779
vt -0.393701 1.32779
vt -0.393701 1.27666
f 32/109/10 42/110/22 22/111/22 21/112/10 

usemtl FrontColor
vn -7.04992e-017 1 -4.31478e-016
f 12/37/23 10/7/23 20/38/23 16/39/23 

usemtl Color_A01
vt 1.1811 9.44882
vn 0 1 -2.87652e-016
vt 1.1811 9.06286
f 17/113/24 15/39/24 11/37/24 14/114/24 

