# Alias OBJ Model File
# Exported from SketchUp, (c) 2000-2012 Trimble Navigation Limited
# File units = meters

mtllib rakeWide.mtl

g Mesh1 Model

usemtl Color_A01
v 0.07 -0.01 -0.24
vt -2.75591 -0.393701
vn 0 -3.63683e-016 -1
v -0.07 -0.01 -0.24
vt 2.75591 -0.393701
v -0.07 0.04 -0.24
vt 2.75591 1.5748
v 0.07 0.04 -0.24
vt -2.75591 1.5748
f 1/1/1 2/2/1 3/3/1 4/4/1 

v 0.01 -0.01 -0.230197
vt -0.393701 9.06286
vn 1.39151e-032 -1 4.85677e-016
v 0.01 -0.01 -0.0553174
vt -0.393701 2.17785
v -0.01 -0.01 -0.0553174
vt 0.393701 2.17785
v -0.01 -0.01 -0.230197
vt 0.393701 9.06286
v -0.07 -0.01 -0.230197
vt 2.75591 9.06286
vt 2.75591 9.44882
vt -2.75591 9.44882
v 0.07 -0.01 -0.230197
vt -2.75591 9.06286
f 5/5/2 6/6/2 7/7/2 8/8/2 9/9/2 2/10/2 1/11/2 10/12/2 

v 0.01 0.01 -0.230197
vt 9.06286 0.393701
vn 1 0 -0
v 0.01 0.01 -0.0553174
vt 2.17785 0.393701
vt 2.17785 -0.393701
vt 9.06286 -0.393701
f 11/13/3 12/14/3 6/15/3 5/16/3 

v -0.01 0.01 -0.230197
vn 0 1 -4.83757e-016
v -0.01 0.01 -0.0553174
f 13/5/4 14/6/4 12/7/4 11/8/4 

vt -9.06286 -0.393701
vn -1 0 -0
vt -2.17785 -0.393701
vt -2.17785 0.393701
vt -9.06286 0.393701
f 8/17/5 7/18/5 14/19/5 13/20/5 

usemtl FrontColor
vt 0.393701 -0.393701
vn 2.81997e-016 2.81997e-016 -1
vt 0.393701 0.393701
vt -0.393701 0.393701
vt -0.393701 -0.393701
f 7/21/6 14/22/6 12/23/6 6/24/6 

usemtl Color_A01
vn 0 -4.57192e-016 -1
v -0.012336 0.012336 -0.0553174
vt 0.485671 0.485671
f 7/21/7 15/25/7 14/22/7

v -0.012336 -0.012336 -0.0553174
vt 0.485671 -0.485671
f 7/21/7 16/26/7 15/25/7

v 0.012336 -0.012336 -0.0553174
vt -0.485671 -0.485671
f 16/26/7 7/21/7 17/27/7

f 6/24/7 17/27/7 7/21/7

v 0.012336 0.012336 -0.0553174
vt -0.485671 0.485671
f 17/27/7 6/24/7 18/28/7

f 18/28/7 6/24/7 12/23/7

f 18/28/7 12/23/7 15/25/7

f 14/22/7 15/25/7 12/23/7

v -0.012336 0.012336 -8.49575e-019
vt -0.485671 -1.43182e-016
vn 0 1 -3.63683e-016
v 0.012336 0.012336 -8.49575e-019
vt 0.485671 -1.43182e-016
vt 0.485671 2.17785
vt -0.485671 2.17785
f 19/29/8 20/30/8 18/31/8 15/32/8 

v -0.012336 -0.012336 8.12324e-018
vn 0 3.63683e-016 1
v 0.012336 -0.012336 8.12324e-018
f 21/27/9 22/26/9 20/25/9 19/28/9 

vn 0 -1 3.63683e-016
f 22/29/10 21/30/10 16/31/10 17/32/10 

vt 3.19812e-016 -0.485671
vt -3.34478e-017 0.485671
vt -2.17785 0.485671
vt -2.17785 -0.485671
f 21/33/5 19/34/5 15/35/5 16/36/5 

vt 3.34478e-017 0.485671
vt -3.19812e-016 -0.485671
vt 2.17785 -0.485671
vt 2.17785 0.485671
f 20/37/3 22/38/3 17/39/3 18/40/3 

vn 0 0 1
v 0.07 0.04 -0.230197
v -0.07 0.04 -0.230197
f 8/24/11 13/23/11 11/22/11 5/21/11 10/2/11 23/3/11 24/4/11 9/1/11 

vt 9.06286 1.5748
vt 9.44882 -0.393701
vt 9.44882 1.5748
f 23/41/3 10/16/3 1/42/3 4/43/3 

vn 0 1 -2.87652e-016
f 4/10/12 3/11/12 24/12/12 23/9/12 

vt -9.44882 -0.393701
vt -9.06286 1.5748
vt -9.44882 1.5748
f 2/44/5 9/17/5 24/45/5 3/46/5 

