ply
format ascii 1.0
element vertex 992
property float x
property float y
property float z
property uchar diffuse_red
property uchar diffuse_green
property uchar diffuse_blue
end_header
-0.4074 0.134543 0.157086 95 111 106
-0.40734 0.136053 0.157264 73 93 96
-0.40687 0.137334 0.157634 66 88 94
-0.405994 0.138384 0.158192 62 84 90
-0.401804 0.140581 0.16059 58 78 92
-0.401744 0.142072 0.160766 56 77 95
-0.376662 0.154253 0.175022 53 78 82
-0.37594 0.155186 0.175489 56 80 84
-0.375884 0.156575 0.175653 54 92 97
-0.405951 0.134369 0.156238 103 103 100
-0.40589 0.135877 0.156416 75 78 82
-0.405017 0.136929 0.156977 61 69 79
-0.403746 0.137749 0.157725 56 70 78
-0.403685 0.13925 0.157902 55 71 76
-0.400839 0.139143 0.159389 56 71 76
-0.3996 0.139946 0.160118 55 70 75
-0.399541 0.141431 0.160293 52 70 76
-0.39948 0.142917 0.160468 48 70 71
-0.375711 0.154303 0.174072 53 72 75
-0.375323 0.155465 0.174389 53 75 78
-0.374935 0.156625 0.174705 49 78 86
-0.37521 0.158247 0.174717 54 94 97
-0.40538 0.133136 0.154826 128 131 125
-0.404912 0.13442 0.155198 118 118 113
-0.404445 0.135702 0.155569 93 93 91
-0.403576 0.136753 0.156131 72 76 80
-0.401913 0.137345 0.157071 61 75 77
-0.3987 0.137031 0.158747 60 76 77
-0.398639 0.138514 0.158922 60 75 77
-0.39819 0.13977 0.159281 59 75 78
-0.398129 0.141253 0.159456 58 76 78
-0.398069 0.142737 0.15963 55 75 75
-0.398398 0.144455 0.159621 60 77 74
-0.398337 0.145943 0.159796 61 74 75
-0.398667 0.14767 0.159788 60 75 78
-0.398997 0.149403 0.159779 58 76 80
-0.375092 0.154581 0.172967 50 74 76
-0.374373 0.155515 0.173439 45 73 76
-0.374316 0.156905 0.173603 42 74 79
-0.37426 0.158297 0.173767 47 85 88
-0.374203 0.15969 0.173931 58 102 104
-0.403468 0.134247 0.154353 125 130 122
-0.403003 0.135527 0.154725 115 116 111
-0.402139 0.136577 0.155288 94 98 94
-0.400882 0.137396 0.15604 77 87 87
-0.397679 0.137082 0.157726 70 84 85
-0.39723 0.138339 0.158087 66 82 84
-0.396782 0.139594 0.158447 64 81 84
-0.396722 0.141075 0.158621 63 82 84
-0.396275 0.142327 0.158979 62 83 82
-0.396601 0.14404 0.158969 63 84 80
-0.396927 0.14576 0.158959 62 82 81
-0.396866 0.147247 0.159134 62 81 82
-0.396805 0.148735 0.159308 62 82 83
-0.396744 0.150225 0.159483 63 83 82
-0.374472 0.154859 0.17186 40 73 74
-0.373753 0.155794 0.172335 34 72 74
-0.373696 0.157186 0.172499 33 73 77
-0.373969 0.158813 0.172507 38 77 83
-0.373912 0.16021 0.172672 47 93 97
-0.401565 0.135352 0.153882 124 131 126
-0.400705 0.136402 0.154447 118 122 118
-0.397885 0.13632 0.155964 105 104 102
-0.397045 0.137357 0.156517 84 92 94
-0.39621 0.13839 0.157067 74 87 90
-0.395763 0.139645 0.157428 68 85 89
-0.395318 0.140898 0.157787 66 85 88
-0.394873 0.142148 0.158147 67 86 86
-0.394812 0.143628 0.15832 66 87 84
-0.395135 0.145342 0.158309 63 85 84
-0.395843 0.147299 0.158111 63 85 83
-0.395782 0.148787 0.158286 64 84 83
-0.395721 0.150277 0.158461 64 84 84
-0.39566 0.151767 0.158636 64 84 86
-0.373519 0.154909 0.170907 34 71 72
-0.373131 0.156074 0.171228 27 72 73
-0.373073 0.157468 0.171391 25 73 76
-0.373346 0.159098 0.171399 28 75 80
-0.37362 0.160732 0.171406 38 84 88
-0.373562 0.162133 0.17157 49 97 102
-0.398881 0.136002 0.153802 125 131 127
-0.39686 0.136371 0.154939 123 126 120
-0.396023 0.137408 0.155494 112 110 104
-0.395575 0.138667 0.155858 91 96 96
-0.395128 0.139923 0.15622 76 89 92
-0.394299 0.140949 0.156769 70 86 89
-0.393856 0.142199 0.157129 69 86 87
-0.394177 0.143911 0.157116 67 86 86
-0.394115 0.145393 0.157289 64 87 86
-0.394437 0.147113 0.157276 64 86 85
-0.394759 0.148839 0.157263 65 85 84
-0.394698 0.150329 0.157438 64 85 85
-0.394636 0.151819 0.157612 64 84 86
-0.395345 0.153802 0.157413 62 84 85
-0.372507 0.156354 0.170118 25 72 73
-0.37278 0.157983 0.170123 23 73 74
-0.373384 0.159853 0.16997 26 73 75
-0.373991 0.161733 0.169816 32 78 79
-0.374267 0.163382 0.169821 43 89 93
-0.374543 0.165036 0.169827 57 101 107
-0.394938 0.138944 0.154645 117 114 109
-0.394107 0.139974 0.155199 95 98 99
-0.394046 0.141458 0.155373 79 90 92
-0.393601 0.142711 0.155735 70 87 89
-0.393539 0.144195 0.155908 67 86 88
-0.393478 0.145679 0.156082 65 89 88
-0.393798 0.147402 0.156067 64 88 87
-0.393736 0.148891 0.156241 65 86 87
-0.394058 0.150622 0.156226 65 85 87
-0.394766 0.152604 0.156022 64 86 86
-0.394318 0.153855 0.156386 64 87 85
-0.395803 0.15635 0.155803 65 85 84
-0.37498 0.164646 0.168051 46 79 86
-0.374921 0.166066 0.168217 55 93 98
-0.375199 0.167734 0.16822 62 105 108
-0.394237 0.140711 0.153603 119 120 117
-0.393024 0.141509 0.154351 101 105 102
-0.392962 0.142994 0.154525 83 93 92
-0.3929 0.144479 0.154698 71 89 90
-0.392838 0.145966 0.154871 67 90 89
-0.393158 0.147692 0.154854 65 89 89
-0.393863 0.149664 0.154646 66 87 89
-0.3938 0.151159 0.15482 67 86 87
-0.394509 0.153148 0.154612 67 87 86
-0.394446 0.154649 0.154787 65 89 88
-0.39477 0.156403 0.154771 64 88 87
-0.375242 0.168533 0.166757 59 97 102
-0.374169 0.169208 0.167416 64 109 114
-0.39315 0.142252 0.152751 121 124 118
-0.392704 0.14351 0.153118 108 110 106
-0.392641 0.144999 0.153291 89 95 96
-0.392961 0.146727 0.153271 74 87 91
-0.392898 0.148221 0.153445 69 87 89
-0.393219 0.149957 0.153426 69 87 89
-0.393541 0.151699 0.153407 69 87 88
-0.393864 0.153447 0.153388 68 88 89
-0.393801 0.154951 0.153563 67 90 90
-0.393352 0.156205 0.153931 64 90 88
-0.393288 0.157709 0.154106 64 87 87
-0.421888 0.179856 0.140117 64 84 85
-0.41906 0.179659 0.141685 64 83 85
-0.418082 0.180686 0.142328 63 82 86
-0.418013 0.182324 0.142519 62 84 84
-0.374607 0.168835 0.165617 57 91 94
-0.374208 0.170013 0.16595 60 101 103
-0.373811 0.171189 0.166282 69 115 115
-0.393212 0.144498 0.151311 123 125 121
-0.392764 0.145758 0.151681 109 111 109
-0.392701 0.147255 0.151855 94 96 97
-0.393022 0.148994 0.151833 75 86 92
-0.392959 0.150495 0.152008 69 85 92
-0.392895 0.151997 0.152182 68 87 91
-0.393217 0.153747 0.152161 69 89 90
-0.393153 0.155253 0.152336 68 90 90
-0.393089 0.15676 0.152511 66 90 89
-0.393026 0.158268 0.152686 65 87 87
-0.421287 0.178568 0.138558 65 85 86
-0.420754 0.179915 0.138983 65 84 86
-0.417935 0.179717 0.140561 64 83 85
-0.41696 0.180744 0.141207 63 82 84
-0.41644 0.182073 0.141624 62 82 82
-0.416371 0.18371 0.141814 53 73 77
-0.416302 0.185348 0.142004 36 69 70
-0.373571 0.170317 0.164808 60 93 97
-0.373174 0.171495 0.165142 62 104 107
-0.373113 0.172925 0.165308 74 117 116
-0.373727 0.174873 0.16514 90 118 115
-0.375366 0.177619 0.164464 102 115 112
-0.393662 0.147002 0.14966 125 127 121
-0.393598 0.148509 0.149835 114 116 110
-0.393534 0.150017 0.15001 100 101 98
-0.39347 0.151526 0.150184 80 88 92
-0.393406 0.153035 0.150359 72 88 90
-0.392954 0.154297 0.150732 69 88 90
-0.392119 0.155306 0.151302 69 88 90
-0.391288 0.156311 0.151868 68 88 88
-0.391224 0.157815 0.152043 67 88 88
-0.421078 0.179244 0.13695 67 85 87
-0.420081 0.180283 0.137615 66 85 86
-0.418174 0.180698 0.138742 65 84 85
-0.416741 0.181417 0.139627 64 83 84
-0.416219 0.18275 0.140046 64 82 82
-0.41525 0.183769 0.140693 51 71 75
-0.41518 0.185407 0.140883 35 66 70
-0.41511 0.187046 0.141073 24 63 68
-0.414593 0.18837 0.14149 21 64 68
-0.414077 0.189691 0.141905 19 65 69
-0.413563 0.191009 0.14232 19 70 68
-0.372595 0.170369 0.163833 61 89 93
-0.372199 0.171547 0.164167 61 94 99
-0.372473 0.173233 0.164165 64 108 110
-0.374444 0.176226 0.163313 79 118 118
-0.375753 0.178732 0.162795 95 122 120
-0.393337 0.149046 0.148396 124 129 122
-0.392497 0.150069 0.148973 117 119 114
-0.392433 0.151578 0.149147 103 101 103
-0.392368 0.153088 0.149322 83 87 94
-0.391918 0.15435 0.149696 73 84 92
-0.391085 0.155359 0.150268 69 85 90
-0.389496 0.155863 0.151229 68 86 90
-0.42001 0.177642 0.13562 69 90 89
-0.420403 0.179612 0.135573 68 88 88
-0.419406 0.180652 0.136242 67 86 87
-0.418874 0.181999 0.136671 65 86 87
-0.416974 0.182405 0.137803 65 85 85
-0.415997 0.18343 0.13846 63 82 81
-0.415025 0.18445 0.139113 43 68 71
-0.414059 0.185465 0.139762 26 60 68
-0.413988 0.187105 0.139952 18 60 67
-0.413472 0.188429 0.140369 16 63 66
-0.412958 0.18975 0.140786 19 64 66
-0.412444 0.191068 0.141202 17 69 68
-0.412374 0.192705 0.141391 24 73 74
-0.371558 0.171853 0.163023 61 90 95
-0.373521 0.174835 0.162163 63 99 102
-0.374825 0.177332 0.161638 71 112 115
-0.392232 0.150611 0.147531 127 130 126
-0.391395 0.151631 0.14811 119 121 119
-0.390946 0.152893 0.148486 108 105 105
-0.389734 0.153658 0.149259 93 95 97
-0.388532 0.154417 0.150027 81 88 92
-0.386964 0.154924 0.150985 72 88 89
-0.419334 0.178008 0.134241 66 90 88
-0.419726 0.179982 0.134191 68 88 88
-0.418729 0.181022 0.134865 68 87 90
-0.417738 0.182057 0.135535 66 87 89
-0.416753 0.183088 0.136201 65 86 85
-0.415773 0.184114 0.136864 58 79 78
-0.414798 0.185135 0.137523 34 60 66
-0.41383 0.186152 0.138178 21 52 61
-0.412866 0.187164 0.13883 15 55 59
-0.412796 0.188804 0.139019 15 58 60
-0.412725 0.190447 0.139209 18 61 64
-0.412654 0.19209 0.139398 18 64 68
-0.41214 0.19341 0.139817 29 71 75
-0.411626 0.194727 0.140234 44 80 83
-0.411998 0.196698 0.140196 58 86 89
-0.390358 0.151684 0.147073 128 135 131
-0.388766 0.152207 0.148054 125 126 121
-0.387567 0.152971 0.148826 115 118 114
-0.386752 0.153976 0.149395 109 109 106
-0.41805 0.181393 0.133484 79 87 94
-0.416602 0.182116 0.134399 71 86 89
-0.414713 0.182522 0.135544 65 83 83
-0.414191 0.183859 0.13597 51 72 74
-0.41412 0.185509 0.13616 27 50 60
-0.413151 0.186526 0.13682 18 47 52
-0.412633 0.187855 0.137243 15 50 53
-0.412562 0.189501 0.137432 15 54 57
-0.412046 0.190826 0.137854 17 57 62
-0.411974 0.192472 0.138044 17 58 67
-0.41146 0.193793 0.138464 37 69 74
-0.410946 0.195112 0.138884 52 81 82
-0.410875 0.196757 0.139073 60 87 87
-0.386538 0.153023 0.147797 126 133 127
-0.385725 0.154028 0.148369 126 127 122
-0.41645 0.181139 0.132587 102 114 109
-0.413205 0.180622 0.134463 73 86 90
-0.413134 0.182269 0.134652 49 72 77
-0.413062 0.183918 0.134841 33 61 67
-0.412542 0.185252 0.135268 22 47 57
-0.412471 0.186901 0.135457 16 46 52
-0.411953 0.188231 0.135882 16 49 53
-0.411436 0.189559 0.136307 16 53 56
-0.411364 0.191207 0.136496 16 55 60
-0.410849 0.192531 0.136919 18 53 63
-0.410777 0.194178 0.137108 33 64 71
-0.410264 0.195498 0.13753 40 71 78
-0.410192 0.197145 0.137719 43 75 82
-0.41012 0.198794 0.137908 42 78 83
-0.412149 0.179034 0.133146 116 123 116
-0.410741 0.179759 0.134051 102 98 92
-0.411113 0.181708 0.134001 81 76 77
-0.411041 0.183352 0.13419 54 56 66
-0.411414 0.185311 0.13414 26 46 60
-0.411342 0.186959 0.134329 14 47 59
-0.41127 0.188609 0.134518 16 50 56
-0.410753 0.189939 0.134944 21 56 60
-0.410238 0.191266 0.13537 24 57 62
-0.410165 0.192914 0.135559 30 59 65
-0.409652 0.194237 0.135983 58 73 77
-0.409139 0.195558 0.136406 73 79 82
-0.409067 0.197205 0.136595 77 79 83
-0.408995 0.198853 0.136784 74 77 84
-0.409689 0.178178 0.13274 122 128 124
-0.409617 0.179817 0.132927 119 122 114
-0.409545 0.181458 0.133115 91 94 97
-0.409915 0.18341 0.133064 53 64 76
-0.409842 0.185055 0.133252 23 48 63
-0.410213 0.187018 0.133201 11 51 63
-0.41014 0.188668 0.133389 16 58 65
-0.410068 0.190319 0.133578 39 65 70
-0.409552 0.191647 0.134006 46 68 72
-0.409038 0.192973 0.134432 60 78 78
-0.408966 0.194623 0.134621 104 101 97
-0.408014 0.195617 0.135282 114 108 104
-0.408053 0.17957 0.132044 128 137 128
-0.407981 0.181208 0.132231 89 95 99
-0.407908 0.182848 0.132418 48 64 76
-0.408715 0.185114 0.132125 24 55 66
-0.408642 0.18676 0.132313 23 63 69
-0.409011 0.188727 0.13226 40 77 79
-0.408938 0.190378 0.132449 54 87 92
-0.408865 0.19203 0.132637 68 89 94
-0.408351 0.193358 0.133066 90 104 105
-0.406962 0.19403 0.133969 119 134 128
-0.406889 0.195676 0.134157 125 137 130
-0.40693 0.179628 0.130922 130 132 124
-0.406858 0.181266 0.131109 81 82 90
-0.406785 0.182906 0.131295 45 69 77
-0.406712 0.184547 0.131482 28 71 76
-0.407515 0.186819 0.131186 34 79 83
-0.407881 0.188786 0.131131 60 96 97
-0.408249 0.190759 0.131077 58 102 106
-0.408617 0.19274 0.131022 78 112 111
-0.408102 0.19407 0.131454 105 127 121
-0.407148 0.195069 0.132126 125 135 129
-0.405372 0.179381 0.130043 123 126 121
-0.405299 0.181017 0.130229 73 75 87
-0.405226 0.182655 0.130415 40 77 81
-0.405153 0.184293 0.130601 29 80 85
-0.405514 0.186247 0.130545 44 90 95
-0.406313 0.188526 0.130246 72 109 109
-0.407117 0.190819 0.129945 64 109 112
-0.407484 0.192799 0.129889 88 124 122
-0.407409 0.194458 0.130077 112 133 128
-0.404324 0.177804 0.128736 123 133 130
-0.404251 0.179439 0.128922 106 116 117
-0.404177 0.181076 0.129107 61 74 86
-0.404104 0.182713 0.129293 33 78 83
-0.40403 0.184352 0.129479 29 81 90
-0.403956 0.185991 0.129665 51 96 103
-0.40475 0.188266 0.129363 80 116 116
-0.405547 0.190555 0.12906 77 115 116
-0.40635 0.192859 0.128755 99 128 126
-0.406275 0.194517 0.128943 118 134 129
-0.403203 0.177862 0.127615 118 128 127
-0.403129 0.179497 0.1278 91 106 110
-0.403055 0.181134 0.127985 54 77 83
-0.402981 0.182771 0.128171 31 80 83
-0.402907 0.18441 0.128356 32 85 93
-0.402833 0.18605 0.128542 56 104 110
-0.403623 0.188325 0.128237 82 123 124
-0.403548 0.189972 0.128423 90 122 122
-0.404778 0.192592 0.12787 111 132 128
-0.402082 0.17792 0.126494 113 124 123
-0.402007 0.179555 0.126679 77 95 103
-0.401933 0.181192 0.126864 46 78 85
-0.401859 0.182829 0.127049 30 82 85
-0.401784 0.184468 0.127234 40 92 96
-0.40171 0.186108 0.127419 58 113 118
-0.402065 0.188066 0.127357 76 126 130
-0.402421 0.190031 0.127296 94 129 129
-0.400532 0.177675 0.125622 105 114 114
-0.400885 0.179613 0.125557 65 88 94
-0.40081 0.18125 0.125742 38 81 87
-0.400308 0.182579 0.126174 34 82 88
-0.400661 0.184527 0.126111 52 99 101
-0.400586 0.186167 0.126296 62 115 121
-0.400511 0.187808 0.126481 74 125 132
-0.400864 0.18977 0.126418 97 133 134
-0.399487 0.176101 0.124319 134 139 131
-0.399412 0.177733 0.124502 96 102 105
-0.399337 0.179367 0.124686 57 81 89
-0.399262 0.181001 0.12487 36 79 89
-0.399187 0.182637 0.125054 38 84 94
-0.399112 0.184274 0.125238 71 112 109
-0.399462 0.186226 0.125172 68 119 122
-0.399387 0.187867 0.125357 76 128 132
-0.399738 0.189829 0.125292 100 139 137
-0.398367 0.176158 0.123199 127 133 128
-0.398292 0.177791 0.123382 87 93 100
-0.398216 0.179424 0.123565 52 78 88
-0.398141 0.181059 0.123749 36 80 91
-0.398065 0.182695 0.123932 42 89 100
-0.39799 0.184332 0.124116 82 121 118
-0.398338 0.186284 0.124049 77 119 122
-0.398262 0.187926 0.124233 90 128 131
-0.398186 0.189569 0.124417 110 138 137
-0.397247 0.176216 0.122079 115 124 127
-0.397171 0.177849 0.122262 74 87 97
-0.397095 0.179482 0.122445 46 80 89
-0.39702 0.181117 0.122628 37 84 93
-0.396944 0.182753 0.122811 49 96 106
-0.396868 0.184391 0.122994 81 127 129
-0.397214 0.186343 0.122925 89 128 128
-0.397138 0.187984 0.123109 106 133 134
-0.396203 0.174642 0.120777 129 137 134
-0.396127 0.176274 0.120959 96 112 118
-0.39605 0.177906 0.121142 59 83 95
-0.395974 0.17954 0.121324 41 81 89
-0.395898 0.181175 0.121507 41 88 95
-0.395822 0.182812 0.12169 55 105 114
-0.396166 0.18476 0.121618 75 132 139
-0.39609 0.186401 0.121801 97 136 137
-0.396013 0.188043 0.121985 116 137 137
-0.395083 0.1747 0.119657 121 130 127
-0.395006 0.176331 0.119839 79 96 104
-0.394929 0.177964 0.120021 47 80 93
-0.394853 0.179598 0.120203 38 83 91
-0.394776 0.181233 0.120386 46 95 101
-0.3947 0.18287 0.120568 59 114 121
-0.395042 0.184819 0.120494 71 133 142
-0.394965 0.18646 0.120677 97 141 144
-0.393545 0.17446 0.118796 118 122 119
-0.393885 0.176389 0.118719 72 87 94
-0.393808 0.178022 0.1189 42 84 92
-0.393315 0.179352 0.11934 40 86 95
-0.393238 0.180985 0.119522 57 103 109
-0.393577 0.182928 0.119446 68 120 127
-0.393918 0.184877 0.119371 72 131 141
-0.39384 0.186518 0.119553 96 147 147
-0.392503 0.172889 0.117497 135 140 135
-0.392426 0.174517 0.117677 108 114 116
-0.392349 0.176147 0.117858 65 82 91
-0.392272 0.177778 0.118039 38 85 92
-0.392195 0.17941 0.11822 40 90 101
-0.392117 0.181043 0.118402 69 116 119
-0.392455 0.182986 0.118324 78 129 130
-0.392793 0.184936 0.118247 78 131 135
-0.392715 0.186577 0.118429 100 139 141
-0.391385 0.172946 0.116378 126 135 134
-0.391307 0.174575 0.116559 92 106 112
-0.39123 0.176205 0.116739 57 83 91
-0.391152 0.177836 0.11692 43 88 94
-0.391074 0.179468 0.1171 43 94 108
-0.390997 0.181101 0.117281 72 126 130
-0.391332 0.183044 0.117202 80 133 135
-0.391668 0.184994 0.117122 90 131 133
-0.390344 0.171376 0.11508 139 146 138
-0.390266 0.173003 0.11526 112 127 128
-0.390188 0.174632 0.11544 77 101 108
-0.389699 0.175964 0.115882 51 86 93
-0.389621 0.177593 0.116062 45 92 98
-0.389543 0.179223 0.116242 45 102 115
-0.389876 0.181159 0.116161 68 131 140
-0.390209 0.183103 0.11608 78 136 140
-0.390544 0.185053 0.115998 96 137 136
-0.389225 0.171433 0.113962 137 145 135
-0.389147 0.173061 0.114141 97 114 116
-0.388659 0.174393 0.114585 63 95 101
-0.388581 0.176021 0.114764 46 90 97
-0.388503 0.17765 0.114944 47 97 103
-0.388424 0.17928 0.115124 54 113 121
-0.388755 0.181217 0.11504 66 135 144
-0.389498 0.18347 0.114693 78 138 143
-0.389419 0.185111 0.114874 101 140 140
-0.387698 0.171198 0.113109 131 140 129
-0.38762 0.172824 0.113288 87 102 105
-0.387541 0.174451 0.113467 56 91 98
-0.387056 0.175781 0.113911 45 93 100
-0.386977 0.177408 0.11409 51 104 109
-0.386899 0.179036 0.114269 70 127 127
-0.387226 0.18097 0.114184 67 136 144
-0.387963 0.183219 0.113834 83 142 147
-0.388293 0.18517 0.113749 109 145 144
-0.386581 0.171255 0.111992 122 133 126
-0.386502 0.172881 0.112171 78 94 101
-0.386018 0.174212 0.112616 53 92 98
-0.385939 0.175838 0.112794 45 97 104
-0.385456 0.177166 0.113238 56 112 117
-0.385781 0.179093 0.113152 82 138 135
-0.386106 0.181028 0.113065 72 136 141
-0.386433 0.182968 0.112978 90 145 147
-0.387168 0.185228 0.112624 116 148 145
-0.385463 0.171312 0.110875 112 127 129
-0.38498 0.172645 0.111321 69 93 102
-0.384901 0.17427 0.111499 50 95 102
-0.384419 0.175598 0.111945 45 101 111
-0.38434 0.177223 0.112123 59 119 128
-0.384261 0.178849 0.112301 82 143 143
-0.384986 0.181085 0.111946 79 139 140
-0.385311 0.183027 0.111857 102 145 145
-0.386043 0.185287 0.111499 125 147 144
-0.383943 0.171078 0.110028 95 117 121
-0.383864 0.172702 0.110205 60 98 103
-0.383383 0.174032 0.110652 48 99 106
-0.382904 0.175359 0.111097 46 104 117
-0.382824 0.176982 0.111274 60 127 137
-0.383144 0.178907 0.111185 80 149 152
-0.383465 0.180838 0.111094 91 144 146
-0.382827 0.171135 0.108912 82 105 110
-0.382348 0.172466 0.10936 50 97 103
-0.38187 0.173795 0.109806 46 100 108
-0.381393 0.175121 0.110252 50 114 119
-0.381313 0.176741 0.110429 61 133 140
-0.382027 0.178964 0.110068 74 146 156
-0.382346 0.180896 0.109976 92 146 151
-0.381393 0.169281 0.107892 121 131 127
-0.381313 0.170901 0.108068 74 98 106
-0.38044 0.17194 0.108787 47 101 108
-0.379572 0.172974 0.109502 45 102 112
-0.379492 0.174589 0.109677 59 120 124
-0.380199 0.176799 0.109316 65 134 143
-0.380514 0.178721 0.109222 72 142 154
-0.38083 0.18065 0.109129 95 150 153
-0.379963 0.167433 0.106876 138 145 141
-0.379883 0.16905 0.107051 108 121 124
-0.379408 0.170379 0.107499 66 97 106
-0.378152 0.171128 0.108487 43 104 110
-0.378072 0.17274 0.108662 44 105 118
-0.377992 0.174352 0.108837 67 129 133
-0.379086 0.176856 0.108203 70 138 143
-0.379399 0.178779 0.108107 79 142 148
-0.379713 0.180708 0.108012 103 148 149
-0.378458 0.167205 0.106038 127 139 139
-0.378377 0.16882 0.106213 91 115 123
-0.377125 0.169574 0.107205 58 99 109
-0.376656 0.170896 0.107651 44 105 113
-0.376189 0.172216 0.108095 45 109 123
-0.376883 0.174409 0.107729 72 139 143
-0.377581 0.176616 0.107362 78 143 145
-0.377891 0.178536 0.107265 90 142 146
-0.378595 0.180765 0.106895 112 144 147
-0.376567 0.166694 0.105476 112 131 133
-0.376098 0.16802 0.105924 75 110 118
-0.375245 0.169059 0.106643 52 102 111
-0.375164 0.170665 0.106816 46 106 114
-0.375084 0.172273 0.10699 50 117 126
-0.375774 0.174466 0.106621 71 144 149
-0.375693 0.176081 0.106795 80 146 149
-0.376388 0.178293 0.106425 102 146 147
-0.37554 0.165141 0.104195 142 148 139
-0.374687 0.166187 0.104918 100 119 122
-0.374222 0.16751 0.105365 65 106 113
-0.373758 0.168831 0.105811 49 105 111
-0.373677 0.170435 0.105984 49 109 116
-0.373596 0.172041 0.106157 58 126 130
-0.374281 0.174231 0.105786 66 141 151
-0.374584 0.176138 0.105686 79 145 151
-0.375275 0.178351 0.105312 107 148 147
-0.373663 0.164637 0.10364 140 142 135
-0.373198 0.165962 0.104088 93 112 117
-0.372736 0.167284 0.104535 60 104 111
-0.372274 0.168604 0.104981 47 106 113
-0.372193 0.170206 0.105154 51 113 121
-0.372491 0.172097 0.105053 67 133 136
-0.373173 0.174288 0.104678 63 137 149
-0.373474 0.176195 0.104577 80 145 150
-0.374162 0.178408 0.1042 111 149 145
-0.372176 0.164415 0.102812 131 139 137
-0.371714 0.165738 0.103261 83 108 117
-0.371254 0.167059 0.103708 54 105 112
-0.371172 0.16866 0.10388 45 107 117
-0.37109 0.170262 0.104052 53 117 127
-0.371387 0.172154 0.103949 71 138 141
-0.372065 0.174345 0.103571 65 136 144
-0.372365 0.176252 0.103468 90 145 146
-0.373048 0.178466 0.103087 119 148 141
-0.371154 0.162868 0.101537 142 148 142
-0.371072 0.164471 0.101709 113 131 136
-0.370611 0.165794 0.102158 69 108 118
-0.370152 0.167115 0.102606 51 108 115
-0.369694 0.168433 0.103054 46 110 120
-0.369988 0.170319 0.10295 55 122 132
-0.370283 0.172211 0.102845 73 141 146
-0.370578 0.174109 0.102741 71 138 143
-0.370875 0.176014 0.102636 105 142 143
-0.37005 0.162924 0.100433 139 147 139
-0.369591 0.164249 0.100884 92 118 125
-0.369132 0.165571 0.101334 60 110 115
-0.368675 0.16689 0.101782 49 108 113
-0.368593 0.168489 0.101953 48 113 120
-0.368885 0.170375 0.101847 58 129 137
-0.368803 0.171979 0.102019 72 145 151
-0.369095 0.173875 0.101913 78 142 144
-0.369389 0.175777 0.101807 116 144 143
-0.368571 0.162704 0.0996111 133 140 134
-0.368113 0.164027 0.100062 81 107 115
-0.368031 0.165627 0.100232 54 107 113
-0.367575 0.166946 0.100682 48 106 113
-0.367492 0.168545 0.100853 53 115 122
-0.367782 0.170432 0.100745 61 133 140
-0.367699 0.172036 0.100916 69 146 152
-0.367616 0.173641 0.101087 83 144 148
-0.367907 0.17554 0.10098 124 146 144
-0.367925 0.161434 0.0980555 142 148 140
-0.367095 0.162485 0.0987908 123 137 132
-0.367012 0.164083 0.0989608 74 104 112
-0.366557 0.165404 0.0994117 48 108 115
-0.366474 0.167002 0.0995818 47 108 117
-0.366391 0.168602 0.0997519 62 126 128
-0.366679 0.170488 0.0996421 66 137 140
-0.366596 0.172092 0.0998128 68 139 149
-0.366513 0.173697 0.0999835 88 146 151
-0.366801 0.175597 0.0998743 130 147 144
-0.366077 0.160943 0.0975203 138 145 139
-0.365994 0.16254 0.0976898 108 128 129
-0.36554 0.163862 0.098142 66 104 113
-0.365456 0.16546 0.0983116 48 107 113
-0.365004 0.166778 0.0987626 47 110 118
-0.36529 0.168658 0.098651 65 129 135
-0.365576 0.170545 0.0985393 69 137 141
-0.365492 0.172149 0.0987096 77 139 144
-0.365409 0.173754 0.09888 106 148 149
-0.364607 0.160726 0.0967041 130 139 134
-0.364523 0.162321 0.096873 90 118 122
-0.36444 0.163918 0.0970421 56 106 114
-0.363988 0.165237 0.0974943 49 106 114
-0.363904 0.166834 0.0976634 48 113 122
-0.364188 0.168714 0.0975499 66 135 141
-0.364104 0.170315 0.0977195 73 140 145
-0.364389 0.172205 0.0976062 91 142 144
-0.364305 0.173811 0.0977762 126 149 148
-0.363507 0.160782 0.0956047 121 133 129
-0.363423 0.162377 0.0957733 75 110 116
-0.363339 0.163974 0.0959419 50 107 115
-0.362889 0.165293 0.0963953 48 107 115
-0.362805 0.16689 0.096564 51 119 127
-0.363087 0.168771 0.0964487 63 139 146
-0.363002 0.170372 0.0966178 71 143 148
-0.362918 0.171974 0.0967871 97 146 147
-0.362492 0.159243 0.0943371 145 152 146
-0.362407 0.160837 0.0945052 112 126 128
-0.361958 0.162159 0.0949599 68 104 115
-0.361874 0.163753 0.095128 47 106 117
-0.361789 0.165349 0.0952962 48 108 119
-0.361705 0.166946 0.0954645 59 127 132
-0.361985 0.168827 0.0953473 61 137 147
-0.3619 0.170428 0.095516 72 142 150
-0.361815 0.172031 0.0956849 104 149 149
-0.361029 0.159028 0.0935263 137 147 146
-0.360944 0.160621 0.0936938 99 119 128
-0.360859 0.162214 0.0938614 61 103 115
-0.360775 0.163809 0.0940291 47 106 116
-0.36069 0.165405 0.0941969 50 110 122
-0.360605 0.167002 0.0943648 67 133 136
-0.36052 0.1686 0.0945329 62 135 145
-0.360798 0.170485 0.0944141 80 142 148
-0.360713 0.172087 0.0945826 112 150 148
-0.35993 0.159084 0.0924283 123 140 140
-0.359845 0.160676 0.0925954 82 117 124
-0.35976 0.16227 0.0927626 54 106 114
-0.359675 0.163865 0.09293 48 108 116
-0.35959 0.165461 0.0930974 52 115 125
-0.359505 0.167058 0.093265 70 138 143
-0.359419 0.168656 0.0934326 66 136 142
-0.359334 0.170256 0.0936004 93 144 146
-0.359249 0.171856 0.0937684 124 151 147
-0.358917 0.157547 0.0911636 151 156 145
-0.358832 0.159139 0.0913302 106 129 129
-0.358747 0.160732 0.0914969 68 113 119
-0.358661 0.162326 0.0916637 50 108 116
-0.358576 0.163921 0.0918307 48 111 119
-0.35849 0.165517 0.0919978 52 122 131
-0.358404 0.167114 0.0921649 68 142 150
-0.358319 0.168713 0.0923322 71 139 143
-0.358233 0.170312 0.0924997 108 147 146
-0.357819 0.157603 0.0900656 147 154 142
-0.357733 0.159195 0.0902319 94 115 119
-0.357648 0.160787 0.0903982 61 107 115
-0.357562 0.162381 0.0905647 49 107 117
-0.357476 0.163977 0.0907312 49 113 122
-0.35739 0.165573 0.0908979 55 128 136
-0.357304 0.16717 0.0910648 64 141 152
-0.357218 0.168769 0.0912317 74 142 147
-0.357132 0.170368 0.0913987 117 150 148
-0.356721 0.157658 0.0889675 138 147 140
-0.356635 0.15925 0.0891334 89 109 116
-0.356549 0.160843 0.0892993 57 104 114
-0.356462 0.162437 0.0894654 47 107 117
-0.356376 0.164032 0.0896316 53 117 124
-0.35629 0.165629 0.0897979 65 133 138
-0.356203 0.167226 0.0899644 62 137 148
-0.356117 0.168825 0.0901309 82 145 150
-0.35603 0.170425 0.0902976 124 149 147
-0.355354 0.155857 0.0879997 146 152 147
-0.355267 0.157446 0.0881648 122 139 142
-0.355536 0.159305 0.0880347 76 109 116
-0.355449 0.160898 0.0882003 53 107 114
-0.355363 0.162493 0.088366 47 109 119
-0.355276 0.164088 0.0885318 56 123 129
-0.355189 0.165685 0.0886978 68 139 142
-0.355102 0.167282 0.0888639 68 135 143
-0.355016 0.168881 0.08903 99 147 150
-0.354929 0.170481 0.0891963 132 151 147
-0.353904 0.155648 0.0871997 142 152 142
-0.35417 0.157501 0.0870679 95 117 127
-0.354437 0.159361 0.0869359 61 108 116
-0.35435 0.160954 0.0871011 52 106 114
-0.354263 0.162548 0.0872664 48 110 121
-0.354176 0.164144 0.0874319 57 126 135
-0.354089 0.165741 0.0875975 69 140 146
-0.354001 0.167339 0.0877632 76 138 142
-0.353914 0.168938 0.087929 121 151 150
-0.352458 0.15544 0.0864017 142 147 139
-0.352722 0.15729 0.0862686 85 105 114
-0.352986 0.159147 0.0861353 51 108 117
-0.35325 0.16101 0.0860017 47 106 116
-0.353163 0.162604 0.0861667 49 114 124
-0.353075 0.1642 0.0863318 57 130 140
-0.352988 0.165797 0.086497 67 141 150
-0.3529 0.167395 0.0866623 83 143 145
-0.352813 0.168994 0.0868277 130 149 149
-0.351364 0.155495 0.0853078 131 140 138
-0.351975 0.157612 0.0848735 77 100 113
-0.351888 0.159202 0.0850377 49 106 116
-0.3518 0.160793 0.0852019 46 108 117
-0.352063 0.16266 0.0850668 55 120 126
-0.351975 0.164256 0.0852315 60 133 140
-0.351887 0.165853 0.0853963 66 140 150
-0.351799 0.167451 0.0855613 87 146 151
-0.351711 0.16905 0.0857263 131 153 150
-0.350358 0.153966 0.0840507 142 151 145
-0.35027 0.155549 0.0842138 111 132 136
-0.350878 0.157667 0.0837761 67 104 113
-0.35079 0.159257 0.0839399 50 106 114
-0.350702 0.160849 0.0841037 47 109 118
-0.350962 0.162716 0.0839667 62 128 131
-0.350874 0.164312 0.084131 67 137 140
-0.350786 0.165909 0.0842955 75 139 144
-0.350697 0.167507 0.0844601 104 149 150
-0.350261 0.168823 0.0849249 141 157 151
-0.349264 0.15402 0.0829569 136 148 140
-0.349521 0.155868 0.0828178 92 121 126
-0.349433 0.157455 0.0829809 55 107 114
-0.349692 0.159313 0.0828419 48 105 115
-0.349603 0.160904 0.0830054 48 112 121
-0.349862 0.162771 0.0828664 62 132 139
-0.349773 0.164368 0.0830304 68 139 143
-0.349684 0.165965 0.0831945 84 141 144
-0.349249 0.167282 0.0836606 121 151 151
-0.348514 0.154337 0.0815594 133 144 138
-0.348425 0.155923 0.0817219 80 109 117
-0.348337 0.157511 0.0818846 51 109 115
-0.348248 0.159099 0.0820474 49 107 113
-0.348504 0.16096 0.0819069 51 118 124
-0.348761 0.162827 0.081766 62 135 143
-0.348672 0.164423 0.0819296 69 141 147
-0.348583 0.166021 0.0820933 93 145 146
-0.348149 0.167338 0.0825606 132 153 150
-0.347507 0.152807 0.0803016 150 159 154
-0.347418 0.154392 0.0804637 122 136 137
-0.347329 0.155978 0.0806259 74 104 114
-0.34724 0.157566 0.0807882 50 108 115
-0.347151 0.159154 0.0809506 48 109 115
-0.347405 0.161015 0.0808082 60 127 130
-0.34766 0.162883 0.0806654 62 135 144
-0.347571 0.164479 0.0808287 70 141 148
-0.347481 0.166077 0.080992 101 149 150
-0.347048 0.167395 0.0814604 140 156 151
-0.346411 0.152861 0.0792061 140 152 151
-0.346322 0.154447 0.0793678 106 129 134
-0.346233 0.156033 0.0795297 66 105 114
-0.346143 0.157621 0.0796916 50 107 116
-0.346054 0.15921 0.0798537 50 108 121
-0.346306 0.161071 0.0797093 67 132 136
-0.346559 0.162939 0.0795647 64 135 143
-0.346469 0.164535 0.0797275 79 141 147
-0.34638 0.166133 0.0798905 113 153 151
-0.345316 0.152916 0.0781105 128 144 142
-0.345226 0.154502 0.0782718 86 120 127
-0.345136 0.156088 0.0784333 56 106 115
-0.345047 0.157676 0.0785948 49 107 115
-0.344957 0.159265 0.0787565 52 113 124
-0.345207 0.161127 0.0786103 69 137 143
-0.345458 0.162994 0.0784637 68 136 143
-0.345368 0.164591 0.0786262 96 143 146
-0.345278 0.166189 0.0787888 129 155 151
-0.34422 0.152971 0.0770147 122 136 134
-0.34413 0.154557 0.0771756 74 110 119
-0.344039 0.156143 0.0773367 50 106 117
-0.343949 0.157731 0.0774979 49 108 117
-0.343859 0.15932 0.0776592 54 120 128
-0.344108 0.161182 0.0775111 66 139 148
-0.344017 0.162776 0.0776729 71 138 146
-0.344266 0.164647 0.0775248 108 147 148
-0.343836 0.165966 0.0779967 141 157 152
-0.343214 0.151441 0.0757582 156 163 155
-0.343123 0.153026 0.0759187 115 129 131
-0.343033 0.154611 0.0760793 69 105 115
-0.342943 0.156198 0.07624 49 107 117
-0.342852 0.157786 0.0764008 51 111 120
-0.342762 0.159376 0.0765618 61 127 132
-0.343008 0.161238 0.0764117 62 137 149
-0.342917 0.162831 0.0765731 74 141 150
-0.342826 0.164426 0.0767346 116 153 153
-0.342735 0.166022 0.0768962 148 161 154
-0.342118 0.151495 0.0746624 143 155 151
-0.341692 0.15282 0.0751354 99 122 128
-0.341601 0.154404 0.0752954 62 105 114
-0.34151 0.155989 0.0754555 48 108 117
-0.341755 0.157842 0.0753036 52 115 123
-0.341664 0.159431 0.0754641 69 133 136
-0.341908 0.161293 0.0753122 62 135 145
-0.341817 0.162887 0.0754732 85 144 149
-0.341726 0.164482 0.0756343 126 158 154
-0.341299 0.1658 0.0761075 150 163 155
-0.340688 0.151292 0.0738811 128 142 142
-0.340264 0.152616 0.0743541 83 116 123
-0.340173 0.154198 0.0745135 56 107 114
-0.340415 0.156044 0.07436 48 109 117
-0.340324 0.15763 0.0745198 51 119 126
-0.340566 0.159486 0.0743663 70 140 144
-0.340808 0.161349 0.0742125 67 136 144
-0.340717 0.162943 0.0743731 107 151 150
-0.340625 0.164538 0.0745339 141 163 155
-0.340017 0.150021 0.0723111 163 169 157
-0.339262 0.15109 0.0731017 115 126 129
-0.33917 0.15267 0.0732607 71 109 116
-0.339079 0.154252 0.0734197 52 107 114
-0.338988 0.155835 0.0735788 49 110 117
-0.339227 0.157686 0.0734238 53 123 132
-0.339467 0.159542 0.0732684 65 142 151
-0.339708 0.161404 0.0731126 69 140 148
-0.339616 0.162998 0.0732729 127 160 158
-0.33826 0.149564 0.07185 154 162 155
-0.337839 0.150888 0.0723243 102 116 122
-0.337748 0.152466 0.0724827 63 105 113
-0.337985 0.154307 0.0723257 49 107 113
-0.337893 0.15589 0.0724845 52 114 119
-0.338131 0.157741 0.0723275 59 130 136
-0.3387 0.159867 0.0718528 61 139 150
-0.338608 0.16146 0.0720126 75 141 153
-0.338516 0.163054 0.0721725 133 166 163
-0.336839 0.149364 0.0710746 135 150 151
-0.33642 0.150686 0.071549 87 113 122
-0.336655 0.152521 0.0713904 57 105 113
-0.336563 0.154101 0.0715485 48 107 115
-0.336798 0.155945 0.07139 55 117 124
-0.337363 0.158063 0.0709128 67 135 138
-0.3376 0.159922 0.070753 63 134 146
-0.337508 0.161516 0.0709124 93 146 154
-0.337415 0.16311 0.0710719 141 169 162
-0.335422 0.149165 0.0703011 115 135 138
-0.33533 0.15074 0.0704584 71 113 119
-0.335238 0.152317 0.0706158 53 106 113
-0.33547 0.154156 0.0704557 49 109 117
-0.335704 0.156 0.0702953 55 123 129
-0.336265 0.158118 0.0698147 68 139 143
-0.3365 0.159978 0.069653 71 135 144
-0.336407 0.161571 0.069812 119 154 155
-0.333686 0.148713 0.0698476 103 119 121
-0.333916 0.15054 0.0696863 60 109 116
-0.334146 0.152372 0.0695247 50 106 116
-0.334377 0.15421 0.0693627 51 112 120
-0.334934 0.156319 0.0688798 57 128 133
-0.335166 0.158173 0.0687165 67 140 147
-0.3354 0.160033 0.0685528 77 138 148
-0.335634 0.1619 0.0683888 136 161 159
-0.332599 0.148767 0.06876 94 110 117
-0.332506 0.150339 0.0689161 59 106 114
-0.333055 0.152426 0.0684334 50 106 115
-0.333284 0.154265 0.0682695 57 117 123
-0.333837 0.156374 0.0677832 64 132 137
-0.334068 0.158228 0.067618 66 138 149
-0.334625 0.16036 0.0671281 81 144 153
-0.334531 0.161955 0.0672866 143 168 161
-0.331511 0.148822 0.0676723 80 109 115
-0.331737 0.150648 0.0675073 56 105 111
-0.332284 0.152739 0.0670196 50 107 114
-0.33219 0.15432 0.0671762 60 122 126
-0.332418 0.156165 0.0670102 67 135 138
-0.332969 0.158284 0.0665194 71 136 144
-0.333523 0.160415 0.0660261 103 149 150
-0.333428 0.162011 0.0661842 149 171 161
-0.330516 0.147305 0.0664292 99 118 126
-0.330741 0.149128 0.066262 61 108 114
-0.330965 0.150958 0.0660944 52 105 112
-0.331191 0.152794 0.0659265 50 109 119
-0.331097 0.154375 0.0660827 60 125 135
-0.331322 0.15622 0.0659148 68 138 145
-0.33187 0.158339 0.0654206 81 143 147
-0.332098 0.1602 0.0652513 130 160 157
-0.332003 0.161794 0.0654088 153 170 163
-0.329745 0.147609 0.0650174 91 103 112
-0.329651 0.149183 0.0651725 57 107 113
-0.329874 0.151013 0.065003 50 106 112
-0.330097 0.152849 0.0648332 52 114 121
-0.330003 0.15443 0.0649891 60 130 138
-0.329909 0.156012 0.065145 66 140 149
-0.330132 0.15786 0.0649756 84 145 152
-0.330676 0.159985 0.0644785 146 171 163
-0.328655 0.147663 0.063928 84 100 113
-0.328877 0.14949 0.0637564 55 106 113
-0.329098 0.151323 0.0635844 51 106 114
-0.329004 0.152903 0.0637398 60 118 125
-0.328909 0.154484 0.0638953 63 130 139
-0.328814 0.156066 0.0640509 67 137 149
-0.328719 0.15765 0.0642065 95 151 156
-0.328941 0.159502 0.0640355 154 178 168
-0.32829 0.146645 0.0620268 112 129 140
-0.328195 0.148221 0.0621815 68 104 116
-0.3281 0.149799 0.0623363 53 107 116
-0.32832 0.151635 0.0621617 51 109 119
-0.328225 0.153217 0.0623169 64 126 132
-0.3275 0.154278 0.0631294 67 135 141
-0.327405 0.155858 0.0632844 80 139 147
-0.32731 0.157439 0.0634395 118 155 157
-0.326902 0.158755 0.0639213 155 174 167
-0.327197 0.146699 0.0609345 95 110 118
-0.327102 0.148275 0.0610888 57 115 124
-0.327321 0.150109 0.0609121 51 116 124
-0.327225 0.15169 0.0610668 53 120 128
-0.32713 0.153272 0.0612216 63 134 140
-0.326408 0.154333 0.0620368 72 142 147
-0.326 0.155651 0.0625199 99 149 152
-0.324975 0.15644 0.0636539 142 165 162
-0.326105 0.146753 0.0598421 84 99 108
-0.326009 0.14833 0.059996 59 121 127
-0.326226 0.150163 0.0598174 57 122 131
-0.32613 0.151744 0.0599717 64 134 140
-0.325722 0.153067 0.0604584 69 142 149
-0.325004 0.154127 0.0612742 73 148 155
-0.323675 0.154663 0.0627392 100 157 161
-0.325012 0.146807 0.0587494 68 96 105
-0.324916 0.148384 0.058903 55 118 124
-0.32482 0.149962 0.0590567 60 125 135
-0.324724 0.151542 0.0592104 69 138 145
-0.3237 0.152347 0.0603601 71 144 151
-0.322076 0.152635 0.062154 77 147 156
-0.321678 0.153942 0.0626317 107 159 162
-0.324636 0.145783 0.05683 97 106 115
-0.323919 0.146861 0.0576566 56 99 108
-0.323823 0.148438 0.0578098 51 116 123
-0.323418 0.149762 0.0582979 61 128 136
-0.322706 0.150828 0.0591175 67 139 146
-0.321695 0.151633 0.0602625 69 143 150
-0.320692 0.152433 0.0613982 85 147 154
-0.320295 0.15374 0.0618758 120 159 160
-0.323541 0.145837 0.0557343 87 90 101
-0.322519 0.146665 0.0569004 50 105 112
-0.322115 0.147988 0.0573886 52 119 125
-0.321713 0.149309 0.0578755 62 131 139
-0.320705 0.15012 0.0590251 67 139 147
-0.320006 0.151179 0.0598369 67 141 150
-0.319311 0.152233 0.0606443 94 149 154
-0.318916 0.153538 0.0611219 134 163 161
-0.322137 0.145642 0.0549789 76 88 100
-0.321122 0.146469 0.0561461 49 109 117
-0.319813 0.147041 0.0576372 56 124 130
-0.319717 0.148607 0.0577885 63 134 141
-0.31902 0.149669 0.0586031 66 139 148
-0.318624 0.150979 0.0590843 67 139 151
-0.317933 0.152032 0.0598923 102 152 157
-0.317837 0.153592 0.0600429 146 169 163
-0.322371 0.145113 0.0523586 104 113 122
-0.320432 0.145199 0.0545652 63 94 103
-0.318825 0.145531 0.0564016 51 113 121
-0.31813 0.146599 0.0572195 59 127 134
-0.318034 0.14816 0.05737 62 136 144
-0.31764 0.149472 0.0578524 65 139 147
-0.316951 0.150528 0.0586632 75 141 150
-0.316854 0.152087 0.0588135 112 157 158
-0.316758 0.153646 0.0589638 156 175 167
-0.321271 0.145167 0.0512582 88 97 105
-0.318136 0.144266 0.05483 54 101 106
-0.317145 0.145092 0.0559875 52 119 125
-0.316752 0.146405 0.0564712 61 131 138
-0.316655 0.147965 0.0566212 63 138 146
-0.316263 0.149275 0.0571035 65 139 148
-0.315872 0.150582 0.0575847 89 145 151
-0.315775 0.152141 0.0577345 129 163 160
-0.316456 0.14383 0.0544198 50 106 111
-0.315768 0.1449 0.0552411 53 123 128
-0.315671 0.146459 0.0553906 63 134 139
-0.31528 0.14777 0.0558742 64 139 146
-0.31489 0.149078 0.0563565 65 138 149
-0.314501 0.150384 0.0568377 103 152 155
-0.314404 0.151941 0.056987 143 168 163
-0.314785 0.143396 0.0540118 51 110 116
-0.314688 0.144954 0.0541608 57 126 131
-0.314298 0.146266 0.0546455 64 135 140
-0.313909 0.147575 0.055129 65 138 145
-0.313521 0.148882 0.0556114 68 139 149
-0.313134 0.150187 0.0560925 108 156 158
-0.313036 0.151742 0.0562412 152 172 166
-0.313123 0.142965 0.0536057 56 106 115
-0.313026 0.144519 0.0537539 59 124 130
-0.312928 0.146073 0.0539023 67 136 138
-0.312541 0.147381 0.0543858 65 138 143
-0.312155 0.148687 0.0548681 79 141 148
-0.31177 0.14999 0.0553492 117 158 159
-0.311672 0.151543 0.0554974 153 173 167
-0.311948 0.144572 0.0526761 70 110 111
-0.311562 0.145881 0.0531609 76 121 120
-0.311177 0.147188 0.0536444 70 128 133
-0.310507 0.148244 0.0544603 94 139 144
-0.309841 0.149296 0.055272 129 159 158
-0.309744 0.150843 0.0554192 155 174 168
-0.310199 0.14569 0.0524213 88 93 93
-0.309532 0.146749 0.0532401 79 100 106
-0.308208 0.148855 0.0548648 132 148 151
-0.30783 0.150149 0.0553414 157 173 166
-0.307238 0.147366 0.0536508 84 78 93
-0.306209 0.149707 0.0549351 154 164 160
-0.305144 0.14976 0.0538709 150 162 154
-0.30408 0.149813 0.0528065 150 160 147
-0.303561 0.150362 0.0510728 152 162 151
-0.304418 0.152173 0.0476244 156 171 161
-0.30473 0.153503 0.0448107 159 180 169
-0.305329 0.155113 0.0416019 164 178 169
