#Exported from SketchUp with ZbylsXExporter

mtllib hoe6.mtl

  v   0.0100  -0.0100  -0.0635
  v   0.0100   0.0000  -0.0700
  v   0.0100   0.0000  -0.0635
  v   0.0100  -0.0100  -0.0700
  v  -0.0100  -0.0100  -0.0700
  v  -0.0000  -0.0100  -0.0635
  v  -0.0100  -0.0100  -0.0635
  v   0.0000  -0.0100  -0.0700
  v   0.0149   0.0049   0.0000
  v  -0.0149  -0.0149   0.0000
  v   0.0149  -0.0149   0.0000
  v  -0.0149   0.0049   0.0000
  v  -0.0149  -0.0149  -0.0635
  v   0.0149  -0.0149  -0.0635
  v  -0.0149   0.0049  -0.0635
  v  -0.0100  -0.0000  -0.0635
  v   0.0149   0.0049  -0.0635
  v  -0.0100   0.0000  -0.0700
  v  -0.0026  -0.0097  -0.0700
  v  -0.0050  -0.0087  -0.0700
  v  -0.0071  -0.0071  -0.0700
  v  -0.0087  -0.0050  -0.0700
  v  -0.0097  -0.0026  -0.0700
  v  -0.0100   0.0000  -0.2302
  v  -0.0097  -0.0026  -0.2400
  v  -0.0100   0.0000  -0.2400
  v  -0.0087  -0.0050  -0.2400
  v  -0.0071  -0.0071  -0.2400
  v  -0.0050  -0.0087  -0.2400
  v  -0.0026  -0.0097  -0.2400
  v  -0.0000  -0.0100  -0.2400
  v  -0.0026   0.0000  -0.2399
  v  -0.0015   0.0000  -0.2400
  v  -0.0050   0.0000  -0.2389
  v  -0.0071   0.0000  -0.2373
  v  -0.0087   0.0000  -0.2352
  v  -0.0097   0.0000  -0.2328
  v   0.0026  -0.0000  -0.2399
  v   0.0100   0.0000  -0.2400
  v   0.0015  -0.0000  -0.2400
  v   0.0050  -0.0000  -0.2389
  v   0.0071  -0.0000  -0.2373
  v   0.0087  -0.0000  -0.2352
  v   0.0097  -0.0000  -0.2328
  v   0.0100  -0.0000  -0.2302
  v   0.0097  -0.0026  -0.0700
  v   0.0087  -0.0050  -0.0700
  v   0.0071  -0.0071  -0.0700
  v   0.0050  -0.0087  -0.0700
  v   0.0026  -0.0097  -0.0700
  v   0.0026  -0.0097  -0.2400
  v   0.0050  -0.0087  -0.2400
  v   0.0071  -0.0071  -0.2400
  v   0.0087  -0.0050  -0.2400
  v   0.0097  -0.0026  -0.2400
  v  -0.0180   0.0400  -0.2339
  v  -0.0200   0.0400  -0.2302
  v  -0.0100   0.0100  -0.2302
  v  -0.0015   0.0400  -0.2400
  v  -0.0032   0.0400  -0.2404
  v  -0.0074   0.0400  -0.2403
  v  -0.0115   0.0400  -0.2391
  v  -0.0151   0.0400  -0.2369
  v   0.0032   0.0400  -0.2404
  v   0.0015   0.0400  -0.2400
  v   0.0074   0.0400  -0.2403
  v   0.0115   0.0400  -0.2391
  v   0.0151   0.0400  -0.2369
  v   0.0180   0.0400  -0.2339
  v   0.0200   0.0400  -0.2302
  v   0.0100   0.0100  -0.2302

  vt   0.0000   0.0000

  vn   1.0000  -0.0000  -0.0000
  vn   0.0000  -1.0000  -0.0000
  vn   0.0000   0.0000   1.0000
  vn   0.0000  -0.0000  -1.0000
  vn   1.0000   0.0000  -0.0000
  vn   0.0000   1.0000  -0.0000
  vn  -1.0000   0.0000  -0.0000
  vn   0.0000  -1.0000   0.0000
  vn  -0.0000  -1.0000  -0.0000
  vn  -1.0000  -0.0000  -0.0000
  vn  -0.0000  -0.0000  -1.0000
  vn  -0.9914  -0.1305   0.0000
  vn  -0.9659  -0.2588   0.0000
  vn  -0.8660  -0.5000   0.0000
  vn  -0.7071  -0.7071   0.0000
  vn  -0.5000  -0.8660   0.0000
  vn  -0.2588  -0.9659   0.0000
  vn  -0.1305  -0.9914   0.0000
  vn  -0.0000   1.0000  -0.0000
  vn  -0.0000   1.0000   0.0000
  vn   0.2588  -0.9659   0.0000
  vn   0.1305  -0.9914   0.0000
  vn   0.5000  -0.8660   0.0000
  vn   0.7071  -0.7071   0.0000
  vn   0.8660  -0.5000   0.0000
  vn   0.9659  -0.2588   0.0000
  vn   0.9914  -0.1305   0.0000
  vn  -0.8042  -0.1725  -0.5688
  vn  -0.9386  -0.2198  -0.2659
  vn  -0.8884  -0.1994  -0.4135
  vn  -0.9698  -0.2425   0.0264
  vn   0.8884   0.1994   0.4135
  vn  -0.0000  -0.0000   1.0000
  vn   0.2358  -0.0000  -0.9718
  vn  -0.1204  -0.0156  -0.9926
  vn   0.1024  -0.0075  -0.9947
  vn  -0.2460  -0.0353  -0.9686
  vn  -0.1657  -0.0352  -0.9856
  vn  -0.4855  -0.0789  -0.8707
  vn  -0.4160  -0.0773  -0.9061
  vn  -0.6902  -0.1265  -0.7124
  vn  -0.6341  -0.1244  -0.7631
  vn  -0.8449  -0.1747  -0.5055
  vn  -0.1024  -0.0075  -0.9947
  vn   0.2460  -0.0353  -0.9686
  vn   0.1204  -0.0156  -0.9926
  vn  -0.1204   0.0156   0.9926
  vn  -0.2460   0.0353   0.9686
  vn   0.1024   0.0075   0.9947
  vn  -0.2358   0.0000  -0.9718
  vn   0.2358  -0.0000   0.9718
  vn   0.1657  -0.0352  -0.9856
  vn   0.4855  -0.0789  -0.8707
  vn  -0.4855   0.0789   0.8707
  vn  -0.1657   0.0352   0.9856
  vn   0.4160  -0.0773  -0.9061
  vn   0.6902  -0.1265  -0.7124
  vn  -0.6902   0.1265   0.7124
  vn  -0.4160   0.0773   0.9061
  vn   0.6341  -0.1244  -0.7631
  vn   0.8449  -0.1747  -0.5055
  vn  -0.8449   0.1747   0.5055
  vn  -0.6341   0.1244   0.7631
  vn   0.8042  -0.1725  -0.5688
  vn   0.9386  -0.2198  -0.2659
  vn  -0.9386   0.2198   0.2659
  vn  -0.8042   0.1725   0.5688
  vn   0.9348  -0.2234  -0.2760
  vn   0.9674  -0.2419  -0.0747
  vn  -0.0000   0.0000  -1.0000
  vn  -0.9674   0.2419   0.0747
  vn  -0.9348   0.2234   0.2760

usemtl __Color_A01_
f   1/1/1   2/1/1   3/1/1
f   2/1/1   1/1/1   4/1/1
f   5/1/2   6/1/2   7/1/2
f   6/1/2   5/1/2   8/1/2
f   9/1/3   10/1/3   11/1/3
f   10/1/3   9/1/3   12/1/3
f   13/1/4   7/1/4   14/1/4
f   7/1/4   13/1/4   15/1/4
f   7/1/4   15/1/4   16/1/4
f   16/1/4   15/1/4   3/1/4
f   14/1/4   1/1/4   17/1/4
f   1/1/4   14/1/4   7/1/4
f   1/1/4   7/1/4   6/1/4
f   17/1/4   1/1/4   3/1/4
f   17/1/4   3/1/4   15/1/4
f   14/1/5   9/1/5   11/1/5
f   9/1/5   14/1/5   17/1/5
f   9/1/6   15/1/6   12/1/6
f   15/1/6   9/1/6   17/1/6
f   12/1/7   13/1/7   10/1/7
f   13/1/7   12/1/7   15/1/7
f   14/1/8   10/1/8   13/1/8
f   10/1/8   14/1/8   11/1/8
f   8/1/9   1/1/9   6/1/9
f   1/1/9   8/1/9   4/1/9
f   18/1/10   7/1/10   16/1/10
f   7/1/10   18/1/10   5/1/10
f   5/1/11   19/1/11   8/1/11
f   19/1/11   5/1/11   20/1/11
f   20/1/11   5/1/11   21/1/11
f   21/1/11   5/1/11   22/1/11
f   22/1/11   5/1/11   23/1/11
f   23/1/11   5/1/11   18/1/11
f   24/1/12   23/1/13   18/1/12
f   23/1/13   24/1/12   25/1/13
f   25/1/13   24/1/12   26/1/12
f   25/1/13   22/1/14   23/1/13
f   22/1/14   25/1/13   27/1/14
f   27/1/14   21/1/15   22/1/14
f   21/1/15   27/1/14   28/1/15
f   29/1/16   21/1/15   28/1/15
f   21/1/15   29/1/16   20/1/16
f   30/1/17   20/1/16   29/1/16
f   20/1/16   30/1/17   19/1/17
f   31/1/18   19/1/17   30/1/17
f   19/1/17   31/1/18   8/1/18
f   26/1/19   32/1/19   33/1/19
f   32/1/19   26/1/19   34/1/19
f   34/1/19   26/1/19   35/1/19
f   35/1/19   26/1/19   36/1/19
f   36/1/19   26/1/19   37/1/19
f   37/1/19   26/1/19   24/1/19
f   38/1/20   39/1/20   40/1/20
f   39/1/20   38/1/20   41/1/20
f   39/1/20   41/1/20   42/1/20
f   39/1/20   42/1/20   43/1/20
f   39/1/20   43/1/20   44/1/20
f   39/1/20   44/1/20   45/1/20
f   4/1/4   46/1/4   2/1/4
f   46/1/4   4/1/4   47/1/4
f   47/1/4   4/1/4   48/1/4
f   48/1/4   4/1/4   49/1/4
f   49/1/4   4/1/4   50/1/4
f   50/1/4   4/1/4   8/1/4
f   51/1/21   8/1/22   31/1/22
f   8/1/22   51/1/21   50/1/21
f   51/1/21   49/1/23   50/1/21
f   49/1/23   51/1/21   52/1/23
f   52/1/23   48/1/24   49/1/23
f   48/1/24   52/1/23   53/1/24
f   53/1/24   47/1/25   48/1/24
f   47/1/25   53/1/24   54/1/25
f   54/1/25   46/1/26   47/1/25
f   46/1/26   54/1/25   55/1/26
f   55/1/26   2/1/27   46/1/26
f   2/1/27   55/1/26   45/1/27
f   45/1/27   55/1/26   39/1/27
f   56/1/28   37/1/29   57/1/30
f   37/1/29   24/1/31   57/1/30
f   57/1/32   24/1/31   58/1/33
f   59/1/34   33/1/35   60/1/36
f   60/1/36   33/1/35   32/1/37
f   60/1/36   32/1/37   61/1/38
f   61/1/38   32/1/37   34/1/39
f   62/1/40   35/1/41   63/1/42
f   35/1/41   36/1/43   63/1/42
f   61/1/38   34/1/39   62/1/40
f   62/1/40   34/1/39   35/1/41
f   63/1/42   36/1/43   56/1/28
f   36/1/43   37/1/29   56/1/28
f   64/1/44   38/1/45   40/1/46
f   40/1/47   38/1/48   64/1/49
f   64/1/44   40/1/46   65/1/50
f   65/1/51   40/1/47   64/1/49
f   66/1/52   41/1/53   38/1/45
f   38/1/48   41/1/54   66/1/55
f   66/1/52   38/1/45   64/1/44
f   64/1/49   38/1/48   66/1/55
f   67/1/56   42/1/57   41/1/53
f   41/1/54   42/1/58   67/1/59
f   67/1/56   41/1/53   66/1/52
f   66/1/55   41/1/54   67/1/59
f   42/1/57   68/1/60   43/1/61
f   43/1/62   68/1/63   42/1/58
f   68/1/60   42/1/57   67/1/56
f   67/1/59   42/1/58   68/1/63
f   43/1/61   69/1/64   44/1/65
f   44/1/66   69/1/67   43/1/62
f   68/1/60   69/1/64   43/1/61
f   43/1/62   69/1/67   68/1/63
f   70/1/68   45/1/69   71/1/70
f   71/1/3   45/1/71   70/1/72
f   44/1/65   70/1/68   45/1/69
f   45/1/71   70/1/72   44/1/66
f   69/1/64   70/1/68   44/1/65
f   44/1/66   70/1/72   69/1/67
f   26/1/11   40/1/11   25/1/11
f   40/1/11   26/1/11   33/1/11
f   40/1/11   33/1/11   65/1/11
f   65/1/11   33/1/11   59/1/11
f   30/1/11   51/1/11   31/1/11
f   51/1/11   30/1/11   29/1/11
f   51/1/11   29/1/11   52/1/11
f   52/1/11   29/1/11   53/1/11
f   53/1/11   29/1/11   28/1/11
f   53/1/11   28/1/11   54/1/11
f   54/1/11   28/1/11   27/1/11
f   54/1/11   27/1/11   55/1/11
f   55/1/11   27/1/11   25/1/11
f   55/1/11   25/1/11   39/1/11
f   39/1/11   25/1/11   40/1/11
f   71/1/3   24/1/3   45/1/3
f   24/1/3   71/1/3   58/1/3
f   58/1/3   71/1/3   70/1/3
f   58/1/3   70/1/3   57/1/3
f   70/1/6   56/1/6   57/1/6
f   56/1/6   70/1/6   63/1/6
f   63/1/6   70/1/6   62/1/6
f   62/1/6   70/1/6   61/1/6
f   61/1/6   70/1/6   60/1/6
f   60/1/6   70/1/6   59/1/6
f   59/1/6   70/1/6   65/1/6
f   65/1/6   70/1/6   64/1/6
f   64/1/6   70/1/6   66/1/6
f   66/1/6   70/1/6   67/1/6
f   67/1/6   70/1/6   68/1/6
f   68/1/6   70/1/6   69/1/6
f   3/1/19   18/1/19   16/1/19
f   18/1/19   3/1/19   2/1/19
f   18/1/19   45/1/19   24/1/19
f   45/1/19   18/1/19   2/1/19
