#Exported from SketchUp with ZbylsXExporter

mtllib hoe8.mtl

  v  -0.0200   0.0300  -0.2400
  v   0.0100  -0.0100  -0.2400
  v  -0.0100  -0.0100  -0.2400
  v   0.0200   0.0300  -0.2400
  v  -0.0200   0.0400  -0.2400
  v   0.0200   0.0400  -0.2400
  v   0.0100  -0.0100  -0.0635
  v   0.0100  -0.0000  -0.2302
  v   0.0100  -0.0000  -0.0635
  v   0.0100  -0.0100  -0.2302
  v  -0.0100  -0.0100  -0.2302
  v  -0.0100  -0.0100  -0.0635
  v   0.0200   0.0400  -0.2302
  v  -0.0200   0.0400  -0.2302
  v  -0.0100  -0.0000  -0.0635
  v   0.0149   0.0149  -0.0000
  v  -0.0149  -0.0149   0.0000
  v   0.0149  -0.0149   0.0000
  v  -0.0149   0.0149  -0.0000
  v  -0.0149  -0.0149  -0.0635
  v   0.0149  -0.0149  -0.0635
  v  -0.0149   0.0149  -0.0635
  v   0.0149   0.0149  -0.0635
  v  -0.0100  -0.0000  -0.2302
  v  -0.0200   0.0300  -0.2302
  v   0.0200   0.0300  -0.2302

  vt   0.0000   0.0000

  vn  -0.0000  -0.0000  -1.0000
  vn   1.0000   0.0000   0.0000
  vn   0.0000  -1.0000   0.0000
  vn   0.0000   1.0000  -0.0000
  vn   0.0000   0.0000  -1.0000
  vn   0.0000  -0.0000   1.0000
  vn   0.0000   0.0000   1.0000
  vn   0.0000  -0.0000  -1.0000
  vn   1.0000   0.0000  -0.0000
  vn  -1.0000   0.0000  -0.0000
  vn  -0.9701  -0.2425   0.0000
  vn   0.9701  -0.2425  -0.0000
  vn  -1.0000  -0.0000  -0.0000

usemtl __Color_A01_
f   1/1/1   2/1/1   3/1/1
f   2/1/1   1/1/1   4/1/1
f   4/1/1   1/1/1   5/1/1
f   4/1/1   5/1/1   6/1/1
f   7/1/2   8/1/2   9/1/2
f   8/1/2   7/1/2   10/1/2
f   2/1/3   11/1/3   3/1/3
f   11/1/3   7/1/3   12/1/3
f   7/1/3   11/1/3   2/1/3
f   7/1/3   2/1/3   10/1/3
f   13/1/4   5/1/4   14/1/4
f   5/1/4   13/1/4   6/1/4
usemtl Default_Material
f   15/1/5   7/1/5   12/1/5
f   7/1/5   15/1/5   9/1/5
f   12/1/6   7/1/6   15/1/6
f   9/1/6   15/1/6   7/1/6
usemtl __Color_A01_
f   16/1/7   17/1/7   18/1/7
f   17/1/7   16/1/7   19/1/7
f   20/1/8   12/1/8   21/1/8
f   12/1/8   20/1/8   22/1/8
f   12/1/8   22/1/8   15/1/8
f   15/1/8   22/1/8   9/1/8
f   21/1/8   7/1/8   23/1/8
f   7/1/8   21/1/8   12/1/8
f   23/1/8   7/1/8   9/1/8
f   23/1/8   9/1/8   22/1/8
f   21/1/9   16/1/9   18/1/9
f   16/1/9   21/1/9   23/1/9
f   16/1/4   22/1/4   19/1/4
f   22/1/4   16/1/4   23/1/4
f   19/1/10   20/1/10   17/1/10
f   20/1/10   19/1/10   22/1/10
f   21/1/3   17/1/3   20/1/3
f   17/1/3   21/1/3   18/1/3
f   9/1/4   24/1/4   15/1/4
f   24/1/4   9/1/4   8/1/4
f   5/1/10   25/1/10   14/1/10
f   25/1/10   5/1/10   1/1/10
f   1/1/11   11/1/11   25/1/11
f   11/1/11   1/1/11   3/1/11
f   4/1/9   13/1/9   26/1/9
f   13/1/9   4/1/9   6/1/9
f   2/1/12   26/1/12   10/1/12
f   26/1/12   2/1/12   4/1/12
f   24/1/13   12/1/13   15/1/13
f   12/1/13   24/1/13   11/1/13
f   26/1/7   8/1/7   10/1/7
f   8/1/7   26/1/7   24/1/7
f   24/1/7   25/1/7   11/1/7
f   25/1/7   24/1/7   26/1/7
f   25/1/7   26/1/7   13/1/7
f   25/1/7   13/1/7   14/1/7
