#Exported from SketchUp with ZbylsXExporter

mtllib hook6.mtl

  v  -0.0081  -0.0047  -0.0700
  v  -0.0060  -0.0060  -0.0700
  v  -0.0066  -0.0066  -0.0700
  v  -0.0060   0.0060  -0.0700
  v  -0.0091  -0.0024  -0.0700
  v  -0.0094   0.0000  -0.0700
  v  -0.0091   0.0024  -0.0700
  v  -0.0081   0.0047  -0.0700
  v  -0.0066   0.0066  -0.0700
  v   0.0060   0.0060  -0.0700
  v   0.0066   0.0066  -0.0700
  v   0.0047   0.0081  -0.0700
  v  -0.0047   0.0081  -0.0700
  v   0.0024   0.0091  -0.0700
  v  -0.0024   0.0091  -0.0700
  v  -0.0000   0.0094  -0.0700
  v  -0.0024  -0.0091  -0.0700
  v   0.0024  -0.0091  -0.0700
  v  -0.0000  -0.0094  -0.0700
  v   0.0047  -0.0081  -0.0700
  v  -0.0047  -0.0081  -0.0700
  v   0.0066  -0.0066  -0.0700
  v   0.0060  -0.0060  -0.0700
  v   0.0081  -0.0047  -0.0700
  v   0.0091  -0.0024  -0.0700
  v   0.0094  -0.0000  -0.0700
  v   0.0091   0.0024  -0.0700
  v   0.0081   0.0047  -0.0700
  v  -0.0000  -0.0094  -0.0000
  v   0.0024  -0.0091  -0.0000
  v  -0.0024  -0.0091   0.0000
  v  -0.0047  -0.0081   0.0000
  v  -0.0066  -0.0066   0.0000
  v  -0.0081  -0.0047   0.0000
  v  -0.0091  -0.0024   0.0000
  v  -0.0094   0.0000   0.0000
  v  -0.0091   0.0024   0.0000
  v  -0.0081   0.0047   0.0000
  v  -0.0066   0.0066   0.0000
  v  -0.0047   0.0081   0.0000
  v  -0.0024   0.0091   0.0000
  v   0.0000   0.0094  -0.0000
  v   0.0024   0.0091  -0.0000
  v   0.0047   0.0081  -0.0000
  v   0.0066   0.0066  -0.0000
  v   0.0081   0.0047  -0.0000
  v   0.0091   0.0024  -0.0000
  v   0.0094  -0.0000  -0.0000
  v   0.0091  -0.0024  -0.0000
  v   0.0081  -0.0047  -0.0000
  v   0.0066  -0.0066  -0.0000
  v   0.0047  -0.0081  -0.0000
  v  -0.0060   0.0060  -0.2002
  v   0.0060   0.0060  -0.2002
  v  -0.0060  -0.0060  -0.2002
  v   0.0060  -0.0060  -0.2002
  v   0.0060  -0.0358  -0.2591
  v  -0.0060   0.0383  -0.2591
  v  -0.0060  -0.0358  -0.2591
  v   0.0060   0.0383  -0.2591
  v  -0.0060   0.0383  -0.2237
  v   0.0060   0.0383  -0.2237
  v   0.0060   0.0329  -0.2237
  v  -0.0060   0.0329  -0.2537
  v  -0.0060   0.0329  -0.2237
  v   0.0060   0.0329  -0.2537
  v   0.0000  -0.0271  -0.2537
  v  -0.0060  -0.0271  -0.2537
  v   0.0060  -0.0271  -0.2537
  v   0.0000  -0.0000  -0.2002

  vt   0.0000   0.0000

  vn   0.0000   0.0000  -1.0000
  vn   0.2588  -0.9659  -0.0000
  vn  -0.0000  -1.0000  -0.0000
  vn  -0.2588  -0.9659   0.0000
  vn  -0.5000  -0.8660   0.0000
  vn  -0.7071  -0.7071   0.0000
  vn  -0.8660  -0.5000   0.0000
  vn  -0.9659  -0.2588   0.0000
  vn  -1.0000   0.0000   0.0000
  vn  -0.9659   0.2588   0.0000
  vn  -0.8660   0.5000   0.0000
  vn  -0.7071   0.7071   0.0000
  vn  -0.5000   0.8660   0.0000
  vn  -0.2588   0.9659   0.0000
  vn   0.0000   1.0000   0.0000
  vn   0.2588   0.9659  -0.0000
  vn   0.5000   0.8660  -0.0000
  vn   0.7071   0.7071  -0.0000
  vn   0.8660   0.5000  -0.0000
  vn   0.9659   0.2588  -0.0000
  vn   1.0000  -0.0000  -0.0000
  vn   0.9659  -0.2588  -0.0000
  vn   0.8660  -0.5000  -0.0000
  vn   0.7071  -0.7071  -0.0000
  vn   0.5000  -0.8660  -0.0000
  vn  -0.0000   1.0000  -0.0000
  vn   0.0000  -1.0000   0.0000
  vn   0.0000  -0.0000   1.0000
  vn   0.0000  -1.0000  -0.0000
  vn  -0.0000   1.0000   0.0000
  vn  -0.0000   0.0000  -1.0000
  vn   0.0000   0.0000   1.0000
  vn  -0.0000   0.8922  -0.4517
  vn   0.0000  -0.8922   0.4517
  vn   0.0000  -0.8505   0.5259
  vn  -0.0000   0.8505  -0.5259
  vn  -0.6657  -0.6657   0.3370
  vn   0.6657   0.6657  -0.3370
  vn  -1.0000  -0.0000  -0.0000
  vn   1.0000   0.0000   0.0000
  vn   0.6657  -0.6657   0.3370
  vn  -0.6657   0.6657  -0.3370

usemtl __Color_A01_
f   1/1/1   2/1/1   3/1/1
f   2/1/1   1/1/1   4/1/1
f   4/1/1   1/1/1   5/1/1
f   4/1/1   5/1/1   6/1/1
f   4/1/1   6/1/1   7/1/1
f   4/1/1   7/1/1   8/1/1
f   4/1/1   8/1/1   9/1/1
f   4/1/1   9/1/1   10/1/1
f   10/1/1   9/1/1   11/1/1
f   11/1/1   9/1/1   12/1/1
f   12/1/1   9/1/1   13/1/1
f   12/1/1   13/1/1   14/1/1
f   14/1/1   13/1/1   15/1/1
f   14/1/1   15/1/1   16/1/1
f   17/1/1   18/1/1   19/1/1
f   18/1/1   17/1/1   20/1/1
f   20/1/1   17/1/1   21/1/1
f   20/1/1   21/1/1   22/1/1
f   22/1/1   21/1/1   3/1/1
f   22/1/1   3/1/1   23/1/1
f   22/1/1   23/1/1   24/1/1
f   23/1/1   3/1/1   2/1/1
f   24/1/1   23/1/1   10/1/1
f   24/1/1   10/1/1   25/1/1
f   25/1/1   10/1/1   26/1/1
f   26/1/1   10/1/1   27/1/1
f   27/1/1   10/1/1   28/1/1
f   28/1/1   10/1/1   11/1/1
f   18/1/2   29/1/3   19/1/3
f   29/1/3   18/1/2   30/1/2
f   19/1/3   31/1/4   17/1/4
f   31/1/4   19/1/3   29/1/3
f   17/1/4   32/1/5   21/1/5
f   32/1/5   17/1/4   31/1/4
f   21/1/5   33/1/6   3/1/6
f   33/1/6   21/1/5   32/1/5
f   1/1/7   33/1/6   34/1/7
f   33/1/6   1/1/7   3/1/6
f   5/1/8   34/1/7   35/1/8
f   34/1/7   5/1/8   1/1/7
f   6/1/9   35/1/8   36/1/9
f   35/1/8   6/1/9   5/1/8
f   37/1/10   6/1/9   36/1/9
f   6/1/9   37/1/10   7/1/10
f   38/1/11   7/1/10   37/1/10
f   7/1/10   38/1/11   8/1/11
f   39/1/12   8/1/11   38/1/11
f   8/1/11   39/1/12   9/1/12
f   39/1/12   13/1/13   9/1/12
f   13/1/13   39/1/12   40/1/13
f   40/1/13   15/1/14   13/1/13
f   15/1/14   40/1/13   41/1/14
f   41/1/14   16/1/15   15/1/14
f   16/1/15   41/1/14   42/1/15
f   42/1/15   14/1/16   16/1/15
f   14/1/16   42/1/15   43/1/16
f   43/1/16   12/1/17   14/1/16
f   12/1/17   43/1/16   44/1/17
f   44/1/17   11/1/18   12/1/17
f   11/1/18   44/1/17   45/1/18
f   46/1/19   11/1/18   45/1/18
f   11/1/18   46/1/19   28/1/19
f   47/1/20   28/1/19   46/1/19
f   28/1/19   47/1/20   27/1/20
f   48/1/21   27/1/20   47/1/20
f   27/1/20   48/1/21   26/1/21
f   25/1/22   48/1/21   49/1/22
f   48/1/21   25/1/22   26/1/21
f   24/1/23   49/1/22   50/1/23
f   49/1/22   24/1/23   25/1/22
f   22/1/24   50/1/23   51/1/24
f   50/1/23   22/1/24   24/1/23
f   22/1/24   52/1/25   20/1/25
f   52/1/25   22/1/24   51/1/24
f   20/1/25   30/1/2   18/1/2
f   30/1/2   20/1/25   52/1/25
f   10/1/26   53/1/26   4/1/26
f   53/1/26   10/1/26   54/1/26
f   55/1/27   23/1/27   2/1/27
f   23/1/27   55/1/27   56/1/27
f   57/1/28   58/1/28   59/1/28
f   58/1/28   57/1/28   60/1/28
f   59/1/1   58/1/1   57/1/1
f   60/1/1   57/1/1   58/1/1
f   60/1/29   61/1/29   58/1/29
f   61/1/29   60/1/29   62/1/29
f   58/1/30   61/1/30   60/1/30
f   62/1/30   60/1/30   61/1/30
f   63/1/30   64/1/30   65/1/30
f   64/1/30   63/1/30   66/1/30
f   65/1/29   64/1/29   63/1/29
f   66/1/29   63/1/29   64/1/29
f   64/1/31   67/1/31   68/1/31
f   67/1/31   64/1/31   69/1/31
f   69/1/31   64/1/31   66/1/31
f   68/1/28   67/1/28   64/1/28
f   69/1/28   64/1/28   67/1/28
f   66/1/28   64/1/28   69/1/28
f   63/1/32   61/1/32   65/1/32
f   61/1/32   63/1/32   62/1/32
f   65/1/1   61/1/1   63/1/1
f   62/1/1   63/1/1   61/1/1
f   56/1/33   59/1/33   55/1/33
f   59/1/33   56/1/33   57/1/33
f   55/1/34   59/1/34   56/1/34
f   57/1/34   56/1/34   59/1/34
f   67/1/35   53/1/35   68/1/35
f   68/1/36   53/1/36   67/1/36
f   67/1/37   70/1/37   53/1/37
f   53/1/38   70/1/38   67/1/38
f   58/1/39   65/1/39   61/1/39
f   65/1/39   58/1/39   64/1/39
f   64/1/39   58/1/39   68/1/39
f   68/1/39   55/1/39   53/1/39
f   55/1/39   68/1/39   59/1/39
f   59/1/39   68/1/39   58/1/39
f   61/1/40   65/1/40   58/1/40
f   64/1/40   58/1/40   65/1/40
f   68/1/40   58/1/40   64/1/40
f   53/1/40   55/1/40   68/1/40
f   59/1/40   68/1/40   55/1/40
f   58/1/40   68/1/40   59/1/40
f   53/1/39   2/1/39   4/1/39
f   2/1/39   53/1/39   55/1/39
f   54/1/41   70/1/41   67/1/41
f   67/1/42   70/1/42   54/1/42
f   69/1/35   54/1/35   67/1/35
f   67/1/36   54/1/36   69/1/36
f   23/1/40   54/1/40   10/1/40
f   54/1/40   23/1/40   56/1/40
f   56/1/40   69/1/40   54/1/40
f   69/1/40   56/1/40   57/1/40
f   69/1/40   57/1/40   60/1/40
f   66/1/40   62/1/40   63/1/40
f   62/1/40   66/1/40   60/1/40
f   60/1/40   66/1/40   69/1/40
f   54/1/39   69/1/39   56/1/39
f   57/1/39   56/1/39   69/1/39
f   60/1/39   57/1/39   69/1/39
f   63/1/39   62/1/39   66/1/39
f   60/1/39   66/1/39   62/1/39
f   69/1/39   66/1/39   60/1/39
f   30/1/28   31/1/28   29/1/28
f   31/1/28   30/1/28   52/1/28
f   31/1/28   52/1/28   32/1/28
f   32/1/28   52/1/28   51/1/28
f   32/1/28   51/1/28   33/1/28
f   33/1/28   51/1/28   50/1/28
f   33/1/28   50/1/28   34/1/28
f   34/1/28   50/1/28   49/1/28
f   34/1/28   49/1/28   35/1/28
f   35/1/28   49/1/28   48/1/28
f   35/1/28   48/1/28   36/1/28
f   36/1/28   48/1/28   47/1/28
f   36/1/28   47/1/28   37/1/28
f   37/1/28   47/1/28   46/1/28
f   37/1/28   46/1/28   38/1/28
f   38/1/28   46/1/28   45/1/28
f   38/1/28   45/1/28   39/1/28
f   39/1/28   45/1/28   44/1/28
f   39/1/28   44/1/28   40/1/28
f   40/1/28   44/1/28   43/1/28
f   40/1/28   43/1/28   41/1/28
f   41/1/28   43/1/28   42/1/28
f   70/1/31   53/1/31   54/1/31
usemtl Default_Material
f   54/1/28   70/1/28   56/1/28
f   56/1/28   53/1/28   55/1/28
f   53/1/28   56/1/28   70/1/28
f   56/1/31   70/1/31   54/1/31
f   55/1/31   53/1/31   56/1/31
f   70/1/31   56/1/31   53/1/31
