#Exported from SketchUp with ZbylsXExporter

mtllib shovel0.mtl

  v   0.0100   0.0100  -0.0000
  v  -0.0100  -0.0100   0.0000
  v   0.0100  -0.0100   0.0000
  v  -0.0100   0.0100  -0.0000
  v   0.0100  -0.0100  -0.1200
  v   0.0100   0.0100  -0.1200
  v  -0.0100  -0.0100  -0.1200
  v  -0.0100   0.0100  -0.1200
  v   0.0050  -0.0050  -0.2400
  v   0.0049   0.0050  -0.1200
  v   0.0050  -0.0050  -0.1200
  v   0.0049   0.0050  -0.2400
  v  -0.0050  -0.0050  -0.1200
  v  -0.0050   0.0050  -0.1200
  v  -0.0050  -0.0050  -0.2400
  v  -0.0050   0.0050  -0.2400
  v   0.0450  -0.0050  -0.3400
  v  -0.0450  -0.0050  -0.2400
  v  -0.0450  -0.0050  -0.3400
  v   0.0450  -0.0050  -0.2400
  v  -0.0450   0.0050  -0.2400
  v  -0.0384   0.0050  -0.2466
  v  -0.0450   0.0050  -0.3400
  v   0.0384   0.0050  -0.2466
  v   0.0450   0.0050  -0.2400
  v   0.0384   0.0050  -0.3400
  v   0.0450   0.0050  -0.3400
  v  -0.0384   0.0050  -0.3400
  v  -0.0384  -0.0000  -0.3400
  v   0.0384  -0.0000  -0.3400
  v  -0.0384  -0.0000  -0.2466
  v   0.0384  -0.0000  -0.2466

  vt   0.0000   0.0000

  vn   0.0000   0.0000   1.0000
  vn   1.0000  -0.0000  -0.0000
  vn  -0.0000  -1.0000  -0.0000
  vn  -1.0000  -0.0000  -0.0000
  vn   0.0000   1.0000  -0.0000
  vn   1.0000   0.0074   0.0000
  vn  -0.0000  -0.0000  -1.0000
  vn  -1.0000  -0.0000   0.0000
  vn   0.0000  -1.0000   0.0000
  vn  -0.0000   1.0000  -0.0000
  vn   1.0000   0.0000  -0.0000
  vn  -1.0000   0.0000  -0.0000
  vn   0.0000   0.0000  -1.0000
  vn  -0.0000   0.0000   1.0000
  vn   1.0000   0.0000   0.0000
  vn  -0.0000   1.0000   0.0000

usemtl __Color_A01_
f   1/1/1   2/1/1   3/1/1
f   2/1/1   1/1/1   4/1/1
f   5/1/2   1/1/2   3/1/2
f   1/1/2   5/1/2   6/1/2
f   7/1/3   3/1/3   2/1/3
f   3/1/3   7/1/3   5/1/3
f   4/1/4   7/1/4   2/1/4
f   7/1/4   4/1/4   8/1/4
f   1/1/5   8/1/5   4/1/5
f   8/1/5   1/1/5   6/1/5
f   9/1/6   10/1/6   11/1/6
f   10/1/6   9/1/6   12/1/6
f   8/1/7   13/1/7   7/1/7
f   13/1/7   8/1/7   14/1/7
f   14/1/7   8/1/7   10/1/7
f   5/1/7   11/1/7   6/1/7
f   11/1/7   5/1/7   7/1/7
f   11/1/7   7/1/7   13/1/7
f   6/1/7   11/1/7   10/1/7
f   6/1/7   10/1/7   8/1/7
f   14/1/8   15/1/8   13/1/8
f   15/1/8   14/1/8   16/1/8
f   17/1/9   18/1/9   19/1/9
f   18/1/9   17/1/9   15/1/9
f   15/1/9   17/1/9   9/1/9
f   15/1/9   9/1/9   13/1/9
f   13/1/9   9/1/9   11/1/9
f   9/1/9   17/1/9   20/1/9
f   10/1/10   16/1/10   14/1/10
f   21/1/10   22/1/10   23/1/10
f   22/1/10   21/1/10   16/1/10
f   22/1/10   16/1/10   24/1/10
f   24/1/10   16/1/10   12/1/10
f   12/1/10   16/1/10   10/1/10
f   24/1/10   12/1/10   25/1/10
f   24/1/10   25/1/10   26/1/10
f   26/1/10   25/1/10   27/1/10
f   28/1/10   23/1/10   22/1/10
usemtl Default_Material
f   17/1/11   25/1/11   20/1/11
f   25/1/11   17/1/11   27/1/11
f   20/1/12   25/1/12   17/1/12
f   27/1/12   17/1/12   25/1/12
usemtl __0020_Red_
f   19/1/13   29/1/13   17/1/13
f   29/1/13   19/1/13   23/1/13
f   29/1/13   23/1/13   28/1/13
f   17/1/13   30/1/13   27/1/13
f   30/1/13   17/1/13   29/1/13
f   27/1/13   30/1/13   26/1/13
usemtl __Color_A01_
f   23/1/12   18/1/12   21/1/12
f   18/1/12   23/1/12   19/1/12
f   16/1/14   18/1/14   15/1/14
f   18/1/14   16/1/14   21/1/14
f   20/1/1   12/1/1   9/1/1
f   12/1/1   20/1/1   25/1/1
usemtl Default_Material
f   29/1/15   22/1/15   31/1/15
f   22/1/15   29/1/15   28/1/15
f   31/1/4   22/1/4   29/1/4
f   28/1/4   29/1/4   22/1/4
usemtl __0020_Red_
f   22/1/13   32/1/13   31/1/13
f   32/1/13   22/1/13   24/1/13
usemtl __Color_A01_
f   26/1/4   32/1/4   24/1/4
f   32/1/4   26/1/4   30/1/4
usemtl __0096_SkyBlue_
f   32/1/16   29/1/16   31/1/16
f   29/1/16   32/1/16   30/1/16
