#Exported from SketchUp with ZbylsXExporter

mtllib shovel9.mtl

  v   0.0100   0.0100  -0.0000
  v  -0.0100  -0.0100   0.0000
  v   0.0100  -0.0100   0.0000
  v  -0.0100   0.0100  -0.0000
  v   0.0100  -0.0100  -0.0700
  v   0.0100   0.0100  -0.0700
  v  -0.0100  -0.0100  -0.0700
  v  -0.0100   0.0100  -0.0700
  v  -0.0050  -0.0050  -0.0700
  v  -0.0050   0.0050  -0.0700
  v   0.0049   0.0050  -0.0700
  v   0.0050  -0.0050  -0.0700
  v  -0.0010   0.0000  -0.1770
  v  -0.0075  -0.0025  -0.2184
  v  -0.0241   0.0000  -0.2068
  v  -0.0000   0.0000  -0.1758
  v   0.0009   0.0000  -0.1769
  v   0.0074  -0.0025  -0.2184
  v   0.0240   0.0000  -0.2068
  v   0.0148  -0.0050  -0.2611
  v  -0.0149  -0.0050  -0.2611
  v   0.0317   0.0025  -0.2331
  v   0.0240   0.0050  -0.2068
  v   0.0268   0.0150  -0.2052
  v  -0.0318   0.0025  -0.2331
  v  -0.0269   0.0150  -0.2052
  v  -0.0241   0.0050  -0.2068
  v  -0.0050  -0.0050  -0.1770
  v   0.0050  -0.0050  -0.1770
  v  -0.0050   0.0050  -0.1770
  v  -0.0010   0.0050  -0.1770
  v   0.0009   0.0050  -0.1769
  v   0.0049   0.0050  -0.1769
  v   0.0166  -0.0000  -0.2611
  v   0.0148  -0.0000  -0.2611
  v  -0.0149  -0.0000  -0.2611
  v  -0.0166  -0.0000  -0.2611
  v   0.0268  -0.0050  -0.2052
  v   0.0317  -0.0050  -0.2331
  v   0.0166  -0.0050  -0.2611
  v  -0.0166  -0.0050  -0.2611
  v  -0.0269  -0.0050  -0.2052
  v  -0.0318  -0.0050  -0.2331

  vt   0.0000   0.0000

  vn   0.0000   0.0000   1.0000
  vn   1.0000  -0.0000  -0.0000
  vn  -0.0000  -1.0000  -0.0000
  vn  -1.0000  -0.0000  -0.0000
  vn   0.0000   1.0000  -0.0000
  vn  -0.0000  -0.0000  -1.0000
  vn   0.0969   0.9924  -0.0753
  vn  -0.0969   0.9924  -0.0753
  vn  -0.9081   0.2999  -0.2923
  vn   0.9081   0.2999  -0.2923
  vn   0.0000  -1.0000   0.0000
  vn  -1.0000   0.0000  -0.0000
  vn  -0.0016   0.9420   0.3356
  vn   0.7524   0.3035  -0.5846
  vn  -0.7524   0.3035  -0.5846
  vn  -0.0016   0.9430   0.3329
  vn   1.0000   0.0074   0.0000
  vn   0.7897   0.0000  -0.6135
  vn  -0.7897   0.0000  -0.6135
  vn  -0.0000   1.0000   0.0000
  vn   0.0000  -1.0000  -0.0000
  vn   0.0048   0.0000  -1.0000
  vn  -0.0000   1.0000  -0.0000
  vn  -0.0000   0.9983  -0.0587
  vn  -0.0000   0.9960  -0.0891
  vn   0.0000   0.9960  -0.0891
  vn   0.7897  -0.0000   0.6135
  vn   0.8791  -0.0295  -0.4756
  vn   0.8795   0.0000  -0.4759
  vn   0.5322  -0.7961  -0.2879
  vn   0.5018  -0.8605   0.0874
  vn   0.9852  -0.0000   0.1716
  vn   0.5353  -0.8395   0.0933
  vn  -0.0000   0.0000  -1.0000
  vn   0.0000  -0.0000  -1.0000
  vn  -0.9852  -0.0000   0.1716
  vn  -0.7897  -0.0000   0.6135
  vn  -0.8795  -0.0000  -0.4759
  vn  -0.8565  -0.0000   0.5162
  vn  -0.9603   0.0000  -0.2790
  vn   0.2069   0.9704  -0.1247
  vn   0.8565  -0.0000   0.5162
  vn   0.8565   0.0000   0.5162
  vn   0.9603  -0.0000  -0.2790
  vn  -0.2069   0.9704  -0.1247

usemtl __Color_A01_
f   1/1/1   2/1/1   3/1/1
f   2/1/1   1/1/1   4/1/1
f   5/1/2   1/1/2   3/1/2
f   1/1/2   5/1/2   6/1/2
f   7/1/3   3/1/3   2/1/3
f   3/1/3   7/1/3   5/1/3
f   4/1/4   7/1/4   2/1/4
f   7/1/4   4/1/4   8/1/4
f   1/1/5   8/1/5   4/1/5
f   8/1/5   1/1/5   6/1/5
f   8/1/6   9/1/6   7/1/6
f   9/1/6   8/1/6   10/1/6
f   10/1/6   8/1/6   11/1/6
f   5/1/6   12/1/6   6/1/6
f   12/1/6   5/1/6   7/1/6
f   12/1/6   7/1/6   9/1/6
f   6/1/6   12/1/6   11/1/6
f   6/1/6   11/1/6   8/1/6
usemtl __0087_Cyan_
f   13/1/7   14/1/7   15/1/7
f   14/1/7   13/1/7   16/1/7
f   17/1/8   18/1/8   16/1/8
f   18/1/8   17/1/8   19/1/8
f   19/1/8   20/1/8   18/1/8
f   14/1/7   21/1/7   15/1/7
usemtl __0020_Red_
f   22/1/9   23/1/9   24/1/9
f   25/1/10   26/1/10   27/1/10
f   28/1/11   12/1/11   9/1/11
f   12/1/11   28/1/11   29/1/11
usemtl __Color_A01_
f   10/1/12   28/1/12   9/1/12
f   28/1/12   10/1/12   30/1/12
usemtl __0020_Red_
f   31/1/13   26/1/13   30/1/13
f   27/1/14   26/1/14   31/1/14
f   23/1/15   32/1/15   24/1/15
f   24/1/16   32/1/16   33/1/16
usemtl __Color_A01_
f   29/1/17   11/1/17   12/1/17
f   11/1/17   29/1/17   33/1/17
usemtl __0020_Red_
f   15/1/18   31/1/18   13/1/18
f   31/1/18   15/1/18   27/1/18
f   23/1/19   17/1/19   32/1/19
f   17/1/19   23/1/19   19/1/19
usemtl Default_Material
f   17/1/20   13/1/20   16/1/20
f   16/1/21   13/1/21   17/1/21
usemtl __0020_Red_
f   13/1/22   31/1/22   17/1/22
f   32/1/22   17/1/22   31/1/22
f   11/1/23   30/1/23   10/1/23
f   30/1/23   11/1/23   31/1/23
f   31/1/23   11/1/23   32/1/23
f   32/1/23   11/1/23   33/1/23
usemtl __0087_Cyan_
f   14/1/24   20/1/24   21/1/24
f   20/1/24   14/1/24   18/1/24
f   18/1/24   14/1/24   16/1/24
usemtl __0020_Red_
f   22/1/25   34/1/25   35/1/25
f   36/1/26   37/1/26   25/1/26
f   29/1/27   24/1/27   33/1/27
f   24/1/27   29/1/27   38/1/27
f   39/1/28   34/1/29   22/1/29
f   34/1/29   39/1/28   40/1/30
f   38/1/31   22/1/32   24/1/32
f   22/1/32   38/1/31   39/1/33
f   35/1/34   40/1/34   20/1/34
f   40/1/34   35/1/34   34/1/34
f   41/1/35   36/1/35   21/1/35
f   36/1/35   41/1/35   37/1/35
f   39/1/28   20/1/21   40/1/30
f   25/1/36   42/1/36   26/1/36
f   42/1/36   25/1/36   43/1/36
f   30/1/37   42/1/37   28/1/37
f   42/1/37   30/1/37   26/1/37
f   25/1/38   41/1/38   43/1/38
f   41/1/38   25/1/38   37/1/38
f   35/1/39   20/1/39   22/1/39
f   21/1/21   42/1/21   43/1/21
f   42/1/21   21/1/21   28/1/21
f   28/1/21   21/1/21   20/1/21
f   28/1/21   20/1/21   29/1/21
f   29/1/21   20/1/21   38/1/31
f   38/1/31   20/1/21   39/1/33
f   20/1/39   39/1/39   22/1/39
f   22/1/40   19/1/40   23/1/40
f   19/1/40   22/1/40   39/1/40
usemtl __0087_Cyan_
f   39/1/41   20/1/41   19/1/41
usemtl __0020_Red_
f   36/1/42   25/1/42   21/1/42
f   21/1/3   43/1/3   41/1/3
f   21/1/43   25/1/43   43/1/43
f   43/1/44   27/1/44   15/1/44
f   27/1/44   43/1/44   25/1/44
usemtl __0087_Cyan_
f   21/1/45   43/1/45   15/1/45
