#Exported from SketchUp with ZbylsXExporter

mtllib shovel7.mtl

  v   0.0024  -0.0091  -0.0000
  v  -0.0024  -0.0091   0.0000
  v  -0.0000  -0.0094  -0.0000
  v   0.0047  -0.0081  -0.0000
  v  -0.0047  -0.0081   0.0000
  v   0.0066  -0.0066  -0.0000
  v  -0.0066  -0.0066   0.0000
  v   0.0081  -0.0047  -0.0000
  v  -0.0081  -0.0047   0.0000
  v   0.0091  -0.0024  -0.0000
  v  -0.0091  -0.0024   0.0000
  v   0.0094  -0.0000  -0.0000
  v  -0.0094   0.0000   0.0000
  v   0.0091   0.0024  -0.0000
  v  -0.0091   0.0024   0.0000
  v   0.0081   0.0047  -0.0000
  v  -0.0081   0.0047   0.0000
  v   0.0066   0.0066  -0.0000
  v  -0.0066   0.0066   0.0000
  v   0.0047   0.0081  -0.0000
  v  -0.0047   0.0081   0.0000
  v   0.0024   0.0091  -0.0000
  v  -0.0024   0.0091   0.0000
  v   0.0000   0.0094  -0.0000
  v   0.0024  -0.0091  -0.0700
  v  -0.0000  -0.0094  -0.0700
  v  -0.0024  -0.0091  -0.0700
  v  -0.0047  -0.0081  -0.0700
  v  -0.0066  -0.0066  -0.0700
  v  -0.0081  -0.0047  -0.0700
  v  -0.0091  -0.0024  -0.0700
  v  -0.0094   0.0000  -0.0700
  v  -0.0091   0.0024  -0.0700
  v  -0.0081   0.0047  -0.0700
  v  -0.0066   0.0066  -0.0700
  v  -0.0047   0.0081  -0.0700
  v  -0.0024   0.0091  -0.0700
  v  -0.0000   0.0094  -0.0700
  v   0.0024   0.0091  -0.0700
  v   0.0047   0.0081  -0.0700
  v   0.0066   0.0066  -0.0700
  v   0.0081   0.0047  -0.0700
  v   0.0091   0.0024  -0.0700
  v   0.0094  -0.0000  -0.0700
  v   0.0091  -0.0024  -0.0700
  v   0.0081  -0.0047  -0.0700
  v   0.0066  -0.0066  -0.0700
  v   0.0047  -0.0081  -0.0700
  v  -0.0047  -0.0047  -0.0700
  v  -0.0047   0.0047  -0.0700
  v   0.0047   0.0047  -0.0700
  v   0.0047  -0.0047  -0.0700
  v  -0.0003   0.0022  -0.1870
  v  -0.0003   0.0047  -0.1752
  v   0.0030   0.0022  -0.1877
  v   0.0000   0.0047  -0.1752
  v   0.0052   0.0049  -0.1752
  v   0.0057   0.0021  -0.1894
  v   0.0111   0.0056  -0.1752
  v   0.0081   0.0020  -0.1922
  v   0.0194   0.0069  -0.1752
  v   0.0290   0.0084  -0.1794
  v   0.0270   0.0086  -0.1752
  v   0.0340   0.0119  -0.1752
  v   0.0099   0.0019  -0.1959
  v   0.0324   0.0079  -0.1919
  v   0.0460   0.0163  -0.1870
  v   0.0460   0.0185  -0.1752
  v   0.0110   0.0017  -0.2002
  v   0.0335   0.0074  -0.2053
  v   0.0460   0.0146  -0.2059
  v   0.0114   0.0015  -0.2047
  v   0.0110   0.0013  -0.2093
  v   0.0324   0.0069  -0.2187
  v   0.0099   0.0012  -0.2136
  v   0.0290   0.0064  -0.2312
  v   0.0081   0.0010  -0.2173
  v   0.0237   0.0060  -0.2420
  v  -0.0297   0.0067  -0.2312
  v  -0.0106   0.0013  -0.2136
  v  -0.0243   0.0062  -0.2420
  v  -0.0088   0.0011  -0.2173
  v  -0.0330   0.0072  -0.2187
  v  -0.0117   0.0014  -0.2093
  v  -0.0342   0.0077  -0.2053
  v  -0.0121   0.0016  -0.2048
  v  -0.0460   0.0163  -0.1872
  v  -0.0330   0.0082  -0.1919
  v  -0.0460   0.0146  -0.2060
  v  -0.0117   0.0018  -0.2002
  v  -0.0460   0.0185  -0.1755
  v  -0.0460   0.0185  -0.1752
  v  -0.0459   0.0185  -0.1752
  v  -0.0347   0.0122  -0.1752
  v  -0.0297   0.0086  -0.1794
  v  -0.0106   0.0019  -0.1959
  v  -0.0276   0.0088  -0.1752
  v  -0.0200   0.0071  -0.1752
  v  -0.0088   0.0021  -0.1922
  v  -0.0118   0.0056  -0.1752
  v  -0.0064   0.0022  -0.1894
  v  -0.0058   0.0050  -0.1752
  v  -0.0036   0.0022  -0.1877
  v  -0.0064   0.0010  -0.2201
  v  -0.0036   0.0009  -0.2218
  v  -0.0003   0.0008  -0.2225
  v  -0.0003   0.0014  -0.2067
  v  -0.0003   0.0016  -0.2028
  v   0.0030   0.0009  -0.2218
  v   0.0057   0.0009  -0.2201
  v  -0.0460   0.0061  -0.1752
  v  -0.0460   0.0061  -0.2155
  v  -0.0460   0.0148  -0.2155
  v   0.0212   0.0059  -0.2449
  v   0.0247   0.0068  -0.2436
  v  -0.0252   0.0069  -0.2434
  v  -0.0222   0.0061  -0.2446
  v   0.0156   0.0052  -0.2470
  v   0.0077   0.0048  -0.2499
  v  -0.0161   0.0053  -0.2468
  v  -0.0083   0.0048  -0.2497
  v  -0.0003   0.0048  -0.2526
  v   0.0000   0.0049  -0.2528
  v   0.0000  -0.0067  -0.1752
  v   0.0047  -0.0047  -0.1752
  v   0.0000  -0.0047  -0.1752
  v   0.0460   0.0059  -0.1752
  v   0.0047   0.0047  -0.1752
  v  -0.0047   0.0047  -0.1752
  v  -0.0047  -0.0047  -0.1752
  v   0.0460   0.0059  -0.2155
  v   0.0460   0.0147  -0.2155
  v  -0.0006   0.0047  -0.1752
  v   0.0361   0.0109  -0.2379
  v   0.0437   0.0135  -0.2240
  v   0.0379   0.0117  -0.2359
  v   0.0432   0.0134  -0.2262
  v   0.0432   0.0051  -0.2262
  v  -0.0438   0.0136  -0.2238
  v  -0.0432   0.0135  -0.2262
  v  -0.0379   0.0116  -0.2359
  v  -0.0363   0.0110  -0.2376
  v  -0.0379   0.0046  -0.2359
  v  -0.0341   0.0043  -0.2402
  v  -0.0341   0.0104  -0.2402
  v  -0.0432   0.0053  -0.2262
  v   0.0341   0.0041  -0.2402
  v   0.0379   0.0045  -0.2359
  v   0.0341   0.0104  -0.2402
  v   0.0413   0.0046  -0.2296
  v  -0.0413   0.0048  -0.2296
  v   0.0000  -0.0009  -0.2528

  vt   0.0000   0.0000

  vn   0.0000  -0.0000   1.0000
  vn   0.2588  -0.9659  -0.0000
  vn  -0.0000  -1.0000  -0.0000
  vn  -0.2588  -0.9659   0.0000
  vn  -0.5000  -0.8660   0.0000
  vn  -0.7071  -0.7071   0.0000
  vn  -0.8660  -0.5000   0.0000
  vn  -0.9659  -0.2588   0.0000
  vn  -1.0000   0.0000   0.0000
  vn  -0.9659   0.2588   0.0000
  vn  -0.8660   0.5000   0.0000
  vn  -0.7071   0.7071   0.0000
  vn  -0.5000   0.8660   0.0000
  vn  -0.2588   0.9659   0.0000
  vn   0.0000   1.0000   0.0000
  vn   0.2588   0.9659  -0.0000
  vn   0.5000   0.8660  -0.0000
  vn   0.7071   0.7071  -0.0000
  vn   0.8660   0.5000  -0.0000
  vn   0.9659   0.2588  -0.0000
  vn   1.0000  -0.0000  -0.0000
  vn   0.9659  -0.2588  -0.0000
  vn   0.8660  -0.5000  -0.0000
  vn   0.7071  -0.7071  -0.0000
  vn   0.5000  -0.8660  -0.0000
  vn   0.0000   0.0000  -1.0000
  vn  -0.0198   0.9906  -0.1352
  vn  -0.0351   0.9772  -0.2095
  vn  -0.0408   0.9906  -0.1305
  vn  -0.0728   0.9765  -0.2027
  vn  -0.0762   0.9901  -0.1180
  vn  -0.1396   0.9732  -0.1826
  vn  -0.1037   0.9895  -0.1007
  vn  -0.1953   0.9691  -0.1510
  vn  -0.3457   0.9242  -0.1624
  vn  -0.2874   0.9410  -0.1784
  vn  -0.4621   0.8693  -0.1754
  vn  -0.1230   0.9891  -0.0807
  vn  -0.3788   0.9201  -0.0999
  vn  -0.4843   0.8656  -0.1273
  vn  -0.4732   0.8664  -0.1597
  vn  -0.1341   0.9892  -0.0595
  vn  -0.3890   0.9206  -0.0354
  vn  -0.5004   0.8652  -0.0323
  vn  -0.1376   0.9898  -0.0378
  vn  -0.1336   0.9909  -0.0163
  vn  -0.3765   0.9260   0.0286
  vn  -0.1221   0.9925   0.0048
  vn  -0.3414   0.9356   0.0894
  vn  -0.1026   0.9944   0.0243
  vn  -0.2841   0.9479   0.1442
  vn   0.3488   0.9329   0.0895
  vn   0.1299   0.9915   0.0048
  vn   0.2915   0.9456   0.1443
  vn   0.1104   0.9936   0.0243
  vn   0.3838   0.9230   0.0287
  vn   0.1415   0.9898  -0.0162
  vn   0.3963   0.9175  -0.0353
  vn   0.1454   0.9887  -0.0378
  vn   0.4912   0.8617  -0.1272
  vn   0.3861   0.9170  -0.0998
  vn   0.5072   0.8612  -0.0322
  vn   0.1420   0.9881  -0.0594
  vn   0.4801   0.8626  -0.1595
  vn   0.4690   0.8656  -0.1753
  vn   0.3531   0.9214  -0.1623
  vn   0.1308   0.9881  -0.0807
  vn   0.2950   0.9387  -0.1783
  vn   0.2030   0.9675  -0.1509
  vn   0.1116   0.9886  -0.1007
  vn   0.1474   0.9721  -0.1825
  vn   0.0841   0.9894  -0.1180
  vn   0.0806   0.9759  -0.2027
  vn   0.0487   0.9903  -0.1305
  vn   0.0830   0.9957   0.0411
  vn   0.0480   0.9974   0.0532
  vn   0.0039   0.9983   0.0577
  vn   0.0040   0.9993  -0.0381
  vn   0.0278   0.9904  -0.1352
  vn   0.0079   0.9992  -0.0381
  vn   0.0000   0.9993  -0.0381
  vn  -0.0402   0.9978   0.0531
  vn  -0.0751   0.9963   0.0411
  vn  -1.0000   0.0000  -0.0000
  vn  -0.1879   0.9747   0.1211
  vn  -0.3709   0.9080   0.1946
  vn   0.3780   0.9051   0.1947
  vn   0.1955   0.9732   0.1212
  vn  -0.1306   0.9855   0.1085
  vn  -0.0639   0.9899   0.1263
  vn   0.1383   0.9844   0.1085
  vn   0.0716   0.9894   0.1263
  vn  -0.0048   0.9913   0.1315
  vn  -0.0345   0.9907   0.1314
  vn  -0.0000   0.0000   1.0000
  vn  -1.0000  -0.0000   0.0000
  vn   1.0000  -0.0000   0.0000
  vn   0.0000  -1.0000   0.0000
  vn   0.0000   0.0000   1.0000
  vn  -0.0000  -0.0000  -1.0000
  vn   1.0000   0.0000  -0.0000
  vn   0.0439   0.9990  -0.0022
  vn  -0.0359   0.9994   0.0016
  vn   0.0000   1.0000  -0.0000
  vn  -0.4391   0.8892   0.1282
  vn  -0.4826   0.8742   0.0537
  vn  -0.4677   0.8791   0.0917
  vn   0.9267  -0.0000  -0.3757
  vn   0.9668  -0.0000  -0.2555
  vn   0.9324  -0.0000  -0.3615
  vn   0.4895   0.8704   0.0538
  vn   0.4745   0.8754   0.0918
  vn   0.4461   0.8857   0.1284
  vn  -0.7414  -0.0000  -0.6710
  vn  -0.8142   0.0000  -0.5806
  vn  -0.8260   0.0000  -0.5636
  vn  -0.9668   0.0000  -0.2555
  vn  -0.9267   0.0000  -0.3758
  vn  -0.9324   0.0000  -0.3613
  vn   0.7414   0.0000  -0.6710
  vn   0.8258   0.0000  -0.5640
  vn   0.8143   0.0000  -0.5805
  vn   0.5058   0.8626   0.0096
  vn  -0.4070   0.8979   0.1676
  vn  -0.4990   0.8666   0.0094
  vn   0.8790   0.0000  -0.4768
  vn  -0.1763  -0.9816  -0.0733
  vn   0.4140   0.8947   0.1678
  vn  -0.8790   0.0000  -0.4768
  vn  -0.3467  -0.0000  -0.9380
  vn  -0.2677  -0.9635  -0.0000
  vn   0.3467   0.0000  -0.9380
  vn   0.2638  -0.9646  -0.0000
  vn   0.1721  -0.9823  -0.0733
  vn   0.0429   0.9769  -0.2095
  vn  -0.0000  -0.0000   1.0000
  vn  -0.0000   1.0000  -0.0000

usemtl __Color_A01_
f   1/1/1   2/1/1   3/1/1
f   2/1/1   1/1/1   4/1/1
f   2/1/1   4/1/1   5/1/1
f   5/1/1   4/1/1   6/1/1
f   5/1/1   6/1/1   7/1/1
f   7/1/1   6/1/1   8/1/1
f   7/1/1   8/1/1   9/1/1
f   9/1/1   8/1/1   10/1/1
f   9/1/1   10/1/1   11/1/1
f   11/1/1   10/1/1   12/1/1
f   11/1/1   12/1/1   13/1/1
f   13/1/1   12/1/1   14/1/1
f   13/1/1   14/1/1   15/1/1
f   15/1/1   14/1/1   16/1/1
f   15/1/1   16/1/1   17/1/1
f   17/1/1   16/1/1   18/1/1
f   17/1/1   18/1/1   19/1/1
f   19/1/1   18/1/1   20/1/1
f   19/1/1   20/1/1   21/1/1
f   21/1/1   20/1/1   22/1/1
f   21/1/1   22/1/1   23/1/1
f   23/1/1   22/1/1   24/1/1
f   25/1/2   3/1/3   26/1/3
f   3/1/3   25/1/2   1/1/2
f   26/1/3   2/1/4   27/1/4
f   2/1/4   26/1/3   3/1/3
f   27/1/4   5/1/5   28/1/5
f   5/1/5   27/1/4   2/1/4
f   28/1/5   7/1/6   29/1/6
f   7/1/6   28/1/5   5/1/5
f   30/1/7   7/1/6   9/1/7
f   7/1/6   30/1/7   29/1/6
f   31/1/8   9/1/7   11/1/8
f   9/1/7   31/1/8   30/1/7
f   32/1/9   11/1/8   13/1/9
f   11/1/8   32/1/9   31/1/8
f   15/1/10   32/1/9   13/1/9
f   32/1/9   15/1/10   33/1/10
f   17/1/11   33/1/10   15/1/10
f   33/1/10   17/1/11   34/1/11
f   19/1/12   34/1/11   17/1/11
f   34/1/11   19/1/12   35/1/12
f   19/1/12   36/1/13   35/1/12
f   36/1/13   19/1/12   21/1/13
f   21/1/13   37/1/14   36/1/13
f   37/1/14   21/1/13   23/1/14
f   23/1/14   38/1/15   37/1/14
f   38/1/15   23/1/14   24/1/15
f   24/1/15   39/1/16   38/1/15
f   39/1/16   24/1/15   22/1/16
f   22/1/16   40/1/17   39/1/16
f   40/1/17   22/1/16   20/1/17
f   20/1/17   41/1/18   40/1/17
f   41/1/18   20/1/17   18/1/18
f   16/1/19   41/1/18   18/1/18
f   41/1/18   16/1/19   42/1/19
f   14/1/20   42/1/19   16/1/19
f   42/1/19   14/1/20   43/1/20
f   12/1/21   43/1/20   14/1/20
f   43/1/20   12/1/21   44/1/21
f   45/1/22   12/1/21   10/1/22
f   12/1/21   45/1/22   44/1/21
f   46/1/23   10/1/22   8/1/23
f   10/1/22   46/1/23   45/1/22
f   47/1/24   8/1/23   6/1/24
f   8/1/23   47/1/24   46/1/23
f   47/1/24   4/1/25   48/1/25
f   4/1/25   47/1/24   6/1/24
f   48/1/25   1/1/2   25/1/2
f   1/1/2   48/1/25   4/1/25
f   30/1/26   49/1/26   29/1/26
f   49/1/26   30/1/26   50/1/26
f   50/1/26   30/1/26   31/1/26
f   50/1/26   31/1/26   32/1/26
f   50/1/26   32/1/26   33/1/26
f   50/1/26   33/1/26   34/1/26
f   50/1/26   34/1/26   35/1/26
f   50/1/26   35/1/26   51/1/26
f   51/1/26   35/1/26   41/1/26
f   41/1/26   35/1/26   40/1/26
f   40/1/26   35/1/26   36/1/26
f   40/1/26   36/1/26   39/1/26
f   39/1/26   36/1/26   37/1/26
f   39/1/26   37/1/26   38/1/26
f   27/1/26   25/1/26   26/1/26
f   25/1/26   27/1/26   48/1/26
f   48/1/26   27/1/26   28/1/26
f   48/1/26   28/1/26   47/1/26
f   47/1/26   28/1/26   29/1/26
f   47/1/26   29/1/26   46/1/26
f   46/1/26   29/1/26   52/1/26
f   52/1/26   29/1/26   49/1/26
f   46/1/26   52/1/26   51/1/26
f   46/1/26   51/1/26   45/1/26
f   45/1/26   51/1/26   44/1/26
f   44/1/26   51/1/26   43/1/26
f   43/1/26   51/1/26   42/1/26
f   42/1/26   51/1/26   41/1/26
usemtl __0012_Bisque_
f   53/1/27   54/1/28   55/1/29
f   56/1/28   55/1/29   54/1/28
f   57/1/30   55/1/29   56/1/28
f   55/1/29   57/1/30   58/1/31
f   59/1/32   58/1/31   57/1/30
f   58/1/31   59/1/32   60/1/33
f   61/1/34   60/1/33   59/1/32
f   62/1/35   63/1/36   64/1/37
f   60/1/33   61/1/34   65/1/38
f   62/1/35   65/1/38   61/1/34
f   63/1/36   62/1/35   61/1/34
f   62/1/35   64/1/37   66/1/39
f   67/1/40   66/1/39   64/1/37
f   68/1/41   67/1/40   64/1/37
f   65/1/38   62/1/35   69/1/42
f   66/1/39   69/1/42   62/1/35
f   66/1/39   67/1/40   70/1/43
f   71/1/44   70/1/43   67/1/40
f   69/1/42   66/1/39   72/1/45
f   70/1/43   72/1/45   66/1/39
f   73/1/46   72/1/45   74/1/47
f   70/1/43   74/1/47   72/1/45
f   75/1/48   73/1/46   76/1/49
f   74/1/47   76/1/49   73/1/46
f   77/1/50   75/1/48   78/1/51
f   76/1/49   78/1/51   75/1/48
f   79/1/52   80/1/53   81/1/54
f   82/1/55   81/1/54   80/1/53
f   83/1/56   84/1/57   79/1/52
f   80/1/53   79/1/52   84/1/57
f   85/1/58   86/1/59   83/1/56
f   84/1/57   83/1/56   86/1/59
f   87/1/60   88/1/61   89/1/62
f   85/1/58   89/1/62   88/1/61
f   85/1/58   88/1/61   86/1/59
f   90/1/63   86/1/59   88/1/61
f   91/1/64   92/1/64   87/1/60
f   93/1/64   87/1/60   92/1/64
f   88/1/61   87/1/60   93/1/64
f   94/1/65   88/1/61   93/1/64
f   95/1/66   88/1/61   94/1/65
f   88/1/61   95/1/66   90/1/63
f   96/1/67   90/1/63   95/1/66
f   95/1/66   94/1/65   97/1/68
f   95/1/66   97/1/68   96/1/67
f   98/1/69   96/1/67   97/1/68
f   99/1/70   96/1/67   98/1/69
f   98/1/69   100/1/71   99/1/70
f   101/1/72   99/1/70   100/1/71
f   100/1/71   102/1/73   101/1/72
f   103/1/74   101/1/72   102/1/73
f   86/1/59   90/1/63   84/1/57
f   96/1/67   84/1/57   90/1/63
f   80/1/53   84/1/57   96/1/67
f   82/1/55   80/1/53   96/1/67
f   99/1/70   82/1/55   96/1/67
f   104/1/75   82/1/55   99/1/70
f   101/1/72   104/1/75   99/1/70
f   105/1/76   104/1/75   101/1/72
f   103/1/74   105/1/76   101/1/72
f   106/1/77   105/1/76   103/1/74
f   107/1/78   106/1/77   103/1/74
f   103/1/74   53/1/79   107/1/78
f   108/1/80   107/1/78   53/1/79
f   107/1/78   108/1/81   106/1/77
f   109/1/82   106/1/77   108/1/81
f   53/1/27   109/1/82   108/1/81
f   55/1/29   109/1/82   53/1/27
f   110/1/83   109/1/82   55/1/29
f   58/1/31   110/1/83   55/1/29
f   60/1/33   110/1/83   58/1/31
f   77/1/50   110/1/83   60/1/33
f   75/1/48   77/1/50   60/1/33
f   65/1/38   75/1/48   60/1/33
f   73/1/46   75/1/48   65/1/38
f   69/1/42   73/1/46   65/1/38
f   72/1/45   73/1/46   69/1/42
usemtl __0020_Red_
f   91/1/84   111/1/84   92/1/84
f   111/1/84   91/1/84   112/1/84
f   112/1/84   91/1/84   87/1/84
f   112/1/84   87/1/84   89/1/84
f   112/1/84   89/1/84   113/1/84
usemtl __0012_Bisque_
f   114/1/85   78/1/51   115/1/86
f   116/1/87   81/1/54   117/1/88
f   110/1/83   77/1/50   118/1/89
f   78/1/51   118/1/89   77/1/50
f   114/1/85   118/1/89   78/1/51
f   109/1/82   110/1/83   119/1/90
f   118/1/89   119/1/90   110/1/83
f   120/1/91   104/1/75   121/1/92
f   105/1/76   121/1/92   104/1/75
f   121/1/92   105/1/76   122/1/93
f   106/1/77   122/1/93   105/1/76
f   81/1/54   82/1/55   117/1/88
f   120/1/91   117/1/88   82/1/55
f   104/1/75   120/1/91   82/1/55
f   106/1/77   109/1/82   122/1/93
f   123/1/94   122/1/93   109/1/82
f   119/1/90   123/1/94   109/1/82
usemtl __0020_Red_
f   124/1/95   125/1/95   126/1/95
f   125/1/95   124/1/95   127/1/95
f   125/1/95   127/1/95   128/1/95
f   128/1/95   127/1/95   56/1/95
f   56/1/95   127/1/95   57/1/95
f   57/1/95   127/1/95   59/1/95
f   59/1/95   127/1/95   61/1/95
f   61/1/95   127/1/95   63/1/95
f   63/1/95   127/1/95   64/1/95
f   64/1/95   127/1/95   68/1/95
f   129/1/96   49/1/96   50/1/96
f   49/1/96   129/1/96   130/1/96
f   125/1/97   51/1/97   52/1/97
f   51/1/97   125/1/97   128/1/97
f   126/1/98   49/1/98   130/1/98
f   49/1/98   126/1/98   52/1/98
f   52/1/98   126/1/98   125/1/98
usemtl Default_Material
f   92/1/99   92/1/99   93/1/99
f   93/1/100   92/1/100   92/1/100
f   91/1/84   92/1/84   92/1/84
f   92/1/101   92/1/101   91/1/101
usemtl __0020_Red_
f   131/1/97   68/1/97   127/1/97
f   68/1/97   131/1/97   67/1/97
f   67/1/97   131/1/97   71/1/97
f   71/1/97   131/1/97   132/1/97
f   51/1/102   54/1/102   133/1/102
f   51/1/103   56/1/103   54/1/103
f   128/1/104   56/1/104   51/1/104
usemtl __0012_Bisque_
f   76/1/49   74/1/47   134/1/105
f   135/1/106   134/1/105   74/1/47
f   136/1/107   134/1/105   135/1/106
f   137/1/107   136/1/107   135/1/106
usemtl __0020_Red_
f   138/1/108   132/1/109   131/1/109
f   132/1/109   138/1/108   135/1/109
f   135/1/109   138/1/108   137/1/110
usemtl __0012_Bisque_
f   139/1/111   83/1/56   140/1/112
f   141/1/112   140/1/112   83/1/56
f   142/1/113   141/1/112   83/1/56
f   79/1/52   142/1/113   83/1/56
usemtl __0020_Red_
f   142/1/114   143/1/115   141/1/116
f   143/1/115   142/1/114   144/1/114
f   144/1/114   142/1/114   145/1/114
f   139/1/117   112/1/117   113/1/117
f   112/1/117   139/1/117   146/1/118
f   146/1/118   139/1/117   140/1/119
f   147/1/120   136/1/121   148/1/122
f   136/1/121   147/1/120   134/1/120
f   134/1/120   147/1/120   149/1/120
usemtl __0012_Bisque_
f   113/1/123   89/1/62   139/1/111
f   85/1/58   139/1/111   89/1/62
f   83/1/56   139/1/111   85/1/58
f   78/1/51   76/1/49   115/1/86
f   149/1/124   115/1/86   76/1/49
f   134/1/105   149/1/124   76/1/49
f   74/1/47   70/1/43   135/1/106
f   71/1/44   135/1/106   70/1/43
f   132/1/125   135/1/106   71/1/44
usemtl __0020_Red_
f   138/1/108   136/1/121   137/1/110
f   136/1/121   138/1/108   150/1/126
f   136/1/121   150/1/126   148/1/122
f   143/1/127   124/1/127   151/1/127
f   124/1/127   143/1/127   144/1/127
f   124/1/127   144/1/127   152/1/127
usemtl __0012_Bisque_
f   142/1/113   79/1/52   145/1/128
f   116/1/87   145/1/128   79/1/52
f   81/1/54   116/1/87   79/1/52
usemtl __0020_Red_
f   141/1/116   146/1/118   140/1/119
f   146/1/118   141/1/116   151/1/129
f   151/1/129   141/1/116   143/1/115
f   144/1/130   120/1/130   121/1/130
f   120/1/130   144/1/130   117/1/130
f   117/1/130   144/1/130   116/1/130
f   116/1/130   144/1/130   145/1/130
f   152/1/130   122/1/130   123/1/130
f   122/1/130   152/1/130   144/1/130
f   122/1/130   144/1/130   121/1/130
f   112/1/131   124/1/131   111/1/131
f   124/1/131   112/1/131   146/1/131
f   124/1/131   146/1/131   151/1/131
f   123/1/132   147/1/132   152/1/132
f   147/1/132   123/1/132   119/1/132
f   147/1/132   115/1/132   149/1/132
f   115/1/132   147/1/132   114/1/132
f   114/1/132   147/1/132   118/1/132
f   118/1/132   147/1/132   119/1/132
f   150/1/133   127/1/133   124/1/133
f   127/1/133   150/1/133   138/1/133
f   127/1/133   138/1/133   131/1/133
f   152/1/134   150/1/134   124/1/134
f   150/1/134   152/1/134   147/1/134
f   150/1/134   147/1/134   148/1/134
usemtl __0012_Bisque_
f   102/1/73   133/1/135   103/1/74
f   53/1/79   103/1/74   133/1/135
f   54/1/135   53/1/79   133/1/135
usemtl __0020_Red_
f   126/1/136   130/1/136   124/1/136
f   130/1/136   111/1/136   124/1/136
f   111/1/136   130/1/136   129/1/136
f   111/1/136   129/1/136   133/1/136
f   111/1/136   133/1/136   102/1/136
f   111/1/136   102/1/136   100/1/136
f   111/1/136   100/1/136   98/1/136
f   111/1/136   98/1/136   97/1/136
f   111/1/136   97/1/136   94/1/136
f   111/1/136   94/1/136   92/1/136
f   92/1/136   94/1/136   93/1/136
f   51/1/137   129/1/137   50/1/137
f   129/1/137   51/1/137   133/1/137
