#Exported from SketchUp with ZbylsXExporter

mtllib shovel1.mtl

  v   0.0100   0.0100  -0.0000
  v  -0.0100  -0.0100   0.0000
  v   0.0100  -0.0100   0.0000
  v  -0.0100   0.0100  -0.0000
  v   0.0100  -0.0100  -0.1200
  v   0.0100   0.0100  -0.1200
  v  -0.0100  -0.0100  -0.1200
  v  -0.0100   0.0100  -0.1200
  v   0.0050  -0.0050  -0.2400
  v   0.0049   0.0050  -0.1200
  v   0.0050  -0.0050  -0.1200
  v   0.0049   0.0050  -0.2400
  v  -0.0050  -0.0050  -0.1200
  v  -0.0050   0.0050  -0.1200
  v  -0.0050  -0.0050  -0.2400
  v  -0.0050   0.0050  -0.2400
  v  -0.0384   0.0050  -0.2466
  v   0.0384  -0.0000  -0.2466
  v  -0.0384  -0.0000  -0.2466
  v   0.0384   0.0050  -0.2466
  v  -0.0384  -0.0000  -0.3200
  v  -0.0384   0.0050  -0.3200
  v  -0.0450   0.0050  -0.3200
  v  -0.0450  -0.0050  -0.3200
  v   0.0384  -0.0000  -0.3212
  v   0.0450   0.0050  -0.3212
  v   0.0450  -0.0050  -0.3212
  v   0.0384   0.0050  -0.3212
  v  -0.0000  -0.0000  -0.3400
  v  -0.0000  -0.0050  -0.3400
  v  -0.0450  -0.0050  -0.2400
  v   0.0450  -0.0050  -0.2400
  v   0.0450   0.0150  -0.2400
  v  -0.0450   0.0150  -0.2400

  vt   0.0000   0.0000

  vn   0.0000   0.0000   1.0000
  vn   1.0000  -0.0000  -0.0000
  vn  -0.0000  -1.0000  -0.0000
  vn  -1.0000  -0.0000  -0.0000
  vn   0.0000   1.0000  -0.0000
  vn   1.0000   0.0074   0.0000
  vn  -0.0000  -0.0000  -1.0000
  vn  -1.0000  -0.0000   0.0000
  vn   0.0000   0.0000  -1.0000
  vn   1.0000   0.0000   0.0000
  vn  -0.0000   1.0000   0.0000
  vn   0.0000  -1.0000   0.0000
  vn   0.3810   0.5015  -0.7767
  vn   0.3863  -0.0000  -0.9224
  vn  -0.4061   0.0000  -0.9138
  vn  -0.3946   0.5193  -0.7580
  vn  -0.0000   0.9925  -0.1223
  vn  -0.8354   0.5497   0.0000
  vn   1.0000   0.0000  -0.0000
  vn   0.8354   0.5497   0.0000
  vn  -0.0000   0.9923  -0.1240
  vn  -1.0000   0.0000  -0.0000
  vn  -0.0000   0.5497  -0.8354
  vn  -0.0000   1.0000  -0.0000

usemtl __Color_A01_
f   1/1/1   2/1/1   3/1/1
f   2/1/1   1/1/1   4/1/1
f   5/1/2   1/1/2   3/1/2
f   1/1/2   5/1/2   6/1/2
f   7/1/3   3/1/3   2/1/3
f   3/1/3   7/1/3   5/1/3
f   4/1/4   7/1/4   2/1/4
f   7/1/4   4/1/4   8/1/4
f   1/1/5   8/1/5   4/1/5
f   8/1/5   1/1/5   6/1/5
f   9/1/6   10/1/6   11/1/6
f   10/1/6   9/1/6   12/1/6
f   8/1/7   13/1/7   7/1/7
f   13/1/7   8/1/7   14/1/7
f   14/1/7   8/1/7   10/1/7
f   5/1/7   11/1/7   6/1/7
f   11/1/7   5/1/7   7/1/7
f   11/1/7   7/1/7   13/1/7
f   6/1/7   11/1/7   10/1/7
f   6/1/7   10/1/7   8/1/7
f   14/1/8   15/1/8   13/1/8
f   15/1/8   14/1/8   16/1/8
usemtl __0020_Red_
f   17/1/9   18/1/9   19/1/9
f   18/1/9   17/1/9   20/1/9
f   21/1/10   17/1/10   19/1/10
f   17/1/10   21/1/10   22/1/10
f   23/1/9   21/1/9   24/1/9
f   21/1/9   23/1/9   22/1/9
f   25/1/9   26/1/9   27/1/9
f   26/1/9   25/1/9   28/1/9
usemtl __Color_A01_
f   28/1/4   18/1/4   20/1/4
f   18/1/4   28/1/4   25/1/4
usemtl __0077_DarkGreen_
f   18/1/11   21/1/11   19/1/11
f   21/1/11   18/1/11   29/1/11
f   29/1/11   18/1/11   25/1/11
usemtl __Color_A01_
f   30/1/12   31/1/12   24/1/12
f   31/1/12   30/1/12   15/1/12
f   15/1/12   30/1/12   13/1/12
f   13/1/12   30/1/12   11/1/12
f   11/1/12   30/1/12   9/1/12
f   9/1/12   30/1/12   27/1/12
f   9/1/12   27/1/12   32/1/12
usemtl __0020_Red_
f   25/1/13   27/1/13   29/1/13
f   29/1/14   27/1/14   30/1/14
f   29/1/15   30/1/15   24/1/15
f   29/1/16   24/1/16   21/1/16
usemtl __Color_A01_
f   26/1/17   28/1/17   33/1/17
f   28/1/18   20/1/18   33/1/18
usemtl __0020_Red_
f   27/1/19   33/1/19   32/1/19
f   33/1/19   27/1/19   26/1/19
usemtl __Color_A01_
f   22/1/20   34/1/20   17/1/20
f   22/1/21   23/1/21   34/1/21
f   23/1/22   31/1/22   34/1/22
f   31/1/22   23/1/22   24/1/22
usemtl __0020_Red_
f   34/1/23   20/1/23   17/1/23
f   20/1/23   34/1/23   33/1/23
usemtl __Color_A01_
f   10/1/24   16/1/24   14/1/24
f   16/1/24   10/1/24   12/1/24
usemtl __0020_Red_
f   32/1/1   12/1/1   9/1/1
f   12/1/1   32/1/1   33/1/1
f   12/1/1   33/1/1   16/1/1
f   16/1/1   33/1/1   34/1/1
f   16/1/1   31/1/1   15/1/1
f   31/1/1   16/1/1   34/1/1
