#Exported from SketchUp with ZbylsXExporter

mtllib stick0.mtl

  v   0.0100   0.0100  -0.0000
  v  -0.0100  -0.0100   0.0000
  v   0.0100  -0.0100   0.0000
  v  -0.0100   0.0100  -0.0000
  v   0.0100  -0.0100  -0.0600
  v   0.0100   0.0100  -0.0600
  v  -0.0100  -0.0100  -0.0600
  v  -0.0100   0.0100  -0.0600
  v  -0.0042  -0.0042  -0.0600
  v  -0.0042   0.0042  -0.0600
  v   0.0042  -0.0042  -0.0600
  v   0.0002  -0.0085  -0.0834
  v   0.0083  -0.0083  -0.0826
  v  -0.0000   0.0000  -0.0825
  v  -0.0000   0.0077  -0.1008
  v   0.0002  -0.0004  -0.1026
  v   0.0083   0.0006  -0.1038
  v  -0.0073   0.0077  -0.1214
  v  -0.0057  -0.0004  -0.1191
  v   0.0023   0.0006  -0.1209
  v  -0.0057  -0.0127  -0.1368
  v  -0.0073  -0.0046  -0.1390
  v   0.0023  -0.0100  -0.1361
  v   0.0017  -0.0093  -0.1609
  v  -0.0010  -0.0016  -0.1595
  v   0.0093  -0.0067  -0.1591
  v  -0.0010   0.0062  -0.1827
  v   0.0017  -0.0013  -0.1845
  v   0.0093   0.0021  -0.1852
  v  -0.0082   0.0062  -0.2036
  v  -0.0044  -0.0013  -0.2023
  v   0.0032   0.0021  -0.2031
  v   0.0026  -0.0100  -0.2249
  v  -0.0013  -0.0023  -0.2259
  v   0.0096  -0.0060  -0.2241
  v   0.0026  -0.0055  -0.2415
  v  -0.0013   0.0015  -0.2396
  v   0.0096  -0.0015  -0.2404

  vt   0.0000   0.0000

  vn   0.0000   0.0000   1.0000
  vn   1.0000  -0.0000  -0.0000
  vn  -0.0000  -1.0000  -0.0000
  vn  -1.0000  -0.0000  -0.0000
  vn   0.0000   1.0000  -0.0000
  vn   0.0000  -0.0000  -1.0000
  vn   0.0000  -0.9834   0.1813
  vn  -0.9998  -0.0191  -0.0080
  vn   0.0536  -0.9208  -0.3864
  vn  -0.9390  -0.0897   0.3321
  vn   0.1154  -0.9925  -0.0408
  vn  -0.9805  -0.1610   0.1124
  vn   0.2285  -0.7983   0.5573
  vn  -0.9098  -0.2670  -0.3176
  vn   0.3261  -0.9446  -0.0364
  vn  -0.9421  -0.3177  -0.1072
  vn   0.3661  -0.8818  -0.2974
  vn  -0.8722  -0.3864   0.2999
  vn   0.3939  -0.9091  -0.1354
  vn  -0.8826  -0.4604  -0.0953
  vn   0.4089  -0.8024   0.4347
  vn  -0.8778  -0.4618  -0.1275
  vn   0.5077  -0.8305  -0.2294
  vn   0.0000   0.2662  -0.9639
  vn   0.6803   0.6758   0.2836
  vn   0.5922   0.7781  -0.2094
  vn   0.5407   0.6898  -0.4815
  vn   0.4197   0.8712   0.2546
  vn   0.4141   0.8625   0.2909
  vn   0.3439   0.9315  -0.1182
  vn   0.3406   0.9080  -0.2440
  vn   0.2661   0.9291   0.2566
  vn   0.7071   0.7071   0.0000
  vn  -0.0000   0.0000   1.0000
  vn  -0.9834  -0.0000  -0.1813

usemtl __Color_A01_
f   1/1/1   2/1/1   3/1/1
f   2/1/1   1/1/1   4/1/1
f   5/1/2   1/1/2   3/1/2
f   1/1/2   5/1/2   6/1/2
f   7/1/3   3/1/3   2/1/3
f   3/1/3   7/1/3   5/1/3
f   4/1/4   7/1/4   2/1/4
f   7/1/4   4/1/4   8/1/4
f   1/1/5   8/1/5   4/1/5
f   8/1/5   1/1/5   6/1/5
f   8/1/6   9/1/6   7/1/6
f   9/1/6   8/1/6   10/1/6
f   5/1/6   11/1/6   6/1/6
f   11/1/6   5/1/6   7/1/6
f   11/1/6   7/1/6   9/1/6
f   6/1/6   11/1/6   10/1/6
f   6/1/6   10/1/6   8/1/6
f   9/1/7   12/1/7   11/1/7
f   13/1/7   11/1/7   12/1/7
f   14/1/8   15/1/8   12/1/8
f   16/1/8   12/1/8   15/1/8
f   16/1/9   17/1/9   12/1/9
f   13/1/9   12/1/9   17/1/9
f   15/1/10   18/1/10   16/1/10
f   19/1/10   16/1/10   18/1/10
f   19/1/11   20/1/11   16/1/11
f   17/1/11   16/1/11   20/1/11
f   19/1/12   18/1/12   21/1/12
f   22/1/12   21/1/12   18/1/12
f   19/1/13   21/1/13   20/1/13
f   23/1/13   20/1/13   21/1/13
f   21/1/14   22/1/14   24/1/14
f   25/1/14   24/1/14   22/1/14
f   21/1/15   24/1/15   23/1/15
f   26/1/15   23/1/15   24/1/15
f   25/1/16   27/1/16   24/1/16
f   28/1/16   24/1/16   27/1/16
f   28/1/17   29/1/17   24/1/17
f   26/1/17   24/1/17   29/1/17
f   27/1/18   30/1/18   28/1/18
f   31/1/18   28/1/18   30/1/18
f   31/1/19   32/1/19   28/1/19
f   29/1/19   28/1/19   32/1/19
f   31/1/20   30/1/20   33/1/20
f   34/1/20   33/1/20   30/1/20
f   31/1/21   33/1/21   32/1/21
f   35/1/21   32/1/21   33/1/21
f   33/1/22   34/1/22   36/1/22
f   37/1/22   36/1/22   34/1/22
f   36/1/23   38/1/23   33/1/23
f   35/1/23   33/1/23   38/1/23
f   38/1/24   36/1/24   37/1/24
f   14/1/25   13/1/25   15/1/25
f   17/1/25   15/1/25   13/1/25
f   18/1/26   15/1/26   20/1/26
f   17/1/26   20/1/26   15/1/26
f   18/1/27   20/1/27   22/1/27
f   23/1/27   22/1/27   20/1/27
f   22/1/28   23/1/28   25/1/28
f   26/1/28   25/1/28   23/1/28
f   27/1/29   25/1/29   29/1/29
f   26/1/29   29/1/29   25/1/29
f   30/1/30   27/1/30   32/1/30
f   29/1/30   32/1/30   27/1/30
f   30/1/31   32/1/31   34/1/31
f   35/1/31   34/1/31   32/1/31
f   37/1/32   34/1/32   38/1/32
f   35/1/32   38/1/32   34/1/32
f   11/1/33   13/1/33   10/1/33
f   14/1/33   10/1/33   13/1/33
usemtl Default_Material
f   10/1/6   11/1/6   9/1/6
f   9/1/34   11/1/34   10/1/34
usemtl __Color_A01_
f   9/1/35   10/1/35   12/1/35
f   14/1/35   12/1/35   10/1/35
