#Exported from SketchUp with ZbylsXExporter

mtllib stick5.mtl

  v  -0.0025   0.0025  -0.1589
  v   0.0024   0.0025  -0.1689
  v  -0.0025   0.0025  -0.1689
  v   0.0024   0.0025  -0.1589
  v   0.0024  -0.0025  -0.1689
  v   0.0024  -0.0025  -0.1589
  v  -0.0025  -0.0025  -0.1589
  v  -0.0025  -0.0025  -0.1689
  v  -0.0050  -0.0050  -0.1589
  v   0.0050  -0.0050  -0.1589
  v  -0.0050  -0.0000  -0.1589
  v  -0.0050   0.0025  -0.1589
  v  -0.0050   0.0050  -0.1589
  v   0.0049   0.0050  -0.1589
  v   0.0050  -0.0050  -0.1689
  v  -0.0050  -0.0050  -0.1689
  v   0.0049   0.0050  -0.1689
  v  -0.0050   0.0025  -0.1689
  v  -0.0050   0.0050  -0.1689
  v  -0.0050  -0.0000  -0.1689
  v  -0.0050  -0.0050  -0.0800
  v   0.0050  -0.0050  -0.0800
  v   0.0049   0.0050  -0.0800
  v  -0.0050   0.0050  -0.0800
  v  -0.0050   0.0050  -0.2115
  v   0.0032   0.0033  -0.2131
  v  -0.0033   0.0033  -0.2131
  v   0.0049   0.0050  -0.2115
  v  -0.0023   0.0023  -0.2153
  v   0.0022   0.0023  -0.2153
  v  -0.0023   0.0023  -0.2177
  v   0.0022   0.0023  -0.2177
  v   0.0032   0.0033  -0.2199
  v  -0.0033   0.0033  -0.2199
  v   0.0049   0.0050  -0.2215
  v  -0.0050   0.0050  -0.2215
  v   0.0032  -0.0033  -0.2131
  v   0.0050  -0.0050  -0.2115
  v   0.0022  -0.0023  -0.2153
  v   0.0022  -0.0023  -0.2177
  v   0.0032  -0.0033  -0.2199
  v   0.0050  -0.0050  -0.2215
  v  -0.0033  -0.0033  -0.2131
  v  -0.0050  -0.0050  -0.2115
  v  -0.0023  -0.0023  -0.2153
  v  -0.0023  -0.0023  -0.2177
  v  -0.0033  -0.0033  -0.2199
  v  -0.0050  -0.0050  -0.2215
  v   0.0049   0.0050  -0.2350
  v  -0.0000   0.0000  -0.2400
  v  -0.0050   0.0050  -0.2350
  v  -0.0000  -0.0000  -0.2400
  v   0.0050  -0.0050  -0.2350
  v  -0.0001  -0.0000  -0.2400
  v  -0.0050  -0.0050  -0.2350
  v  -0.0050  -0.0000  -0.2350
  v   0.0000  -0.0000  -0.2400
  v   0.0100   0.0100  -0.0000
  v  -0.0100  -0.0100   0.0000
  v   0.0100  -0.0100   0.0000
  v  -0.0100   0.0100  -0.0000
  v   0.0100   0.0100  -0.0750
  v  -0.0100   0.0100  -0.0757
  v  -0.0100   0.0100  -0.0750
  v   0.0100   0.0100  -0.0757
  v  -0.0098   0.0098  -0.0763
  v   0.0098   0.0098  -0.0763
  v  -0.0096   0.0096  -0.0769
  v   0.0096   0.0096  -0.0769
  v  -0.0093   0.0093  -0.0775
  v   0.0093   0.0093  -0.0775
  v  -0.0090   0.0090  -0.0780
  v   0.0090   0.0090  -0.0780
  v  -0.0085   0.0085  -0.0785
  v   0.0085   0.0085  -0.0785
  v   0.0080   0.0080  -0.0790
  v  -0.0080   0.0080  -0.0790
  v   0.0075   0.0075  -0.0793
  v  -0.0075   0.0075  -0.0793
  v   0.0069   0.0069  -0.0796
  v  -0.0069   0.0069  -0.0796
  v   0.0063   0.0063  -0.0798
  v  -0.0063   0.0063  -0.0798
  v   0.0057   0.0057  -0.0800
  v  -0.0057   0.0057  -0.0800
  v   0.0050   0.0050  -0.0800
  v   0.0100  -0.0100  -0.0757
  v   0.0100  -0.0100  -0.0750
  v   0.0098  -0.0098  -0.0763
  v   0.0096  -0.0096  -0.0769
  v   0.0093  -0.0093  -0.0775
  v   0.0090  -0.0090  -0.0780
  v   0.0085  -0.0085  -0.0785
  v   0.0080  -0.0080  -0.0790
  v   0.0075  -0.0075  -0.0793
  v   0.0069  -0.0069  -0.0796
  v   0.0063  -0.0063  -0.0798
  v   0.0057  -0.0057  -0.0800
  v  -0.0100  -0.0100  -0.0757
  v  -0.0100  -0.0100  -0.0750
  v  -0.0098  -0.0098  -0.0763
  v  -0.0096  -0.0096  -0.0769
  v  -0.0093  -0.0093  -0.0775
  v  -0.0090  -0.0090  -0.0780
  v  -0.0085  -0.0085  -0.0785
  v  -0.0080  -0.0080  -0.0790
  v  -0.0075  -0.0075  -0.0793
  v  -0.0069  -0.0069  -0.0796
  v  -0.0063  -0.0063  -0.0798
  v  -0.0057  -0.0057  -0.0800
  v  -0.0063   0.0050  -0.0798
  v  -0.0057   0.0050  -0.0800
  v  -0.0098   0.0050  -0.0763
  v  -0.0096   0.0050  -0.0769
  v  -0.0093   0.0050  -0.0775
  v  -0.0085   0.0050  -0.0785
  v  -0.0080   0.0050  -0.0790
  v  -0.0090   0.0050  -0.0780
  v  -0.0100   0.0050  -0.0757
  v  -0.0100   0.0050  -0.0750
  v  -0.0075   0.0050  -0.0793
  v  -0.0069   0.0050  -0.0796
  v  -0.0100   0.0100  -0.0700

  vt   0.0000   0.0000

  vn   0.0000   1.0000   0.0000
  vn   1.0000   0.0074   0.0000
  vn  -0.0000  -1.0000   0.0000
  vn  -1.0000  -0.0000   0.0000
  vn   0.0000   0.0000  -1.0000
  vn   0.0000   0.0000   1.0000
  vn   0.0000  -1.0000   0.0000
  vn  -0.0000   1.0000  -0.0000
  vn   0.0000   0.6810  -0.7323
  vn   0.0000   0.7789  -0.6272
  vn   0.0000   0.7786  -0.6275
  vn   0.0000   0.9741  -0.2259
  vn   0.0000   0.9742  -0.2258
  vn   0.0000   0.9741   0.2259
  vn   0.0000   0.9742   0.2258
  vn   0.0000   0.7789   0.6272
  vn   0.0000   0.7786   0.6275
  vn   0.0000   0.6810   0.7323
  vn   0.7784   0.0057  -0.6277
  vn   0.6810   0.0050  -0.7323
  vn   0.7788   0.0057  -0.6272
  vn   0.9741   0.0072  -0.2261
  vn   0.9741   0.0072  -0.2258
  vn   0.9741   0.0072   0.2261
  vn   0.9741   0.0072   0.2258
  vn   0.7784   0.0057   0.6277
  vn   0.7788   0.0057   0.6272
  vn   0.6810   0.0050   0.7323
  vn   0.0000  -0.7786  -0.6275
  vn   0.0000  -0.6810  -0.7323
  vn   0.0000  -0.7784  -0.6277
  vn   0.0000  -0.9741  -0.2259
  vn   0.0000  -0.9741  -0.2261
  vn   0.0000  -0.9741   0.2259
  vn   0.0000  -0.9741   0.2261
  vn   0.0000  -0.7784   0.6277
  vn   0.0000  -0.7786   0.6275
  vn   0.0000  -0.6810   0.7323
  vn  -0.6810  -0.0000  -0.7323
  vn  -0.7786  -0.0000  -0.6275
  vn  -0.9741  -0.0000  -0.2259
  vn  -0.9741  -0.0000   0.2259
  vn  -0.7786  -0.0000   0.6275
  vn  -0.6810  -0.0000   0.7323
  vn   1.0000   0.0074  -0.0000
  vn   0.0000   1.0000  -0.0000
  vn  -1.0000  -0.0000  -0.0000
  vn  -0.0000   0.7071  -0.7071
  vn   0.7071   0.0052  -0.7071
  vn   0.0000  -0.7071  -0.7071
  vn  -0.7071  -0.0000  -0.7071
  vn   0.0000  -1.0000  -0.0000
  vn  -1.0000   0.0000  -0.0000
  vn   0.0000   0.9979  -0.0654
  vn   0.0000   0.9922  -0.1250
  vn   0.0000   0.9687  -0.2483
  vn   0.0000   0.9298  -0.3681
  vn   0.0000   0.8758  -0.4827
  vn   0.0000   0.8073  -0.5901
  vn   0.0000   0.7253  -0.6884
  vn   0.0000   0.6310  -0.7758
  vn   0.0000   0.5258  -0.8506
  vn   0.0000   0.4114  -0.9114
  vn   0.0000   0.2898  -0.9571
  vn   0.0000   0.1951  -0.9808
  vn   0.0000   0.0654  -0.9979
  vn   0.9922  -0.0000  -0.1250
  vn   0.9979  -0.0000  -0.0654
  vn   0.9687  -0.0000  -0.2483
  vn   0.9298  -0.0000  -0.3681
  vn   0.8758  -0.0000  -0.4827
  vn   0.8073  -0.0000  -0.5901
  vn   0.7253  -0.0000  -0.6884
  vn   0.6310  -0.0000  -0.7758
  vn   0.5258  -0.0000  -0.8506
  vn   0.4114  -0.0000  -0.9114
  vn   0.2898  -0.0000  -0.9571
  vn   0.1951  -0.0000  -0.9808
  vn   0.0654  -0.0000  -0.9979
  vn  -0.0000  -0.9922  -0.1250
  vn  -0.0000  -0.9979  -0.0654
  vn  -0.0000  -0.9687  -0.2483
  vn  -0.0000  -0.9298  -0.3681
  vn  -0.0000  -0.8758  -0.4827
  vn  -0.0000  -0.8073  -0.5901
  vn  -0.0000  -0.7253  -0.6884
  vn  -0.0000  -0.6310  -0.7758
  vn  -0.0000  -0.5258  -0.8506
  vn  -0.0000  -0.4114  -0.9114
  vn  -0.0000  -0.2898  -0.9571
  vn  -0.0000  -0.1951  -0.9808
  vn  -0.0000  -0.0654  -0.9979
  vn  -0.2588  -0.0000  -0.9659
  vn  -0.1951  -0.0000  -0.9808
  vn  -0.2898  -0.0000  -0.9571
  vn  -0.0654  -0.0000  -0.9979
  vn  -0.9298  -0.0000  -0.3681
  vn  -0.9659  -0.0000  -0.2588
  vn  -0.9687  -0.0000  -0.2483
  vn  -0.9239  -0.0000  -0.3827
  vn  -0.8758  -0.0000  -0.4827
  vn  -0.8660  -0.0000  -0.5000
  vn  -0.6310  -0.0000  -0.7758
  vn  -0.7253  -0.0000  -0.6884
  vn  -0.6088  -0.0000  -0.7934
  vn  -0.8073  -0.0000  -0.5901
  vn  -0.7934  -0.0000  -0.6088
  vn  -0.9914  -0.0000  -0.1305
  vn  -0.9922  -0.0000  -0.1250
  vn  -0.9979  -0.0000  -0.0654
  vn  -0.5258  -0.0000  -0.8506
  vn  -0.5000  -0.0000  -0.8660
  vn  -0.4114  -0.0000  -0.9114
  vn  -0.3827  -0.0000  -0.9239
  vn   0.0000  -0.0000  -1.0000
  vn  -0.0000  -1.0000  -0.0000
  vn   1.0000  -0.0000  -0.0000
  vn  -0.0000   0.0000   1.0000
  vn  -0.0654   0.0000  -0.9979

usemtl __Color_A01_
f   1/1/1   2/1/1   3/1/1
f   2/1/1   1/1/1   4/1/1
f   5/1/2   4/1/2   6/1/2
f   4/1/2   5/1/2   2/1/2
f   5/1/3   7/1/3   8/1/3
f   7/1/3   5/1/3   6/1/3
f   3/1/4   7/1/4   1/1/4
f   7/1/4   3/1/4   8/1/4
f   9/1/5   7/1/5   10/1/5
f   7/1/5   9/1/5   11/1/5
f   7/1/5   11/1/5   1/1/5
f   1/1/5   11/1/5   12/1/5
f   1/1/5   12/1/5   13/1/5
f   1/1/5   13/1/5   4/1/5
f   10/1/5   6/1/5   14/1/5
f   6/1/5   10/1/5   7/1/5
f   14/1/5   6/1/5   4/1/5
f   14/1/5   4/1/5   13/1/5
f   15/1/6   5/1/6   16/1/6
f   5/1/6   15/1/6   17/1/6
f   5/1/6   17/1/6   2/1/6
f   2/1/6   17/1/6   3/1/6
f   3/1/6   17/1/6   18/1/6
f   18/1/6   17/1/6   19/1/6
f   16/1/6   8/1/6   20/1/6
f   8/1/6   16/1/6   5/1/6
f   20/1/6   8/1/6   3/1/6
f   20/1/6   3/1/6   18/1/6
f   10/1/7   21/1/7   9/1/7
f   21/1/7   10/1/7   22/1/7
f   10/1/2   23/1/2   22/1/2
f   23/1/2   10/1/2   14/1/2
f   23/1/8   13/1/8   24/1/8
f   13/1/8   23/1/8   14/1/8
f   25/1/9   26/1/10   27/1/11
f   26/1/10   25/1/9   28/1/9
f   26/1/10   29/1/12   27/1/11
f   29/1/12   26/1/10   30/1/13
f   30/1/13   31/1/14   29/1/12
f   31/1/14   30/1/13   32/1/15
f   31/1/14   33/1/16   34/1/17
f   33/1/16   31/1/14   32/1/15
f   35/1/18   34/1/17   33/1/16
f   34/1/17   35/1/18   36/1/18
f   37/1/19   28/1/20   38/1/20
f   28/1/20   37/1/19   26/1/21
f   39/1/22   26/1/21   37/1/19
f   26/1/21   39/1/22   30/1/23
f   40/1/24   30/1/23   39/1/22
f   30/1/23   40/1/24   32/1/25
f   41/1/26   32/1/25   40/1/24
f   32/1/25   41/1/26   33/1/27
f   35/1/28   41/1/26   42/1/28
f   41/1/26   35/1/28   33/1/27
f   43/1/29   38/1/30   44/1/30
f   38/1/30   43/1/29   37/1/31
f   45/1/32   37/1/31   43/1/29
f   37/1/31   45/1/32   39/1/33
f   46/1/34   39/1/33   45/1/32
f   39/1/33   46/1/34   40/1/35
f   41/1/36   46/1/34   47/1/37
f   46/1/34   41/1/36   40/1/35
f   42/1/38   47/1/37   48/1/38
f   47/1/37   42/1/38   41/1/36
f   25/1/39   43/1/40   44/1/39
f   43/1/40   25/1/39   27/1/40
f   29/1/41   43/1/40   27/1/40
f   43/1/40   29/1/41   45/1/41
f   31/1/42   45/1/41   29/1/41
f   45/1/41   31/1/42   46/1/42
f   34/1/43   46/1/42   31/1/42
f   46/1/42   34/1/43   47/1/43
f   47/1/43   36/1/44   48/1/44
f   36/1/44   47/1/43   34/1/43
f   38/1/3   16/1/3   44/1/3
f   16/1/3   38/1/3   15/1/3
f   38/1/45   17/1/45   15/1/45
f   17/1/45   38/1/45   28/1/45
f   17/1/46   25/1/46   19/1/46
f   25/1/46   17/1/46   28/1/46
f   25/1/47   18/1/47   19/1/47
f   18/1/47   25/1/47   20/1/47
f   20/1/47   25/1/47   16/1/47
f   16/1/47   25/1/47   44/1/47
f   49/1/48   50/1/48   51/1/48
f   52/1/49   49/1/49   53/1/49
f   49/1/49   52/1/49   50/1/49
f   50/1/49   52/1/49   54/1/49
f   52/1/50   53/1/50   55/1/50
f   56/1/51   52/1/51   55/1/51
f   52/1/51   56/1/51   57/1/51
f   57/1/51   56/1/51   50/1/51
f   50/1/51   56/1/51   51/1/51
f   55/1/52   42/1/52   48/1/52
f   42/1/52   55/1/52   53/1/52
f   53/1/45   35/1/45   42/1/45
f   35/1/45   53/1/45   49/1/45
f   35/1/8   51/1/8   36/1/8
f   51/1/8   35/1/8   49/1/8
f   51/1/47   48/1/47   36/1/47
f   48/1/47   51/1/47   55/1/47
f   55/1/47   51/1/47   56/1/47
f   24/1/53   9/1/53   21/1/53
f   9/1/53   24/1/53   13/1/53
f   9/1/53   13/1/53   12/1/53
f   9/1/53   12/1/53   11/1/53
f   58/1/6   59/1/6   60/1/6
f   59/1/6   58/1/6   61/1/6
f   62/1/54   63/1/55   64/1/54
f   63/1/55   62/1/54   65/1/55
f   65/1/55   66/1/56   63/1/55
f   66/1/56   65/1/55   67/1/56
f   67/1/56   68/1/57   66/1/56
f   68/1/57   67/1/56   69/1/57
f   69/1/57   70/1/58   68/1/57
f   70/1/58   69/1/57   71/1/58
f   71/1/58   72/1/59   70/1/58
f   72/1/59   71/1/58   73/1/59
f   73/1/59   74/1/60   72/1/59
f   74/1/60   73/1/59   75/1/60
f   74/1/60   76/1/61   77/1/61
f   76/1/61   74/1/60   75/1/60
f   77/1/61   78/1/62   79/1/62
f   78/1/62   77/1/61   76/1/61
f   79/1/62   80/1/63   81/1/63
f   80/1/63   79/1/62   78/1/62
f   81/1/63   82/1/64   83/1/64
f   82/1/64   81/1/63   80/1/63
f   83/1/64   84/1/65   85/1/65
f   84/1/65   83/1/64   82/1/64
f   85/1/66   23/1/66   24/1/66
f   23/1/66   84/1/66   86/1/66
f   84/1/66   23/1/66   85/1/66
f   87/1/67   62/1/68   88/1/68
f   62/1/68   87/1/67   65/1/67
f   89/1/69   65/1/67   87/1/67
f   65/1/67   89/1/69   67/1/69
f   90/1/70   67/1/69   89/1/69
f   67/1/69   90/1/70   69/1/70
f   91/1/71   69/1/70   90/1/70
f   69/1/70   91/1/71   71/1/71
f   92/1/72   71/1/71   91/1/71
f   71/1/71   92/1/72   73/1/72
f   93/1/73   73/1/72   92/1/72
f   73/1/72   93/1/73   75/1/73
f   94/1/74   75/1/73   93/1/73
f   75/1/73   94/1/74   76/1/74
f   95/1/75   76/1/74   94/1/74
f   76/1/74   95/1/75   78/1/75
f   96/1/76   78/1/75   95/1/75
f   78/1/75   96/1/76   80/1/76
f   97/1/77   80/1/76   96/1/76
f   80/1/76   97/1/77   82/1/77
f   98/1/78   82/1/77   97/1/77
f   82/1/77   98/1/78   84/1/78
f   22/1/79   84/1/79   98/1/79
f   84/1/79   22/1/79   86/1/79
f   99/1/80   88/1/81   100/1/81
f   88/1/81   99/1/80   87/1/80
f   101/1/82   87/1/80   99/1/80
f   87/1/80   101/1/82   89/1/82
f   102/1/83   89/1/82   101/1/82
f   89/1/82   102/1/83   90/1/83
f   103/1/84   90/1/83   102/1/83
f   90/1/83   103/1/84   91/1/84
f   104/1/85   91/1/84   103/1/84
f   91/1/84   104/1/85   92/1/85
f   105/1/86   92/1/85   104/1/85
f   92/1/85   105/1/86   93/1/86
f   105/1/86   94/1/87   93/1/86
f   94/1/87   105/1/86   106/1/87
f   106/1/87   95/1/88   94/1/87
f   95/1/88   106/1/87   107/1/88
f   107/1/88   96/1/89   95/1/88
f   96/1/89   107/1/88   108/1/89
f   108/1/89   97/1/90   96/1/89
f   97/1/90   108/1/89   109/1/90
f   109/1/90   98/1/91   97/1/90
f   98/1/91   109/1/90   110/1/91
f   110/1/92   22/1/92   98/1/92
f   22/1/92   110/1/92   21/1/92
f   22/1/92   21/1/92   22/1/92
f   111/1/93   110/1/94   109/1/95
f   110/1/94   111/1/93   112/1/94
f   112/1/96   21/1/96   110/1/96
f   21/1/96   112/1/96   24/1/96
f   68/1/97   113/1/98   66/1/99
f   113/1/98   68/1/97   102/1/97
f   102/1/97   68/1/97   114/1/100
f   102/1/97   101/1/99   113/1/98
f   70/1/101   114/1/100   68/1/97
f   114/1/100   70/1/101   103/1/101
f   103/1/101   70/1/101   115/1/102
f   103/1/101   102/1/97   114/1/100
f   116/1/51   106/1/103   105/1/104
f   106/1/103   116/1/51   117/1/105
f   117/1/105   116/1/51   74/1/104
f   117/1/105   74/1/104   77/1/103
f   72/1/106   115/1/102   70/1/101
f   115/1/102   72/1/106   104/1/106
f   104/1/106   72/1/106   118/1/107
f   104/1/106   103/1/101   115/1/102
f   74/1/104   118/1/107   72/1/106
f   118/1/107   74/1/104   105/1/104
f   105/1/104   74/1/104   116/1/51
f   105/1/104   104/1/106   118/1/107
f   66/1/99   119/1/108   63/1/109
f   119/1/108   66/1/99   101/1/99
f   101/1/99   66/1/99   113/1/98
f   101/1/99   99/1/109   119/1/108
f   63/1/109   120/1/110   64/1/110
f   120/1/110   63/1/109   99/1/109
f   99/1/109   63/1/109   119/1/108
f   99/1/109   100/1/110   120/1/110
f   117/1/105   107/1/111   106/1/103
f   107/1/111   117/1/105   121/1/112
f   121/1/112   117/1/105   77/1/103
f   121/1/112   77/1/103   79/1/111
f   121/1/112   108/1/113   107/1/111
f   108/1/113   121/1/112   122/1/114
f   122/1/114   121/1/112   79/1/111
f   122/1/114   79/1/111   81/1/113
f   122/1/114   109/1/95   108/1/113
f   109/1/95   122/1/114   111/1/93
f   111/1/93   122/1/114   81/1/113
f   111/1/93   81/1/113   83/1/95
f   22/1/115   86/1/115   22/1/115
f   86/1/115   22/1/115   23/1/115
f   123/1/8   62/1/8   64/1/8
f   62/1/8   123/1/8   61/1/8
f   62/1/8   61/1/8   58/1/8
f   100/1/116   60/1/116   59/1/116
f   60/1/116   100/1/116   88/1/116
f   61/1/47   100/1/47   59/1/47
f   100/1/47   61/1/47   123/1/47
f   100/1/47   123/1/47   64/1/47
f   100/1/47   64/1/47   120/1/47
f   88/1/117   58/1/117   60/1/117
f   58/1/117   88/1/117   62/1/117
f   83/1/95   85/1/94   111/1/93
f   85/1/94   112/1/94   111/1/93
usemtl Default_Material
f   110/1/115   84/1/115   98/1/115
f   84/1/115   110/1/115   112/1/115
f   84/1/115   112/1/115   85/1/115
f   98/1/118   84/1/118   110/1/118
f   112/1/118   110/1/118   84/1/118
f   85/1/118   112/1/118   84/1/118
usemtl __Color_A01_
f   85/1/119   24/1/119   112/1/119
