#Exported from SketchUp with ZbylsXExporter

mtllib stick6.mtl

  v   0.0100   0.0100  -0.0000
  v  -0.0100  -0.0100   0.0000
  v   0.0100  -0.0100   0.0000
  v  -0.0100   0.0100  -0.0000
  v   0.0100  -0.0100  -0.0600
  v   0.0100   0.0100  -0.0600
  v  -0.0100  -0.0100  -0.0600
  v  -0.0100   0.0100  -0.0600
  v  -0.0041  -0.0001  -0.0600
  v  -0.0013  -0.0043  -0.0600
  v  -0.0018   0.0040  -0.0600
  v   0.0009  -0.0043  -0.0600
  v   0.0032  -0.0001  -0.0600
  v  -0.0041  -0.0001  -0.0700
  v  -0.0018   0.0040  -0.0704
  v  -0.0013  -0.0043  -0.0696
  v   0.0009  -0.0043  -0.0696
  v   0.0032  -0.0001  -0.0700
  v  -0.0041  -0.0022  -0.0797
  v  -0.0018   0.0018  -0.0811
  v  -0.0013  -0.0061  -0.0784
  v   0.0009  -0.0061  -0.0784
  v   0.0032  -0.0022  -0.0797
  v  -0.0041  -0.0051  -0.0855
  v  -0.0018  -0.0009  -0.0865
  v  -0.0013  -0.0092  -0.0845
  v   0.0009  -0.0092  -0.0845
  v   0.0032  -0.0051  -0.0855
  v  -0.0041  -0.0051  -0.1056
  v  -0.0018  -0.0009  -0.1053
  v  -0.0013  -0.0092  -0.1059
  v   0.0009  -0.0092  -0.1059
  v   0.0032  -0.0051  -0.1056
  v  -0.0018   0.0020  -0.1261
  v  -0.0041  -0.0022  -0.1266
  v  -0.0013  -0.0063  -0.1271
  v   0.0009  -0.0063  -0.1271
  v   0.0032  -0.0022  -0.1266
  v  -0.0018   0.0041  -0.1455
  v  -0.0041  -0.0001  -0.1460
  v  -0.0013  -0.0043  -0.1459
  v   0.0009  -0.0043  -0.1456
  v   0.0032  -0.0002  -0.1451
  v   0.0082   0.0041  -0.1837
  v   0.0059  -0.0001  -0.1843
  v   0.0087  -0.0043  -0.1843
  v   0.0110  -0.0043  -0.1840
  v   0.0132  -0.0002  -0.1834
  v   0.0082   0.0083  -0.2131
  v   0.0059   0.0040  -0.2126
  v   0.0087  -0.0001  -0.2131
  v   0.0110  -0.0000  -0.2136
  v   0.0132   0.0043  -0.2142
  v  -0.0037  -0.0001  -0.2334
  v  -0.0019   0.0040  -0.2351
  v  -0.0009  -0.0042  -0.2339
  v   0.0012  -0.0042  -0.2348
  v   0.0029  -0.0001  -0.2365

  vt   0.0000   0.0000

  vn   0.0000   0.0000   1.0000
  vn   1.0000  -0.0000  -0.0000
  vn  -0.0000  -1.0000  -0.0000
  vn  -1.0000  -0.0000  -0.0000
  vn   0.0000   1.0000  -0.0000
  vn  -0.0000  -0.0000  -1.0000
  vn   0.0000   0.0000  -1.0000
  vn   0.8801  -0.4748  -0.0000
  vn  -0.8801   0.4748   0.0000
  vn   0.8358   0.5491   0.0000
  vn  -0.8358  -0.5491  -0.0000
  vn  -0.0000   1.0000   0.0000
  vn   0.0000  -1.0000  -0.0000
  vn  -0.6413  -0.7673  -0.0000
  vn   0.6413   0.7673   0.0000
  vn   0.8801  -0.4650   0.0961
  vn  -0.8801   0.4650  -0.0961
  vn   0.8358   0.5377  -0.1111
  vn  -0.8358  -0.5377   0.1111
  vn  -0.0000   0.9793  -0.2023
  vn   0.0000  -0.9793   0.2023
  vn  -0.6413  -0.7514   0.1552
  vn   0.6413   0.7514  -0.1552
  vn   0.8801  -0.4243   0.2132
  vn  -0.8801   0.4243  -0.2132
  vn   0.8358   0.4906  -0.2466
  vn  -0.8358  -0.4906   0.2466
  vn   0.0000   0.8935  -0.4491
  vn  -0.0000  -0.8935   0.4491
  vn  -0.6413  -0.6856   0.3446
  vn   0.6413   0.6856  -0.3446
  vn   0.8801  -0.4704  -0.0647
  vn   0.8801  -0.4713  -0.0577
  vn  -0.8801   0.4704   0.0647
  vn  -0.8801   0.4713   0.0577
  vn   0.8358   0.5440   0.0748
  vn   0.8358   0.5450   0.0667
  vn  -0.8358  -0.5440  -0.0748
  vn  -0.8358  -0.5450  -0.0667
  vn  -0.0000   0.9907   0.1362
  vn  -0.0000   0.9926   0.1215
  vn   0.0000  -0.9907  -0.1362
  vn   0.0000  -0.9926  -0.1215
  vn  -0.6413  -0.7616  -0.0932
  vn  -0.6413  -0.7601  -0.1045
  vn   0.6413   0.7601   0.1045
  vn   0.6413   0.7616   0.0932
  vn   0.8801  -0.4721  -0.0507
  vn  -0.8801   0.4721   0.0507
  vn   0.8358   0.5459   0.0587
  vn  -0.8358  -0.5459  -0.0587
  vn  -0.0000   0.9943   0.1069
  vn   0.0000  -0.9943  -0.1069
  vn  -0.6413  -0.7629  -0.0820
  vn   0.6413   0.7629   0.0820
  vn   0.8452  -0.4869   0.2205
  vn  -0.8452   0.4869  -0.2205
  vn   0.8159   0.5375   0.2129
  vn  -0.8159  -0.5375  -0.2129
  vn   0.0133   0.9999   0.0035
  vn  -0.0133  -0.9999  -0.0035
  vn  -0.6307  -0.7584  -0.1646
  vn   0.6307   0.7584   0.1646
  vn   0.8823  -0.4658  -0.0676
  vn  -0.8823   0.4658   0.0676
  vn   0.8332   0.5473   0.0794
  vn  -0.8332  -0.5473  -0.0794
  vn  -0.0048   0.9896   0.1436
  vn   0.0048  -0.9896  -0.1436
  vn  -0.6376  -0.7624  -0.1106
  vn   0.6376   0.7624   0.1106
  vn   0.8334  -0.4698  -0.2911
  vn  -0.8334   0.4698   0.2911
  vn   0.7197   0.5380  -0.4388
  vn  -0.7197  -0.5380   0.4388
  vn  -0.0717   0.9841  -0.1624
  vn   0.0717  -0.9841   0.1624
  vn  -0.5274  -0.7533   0.3929
  vn   0.5274   0.7533  -0.3929
  vn   0.4122   0.1775   0.8936
  vn  -0.4122  -0.1775  -0.8936

usemtl __Color_A01_
f   1/1/1   2/1/1   3/1/1
f   2/1/1   1/1/1   4/1/1
f   5/1/2   1/1/2   3/1/2
f   1/1/2   5/1/2   6/1/2
f   7/1/3   3/1/3   2/1/3
f   3/1/3   7/1/3   5/1/3
f   4/1/4   7/1/4   2/1/4
f   7/1/4   4/1/4   8/1/4
f   1/1/5   8/1/5   4/1/5
f   8/1/5   1/1/5   6/1/5
f   7/1/6   9/1/6   10/1/6
f   9/1/6   7/1/6   8/1/6
f   9/1/6   8/1/6   11/1/6
f   5/1/6   12/1/6   6/1/6
f   12/1/6   5/1/6   7/1/6
f   12/1/6   7/1/6   10/1/6
f   6/1/6   12/1/6   13/1/6
f   6/1/6   13/1/6   11/1/6
f   6/1/6   11/1/6   8/1/6
f   9/1/7   12/1/7   10/1/7
f   12/1/7   9/1/7   13/1/7
f   13/1/7   9/1/7   11/1/7
f   14/1/8   11/1/8   9/1/8
f   11/1/8   14/1/8   15/1/8
f   9/1/9   11/1/9   14/1/9
f   15/1/9   14/1/9   11/1/9
f   16/1/10   9/1/10   10/1/10
f   9/1/10   16/1/10   14/1/10
f   10/1/11   9/1/11   16/1/11
f   14/1/11   16/1/11   9/1/11
f   12/1/12   16/1/12   10/1/12
f   16/1/12   12/1/12   17/1/12
f   10/1/13   16/1/13   12/1/13
f   17/1/13   12/1/13   16/1/13
f   13/1/9   17/1/9   12/1/9
f   17/1/9   13/1/9   18/1/9
f   12/1/8   17/1/8   13/1/8
f   18/1/8   13/1/8   17/1/8
f   18/1/14   11/1/14   15/1/14
f   11/1/14   18/1/14   13/1/14
f   15/1/15   11/1/15   18/1/15
f   13/1/15   18/1/15   11/1/15
f   19/1/16   15/1/16   14/1/16
f   15/1/16   19/1/16   20/1/16
f   14/1/17   15/1/17   19/1/17
f   20/1/17   19/1/17   15/1/17
f   21/1/18   14/1/18   16/1/18
f   14/1/18   21/1/18   19/1/18
f   16/1/19   14/1/19   21/1/19
f   19/1/19   21/1/19   14/1/19
f   17/1/20   21/1/20   16/1/20
f   21/1/20   17/1/20   22/1/20
f   16/1/21   21/1/21   17/1/21
f   22/1/21   17/1/21   21/1/21
f   18/1/17   22/1/17   17/1/17
f   22/1/17   18/1/17   23/1/17
f   17/1/16   22/1/16   18/1/16
f   23/1/16   18/1/16   22/1/16
f   20/1/22   18/1/22   15/1/22
f   18/1/22   20/1/22   23/1/22
f   15/1/23   18/1/23   20/1/23
f   23/1/23   20/1/23   18/1/23
f   24/1/24   20/1/24   19/1/24
f   20/1/24   24/1/24   25/1/24
f   19/1/25   20/1/25   24/1/25
f   25/1/25   24/1/25   20/1/25
f   26/1/26   19/1/26   21/1/26
f   19/1/26   26/1/26   24/1/26
f   21/1/27   19/1/27   26/1/27
f   24/1/27   26/1/27   19/1/27
f   21/1/28   27/1/28   26/1/28
f   27/1/28   21/1/28   22/1/28
f   26/1/29   27/1/29   21/1/29
f   22/1/29   21/1/29   27/1/29
f   23/1/25   27/1/25   22/1/25
f   27/1/25   23/1/25   28/1/25
f   22/1/24   27/1/24   23/1/24
f   28/1/24   23/1/24   27/1/24
f   28/1/30   20/1/30   25/1/30
f   20/1/30   28/1/30   23/1/30
f   25/1/31   20/1/31   28/1/31
f   23/1/31   28/1/31   20/1/31
f   29/1/8   25/1/8   24/1/8
f   25/1/8   29/1/8   30/1/8
f   24/1/9   25/1/9   29/1/9
f   30/1/9   29/1/9   25/1/9
f   31/1/10   24/1/10   26/1/10
f   24/1/10   31/1/10   29/1/10
f   26/1/11   24/1/11   31/1/11
f   29/1/11   31/1/11   24/1/11
f   27/1/12   31/1/12   26/1/12
f   31/1/12   27/1/12   32/1/12
f   26/1/13   31/1/13   27/1/13
f   32/1/13   27/1/13   31/1/13
f   28/1/9   32/1/9   27/1/9
f   32/1/9   28/1/9   33/1/9
f   27/1/8   32/1/8   28/1/8
f   33/1/8   28/1/8   32/1/8
f   33/1/14   25/1/14   30/1/14
f   25/1/14   33/1/14   28/1/14
f   30/1/15   25/1/15   33/1/15
f   28/1/15   33/1/15   25/1/15
f   29/1/32   34/1/33   30/1/32
f   34/1/33   29/1/32   35/1/33
f   30/1/34   34/1/35   29/1/34
f   35/1/35   29/1/34   34/1/35
f   31/1/36   35/1/37   29/1/36
f   35/1/37   31/1/36   36/1/37
f   29/1/38   35/1/39   31/1/38
f   36/1/39   31/1/38   35/1/39
f   32/1/40   36/1/41   31/1/40
f   36/1/41   32/1/40   37/1/41
f   31/1/42   36/1/43   32/1/42
f   37/1/43   32/1/42   36/1/43
f   38/1/35   32/1/34   33/1/34
f   32/1/34   38/1/35   37/1/35
f   33/1/32   32/1/32   38/1/33
f   37/1/33   38/1/33   32/1/32
f   34/1/44   33/1/45   30/1/45
f   33/1/45   34/1/44   38/1/44
f   30/1/46   33/1/46   34/1/47
f   38/1/47   34/1/47   33/1/46
f   35/1/33   39/1/48   34/1/33
f   39/1/48   35/1/33   40/1/48
f   34/1/35   39/1/49   35/1/35
f   40/1/49   35/1/35   39/1/49
f   36/1/37   40/1/50   35/1/37
f   40/1/50   36/1/37   41/1/50
f   35/1/39   40/1/51   36/1/39
f   41/1/51   36/1/39   40/1/51
f   36/1/41   42/1/52   41/1/52
f   42/1/52   36/1/41   37/1/41
f   41/1/53   42/1/53   36/1/43
f   37/1/43   36/1/43   42/1/53
f   43/1/49   37/1/35   38/1/35
f   37/1/35   43/1/49   42/1/49
f   38/1/33   37/1/33   43/1/48
f   42/1/48   43/1/48   37/1/33
f   43/1/54   34/1/44   39/1/54
f   34/1/44   43/1/54   38/1/44
f   39/1/55   34/1/47   43/1/55
f   38/1/47   43/1/55   34/1/47
f   40/1/56   44/1/56   39/1/56
f   44/1/56   40/1/56   45/1/56
f   39/1/57   44/1/57   40/1/57
f   45/1/57   40/1/57   44/1/57
f   46/1/58   40/1/58   41/1/58
f   40/1/58   46/1/58   45/1/58
f   41/1/59   40/1/59   46/1/59
f   45/1/59   46/1/59   40/1/59
f   42/1/60   46/1/60   41/1/60
f   46/1/60   42/1/60   47/1/60
f   41/1/61   46/1/61   42/1/61
f   47/1/61   42/1/61   46/1/61
f   48/1/57   42/1/57   43/1/57
f   42/1/57   48/1/57   47/1/57
f   43/1/56   42/1/56   48/1/56
f   47/1/56   48/1/56   42/1/56
f   44/1/62   43/1/62   39/1/62
f   43/1/62   44/1/62   48/1/62
f   39/1/63   43/1/63   44/1/63
f   48/1/63   44/1/63   43/1/63
f   45/1/64   49/1/64   44/1/64
f   49/1/64   45/1/64   50/1/64
f   44/1/65   49/1/65   45/1/65
f   50/1/65   45/1/65   49/1/65
f   51/1/66   45/1/66   46/1/66
f   45/1/66   51/1/66   50/1/66
f   46/1/67   45/1/67   51/1/67
f   50/1/67   51/1/67   45/1/67
f   47/1/68   51/1/68   46/1/68
f   51/1/68   47/1/68   52/1/68
f   46/1/69   51/1/69   47/1/69
f   52/1/69   47/1/69   51/1/69
f   53/1/65   47/1/65   48/1/65
f   47/1/65   53/1/65   52/1/65
f   48/1/64   47/1/64   53/1/64
f   52/1/64   53/1/64   47/1/64
f   49/1/70   48/1/70   44/1/70
f   48/1/70   49/1/70   53/1/70
f   44/1/71   48/1/71   49/1/71
f   53/1/71   49/1/71   48/1/71
f   54/1/72   49/1/72   50/1/72
f   49/1/72   54/1/72   55/1/72
f   50/1/73   49/1/73   54/1/73
f   55/1/73   54/1/73   49/1/73
f   51/1/74   54/1/74   50/1/74
f   54/1/74   51/1/74   56/1/74
f   50/1/75   54/1/75   51/1/75
f   56/1/75   51/1/75   54/1/75
f   51/1/76   57/1/76   56/1/76
f   57/1/76   51/1/76   52/1/76
f   56/1/77   57/1/77   51/1/77
f   52/1/77   51/1/77   57/1/77
f   53/1/73   57/1/73   52/1/73
f   57/1/73   53/1/73   58/1/73
f   52/1/72   57/1/72   53/1/72
f   58/1/72   53/1/72   57/1/72
f   58/1/78   49/1/78   55/1/78
f   49/1/78   58/1/78   53/1/78
f   55/1/79   49/1/79   58/1/79
f   53/1/79   58/1/79   49/1/79
f   58/1/80   56/1/80   57/1/80
f   56/1/80   58/1/80   54/1/80
f   54/1/80   58/1/80   55/1/80
f   57/1/81   56/1/81   58/1/81
f   54/1/81   58/1/81   56/1/81
f   55/1/81   58/1/81   54/1/81
