#Exported from SketchUp with ZbylsXExporter

mtllib stick3.mtl

  v   0.0100   0.0100  -0.0000
  v  -0.0100  -0.0100   0.0000
  v   0.0100  -0.0100   0.0000
  v  -0.0100   0.0100  -0.0000
  v   0.0100  -0.0100  -0.1200
  v   0.0100   0.0100  -0.1200
  v  -0.0100  -0.0100  -0.1200
  v  -0.0100   0.0100  -0.1200
  v   0.0049   0.0050  -0.1200
  v  -0.0050   0.0050  -0.2400
  v  -0.0050   0.0050  -0.1200
  v   0.0049   0.0050  -0.2400
  v  -0.0000  -0.0050  -0.1200
  v  -0.0000  -0.0050  -0.2400

  vt   0.0000   0.0000

  vn   0.0000   0.0000   1.0000
  vn   1.0000  -0.0000  -0.0000
  vn  -0.0000  -1.0000  -0.0000
  vn  -1.0000  -0.0000  -0.0000
  vn   0.0000   1.0000  -0.0000
  vn  -0.0000   1.0000  -0.0000
  vn  -0.0000  -0.0000  -1.0000
  vn   0.0000   0.0000  -1.0000
  vn  -0.8951  -0.4459  -0.0000
  vn   0.8977  -0.4406   0.0000

usemtl __Color_A01_
f   1/1/1   2/1/1   3/1/1
f   2/1/1   1/1/1   4/1/1
f   5/1/2   1/1/2   3/1/2
f   1/1/2   5/1/2   6/1/2
f   7/1/3   3/1/3   2/1/3
f   3/1/3   7/1/3   5/1/3
f   4/1/4   7/1/4   2/1/4
f   7/1/4   4/1/4   8/1/4
f   1/1/5   8/1/5   4/1/5
f   8/1/5   1/1/5   6/1/5
f   9/1/6   10/1/6   11/1/6
f   10/1/6   9/1/6   12/1/6
f   8/1/7   13/1/7   7/1/7
f   13/1/7   8/1/7   11/1/7
f   11/1/7   8/1/7   9/1/7
f   5/1/7   13/1/7   6/1/7
f   13/1/7   5/1/7   7/1/7
f   6/1/7   13/1/7   9/1/7
f   6/1/7   9/1/7   8/1/7
f   12/1/8   14/1/8   10/1/8
f   10/1/9   13/1/9   11/1/9
f   13/1/9   10/1/9   14/1/9
f   13/1/10   12/1/10   9/1/10
f   12/1/10   13/1/10   14/1/10
