# Alias OBJ Model File
# Exported from SketchUp, (c) 2000-2012 Trimble Navigation Limited
# File units = meters

mtllib hoe.mtl

g Mesh1 Model

usemtl Color_A01
v -0.01 -0.01 -0.24
vt 0.393701 -0.393701
vn 0 -3.63683e-016 -1
v -0.01 0.05 -0.24
vt 0.393701 1.9685
v 0.01 0.05 -0.24
vt -0.393701 1.9685
v 0.01 -0.01 -0.24
vt -0.393701 -0.393701
f 1/1/1 2/2/1 3/3/1 4/4/1 

vt -9.44882 -0.393701
vn -1 0 -0
v -0.01 -0.01 -0.0634925
vt -2.49971 -0.393701
v -0.01 0.01 -0.0634925
vt -2.49971 0.393701
v -0.01 0.01 -0.230197
vt -9.06286 0.393701
v -0.01 0.05 -0.230197
vt -9.06286 1.9685
vt -9.44882 1.9685
f 1/5/2 5/6/2 6/7/2 7/8/2 8/9/2 2/10/2 

vt -0.393701 9.44882
vn 0 -1 4.79294e-016
v 0.01 -0.01 -0.0634925
vt -0.393701 2.49971
vt 0.393701 2.49971
vt 0.393701 9.44882
f 4/11/3 9/12/3 5/13/3 1/14/3 

v 0.01 0.01 -0.230197
vt 9.06286 0.393701
vn 1 0 -0
v 0.01 0.01 -0.0634925
vt 2.49971 0.393701
vt 2.49971 -0.393701
vt 9.44882 -0.393701
vt 9.44882 1.9685
v 0.01 0.05 -0.230197
vt 9.06286 1.9685
f 10/15/4 11/16/4 9/17/4 4/18/4 3/19/4 12/20/4 

vt -0.393701 9.06286
vn 0 1 -4.82106e-016
vt 0.393701 9.06286
f 7/21/5 6/12/5 11/13/5 10/22/5 

usemtl FrontColor
vt 0.393701 0.393701
vn 0 5.63993e-016 -1
vt -0.393701 0.393701
f 6/23/6 11/24/6 9/4/6 5/1/6 

usemtl Color_A01
vn 0 -3.78771e-016 -1
v -0.0148901 0.0148901 -0.0634925
vt 0.586224 0.586224
f 6/23/7 13/25/7 11/24/7

f 5/1/7 13/25/7 6/23/7

v -0.0148901 -0.0148901 -0.0634925
vt 0.586224 -0.586224
f 5/1/7 14/26/7 13/25/7

v 0.0148901 -0.0148901 -0.0634925
vt -0.586224 -0.586224
f 14/26/7 5/1/7 15/27/7

f 9/4/7 15/27/7 5/1/7

v 0.0148901 0.0148901 -0.0634925
vt -0.586224 0.586224
f 15/27/7 9/4/7 16/28/7

f 16/28/7 9/4/7 11/24/7

f 16/28/7 11/24/7 13/25/7

v -0.0148901 0.0148901 -1.77845e-018
vt -0.586224 -1.43182e-016
vn 0 1 -3.63683e-016
v 0.0148901 0.0148901 -1.77845e-018
vt 0.586224 -1.43182e-016
vt 0.586224 2.49971
vt -0.586224 2.49971
f 17/29/8 18/30/8 16/31/8 13/32/8 

v 0.0148901 -0.0148901 9.05211e-018
vn 0 3.63683e-016 1
v -0.0148901 -0.0148901 9.05211e-018
f 19/26/9 18/25/9 17/28/9 20/27/9 

vt 7.00176e-017 0.586224
vt -3.56382e-016 -0.586224
vt 2.49971 -0.586224
vt 2.49971 0.586224
f 18/33/4 19/34/4 15/35/4 16/36/4 

vn 0 -1 3.63683e-016
f 19/29/10 20/30/10 14/31/10 15/32/10 

vt 3.56382e-016 -0.586224
vt -7.00176e-017 0.586224
vt -2.49971 0.586224
vt -2.49971 -0.586224
f 20/37/2 17/38/2 13/39/2 14/40/2 

vn 0 2.87652e-016 1
f 7/24/11 10/23/11 12/2/11 8/3/11 

vn 0 1 -2.87652e-016
f 2/11/12 8/21/12 12/22/12 3/14/12 

