# Alias OBJ Model File
# Exported from SketchUp, (c) 2000-2012 Trimble Navigation Limited
# File units = meters

mtllib rakeFlat.mtl

g Mesh1 Model

usemtl Color_A01
v 0.01 0.01 -2.34809e-033
vt 0.393701 0.393701
vn 0 3.63683e-016 1
v -0.01 0.01 -2.34809e-033
vt -0.393701 0.393701
v -0.01 -0.01 7.27366e-018
vt -0.393701 -0.393701
v 0.01 -0.01 7.27366e-018
vt 0.393701 -0.393701
f 1/1/1 2/2/1 3/3/1 4/4/1 

vt 0.393701 -1.90506e-016
vn 0 1 -4.83885e-016
v 0.01 0.01 -0.230197
vt 0.393701 9.06286
v -0.01 0.01 -0.230197
vt -0.393701 9.06286
vt -0.393701 -1.90506e-016
f 1/5/2 5/6/2 6/7/2 2/8/2 

vt -2.86365e-016 -0.393701
vn 1 0 -0
v 0.01 -0.01 -0.230197
vt 9.06286 -0.393701
vt 9.06286 0.393701
vt 9.24446e-032 0.393701
f 4/9/3 7/10/3 5/11/3 1/12/3 

vt -0.393701 -1.43182e-016
vn 0 -1 3.63683e-016
vt 0.393701 -1.43182e-016
v -0.01 -0.01 -0.230197
v -0.04 -0.01 -0.230197
vt 1.5748 9.06286
v -0.04 -0.01 -0.24
vt 1.5748 9.44882
v 0.04 -0.01 -0.24
vt -1.5748 9.44882
v 0.04 -0.01 -0.230197
vt -1.5748 9.06286
f 4/13/4 3/14/4 8/6/4 9/15/4 10/16/4 11/17/4 12/18/4 7/7/4 

vt -9.24446e-032 0.393701
vn -1 0 -0
vt -9.06286 0.393701
vt -9.06286 -0.393701
vt 2.86365e-016 -0.393701
f 2/19/5 6/20/5 8/21/5 3/22/5 

v -0.04 0.06 -0.230197
vt -1.5748 2.3622
vn 0 0 1
vt -1.5748 -0.393701
vt 1.5748 -0.393701
v 0.04 0.06 -0.230197
vt 1.5748 2.3622
f 13/23/6 9/24/6 8/3/6 6/2/6 5/1/6 7/4/6 12/25/6 14/26/6 

vt -9.44882 -0.393701
vt -9.06286 2.3622
v -0.04 0.06 -0.24
vt -9.44882 2.3622
f 10/27/5 9/21/5 13/28/5 15/29/5 

v 0.04 0.06 -0.24
vn 0 1 -2.87652e-016
f 16/16/7 15/17/7 13/18/7 14/15/7 

vn 0 -3.63683e-016 -1
f 11/24/8 10/25/8 15/26/8 16/23/8 

vt 9.06286 2.3622
vt 9.44882 -0.393701
vt 9.44882 2.3622
f 14/30/3 12/10/3 11/31/3 16/32/3 

