# Alias OBJ Model File
# Exported from SketchUp, (c) 2000-2012 Trimble Navigation Limited
# File units = meters

mtllib rakeRoundy.mtl

g Mesh1 Model

usemtl Color_A01
v 0.01 0.01 -2.34809e-033
vt 0.393701 0.393701
vn 0 3.63683e-016 1
v -0.01 0.01 -2.34809e-033
vt -0.393701 0.393701
v -0.01 -0.01 7.27366e-018
vt -0.393701 -0.393701
v 0.01 -0.01 7.27366e-018
vt 0.393701 -0.393701
f 1/1/1 2/2/1 3/3/1 4/4/1 

vt 0.393701 -1.90506e-016
vn 0 1 -4.83885e-016
v 0.01 0.01 -0.230197
vt 0.393701 9.06286
v -0.01 0.01 -0.230197
vt -0.393701 9.06286
vt -0.393701 -1.90506e-016
f 1/5/2 5/6/2 6/7/2 2/8/2 

vt -2.86365e-016 -0.393701
vn 1 0 -0
v 0.01 -0.01 -0.230197
vt 9.06286 -0.393701
vt 9.06286 0.393701
vt 9.24446e-032 0.393701
f 4/9/3 7/10/3 5/11/3 1/12/3 

v -0.01 -0.01 -0.230197
vn 1.00463e-032 -1 4.56506e-016
v -0.06 -0.01 -0.230197
vt 2.3622 9.06286
v -0.06 -0.01 -0.24
vt 2.3622 9.44882
v 0.06 -0.01 -0.24
vt -2.3622 9.44882
v 0.06 -0.01 -0.230197
vt -2.3622 9.06286
vt -0.393701 -1.06638e-016
vt 0.393701 -1.06638e-016
f 8/6/4 9/13/4 10/14/4 11/15/4 12/16/4 7/7/4 4/17/4 3/18/4 

vn 9.15158e-032 -5.28426e-016 1
vt 2.3622 -0.393701
v 0.08 0.01 -0.230197
vt 3.14961 0.393701
v 0.08 0.02 -0.230197
vt 3.14961 0.787402
v 0.06 0.04 -0.230197
vt 2.3622 1.5748
v 0.06 0.05 -0.230197
vt 2.3622 1.9685
v -0.06 0.05 -0.230197
vt -2.3622 1.9685
v -0.06 0.04 -0.230197
vt -2.3622 1.5748
v -0.08 0.02 -0.230197
vt -3.14961 0.787402
v -0.08 0.01 -0.230197
vt -3.14961 0.393701
vt -2.3622 -0.393701
f 7/4/5 12/19/5 13/20/5 14/21/5 15/22/5 16/23/5 17/24/5 18/25/5 19/26/5 20/27/5 9/28/5 8/3/5 6/2/5 5/1/5 

vt 9.44882 1.39194
vn 0.707107 -0.707107 1.581e-015
v 0.08 0.01 -0.24
vt 9.44882 2.5055
vt 9.06286 2.5055
vt 9.06286 1.39194
f 11/29/6 21/30/6 13/31/6 12/32/6 

vn 7.68785e-033 -6.33256e-016 -1
v -0.08 0.01 -0.24
v -0.08 0.02 -0.24
v -0.06 0.04 -0.24
v -0.06 0.05 -0.24
v 0.06 0.05 -0.24
v 0.06 0.04 -0.24
v 0.08 0.02 -0.24
f 11/28/7 10/19/7 22/20/7 23/21/7 24/22/7 25/23/7 26/24/7 27/25/7 28/26/7 21/27/7 

vt -9.44882 2.5055
vn -0.707107 -0.707107 1.581e-015
vt -9.44882 1.39194
vt -9.06286 1.39194
vt -9.06286 2.5055
f 22/33/8 10/34/8 9/35/8 20/36/8 

vt -9.44882 0.393701
vn -1 0 -0
vt -9.06286 0.393701
vt -9.06286 0.787402
vt -9.44882 0.787402
f 22/37/9 20/38/9 19/39/9 23/40/9 

vt -9.06286 -1.67033
vn -0.707107 0.707107 -9.36139e-031
vt -9.06286 -0.556777
vt -9.44882 -0.556777
vt -9.44882 -1.67033
f 19/41/10 18/42/10 24/43/10 23/44/10 

vt -9.44882 1.5748
vt -9.06286 1.5748
vt -9.06286 1.9685
vt -9.44882 1.9685
f 24/45/9 18/46/9 17/47/9 25/48/9 

vn 0 1 -0
f 17/16/11 16/13/11 26/14/11 25/15/11 

vt 9.06286 1.5748
vt 9.44882 1.5748
vt 9.44882 1.9685
vt 9.06286 1.9685
f 15/49/3 27/50/3 26/51/3 16/52/3 

vt 9.06286 -0.556777
vn 0.707107 0.707107 1.85198e-030
vt 9.06286 -1.67033
vt 9.44882 -1.67033
vt 9.44882 -0.556777
f 15/53/12 14/54/12 28/55/12 27/56/12 

vt 9.06286 0.787402
vt 9.44882 0.393701
vt 9.44882 0.787402
f 14/57/3 13/11/3 21/58/3 28/59/3 

vt -9.24446e-032 0.393701
vt -9.06286 -0.393701
vt 2.86365e-016 -0.393701
f 2/60/9 6/38/9 8/61/9 3/62/9 

