#Exported from SketchUp with ZbylsXExporter

mtllib hoe2.mtl

  v  -0.0100   0.0100  -0.0700
  v  -0.0100  -0.0100  -0.2302
  v  -0.0100  -0.0100  -0.0700
  v  -0.0100   0.0100  -0.2302
  v  -0.0100  -0.0000  -0.2302
  v   0.0100   0.0100  -0.0700
  v   0.0100   0.0100  -0.2302
  v   0.0100  -0.0100  -0.2302
  v   0.0100  -0.0100  -0.0700
  v   0.0100  -0.0000  -0.2302
  v  -0.0200   0.0300  -0.2400
  v  -0.0200   0.0300  -0.2302
  v  -0.0100  -0.0000  -0.2400
  v  -0.0100  -0.0087  -0.2303
  v  -0.0100  -0.0074  -0.2305
  v  -0.0100  -0.0062  -0.2309
  v  -0.0100  -0.0050  -0.2314
  v  -0.0100  -0.0039  -0.2322
  v  -0.0100  -0.0029  -0.2330
  v  -0.0100  -0.0021  -0.2340
  v  -0.0100  -0.0013  -0.2350
  v  -0.0100  -0.0008  -0.2362
  v  -0.0100  -0.0003  -0.2374
  v  -0.0100  -0.0001  -0.2387
  v   0.0100  -0.0087  -0.2303
  v   0.0100  -0.0001  -0.2387
  v   0.0100  -0.0000  -0.2400
  v   0.0100  -0.0003  -0.2374
  v   0.0100  -0.0008  -0.2362
  v   0.0100  -0.0013  -0.2350
  v   0.0100  -0.0021  -0.2340
  v   0.0100  -0.0029  -0.2330
  v   0.0100  -0.0039  -0.2322
  v   0.0100  -0.0050  -0.2314
  v   0.0100  -0.0062  -0.2309
  v   0.0100  -0.0074  -0.2305
  v   0.0200   0.0300  -0.2400
  v  -0.0200   0.0600  -0.2400
  v   0.0200   0.0600  -0.2400
  v   0.0200   0.0300  -0.2302
  v   0.0122   0.0122  -0.0000
  v  -0.0122  -0.0122   0.0000
  v   0.0122  -0.0122   0.0000
  v  -0.0122   0.0122  -0.0000
  v  -0.0122  -0.0122  -0.0700
  v   0.0122  -0.0122  -0.0700
  v  -0.0122   0.0122  -0.0700
  v   0.0122   0.0122  -0.0700
  v   0.0200   0.0600  -0.2302
  v  -0.0200   0.0600  -0.2302

  vt   0.0000   0.0000

  vn  -1.0000   0.0000  -0.0000
  vn  -0.0000   1.0000  -0.0000
  vn   1.0000   0.0000  -0.0000
  vn  -0.9487  -0.3162  -0.0000
  vn   0.0000  -1.0000   0.0000
  vn  -1.0000  -0.0000  -0.0000
  vn   0.0000  -0.1125  -0.9937
  vn   0.0000  -0.0464  -0.9989
  vn  -0.0000  -0.9978  -0.0662
  vn  -0.0000  -0.9912  -0.1322
  vn   0.0000  -0.9651  -0.2620
  vn   0.0000  -0.9220  -0.3873
  vn   0.0000  -0.8627  -0.5057
  vn   0.0000  -0.7883  -0.6153
  vn   0.0000  -0.7001  -0.7141
  vn   0.0000  -0.5995  -0.8004
  vn   0.0000  -0.4885  -0.8726
  vn   0.0000  -0.3689  -0.9295
  vn   0.0000  -0.2428  -0.9701
  vn   0.0000  -0.0000  -1.0000
  vn   1.0000  -0.0000  -0.0000
  vn   0.9487  -0.3162  -0.0000
  vn   0.0000   0.0000   1.0000
  vn   0.0000   1.0000  -0.0000
  vn   1.0000   0.0000   0.0000

usemtl __Color_A01_
f   1/1/1   2/1/1   3/1/1
f   2/1/1   1/1/1   4/1/1
f   2/1/1   4/1/1   5/1/1
f   6/1/2   4/1/2   1/1/2
f   4/1/2   6/1/2   7/1/2
f   8/1/3   6/1/3   9/1/3
f   6/1/3   8/1/3   7/1/3
f   7/1/3   8/1/3   10/1/3
f   11/1/4   5/1/4   12/1/4
f   5/1/4   11/1/4   13/1/4
f   8/1/5   3/1/5   2/1/5
f   3/1/5   8/1/5   9/1/5
f   5/1/6   14/1/6   2/1/6
f   14/1/6   5/1/6   15/1/6
f   15/1/6   5/1/6   16/1/6
f   16/1/6   5/1/6   17/1/6
f   17/1/6   5/1/6   18/1/6
f   18/1/6   5/1/6   19/1/6
f   19/1/6   5/1/6   20/1/6
f   20/1/6   5/1/6   21/1/6
f   21/1/6   5/1/6   22/1/6
f   22/1/6   5/1/6   23/1/6
f   23/1/6   5/1/6   24/1/6
f   24/1/6   5/1/6   13/1/6
f   14/1/7   8/1/8   2/1/8
f   8/1/8   14/1/7   25/1/7
f   13/1/9   26/1/10   24/1/10
f   26/1/10   13/1/9   27/1/9
f   26/1/10   23/1/11   24/1/10
f   23/1/11   26/1/10   28/1/11
f   28/1/11   22/1/12   23/1/11
f   22/1/12   28/1/11   29/1/12
f   29/1/12   21/1/13   22/1/12
f   21/1/13   29/1/12   30/1/13
f   30/1/13   20/1/14   21/1/13
f   20/1/14   30/1/13   31/1/14
f   31/1/14   19/1/15   20/1/14
f   19/1/15   31/1/14   32/1/15
f   19/1/15   33/1/16   18/1/16
f   33/1/16   19/1/15   32/1/15
f   18/1/16   34/1/17   17/1/17
f   34/1/17   18/1/16   33/1/16
f   17/1/17   35/1/18   16/1/18
f   35/1/18   17/1/17   34/1/17
f   16/1/18   36/1/19   15/1/19
f   36/1/19   16/1/18   35/1/18
f   15/1/19   25/1/7   14/1/7
f   25/1/7   15/1/19   36/1/19
f   13/1/20   37/1/20   27/1/20
f   37/1/20   13/1/20   11/1/20
f   37/1/20   11/1/20   38/1/20
f   37/1/20   38/1/20   39/1/20
f   25/1/21   10/1/21   8/1/21
f   10/1/21   25/1/21   36/1/21
f   10/1/21   36/1/21   35/1/21
f   10/1/21   35/1/21   34/1/21
f   10/1/21   34/1/21   33/1/21
f   10/1/21   33/1/21   32/1/21
f   10/1/21   32/1/21   31/1/21
f   10/1/21   31/1/21   30/1/21
f   10/1/21   30/1/21   29/1/21
f   10/1/21   29/1/21   28/1/21
f   10/1/21   28/1/21   26/1/21
f   10/1/21   26/1/21   27/1/21
f   27/1/22   40/1/22   10/1/22
f   40/1/22   27/1/22   37/1/22
f   41/1/23   42/1/23   43/1/23
f   42/1/23   41/1/23   44/1/23
f   45/1/20   3/1/20   46/1/20
f   3/1/20   45/1/20   47/1/20
f   3/1/20   47/1/20   1/1/20
f   1/1/20   47/1/20   6/1/20
f   46/1/20   9/1/20   48/1/20
f   9/1/20   46/1/20   3/1/20
f   48/1/20   9/1/20   6/1/20
f   48/1/20   6/1/20   47/1/20
f   41/1/24   47/1/24   44/1/24
f   47/1/24   41/1/24   48/1/24
f   44/1/1   45/1/1   42/1/1
f   45/1/1   44/1/1   47/1/1
f   46/1/5   42/1/5   45/1/5
f   42/1/5   46/1/5   43/1/5
f   46/1/3   41/1/3   43/1/3
f   41/1/3   46/1/3   48/1/3
f   49/1/24   38/1/24   50/1/24
f   38/1/24   49/1/24   39/1/24
f   40/1/23   7/1/23   10/1/23
f   7/1/23   40/1/23   4/1/23
f   4/1/23   12/1/23   5/1/23
f   12/1/23   4/1/23   40/1/23
f   12/1/23   40/1/23   49/1/23
f   12/1/23   49/1/23   50/1/23
f   38/1/1   12/1/1   50/1/1
f   12/1/1   38/1/1   11/1/1
f   37/1/25   49/1/25   40/1/25
f   49/1/25   37/1/25   39/1/25
