#Exported from SketchUp with ZbylsXExporter

mtllib hoe4.mtl

  v   0.0100  -0.0100  -0.2300
  v  -0.0100  -0.0100  -0.0700
  v  -0.0100  -0.0100  -0.2300
  v   0.0100  -0.0100  -0.0700
  v   0.0100  -0.0000  -0.0700
  v   0.0100  -0.0000  -0.2302
  v   0.0100  -0.0000  -0.2400
  v   0.0200   0.0600  -0.2302
  v  -0.0100  -0.0000  -0.2400
  v   0.0100   0.0400  -0.2400
  v  -0.0100   0.0400  -0.2400
  v  -0.0200   0.0600  -0.2302
  v  -0.0100  -0.0000  -0.2302
  v   0.0037  -0.0137   0.0000
  v  -0.0037  -0.0137   0.0000
  v   0.0000  -0.0141   0.0000
  v  -0.0071  -0.0122   0.0000
  v   0.0071  -0.0122   0.0000
  v  -0.0100  -0.0100   0.0000
  v   0.0100  -0.0100   0.0000
  v   0.0122  -0.0071  -0.0000
  v  -0.0122  -0.0071   0.0000
  v  -0.0137  -0.0037   0.0000
  v   0.0137  -0.0037  -0.0000
  v  -0.0141  -0.0000   0.0000
  v   0.0141   0.0000  -0.0000
  v  -0.0137   0.0037   0.0000
  v   0.0137   0.0037  -0.0000
  v  -0.0122   0.0071   0.0000
  v   0.0122   0.0071  -0.0000
  v  -0.0100   0.0100  -0.0000
  v   0.0100   0.0100  -0.0000
  v   0.0071   0.0122  -0.0000
  v  -0.0071   0.0122  -0.0000
  v  -0.0037   0.0137  -0.0000
  v   0.0037   0.0137  -0.0000
  v  -0.0000   0.0141  -0.0000
  v   0.0100   0.0100  -0.0635
  v   0.0122   0.0071  -0.0700
  v   0.0100   0.0100  -0.0700
  v   0.0137   0.0037  -0.0700
  v   0.0141  -0.0000  -0.0700
  v   0.0137  -0.0037  -0.0700
  v   0.0122  -0.0071  -0.0700
  v   0.0071  -0.0122  -0.0700
  v   0.0037  -0.0137  -0.0700
  v   0.0000  -0.0141  -0.0700
  v  -0.0037  -0.0137  -0.0700
  v  -0.0071  -0.0122  -0.0700
  v  -0.0122  -0.0071  -0.0700
  v  -0.0137  -0.0037  -0.0700
  v  -0.0141  -0.0000  -0.0700
  v  -0.0137   0.0037  -0.0700
  v  -0.0122   0.0071  -0.0700
  v  -0.0100   0.0100  -0.0635
  v  -0.0100   0.0100  -0.0700
  v  -0.0071   0.0122  -0.0700
  v  -0.0037   0.0137  -0.0700
  v  -0.0000   0.0141  -0.0700
  v   0.0037   0.0137  -0.0700
  v   0.0071   0.0122  -0.0700
  v  -0.0100  -0.0000  -0.0700

  vt   0.0000   0.0000

  vn   0.0000  -1.0000   0.0000
  vn   1.0000  -0.0000   0.0000
  vn   0.9864  -0.1644   0.0000
  vn  -0.0000  -0.0000  -1.0000
  vn   0.7001  -0.0000  -0.7141
  vn  -0.7001  -0.0000  -0.7141
  vn  -0.9864  -0.1644  -0.0000
  vn  -0.0000  -0.7071  -0.7071
  vn   0.0000   0.0000   1.0000
  vn   0.8660   0.5000  -0.0000
  vn   0.7071   0.7071  -0.0000
  vn   0.9659   0.2588  -0.0000
  vn   1.0000   0.0000  -0.0000
  vn   0.9659  -0.2588   0.0000
  vn   0.8660  -0.5000   0.0000
  vn   0.7071  -0.7071   0.0000
  vn   0.5000  -0.8660   0.0000
  vn   0.2588  -0.9659   0.0000
  vn  -0.2588  -0.9659   0.0000
  vn  -0.5000  -0.8660   0.0000
  vn  -0.7071  -0.7071   0.0000
  vn  -0.8660  -0.5000   0.0000
  vn  -0.9659  -0.2588   0.0000
  vn  -1.0000  -0.0000   0.0000
  vn  -0.9659   0.2588  -0.0000
  vn  -0.8660   0.5000  -0.0000
  vn  -0.7071   0.7071  -0.0000
  vn  -0.5000   0.8660  -0.0000
  vn  -0.2588   0.9659  -0.0000
  vn   0.0000   1.0000  -0.0000
  vn   0.2588   0.9659  -0.0000
  vn   0.5000   0.8660  -0.0000
  vn  -0.0000   1.0000  -0.0000
  vn  -1.0000   0.0000  -0.0000
  vn  -0.0000   0.0000  -1.0000
  vn   0.0000  -0.0000  -1.0000
  vn   0.0000   0.1613  -0.9869
  vn  -0.0000  -0.1613   0.9869
  vn  -0.0000   0.4401  -0.8979

usemtl __Color_A01_
f   1/1/1   2/1/1   3/1/1
f   2/1/1   1/1/1   4/1/1
f   1/1/2   5/1/2   4/1/2
f   5/1/2   1/1/2   6/1/2
f   6/1/2   1/1/2   7/1/2
f   7/1/3   8/1/3   6/1/3
f   9/1/4   10/1/4   7/1/4
f   10/1/4   9/1/4   11/1/4
f   8/1/5   7/1/5   10/1/5
f   12/1/6   11/1/6   9/1/6
f   9/1/7   13/1/7   12/1/7
f   9/1/8   1/1/8   3/1/8
f   1/1/8   9/1/8   7/1/8
f   14/1/9   15/1/9   16/1/9
f   15/1/9   14/1/9   17/1/9
f   17/1/9   14/1/9   18/1/9
f   17/1/9   18/1/9   19/1/9
f   19/1/9   18/1/9   20/1/9
f   19/1/9   20/1/9   21/1/9
f   19/1/9   21/1/9   22/1/9
f   22/1/9   21/1/9   23/1/9
f   23/1/9   21/1/9   24/1/9
f   23/1/9   24/1/9   25/1/9
f   25/1/9   24/1/9   26/1/9
f   25/1/9   26/1/9   27/1/9
f   27/1/9   26/1/9   28/1/9
f   27/1/9   28/1/9   29/1/9
f   29/1/9   28/1/9   30/1/9
f   29/1/9   30/1/9   31/1/9
f   31/1/9   30/1/9   32/1/9
f   31/1/9   32/1/9   33/1/9
f   31/1/9   33/1/9   34/1/9
f   34/1/9   33/1/9   35/1/9
f   35/1/9   33/1/9   36/1/9
f   35/1/9   36/1/9   37/1/9
f   30/1/10   38/1/11   32/1/11
f   38/1/11   30/1/10   39/1/10
f   38/1/11   39/1/10   40/1/11
f   41/1/12   30/1/10   28/1/12
f   30/1/10   41/1/12   39/1/10
f   42/1/13   28/1/12   26/1/13
f   28/1/12   42/1/13   41/1/12
f   43/1/14   26/1/13   24/1/14
f   26/1/13   43/1/14   42/1/13
f   44/1/15   24/1/14   21/1/15
f   24/1/14   44/1/15   43/1/14
f   4/1/16   21/1/15   20/1/16
f   21/1/15   4/1/16   44/1/15
f   4/1/16   18/1/17   45/1/17
f   18/1/17   4/1/16   20/1/16
f   45/1/17   14/1/18   46/1/18
f   14/1/18   45/1/17   18/1/17
f   46/1/18   16/1/1   47/1/1
f   16/1/1   46/1/18   14/1/18
f   47/1/1   15/1/19   48/1/19
f   15/1/19   47/1/1   16/1/1
f   48/1/19   17/1/20   49/1/20
f   17/1/20   48/1/19   15/1/19
f   49/1/20   19/1/21   2/1/21
f   19/1/21   49/1/20   17/1/20
f   22/1/22   2/1/21   19/1/21
f   2/1/21   22/1/22   50/1/22
f   23/1/23   50/1/22   22/1/22
f   50/1/22   23/1/23   51/1/23
f   25/1/24   51/1/23   23/1/23
f   51/1/23   25/1/24   52/1/24
f   27/1/25   52/1/24   25/1/24
f   52/1/24   27/1/25   53/1/25
f   29/1/26   53/1/25   27/1/25
f   53/1/25   29/1/26   54/1/26
f   31/1/27   54/1/26   29/1/26
f   54/1/26   31/1/27   55/1/27
f   54/1/26   55/1/27   56/1/27
f   34/1/28   55/1/27   31/1/27
f   55/1/27   34/1/28   56/1/27
f   56/1/27   34/1/28   57/1/28
f   35/1/29   57/1/28   34/1/28
f   57/1/28   35/1/29   58/1/29
f   37/1/30   58/1/29   35/1/29
f   58/1/29   37/1/30   59/1/30
f   36/1/31   59/1/30   37/1/30
f   59/1/30   36/1/31   60/1/31
f   33/1/32   60/1/31   36/1/31
f   60/1/31   33/1/32   61/1/32
f   32/1/11   61/1/32   33/1/32
f   61/1/32   32/1/11   40/1/11
f   40/1/11   32/1/11   38/1/11
f   5/1/33   13/1/33   62/1/33
f   13/1/33   5/1/33   6/1/33
f   62/1/34   3/1/34   2/1/34
f   3/1/34   62/1/34   13/1/34
f   3/1/34   13/1/34   9/1/34
f   48/1/35   46/1/35   47/1/35
f   46/1/35   48/1/35   49/1/35
f   46/1/35   49/1/35   45/1/35
f   45/1/35   49/1/35   2/1/35
f   45/1/35   2/1/35   4/1/35
f   50/1/36   62/1/36   2/1/36
f   62/1/36   50/1/36   51/1/36
f   62/1/36   51/1/36   52/1/36
f   62/1/36   52/1/36   5/1/36
f   5/1/36   44/1/36   4/1/36
f   44/1/36   5/1/36   43/1/36
f   43/1/36   5/1/36   42/1/36
f   42/1/36   5/1/36   52/1/36
f   42/1/36   52/1/36   53/1/36
f   42/1/36   53/1/36   41/1/36
f   41/1/36   53/1/36   54/1/36
f   41/1/36   54/1/36   39/1/36
f   39/1/36   54/1/36   56/1/36
f   39/1/36   56/1/36   40/1/36
f   40/1/36   56/1/36   57/1/36
f   40/1/36   57/1/36   61/1/36
f   61/1/36   57/1/36   58/1/36
f   61/1/36   58/1/36   60/1/36
f   60/1/36   58/1/36   59/1/36
usemtl Default_Material
f   9/1/37   8/1/37   7/1/37
f   8/1/37   9/1/37   12/1/37
f   7/1/38   8/1/38   9/1/38
f   12/1/38   9/1/38   8/1/38
usemtl __Color_A01_
f   12/1/39   10/1/39   11/1/39
f   10/1/39   12/1/39   8/1/39
f   8/1/9   13/1/9   6/1/9
f   13/1/9   8/1/9   12/1/9
