#Exported from SketchUp with ZbylsXExporter

mtllib hoe7.mtl

  v  -0.0100   0.0200  -0.2400
  v   0.0100  -0.0100  -0.2400
  v  -0.0100  -0.0100  -0.2400
  v   0.0100   0.0200  -0.2400
  v  -0.0300   0.0300  -0.2400
  v   0.0300   0.0300  -0.2400
  v  -0.0300   0.0400  -0.2400
  v   0.0300   0.0400  -0.2400
  v   0.0100  -0.0100  -0.0635
  v   0.0100  -0.0000  -0.2302
  v   0.0100  -0.0000  -0.0635
  v   0.0100   0.0200  -0.2302
  v  -0.0100  -0.0100  -0.0635
  v   0.0300   0.0400  -0.2302
  v  -0.0300   0.0400  -0.2302
  v   0.0149   0.0149  -0.0000
  v  -0.0149  -0.0149   0.0000
  v   0.0149  -0.0149   0.0000
  v  -0.0149   0.0149  -0.0000
  v  -0.0149  -0.0149  -0.0635
  v   0.0149  -0.0149  -0.0635
  v  -0.0149   0.0149  -0.0635
  v  -0.0100  -0.0000  -0.0635
  v   0.0149   0.0149  -0.0635
  v  -0.0100  -0.0000  -0.2302
  v  -0.0300   0.0300  -0.2302
  v  -0.0100   0.0200  -0.2302
  v   0.0300   0.0300  -0.2302

  vt   0.0000   0.0000

  vn   0.0000  -0.0000  -1.0000
  vn   1.0000  -0.0000   0.0000
  vn   0.0000  -1.0000   0.0000
  vn   0.0000   1.0000  -0.0000
  vn   0.0000   0.0000   1.0000
  vn   1.0000   0.0000  -0.0000
  vn  -1.0000   0.0000  -0.0000
  vn  -0.4472  -0.8944  -0.0000
  vn   0.4472  -0.8944  -0.0000

usemtl __Color_A01_
f   1/1/1   2/1/1   3/1/1
f   2/1/1   1/1/1   4/1/1
f   4/1/1   1/1/1   5/1/1
f   4/1/1   5/1/1   6/1/1
f   6/1/1   5/1/1   7/1/1
f   6/1/1   7/1/1   8/1/1
f   9/1/2   10/1/2   11/1/2
f   10/1/2   9/1/2   2/1/2
f   10/1/2   2/1/2   12/1/2
f   12/1/2   2/1/2   4/1/2
f   2/1/3   13/1/3   3/1/3
f   13/1/3   2/1/3   9/1/3
f   14/1/4   7/1/4   15/1/4
f   7/1/4   14/1/4   8/1/4
f   16/1/5   17/1/5   18/1/5
f   17/1/5   16/1/5   19/1/5
f   20/1/1   13/1/1   21/1/1
f   13/1/1   20/1/1   22/1/1
f   13/1/1   22/1/1   23/1/1
f   23/1/1   22/1/1   11/1/1
f   21/1/1   9/1/1   24/1/1
f   9/1/1   21/1/1   13/1/1
f   24/1/1   9/1/1   11/1/1
f   24/1/1   11/1/1   22/1/1
f   21/1/6   16/1/6   18/1/6
f   16/1/6   21/1/6   24/1/6
f   16/1/4   22/1/4   19/1/4
f   22/1/4   16/1/4   24/1/4
f   19/1/7   20/1/7   17/1/7
f   20/1/7   19/1/7   22/1/7
f   21/1/3   17/1/3   20/1/3
f   17/1/3   21/1/3   18/1/3
f   11/1/4   25/1/4   23/1/4
f   25/1/4   11/1/4   10/1/4
f   7/1/7   26/1/7   15/1/7
f   26/1/7   7/1/7   5/1/7
f   1/1/8   26/1/8   5/1/8
f   26/1/8   1/1/8   27/1/8
f   6/1/6   14/1/6   28/1/6
f   14/1/6   6/1/6   8/1/6
f   6/1/9   12/1/9   4/1/9
f   12/1/9   6/1/9   28/1/9
f   1/1/7   25/1/7   27/1/7
f   25/1/7   1/1/7   3/1/7
f   25/1/7   13/1/7   23/1/7
f   13/1/7   25/1/7   3/1/7
f   12/1/5   25/1/5   10/1/5
f   25/1/5   12/1/5   27/1/5
f   27/1/5   12/1/5   26/1/5
f   26/1/5   12/1/5   28/1/5
f   26/1/5   28/1/5   15/1/5
f   15/1/5   28/1/5   14/1/5
