#Exported from SketchUp with ZbylsXExporter

mtllib hoe9.mtl

  v   0.0100  -0.0100  -0.2302
  v   0.0100  -0.0096  -0.2302
  v   0.0100  -0.0100  -0.0635
  v   0.0100  -0.0000  -0.2302
  v   0.0100  -0.0000  -0.0635
  v  -0.0100  -0.0000  -0.0635
  v  -0.0100  -0.0100  -0.0635
  v   0.0149   0.0149  -0.0000
  v  -0.0149  -0.0149   0.0000
  v   0.0149  -0.0149   0.0000
  v  -0.0149   0.0149  -0.0000
  v  -0.0149  -0.0149  -0.0635
  v   0.0149  -0.0149  -0.0635
  v  -0.0149   0.0149  -0.0635
  v   0.0149   0.0149  -0.0635
  v  -0.0100  -0.0000  -0.2302
  v  -0.0100  -0.0096  -0.2302
  v  -0.0100  -0.0100  -0.2302
  v   0.0084  -0.0100  -0.2302
  v  -0.0084  -0.0100  -0.2302
  v   0.0145  -0.0084  -0.2302
  v   0.0209  -0.0045  -0.2302
  v   0.0258   0.0010  -0.2302
  v  -0.0145  -0.0084  -0.2302
  v  -0.0209  -0.0045  -0.2302
  v  -0.0258   0.0010  -0.2302
  v   0.0289   0.0077  -0.2302
  v  -0.0289   0.0077  -0.2302
  v   0.0300   0.0150  -0.2302
  v  -0.0300   0.0150  -0.2302
  v   0.0289   0.0223  -0.2302
  v  -0.0289   0.0223  -0.2302
  v   0.0258   0.0290  -0.2302
  v  -0.0258   0.0290  -0.2302
  v   0.0209   0.0345  -0.2302
  v  -0.0209   0.0345  -0.2302
  v   0.0145   0.0384  -0.2302
  v  -0.0145   0.0384  -0.2302
  v   0.0074   0.0403  -0.2302
  v   0.0000   0.0400  -0.2302
  v  -0.0074   0.0403  -0.2302
  v  -0.0145  -0.0084  -0.2402
  v  -0.0100  -0.0096  -0.2402
  v  -0.0084  -0.0100  -0.2402
  v  -0.0209  -0.0045  -0.2402
  v  -0.0258   0.0010  -0.2402
  v  -0.0289   0.0077  -0.2402
  v  -0.0300   0.0150  -0.2402
  v  -0.0289   0.0223  -0.2402
  v  -0.0258   0.0290  -0.2402
  v  -0.0209   0.0345  -0.2402
  v  -0.0145   0.0384  -0.2402
  v  -0.0074   0.0403  -0.2402
  v   0.0074   0.0403  -0.2402
  v   0.0145   0.0384  -0.2402
  v   0.0209   0.0345  -0.2402
  v   0.0258   0.0290  -0.2402
  v   0.0289   0.0223  -0.2402
  v   0.0300   0.0150  -0.2402
  v   0.0289   0.0077  -0.2402
  v   0.0258   0.0010  -0.2402
  v   0.0209  -0.0045  -0.2402
  v   0.0145  -0.0084  -0.2402
  v   0.0000   0.0400  -0.2402
  v   0.0084  -0.0100  -0.2402
  v   0.0100  -0.0096  -0.2402

  vt   0.0000   0.0000

  vn   1.0000   0.0000   0.0000
  vn   0.0000   0.0000  -1.0000
  vn   0.0000  -0.0000   1.0000
  vn   0.0000   0.0000   1.0000
  vn   0.0000  -0.0000  -1.0000
  vn   1.0000   0.0000  -0.0000
  vn   0.0000   1.0000  -0.0000
  vn  -1.0000   0.0000  -0.0000
  vn   0.0000  -1.0000   0.0000
  vn  -1.0000  -0.0000  -0.0000
  vn  -0.0000   0.0000  -1.0000
  vn  -0.0000  -0.0000   1.0000
  vn  -0.3919  -0.9200  -0.0000
  vn  -0.2539  -0.9672   0.0000
  vn  -0.6402  -0.7682  -0.0000
  vn  -0.8342  -0.5514  -0.0000
  vn  -0.9577  -0.2879  -0.0000
  vn  -0.9577   0.2879  -0.0000
  vn  -0.8342   0.5514  -0.0000
  vn  -0.6402   0.7682  -0.0000
  vn  -0.3919   0.9200   0.0000
  vn  -0.1105   0.9939   0.0000
  vn   0.3919   0.9200   0.0000
  vn   0.1105   0.9939   0.0000
  vn   0.6402   0.7682   0.0000
  vn   0.8342   0.5514   0.0000
  vn   0.9577   0.2879   0.0000
  vn   1.0000  -0.0000   0.0000
  vn   0.9577  -0.2879   0.0000
  vn   0.8342  -0.5514   0.0000
  vn   0.6402  -0.7682   0.0000
  vn   0.3919  -0.9200   0.0000
  vn   0.2539  -0.9672   0.0000
  vn   0.0353   0.9994   0.0000
  vn  -0.0353   0.9994   0.0000

usemtl __Color_A01_
f   1/1/1   2/1/1   3/1/1
f   3/1/1   4/1/1   5/1/1
f   4/1/1   3/1/1   2/1/1
usemtl Default_Material
f   6/1/2   3/1/2   7/1/2
f   3/1/2   6/1/2   5/1/2
f   7/1/3   3/1/3   6/1/3
f   5/1/3   6/1/3   3/1/3
usemtl __Color_A01_
f   8/1/4   9/1/4   10/1/4
f   9/1/4   8/1/4   11/1/4
f   12/1/5   7/1/5   13/1/5
f   7/1/5   12/1/5   14/1/5
f   7/1/5   14/1/5   6/1/5
f   6/1/5   14/1/5   5/1/5
f   13/1/5   3/1/5   15/1/5
f   3/1/5   13/1/5   7/1/5
f   15/1/5   3/1/5   5/1/5
f   15/1/5   5/1/5   14/1/5
f   13/1/6   8/1/6   10/1/6
f   8/1/6   13/1/6   15/1/6
f   8/1/7   14/1/7   11/1/7
f   14/1/7   8/1/7   15/1/7
f   11/1/8   12/1/8   9/1/8
f   12/1/8   11/1/8   14/1/8
f   13/1/9   9/1/9   12/1/9
f   9/1/9   13/1/9   10/1/9
f   16/1/10   7/1/10   6/1/10
f   7/1/10   16/1/10   17/1/10
f   18/1/10   7/1/10   17/1/10
f   2/1/11   1/1/11   19/1/11
f   17/1/2   20/1/2   18/1/2
f   21/1/12   4/1/12   2/1/12
f   4/1/12   21/1/12   22/1/12
f   4/1/12   22/1/12   23/1/12
f   4/1/12   23/1/12   16/1/12
f   16/1/12   24/1/12   17/1/12
f   24/1/12   16/1/12   25/1/12
f   25/1/12   16/1/12   26/1/12
f   26/1/12   16/1/12   23/1/12
f   26/1/12   23/1/12   27/1/12
f   26/1/12   27/1/12   28/1/12
f   28/1/12   27/1/12   29/1/12
f   28/1/12   29/1/12   30/1/12
f   30/1/12   29/1/12   31/1/12
f   30/1/12   31/1/12   32/1/12
f   32/1/12   31/1/12   33/1/12
f   32/1/12   33/1/12   34/1/12
f   34/1/12   33/1/12   35/1/12
f   34/1/12   35/1/12   36/1/12
f   36/1/12   35/1/12   37/1/12
f   36/1/12   37/1/12   38/1/12
f   38/1/12   37/1/12   39/1/12
f   38/1/12   39/1/12   40/1/12
f   41/1/12   38/1/12   40/1/12
f   5/1/7   16/1/7   6/1/7
f   16/1/7   5/1/7   4/1/7
f   42/1/13   17/1/14   24/1/13
f   17/1/14   42/1/13   43/1/14
f   17/1/14   43/1/14   20/1/14
f   20/1/14   43/1/14   44/1/14
f   45/1/15   24/1/13   25/1/15
f   24/1/13   45/1/15   42/1/13
f   46/1/16   25/1/15   26/1/16
f   25/1/15   46/1/16   45/1/15
f   47/1/17   26/1/16   28/1/17
f   26/1/16   47/1/17   46/1/16
f   48/1/10   28/1/17   30/1/10
f   28/1/17   48/1/10   47/1/17
f   49/1/18   30/1/10   32/1/18
f   30/1/10   49/1/18   48/1/10
f   50/1/19   32/1/18   34/1/19
f   32/1/18   50/1/19   49/1/18
f   36/1/20   50/1/19   34/1/19
f   50/1/19   36/1/20   51/1/20
f   38/1/21   51/1/20   36/1/20
f   51/1/20   38/1/21   52/1/21
f   41/1/22   52/1/21   38/1/21
f   52/1/21   41/1/22   53/1/22
f   37/1/23   54/1/24   39/1/24
f   54/1/24   37/1/23   55/1/23
f   35/1/25   55/1/23   37/1/23
f   55/1/23   35/1/25   56/1/25
f   57/1/26   35/1/25   33/1/26
f   35/1/25   57/1/26   56/1/25
f   58/1/27   33/1/26   31/1/27
f   33/1/26   58/1/27   57/1/26
f   59/1/1   31/1/27   29/1/28
f   31/1/27   59/1/1   58/1/27
f   60/1/29   29/1/28   27/1/29
f   29/1/28   60/1/29   59/1/1
f   23/1/30   60/1/29   27/1/29
f   60/1/29   23/1/30   61/1/30
f   62/1/31   23/1/30   22/1/31
f   23/1/30   62/1/31   61/1/30
f   63/1/32   22/1/31   21/1/32
f   22/1/31   63/1/32   62/1/31
f   53/1/2   64/1/2   52/1/2
f   43/1/2   65/1/2   44/1/2
f   65/1/2   43/1/2   66/1/2
f   66/1/2   43/1/2   42/1/2
f   66/1/2   42/1/2   63/1/2
f   63/1/2   42/1/2   45/1/2
f   63/1/2   45/1/2   62/1/2
f   62/1/2   45/1/2   46/1/2
f   62/1/2   46/1/2   61/1/2
f   61/1/2   46/1/2   47/1/2
f   61/1/2   47/1/2   60/1/2
f   60/1/2   47/1/2   59/1/2
f   59/1/2   47/1/2   48/1/2
f   59/1/2   48/1/2   58/1/2
f   58/1/2   48/1/2   49/1/2
f   58/1/2   49/1/2   57/1/2
f   57/1/2   49/1/2   50/1/2
f   57/1/2   50/1/2   56/1/2
f   56/1/2   50/1/2   51/1/2
f   56/1/2   51/1/2   55/1/2
f   55/1/2   51/1/2   52/1/2
f   55/1/2   52/1/2   54/1/2
f   54/1/2   52/1/2   64/1/2
f   65/1/9   19/1/9   44/1/9
f   18/1/9   3/1/9   7/1/9
f   3/1/9   18/1/9   20/1/9
f   3/1/9   20/1/9   44/1/9
f   3/1/9   44/1/9   19/1/9
f   3/1/9   19/1/9   1/1/9
f   65/1/33   2/1/33   19/1/33
f   2/1/33   65/1/33   66/1/33
f   2/1/33   66/1/33   21/1/32
f   21/1/32   66/1/33   63/1/32
f   40/1/34   53/1/22   41/1/22
f   53/1/22   40/1/34   64/1/34
f   39/1/24   64/1/35   40/1/35
f   64/1/35   39/1/24   54/1/24
