#Exported from SketchUp with ZbylsXExporter

mtllib hook7.mtl

  v  -0.0060  -0.0060  -0.1802
  v   0.0060  -0.0060  -0.0700
  v  -0.0060  -0.0060  -0.0700
  v   0.0060  -0.0060  -0.1802
  v   0.0085  -0.0085  -0.0000
  v  -0.0085   0.0085  -0.0000
  v  -0.0085  -0.0085  -0.0000
  v   0.0085   0.0085  -0.0000
  v  -0.0000   0.0085  -0.0700
  v  -0.0085   0.0085  -0.0700
  v   0.0085   0.0085  -0.0700
  v  -0.0085  -0.0085  -0.0700
  v   0.0085  -0.0085  -0.0700
  v   0.0060   0.0234  -0.2477
  v  -0.0060   0.0234  -0.2477
  v  -0.0000   0.0417  -0.2295
  v  -0.0060   0.0060  -0.1802
  v  -0.0060   0.0060  -0.0700
  v   0.0000  -0.0000  -0.1802
  v  -0.0000  -0.0066  -0.2277
  v  -0.0060  -0.0066  -0.2277
  v   0.0060   0.0060  -0.1802
  v   0.0060   0.0060  -0.0700
  v   0.0060  -0.0066  -0.2277
  v  -0.0160  -0.0126  -0.2277
  v  -0.0053   0.0204  -0.2447
  v  -0.0060   0.0174  -0.2477
  v   0.0053   0.0204  -0.2447
  v   0.0160  -0.0126  -0.2277
  v   0.0060   0.0174  -0.2477
  v   0.0011   0.0373  -0.2279
  v  -0.0000   0.0417  -0.2235
  v  -0.0011   0.0373  -0.2279
  v   0.0004   0.0355  -0.2204
  v  -0.0000   0.0370  -0.2189
  v  -0.0004   0.0355  -0.2204
  v   0.0145  -0.0126  -0.2277

  vt   0.0000   0.0000

  vn   0.0000  -1.0000   0.0000
  vn   0.0000  -0.0000   1.0000
  vn  -0.0000   1.0000   0.0000
  vn  -1.0000  -0.0000   0.0000
  vn   0.0000  -1.0000  -0.0000
  vn   1.0000   0.0000  -0.0000
  vn  -0.0000   0.7071  -0.7071
  vn  -1.0000   0.0000  -0.0000
  vn   0.7038   0.7038  -0.0970
  vn  -0.0000   0.9669  -0.2553
  vn   1.0000  -0.0000   0.0000
  vn   0.0000   0.9669  -0.2553
  vn  -0.7038   0.7038  -0.0970
  vn  -0.9786   0.0000   0.2058
  vn  -0.5019   0.8363  -0.2208
  vn  -0.3079   0.5130   0.8013
  vn  -0.9569   0.2863  -0.0491
  vn   0.3079   0.5130   0.8013
  vn   0.9569   0.2863  -0.0491
  vn   0.5019   0.8363  -0.2208
  vn   0.9786  -0.0000   0.2058
  vn   0.9706  -0.0000   0.2406
  vn  -0.9706  -0.0000   0.2406
  vn  -0.9515   0.3076   0.0045
  vn   0.9515   0.3076   0.0045
  vn   0.0000  -0.7071   0.7071
  vn   0.9850   0.1221   0.1221
  vn  -0.9850   0.1221   0.1221
  vn  -0.0000  -0.9724  -0.2333
  vn  -0.0000  -0.7071   0.7071
  vn   0.3862   0.9224  -0.0000
  vn   0.7061   0.7061  -0.0546
  vn  -0.0000   0.0000  -1.0000
  vn  -0.3862   0.9224  -0.0000
  vn  -0.7061   0.7061  -0.0546
  vn  -0.0000   0.5328   0.8462
  vn   0.0000  -0.9906   0.1365
  vn  -0.0000  -0.5547  -0.8321
  vn   0.0000   0.4579   0.8890
  vn  -0.0000  -0.4579  -0.8890

usemtl __Color_A01_
f   1/1/1   2/1/1   3/1/1
f   2/1/1   1/1/1   4/1/1
f   5/1/2   6/1/2   7/1/2
f   6/1/2   5/1/2   8/1/2
f   6/1/3   9/1/3   10/1/3
f   9/1/3   6/1/3   8/1/3
f   9/1/3   8/1/3   11/1/3
f   10/1/4   7/1/4   6/1/4
f   7/1/4   10/1/4   12/1/4
f   13/1/5   7/1/5   12/1/5
f   7/1/5   13/1/5   5/1/5
f   5/1/6   11/1/6   8/1/6
f   11/1/6   5/1/6   13/1/6
f   14/1/7   15/1/7   16/1/7
f   17/1/8   3/1/8   18/1/8
f   3/1/8   17/1/8   1/1/8
f   19/1/9   20/1/9   17/1/9
f   20/1/10   21/1/10   17/1/10
f   2/1/11   22/1/11   23/1/11
f   22/1/11   2/1/11   4/1/11
f   22/1/12   24/1/12   20/1/12
f   20/1/13   19/1/13   22/1/13
f   25/1/14   1/1/14   17/1/14
f   17/1/15   21/1/15   25/1/15
f   26/1/16   25/1/16   21/1/16
f   27/1/17   25/1/17   26/1/17
f   28/1/18   24/1/18   29/1/18
f   30/1/19   28/1/19   29/1/19
f   29/1/20   24/1/20   22/1/20
f   29/1/21   22/1/21   4/1/21
f   31/1/22   14/1/22   32/1/22
f   14/1/22   31/1/22   28/1/22
f   14/1/22   28/1/22   30/1/22
f   15/1/23   33/1/23   32/1/23
f   33/1/23   15/1/23   26/1/23
f   26/1/23   15/1/23   27/1/23
f   15/1/24   32/1/24   16/1/24
f   14/1/25   16/1/25   32/1/25
f   28/1/26   33/1/26   26/1/26
f   33/1/26   28/1/26   31/1/26
f   34/1/27   32/1/27   35/1/27
f   32/1/27   34/1/27   31/1/27
f   32/1/28   36/1/28   35/1/28
f   36/1/28   32/1/28   33/1/28
usemtl __0020_Red_
f   31/1/29   36/1/29   33/1/29
f   36/1/29   31/1/29   34/1/29
f   34/1/30   35/1/30   36/1/30
usemtl __Color_A01_
f   22/1/31   9/1/31   23/1/31
f   19/1/32   17/1/32   9/1/32
f   12/1/33   3/1/33   13/1/33
f   3/1/33   12/1/33   10/1/33
f   3/1/33   10/1/33   18/1/33
f   18/1/33   10/1/33   9/1/33
f   13/1/33   2/1/33   11/1/33
f   2/1/33   13/1/33   3/1/33
f   11/1/33   2/1/33   23/1/33
f   11/1/33   23/1/33   9/1/33
f   9/1/34   17/1/34   18/1/34
f   19/1/35   9/1/35   22/1/35
f   28/1/36   20/1/36   24/1/36
f   20/1/36   28/1/36   26/1/36
f   26/1/36   21/1/36   20/1/36
f   15/1/33   30/1/33   27/1/33
f   30/1/33   15/1/33   14/1/33
usemtl Default_Material
f   29/1/2   25/1/2   37/1/2
f   25/1/2   29/1/2   21/1/2
f   21/1/2   29/1/2   24/1/2
f   21/1/2   24/1/2   20/1/2
f   37/1/33   25/1/33   29/1/33
f   21/1/33   29/1/33   25/1/33
f   24/1/33   29/1/33   21/1/33
f   20/1/33   24/1/33   21/1/33
usemtl __Color_A01_
f   37/1/37   1/1/37   25/1/37
f   1/1/37   37/1/37   4/1/37
f   4/1/37   37/1/37   29/1/37
f   25/1/38   29/1/38   37/1/38
f   29/1/38   25/1/38   27/1/38
f   29/1/38   27/1/38   30/1/38
usemtl Default_Material
f   29/1/39   25/1/39   37/1/39
f   25/1/39   29/1/39   26/1/39
f   26/1/39   29/1/39   28/1/39
f   37/1/40   25/1/40   29/1/40
f   26/1/40   29/1/40   25/1/40
f   28/1/40   29/1/40   26/1/40
