#Exported from SketchUp with ZbylsXExporter

mtllib Lstick.mtl

  v   0.0100  -0.0100  -0.0635
  v   0.0100   0.0000  -0.0700
  v   0.0100  -0.0000  -0.0635
  v   0.0100  -0.0100  -0.0700
  v  -0.0100  -0.0100  -0.0700
  v  -0.0000  -0.0100  -0.0635
  v  -0.0100  -0.0100  -0.0635
  v   0.0000  -0.0100  -0.0700
  v  -0.0100   0.0100  -0.2302
  v  -0.0100  -0.0000  -0.0635
  v  -0.0100   0.0100  -0.0635
  v  -0.0100   0.0000  -0.0700
  v  -0.0100   0.0000  -0.2302
  v  -0.0000   0.0100  -0.0635
  v  -0.0097   0.0100  -0.2276
  v  -0.0087   0.0100  -0.2252
  v  -0.0071   0.0100  -0.2231
  v  -0.0050   0.0100  -0.2215
  v  -0.0026   0.0100  -0.2205
  v  -0.0000   0.0100  -0.2202
  v   0.0100   0.0100  -0.0635
  v   0.0149   0.0149  -0.0000
  v  -0.0149  -0.0149   0.0000
  v   0.0149  -0.0149   0.0000
  v  -0.0149   0.0149  -0.0000
  v  -0.0149  -0.0149  -0.0635
  v   0.0149  -0.0149  -0.0635
  v  -0.0149   0.0149  -0.0635
  v   0.0149   0.0149  -0.0635
  v  -0.0097   0.1000  -0.2276
  v  -0.0097   0.1000  -0.2328
  v  -0.0100   0.1000  -0.2302
  v  -0.0087   0.1000  -0.2352
  v  -0.0087   0.1000  -0.2252
  v  -0.0071   0.1000  -0.2231
  v  -0.0071   0.1000  -0.2373
  v  -0.0050   0.1000  -0.2389
  v  -0.0050   0.1000  -0.2215
  v  -0.0026   0.1000  -0.2399
  v  -0.0026   0.1000  -0.2205
  v  -0.0015   0.1000  -0.2400
  v  -0.0000   0.1000  -0.2202
  v   0.0015   0.1000  -0.2400
  v   0.0026   0.1000  -0.2205
  v   0.0026   0.1000  -0.2399
  v   0.0050   0.1000  -0.2389
  v   0.0050   0.1000  -0.2215
  v   0.0071   0.1000  -0.2373
  v   0.0071   0.1000  -0.2231
  v   0.0087   0.1000  -0.2352
  v   0.0087   0.1000  -0.2252
  v   0.0097   0.1000  -0.2328
  v   0.0097   0.1000  -0.2276
  v   0.0100   0.1000  -0.2302
  v  -0.0097   0.0000  -0.2328
  v   0.0026   0.0100  -0.2205
  v   0.0050   0.0100  -0.2215
  v   0.0071   0.0100  -0.2231
  v   0.0087   0.0100  -0.2252
  v   0.0097   0.0100  -0.2276
  v   0.0100   0.0100  -0.2302
  v   0.0097  -0.0000  -0.2328
  v   0.0100  -0.0000  -0.2302
  v   0.0087  -0.0000  -0.2352
  v   0.0071  -0.0000  -0.2373
  v   0.0050  -0.0000  -0.2389
  v   0.0026  -0.0000  -0.2399
  v   0.0015  -0.0000  -0.2400
  v  -0.0100   0.0000  -0.2400
  v  -0.0097  -0.0026  -0.2400
  v  -0.0015   0.0000  -0.2400
  v  -0.0026  -0.0097  -0.2400
  v   0.0026  -0.0097  -0.2400
  v  -0.0000  -0.0100  -0.2400
  v  -0.0050  -0.0087  -0.2400
  v   0.0050  -0.0087  -0.2400
  v   0.0071  -0.0071  -0.2400
  v  -0.0071  -0.0071  -0.2400
  v   0.0087  -0.0050  -0.2400
  v  -0.0087  -0.0050  -0.2400
  v   0.0097  -0.0026  -0.2400
  v   0.0100   0.0000  -0.2400
  v  -0.0026   0.0000  -0.2399
  v  -0.0050   0.0000  -0.2389
  v  -0.0071   0.0000  -0.2373
  v  -0.0087   0.0000  -0.2352
  v  -0.0026  -0.0097  -0.0700
  v  -0.0050  -0.0087  -0.0700
  v  -0.0071  -0.0071  -0.0700
  v  -0.0087  -0.0050  -0.0700
  v  -0.0097  -0.0026  -0.0700
  v   0.0097  -0.0026  -0.0700
  v   0.0087  -0.0050  -0.0700
  v   0.0071  -0.0071  -0.0700
  v   0.0050  -0.0087  -0.0700
  v   0.0026  -0.0097  -0.0700

  vt   0.0000   0.0000

  vn   1.0000  -0.0000   0.0000
  vn   0.0000  -1.0000  -0.0000
  vn  -1.0000  -0.0000   0.0000
  vn  -0.0000   1.0000  -0.0000
  vn   0.0000   0.0000  -1.0000
  vn   0.0000  -0.0000   1.0000
  vn   0.0000   0.0000   1.0000
  vn   0.0000  -0.0000  -1.0000
  vn   1.0000   0.0000  -0.0000
  vn   0.0000   1.0000  -0.0000
  vn  -1.0000   0.0000  -0.0000
  vn   0.0000  -1.0000   0.0000
  vn  -0.9659  -0.0000  -0.2588
  vn  -0.9914  -0.0000  -0.1305
  vn  -0.9914   0.0000   0.1305
  vn  -0.9659   0.0000   0.2588
  vn  -0.8660   0.0000   0.5000
  vn  -0.7071   0.0000   0.7071
  vn  -0.5000   0.0000   0.8660
  vn  -0.2588   0.0000   0.9659
  vn  -0.0000   0.0000   1.0000
  vn   0.2588   0.0000   0.9659
  vn   0.5000   0.0000   0.8660
  vn   0.7071   0.0000   0.7071
  vn   0.8660   0.0000   0.5000
  vn   0.9659   0.0000   0.2588
  vn   0.9914   0.0000   0.1305
  vn   0.9659  -0.0000  -0.2588
  vn   0.9914   0.0000  -0.1305
  vn   0.8660  -0.0000  -0.5000
  vn   0.7071  -0.0000  -0.7071
  vn   0.5000  -0.0000  -0.8660
  vn   0.2588  -0.0000  -0.9659
  vn   0.1305   0.0000  -0.9914
  vn  -0.2588  -0.0000  -0.9659
  vn  -0.1305   0.0000  -0.9914
  vn  -0.5000  -0.0000  -0.8660
  vn  -0.7071  -0.0000  -0.7071
  vn  -0.8660  -0.0000  -0.5000
  vn  -0.0000  -1.0000  -0.0000
  vn  -0.0000  -0.0000  -1.0000
  vn  -0.9914  -0.1305   0.0000
  vn  -0.9659  -0.2588   0.0000
  vn  -0.8660  -0.5000   0.0000
  vn  -0.7071  -0.7071   0.0000
  vn  -0.5000  -0.8660   0.0000
  vn  -0.2588  -0.9659   0.0000
  vn  -0.1305  -0.9914   0.0000
  vn   1.0000   0.0000   0.0000
  vn  -0.0000   1.0000   0.0000
  vn   0.2588  -0.9659   0.0000
  vn   0.1305  -0.9914   0.0000
  vn   0.5000  -0.8660   0.0000
  vn   0.7071  -0.7071   0.0000
  vn   0.8660  -0.5000   0.0000
  vn   0.9659  -0.2588   0.0000
  vn   0.9914  -0.1305   0.0000

usemtl __Color_A01_
f   1/1/1   2/1/1   3/1/1
f   2/1/1   1/1/1   4/1/1
f   5/1/2   6/1/2   7/1/2
f   6/1/2   5/1/2   8/1/2
f   9/1/3   10/1/3   11/1/3
f   10/1/3   9/1/3   12/1/3
f   12/1/3   9/1/3   13/1/3
f   14/1/4   9/1/4   11/1/4
f   9/1/4   14/1/4   15/1/4
f   15/1/4   14/1/4   16/1/4
f   16/1/4   14/1/4   17/1/4
f   17/1/4   14/1/4   18/1/4
f   18/1/4   14/1/4   19/1/4
f   19/1/4   14/1/4   20/1/4
usemtl Default_Material
f   10/1/5   6/1/5   7/1/5
f   6/1/5   10/1/5   1/1/5
f   1/1/5   10/1/5   3/1/5
f   3/1/5   10/1/5   11/1/5
f   3/1/5   11/1/5   21/1/5
f   21/1/5   11/1/5   14/1/5
f   7/1/6   6/1/6   10/1/6
f   1/1/6   10/1/6   6/1/6
f   3/1/6   10/1/6   1/1/6
f   11/1/6   10/1/6   3/1/6
f   21/1/6   11/1/6   3/1/6
f   14/1/6   11/1/6   21/1/6
usemtl __Color_A01_
f   22/1/7   23/1/7   24/1/7
f   23/1/7   22/1/7   25/1/7
f   26/1/8   7/1/8   27/1/8
f   7/1/8   26/1/8   28/1/8
f   7/1/8   28/1/8   10/1/8
f   10/1/8   28/1/8   11/1/8
f   11/1/8   28/1/8   14/1/8
f   14/1/8   28/1/8   21/1/8
f   27/1/8   1/1/8   29/1/8
f   1/1/8   27/1/8   7/1/8
f   1/1/8   7/1/8   6/1/8
f   29/1/8   1/1/8   3/1/8
f   29/1/8   3/1/8   21/1/8
f   29/1/8   21/1/8   28/1/8
f   27/1/9   22/1/9   24/1/9
f   22/1/9   27/1/9   29/1/9
f   22/1/10   28/1/10   25/1/10
f   28/1/10   22/1/10   29/1/10
f   25/1/11   26/1/11   23/1/11
f   26/1/11   25/1/11   28/1/11
f   27/1/12   23/1/12   26/1/12
f   23/1/12   27/1/12   24/1/12
f   30/1/4   31/1/4   32/1/4
f   31/1/4   30/1/4   33/1/4
f   33/1/4   30/1/4   34/1/4
f   33/1/4   34/1/4   35/1/4
f   33/1/4   35/1/4   36/1/4
f   36/1/4   35/1/4   37/1/4
f   37/1/4   35/1/4   38/1/4
f   37/1/4   38/1/4   39/1/4
f   39/1/4   38/1/4   40/1/4
f   39/1/4   40/1/4   41/1/4
f   41/1/4   40/1/4   42/1/4
f   41/1/4   42/1/4   43/1/4
f   43/1/4   42/1/4   44/1/4
f   43/1/4   44/1/4   45/1/4
f   45/1/4   44/1/4   46/1/4
f   46/1/4   44/1/4   47/1/4
f   46/1/4   47/1/4   48/1/4
f   48/1/4   47/1/4   49/1/4
f   48/1/4   49/1/4   50/1/4
f   50/1/4   49/1/4   51/1/4
f   50/1/4   51/1/4   52/1/4
f   52/1/4   51/1/4   53/1/4
f   52/1/4   53/1/4   54/1/4
f   31/1/13   9/1/14   32/1/14
f   9/1/14   31/1/13   13/1/14
f   13/1/14   31/1/13   55/1/13
f   32/1/15   15/1/16   30/1/16
f   15/1/16   32/1/15   9/1/15
f   30/1/16   16/1/17   34/1/17
f   16/1/17   30/1/16   15/1/16
f   34/1/17   17/1/18   35/1/18
f   17/1/18   34/1/17   16/1/17
f   38/1/19   17/1/18   18/1/19
f   17/1/18   38/1/19   35/1/18
f   19/1/20   38/1/19   18/1/19
f   38/1/19   19/1/20   40/1/20
f   42/1/21   19/1/20   20/1/21
f   19/1/20   42/1/21   40/1/20
f   44/1/22   20/1/21   56/1/22
f   20/1/21   44/1/22   42/1/21
f   47/1/23   56/1/22   57/1/23
f   56/1/22   47/1/23   44/1/22
f   49/1/24   57/1/23   58/1/24
f   57/1/23   49/1/24   47/1/23
f   59/1/25   49/1/24   58/1/24
f   49/1/24   59/1/25   51/1/25
f   60/1/26   51/1/25   59/1/25
f   51/1/25   60/1/26   53/1/26
f   61/1/27   53/1/26   60/1/26
f   53/1/26   61/1/27   54/1/27
f   62/1/28   61/1/29   63/1/29
f   61/1/29   62/1/28   54/1/29
f   54/1/29   62/1/28   52/1/28
f   64/1/30   52/1/28   62/1/28
f   52/1/28   64/1/30   50/1/30
f   65/1/31   50/1/30   64/1/30
f   50/1/30   65/1/31   48/1/31
f   46/1/32   65/1/31   66/1/32
f   65/1/31   46/1/32   48/1/31
f   45/1/33   66/1/32   67/1/33
f   66/1/32   45/1/33   46/1/32
f   68/1/34   45/1/33   67/1/33
f   45/1/33   68/1/34   43/1/34
f   69/1/5   68/1/5   70/1/5
f   68/1/5   69/1/5   71/1/5
f   68/1/5   71/1/5   43/1/5
f   43/1/5   71/1/5   41/1/5
f   72/1/5   73/1/5   74/1/5
f   73/1/5   72/1/5   75/1/5
f   73/1/5   75/1/5   76/1/5
f   76/1/5   75/1/5   77/1/5
f   77/1/5   75/1/5   78/1/5
f   77/1/5   78/1/5   79/1/5
f   79/1/5   78/1/5   80/1/5
f   79/1/5   80/1/5   81/1/5
f   81/1/5   80/1/5   70/1/5
f   81/1/5   70/1/5   82/1/5
f   82/1/5   70/1/5   68/1/5
f   39/1/35   71/1/36   83/1/35
f   71/1/36   39/1/35   41/1/36
f   84/1/37   39/1/35   83/1/35
f   39/1/35   84/1/37   37/1/37
f   36/1/38   84/1/37   85/1/38
f   84/1/37   36/1/38   37/1/37
f   36/1/38   86/1/39   33/1/39
f   86/1/39   36/1/38   85/1/38
f   33/1/39   55/1/13   31/1/13
f   55/1/13   33/1/39   86/1/39
f   8/1/40   1/1/40   6/1/40
f   1/1/40   8/1/40   4/1/40
f   12/1/3   7/1/3   10/1/3
f   7/1/3   12/1/3   5/1/3
f   5/1/41   87/1/41   8/1/41
f   87/1/41   5/1/41   88/1/41
f   88/1/41   5/1/41   89/1/41
f   89/1/41   5/1/41   90/1/41
f   90/1/41   5/1/41   91/1/41
f   91/1/41   5/1/41   12/1/41
f   13/1/42   91/1/43   12/1/42
f   91/1/43   13/1/42   70/1/43
f   70/1/43   13/1/42   69/1/42
f   70/1/43   90/1/44   91/1/43
f   90/1/44   70/1/43   80/1/44
f   80/1/44   89/1/45   90/1/44
f   89/1/45   80/1/44   78/1/45
f   75/1/46   89/1/45   78/1/45
f   89/1/45   75/1/46   88/1/46
f   72/1/47   88/1/46   75/1/46
f   88/1/46   72/1/47   87/1/47
f   74/1/48   87/1/47   72/1/47
f   87/1/47   74/1/48   8/1/48
f   2/1/49   21/1/49   3/1/49
f   21/1/49   2/1/49   61/1/49
f   61/1/49   2/1/49   63/1/49
f   21/1/10   20/1/10   14/1/10
f   20/1/10   21/1/10   56/1/10
f   56/1/10   21/1/10   57/1/10
f   57/1/10   21/1/10   58/1/10
f   58/1/10   21/1/10   59/1/10
f   59/1/10   21/1/10   60/1/10
f   60/1/10   21/1/10   61/1/10
f   69/1/4   83/1/4   71/1/4
f   83/1/4   69/1/4   84/1/4
f   84/1/4   69/1/4   85/1/4
f   85/1/4   69/1/4   86/1/4
f   86/1/4   69/1/4   55/1/4
f   55/1/4   69/1/4   13/1/4
f   67/1/50   82/1/50   68/1/50
f   82/1/50   67/1/50   66/1/50
f   82/1/50   66/1/50   65/1/50
f   82/1/50   65/1/50   64/1/50
f   82/1/50   64/1/50   62/1/50
f   82/1/50   62/1/50   63/1/50
f   4/1/8   92/1/8   2/1/8
f   92/1/8   4/1/8   93/1/8
f   93/1/8   4/1/8   94/1/8
f   94/1/8   4/1/8   95/1/8
f   95/1/8   4/1/8   96/1/8
f   96/1/8   4/1/8   8/1/8
f   73/1/51   8/1/52   74/1/52
f   8/1/52   73/1/51   96/1/51
f   73/1/51   95/1/53   96/1/51
f   95/1/53   73/1/51   76/1/53
f   76/1/53   94/1/54   95/1/53
f   94/1/54   76/1/53   77/1/54
f   77/1/54   93/1/55   94/1/54
f   93/1/55   77/1/54   79/1/55
f   79/1/55   92/1/56   93/1/55
f   92/1/56   79/1/55   81/1/56
f   81/1/56   2/1/57   92/1/56
f   2/1/57   81/1/56   63/1/57
f   63/1/57   81/1/56   82/1/57
