#Exported from SketchUp with ZbylsXExporter

mtllib rake5.mtl

  v  -0.0451   0.0500  -0.2400
  v  -0.0451  -0.0000  -0.2302
  v  -0.0451   0.0500  -0.2302
  v  -0.0451  -0.0000  -0.2400
  v   0.0450  -0.0000  -0.2400
  v   0.0450   0.0500  -0.2302
  v   0.0450  -0.0000  -0.2302
  v   0.0450   0.0500  -0.2400
  v  -0.0351   0.0500  -0.2302
  v  -0.0351   0.0500  -0.2400
  v   0.0124  -0.0124  -0.0700
  v   0.0124   0.0124  -0.0000
  v   0.0124  -0.0124   0.0000
  v   0.0124   0.0124  -0.0700
  v  -0.0124   0.0124  -0.0700
  v  -0.0124   0.0124  -0.0000
  v  -0.0124  -0.0124  -0.0700
  v  -0.0124  -0.0124   0.0000
  v  -0.0050   0.0050  -0.0700
  v   0.0050  -0.0050  -0.0700
  v  -0.0050  -0.0050  -0.0700
  v   0.0050   0.0050  -0.0700
  v   0.0050  -0.0050  -0.2302
  v  -0.0050  -0.0050  -0.2302
  v  -0.0100  -0.0000  -0.2302
  v  -0.0050  -0.0000  -0.2400
  v  -0.0050  -0.0000  -0.2302
  v   0.0050  -0.0000  -0.2302
  v   0.0050  -0.0000  -0.2400
  v  -0.0351   0.0150  -0.2400
  v  -0.0251   0.0500  -0.2400
  v  -0.0151   0.0150  -0.2400
  v  -0.0251   0.0150  -0.2400
  v  -0.0151   0.0500  -0.2400
  v  -0.0050   0.0500  -0.2400
  v   0.0050   0.0150  -0.2400
  v  -0.0050   0.0150  -0.2400
  v   0.0050   0.0500  -0.2400
  v   0.0150   0.0500  -0.2400
  v   0.0250   0.0150  -0.2400
  v   0.0150   0.0150  -0.2400
  v   0.0250   0.0500  -0.2400
  v   0.0350   0.0150  -0.2400
  v   0.0350   0.0500  -0.2400
  v   0.0050   0.0500  -0.2302
  v  -0.0050   0.0500  -0.2302
  v  -0.0151   0.0500  -0.2302
  v  -0.0251   0.0500  -0.2302
  v   0.0250   0.0500  -0.2302
  v   0.0150   0.0500  -0.2302
  v   0.0350   0.0500  -0.2302
  v  -0.0351   0.0150  -0.2302
  v  -0.0251   0.0150  -0.2302
  v  -0.0151   0.0150  -0.2302
  v   0.0150   0.0150  -0.2302
  v   0.0350   0.0150  -0.2302
  v   0.0250   0.0150  -0.2302
  v   0.0050   0.0150  -0.2302
  v  -0.0050   0.0050  -0.2102
  v   0.0050   0.0050  -0.2102
  v   0.0050   0.0050  -0.2302
  v   0.0050   0.0095  -0.2302
  v   0.0050   0.0075  -0.2302
  v  -0.0050   0.0150  -0.2302
  v  -0.0050   0.0075  -0.2302
  v  -0.0050   0.0095  -0.2302

  vt   0.0000   0.0000

  vn  -1.0000   0.0000  -0.0000
  vn   1.0000   0.0000  -0.0000
  vn  -0.0000   1.0000   0.0000
  vn   0.0000   1.0000  -0.0000
  vn   0.0000  -1.0000   0.0000
  vn   0.0000   0.0000   1.0000
  vn   0.0000  -0.0000  -1.0000
  vn  -0.0000  -1.0000  -0.0000
  vn   0.0000  -1.0000  -0.0000
  vn   0.0000  -0.8905  -0.4550
  vn   0.0000   1.0000   0.0000
  vn  -0.0000   1.0000  -0.0000
  vn  -0.0000   0.0000   1.0000
  vn  -1.0000  -0.0000   0.0000
  vn  -0.0000   0.9758   0.2186

usemtl __Color_A01_
f   1/1/1   2/1/1   3/1/1
f   2/1/1   1/1/1   4/1/1
f   5/1/2   6/1/2   7/1/2
f   6/1/2   5/1/2   8/1/2
f   9/1/3   1/1/3   3/1/3
f   1/1/3   9/1/3   10/1/3
f   11/1/2   12/1/2   13/1/2
f   12/1/2   11/1/2   14/1/2
f   12/1/4   15/1/4   16/1/4
f   15/1/4   12/1/4   14/1/4
f   16/1/1   17/1/1   18/1/1
f   17/1/1   16/1/1   15/1/1
f   11/1/5   18/1/5   17/1/5
f   18/1/5   11/1/5   13/1/5
f   12/1/6   18/1/6   13/1/6
f   18/1/6   12/1/6   16/1/6
usemtl Default_Material
f   19/1/7   20/1/7   21/1/7
f   20/1/7   19/1/7   22/1/7
f   21/1/6   20/1/6   19/1/6
f   22/1/6   19/1/6   20/1/6
usemtl __Color_A01_
f   23/1/5   21/1/5   24/1/5
f   21/1/5   23/1/5   20/1/5
f   2/1/8   4/1/8   25/1/8
f   26/1/8   25/1/8   4/1/8
f   27/1/8   25/1/8   26/1/8
f   5/1/9   28/1/9   29/1/9
f   28/1/9   5/1/9   7/1/9
f   29/1/10   24/1/10   26/1/10
f   24/1/10   29/1/10   23/1/10
f   17/1/7   21/1/7   11/1/7
f   21/1/7   17/1/7   15/1/7
f   21/1/7   15/1/7   19/1/7
f   19/1/7   15/1/7   22/1/7
f   11/1/7   20/1/7   14/1/7
f   20/1/7   11/1/7   21/1/7
f   14/1/7   20/1/7   22/1/7
f   14/1/7   22/1/7   15/1/7
f   26/1/7   5/1/7   29/1/7
f   5/1/7   26/1/7   4/1/7
f   5/1/7   4/1/7   30/1/7
f   30/1/7   4/1/7   1/1/7
f   30/1/7   1/1/7   10/1/7
f   31/1/7   32/1/7   33/1/7
f   32/1/7   31/1/7   34/1/7
f   35/1/7   36/1/7   37/1/7
f   36/1/7   35/1/7   38/1/7
f   39/1/7   40/1/7   41/1/7
f   40/1/7   39/1/7   42/1/7
f   5/1/7   43/1/7   8/1/7
f   43/1/7   5/1/7   37/1/7
f   37/1/7   5/1/7   33/1/7
f   33/1/7   5/1/7   30/1/7
f   37/1/7   33/1/7   32/1/7
f   43/1/7   37/1/7   36/1/7
f   43/1/7   36/1/7   41/1/7
f   43/1/7   41/1/7   40/1/7
f   8/1/7   43/1/7   44/1/7
f   45/1/11   35/1/11   46/1/11
f   35/1/11   45/1/11   38/1/11
f   47/1/11   31/1/11   48/1/11
f   31/1/11   47/1/11   34/1/11
f   49/1/11   39/1/11   50/1/11
f   39/1/11   49/1/11   42/1/11
f   6/1/11   44/1/11   51/1/11
f   44/1/11   6/1/11   8/1/11
f   52/1/3   33/1/3   30/1/3
f   33/1/3   52/1/3   53/1/3
f   31/1/1   53/1/1   48/1/1
f   53/1/1   31/1/1   33/1/1
f   30/1/2   9/1/2   52/1/2
f   9/1/2   30/1/2   10/1/2
f   32/1/2   47/1/2   54/1/2
f   47/1/2   32/1/2   34/1/2
f   39/1/1   55/1/1   50/1/1
f   55/1/1   39/1/1   41/1/1
f   56/1/3   40/1/3   57/1/3
f   40/1/3   56/1/3   43/1/3
f   44/1/1   56/1/1   51/1/1
f   56/1/1   44/1/1   43/1/1
f   40/1/2   49/1/2   57/1/2
f   49/1/2   40/1/2   42/1/2
f   58/1/3   41/1/3   36/1/3
f   41/1/3   58/1/3   55/1/3
f   22/1/12   59/1/12   19/1/12
f   59/1/12   22/1/12   60/1/12
f   61/1/2   62/1/2   60/1/2
f   62/1/2   61/1/2   63/1/2
f   46/1/1   37/1/1   64/1/1
f   37/1/1   46/1/1   35/1/1
f   36/1/2   45/1/2   58/1/2
f   45/1/2   36/1/2   38/1/2
f   64/1/3   32/1/3   54/1/3
f   32/1/3   64/1/3   37/1/3
f   65/1/13   25/1/13   27/1/13
f   25/1/13   65/1/13   2/1/13
f   2/1/13   65/1/13   52/1/13
f   2/1/13   52/1/13   3/1/13
f   52/1/13   65/1/13   66/1/13
f   52/1/13   66/1/13   62/1/13
f   52/1/13   62/1/13   53/1/13
f   3/1/13   52/1/13   9/1/13
f   7/1/13   61/1/13   28/1/13
f   61/1/13   7/1/13   56/1/13
f   56/1/13   7/1/13   6/1/13
f   61/1/13   56/1/13   63/1/13
f   63/1/13   56/1/13   62/1/13
f   62/1/13   56/1/13   64/1/13
f   62/1/13   64/1/13   53/1/13
f   53/1/13   64/1/13   54/1/13
f   64/1/13   56/1/13   58/1/13
f   56/1/13   6/1/13   51/1/13
f   56/1/13   55/1/13   58/1/13
f   55/1/13   56/1/13   57/1/13
f   55/1/13   57/1/13   49/1/13
f   55/1/13   49/1/13   50/1/13
f   58/1/13   46/1/13   64/1/13
f   46/1/13   58/1/13   45/1/13
f   54/1/13   48/1/13   53/1/13
f   48/1/13   54/1/13   47/1/13
f   29/1/2   28/1/2   23/1/2
f   23/1/2   22/1/2   20/1/2
f   22/1/2   23/1/2   60/1/2
f   60/1/2   23/1/2   61/1/2
f   61/1/2   23/1/2   28/1/2
f   19/1/14   24/1/14   21/1/14
f   24/1/14   19/1/14   59/1/14
f   24/1/14   59/1/14   66/1/14
f   24/1/14   66/1/14   65/1/14
f   24/1/14   65/1/14   27/1/14
f   24/1/14   27/1/14   26/1/14
f   59/1/15   62/1/15   66/1/15
f   62/1/15   59/1/15   60/1/15
