#Exported from SketchUp with ZbylsXExporter

mtllib rake0.mtl

  v   0.0124  -0.0124  -0.0700
  v   0.0124   0.0124  -0.0000
  v   0.0124  -0.0124   0.0000
  v   0.0124   0.0124  -0.0700
  v  -0.0124   0.0124  -0.0700
  v  -0.0124   0.0124  -0.0000
  v  -0.0124  -0.0124  -0.0700
  v  -0.0124  -0.0124   0.0000
  v  -0.0050  -0.0050  -0.0700
  v  -0.0050   0.0050  -0.0700
  v   0.0050   0.0050  -0.0700
  v   0.0050  -0.0050  -0.0700
  v   0.0050  -0.0050  -0.2102
  v   0.0050   0.0050  -0.2102
  v   0.0450   0.0050  -0.2202
  v   0.0250  -0.0050  -0.2102
  v   0.0450  -0.0050  -0.2202
  v   0.0250   0.0050  -0.2102
  v  -0.0050   0.0464  -0.2713
  v  -0.0050   0.0050  -0.2652
  v  -0.0050   0.0543  -0.2652
  v  -0.0050  -0.0050  -0.2652
  v  -0.0050  -0.0029  -0.2713
  v  -0.0050  -0.0050  -0.2352
  v  -0.0050   0.0050  -0.2352
  v   0.0150   0.0464  -0.2713
  v   0.0150   0.0050  -0.2652
  v   0.0150   0.0543  -0.2652
  v   0.0150  -0.0050  -0.2652
  v   0.0150  -0.0029  -0.2713
  v   0.0150  -0.0050  -0.2352
  v   0.0150   0.0050  -0.2352
  v   0.0350   0.0464  -0.2713
  v   0.0350   0.0050  -0.2652
  v   0.0350   0.0543  -0.2652
  v   0.0350  -0.0050  -0.2652
  v   0.0350  -0.0029  -0.2713
  v   0.0350  -0.0050  -0.2352
  v   0.0350   0.0050  -0.2352
  v  -0.0251   0.0464  -0.2713
  v  -0.0251   0.0050  -0.2652
  v  -0.0251   0.0543  -0.2652
  v  -0.0251  -0.0050  -0.2652
  v  -0.0251  -0.0029  -0.2713
  v  -0.0251  -0.0050  -0.2352
  v  -0.0251   0.0050  -0.2352
  v  -0.0451   0.0464  -0.2713
  v  -0.0451   0.0050  -0.2652
  v  -0.0451   0.0543  -0.2652
  v  -0.0451  -0.0050  -0.2652
  v  -0.0451  -0.0029  -0.2713
  v  -0.0451  -0.0050  -0.2352
  v  -0.0451   0.0050  -0.2352
  v  -0.0351   0.0050  -0.2352
  v  -0.0351  -0.0050  -0.2352
  v  -0.0151   0.0050  -0.2352
  v  -0.0151  -0.0050  -0.2352
  v   0.0050   0.0050  -0.2352
  v   0.0050  -0.0050  -0.2352
  v   0.0250  -0.0050  -0.2352
  v   0.0250   0.0050  -0.2352
  v   0.0050   0.0050  -0.2652
  v   0.0050  -0.0050  -0.2652
  v   0.0050   0.0464  -0.2713
  v   0.0050   0.0543  -0.2652
  v   0.0050  -0.0029  -0.2713
  v   0.0450  -0.0050  -0.2352
  v   0.0450   0.0050  -0.2652
  v   0.0450   0.0050  -0.2352
  v   0.0450  -0.0050  -0.2652
  v   0.0450   0.0464  -0.2713
  v   0.0450   0.0543  -0.2652
  v   0.0450  -0.0029  -0.2713
  v   0.0250   0.0050  -0.2652
  v   0.0250  -0.0050  -0.2652
  v   0.0250   0.0464  -0.2713
  v   0.0250   0.0543  -0.2652
  v   0.0250  -0.0029  -0.2713
  v  -0.0351   0.0050  -0.2652
  v  -0.0351  -0.0050  -0.2652
  v  -0.0351  -0.0029  -0.2713
  v  -0.0351   0.0464  -0.2713
  v  -0.0351   0.0543  -0.2652
  v  -0.0250  -0.0050  -0.2102
  v  -0.0451   0.0050  -0.2202
  v  -0.0451  -0.0050  -0.2202
  v  -0.0250   0.0050  -0.2102
  v  -0.0151   0.0050  -0.2652
  v  -0.0151  -0.0050  -0.2652
  v  -0.0151   0.0464  -0.2713
  v  -0.0151   0.0543  -0.2652
  v  -0.0151  -0.0029  -0.2713
  v  -0.0050  -0.0050  -0.2102
  v  -0.0050   0.0050  -0.2102
  v  -0.0651   0.0050  -0.2202
  v  -0.0551   0.0050  -0.2352
  v  -0.0651   0.0050  -0.2652
  v   0.0550   0.0050  -0.2352
  v   0.0650   0.0050  -0.2202
  v   0.0650   0.0050  -0.2652
  v   0.0550   0.0050  -0.2652
  v  -0.0551   0.0050  -0.2652
  v   0.0650   0.0543  -0.2652
  v   0.0550   0.0543  -0.2652
  v   0.0650  -0.0050  -0.2202
  v   0.0650  -0.0050  -0.2652
  v   0.0650   0.0464  -0.2713
  v   0.0650  -0.0029  -0.2713
  v   0.0550   0.0464  -0.2713
  v   0.0550  -0.0050  -0.2652
  v   0.0550  -0.0029  -0.2713
  v   0.0550  -0.0050  -0.2352
  v  -0.0651   0.0464  -0.2713
  v  -0.0551  -0.0029  -0.2713
  v  -0.0651  -0.0029  -0.2713
  v  -0.0551   0.0464  -0.2713
  v  -0.0651   0.0543  -0.2652
  v  -0.0551   0.0543  -0.2652
  v  -0.0551  -0.0050  -0.2352
  v  -0.0551  -0.0050  -0.2652
  v  -0.0651  -0.0050  -0.2652
  v  -0.0651  -0.0050  -0.2202

  vt   0.0000   0.0000

  vn   1.0000   0.0000  -0.0000
  vn   0.0000   1.0000  -0.0000
  vn  -1.0000   0.0000  -0.0000
  vn   0.0000  -1.0000   0.0000
  vn   0.0000   0.0000   1.0000
  vn   0.0000  -0.0000  -1.0000
  vn   0.4472  -0.0000   0.8944
  vn  -1.0000  -0.0000   0.0000
  vn  -1.0000  -0.0000  -0.0000
  vn  -0.0000   0.0000  -1.0000
  vn   0.0000   0.0000  -1.0000
  vn   1.0000   0.0000   0.0000
  vn  -0.4466  -0.0000   0.8947
  vn  -0.0000   0.0000   1.0000
  vn  -0.0000   1.0000   0.0000
  vn   0.0000   0.0002  -1.0000
  vn  -0.0000   0.6088  -0.7934
  vn   0.0000  -0.0002   1.0000
  vn  -0.0000   0.0002  -1.0000
  vn   0.0000  -0.9469  -0.3214
  vn  -0.0000  -0.9469  -0.3214
  vn   0.0000  -0.0000   1.0000
  vn   0.0000   0.6088  -0.7934
  vn  -0.0000  -1.0000  -0.0000

usemtl __Color_A01_
f   1/1/1   2/1/1   3/1/1
f   2/1/1   1/1/1   4/1/1
f   2/1/2   5/1/2   6/1/2
f   5/1/2   2/1/2   4/1/2
f   6/1/3   7/1/3   8/1/3
f   7/1/3   6/1/3   5/1/3
f   1/1/4   8/1/4   7/1/4
f   8/1/4   1/1/4   3/1/4
f   2/1/5   8/1/5   3/1/5
f   8/1/5   2/1/5   6/1/5
f   7/1/6   9/1/6   1/1/6
f   9/1/6   7/1/6   5/1/6
f   9/1/6   5/1/6   10/1/6
f   10/1/6   5/1/6   11/1/6
f   1/1/6   12/1/6   4/1/6
f   12/1/6   1/1/6   9/1/6
f   4/1/6   12/1/6   11/1/6
f   4/1/6   11/1/6   5/1/6
f   13/1/1   11/1/1   12/1/1
f   11/1/1   13/1/1   14/1/1
f   15/1/7   16/1/7   17/1/7
f   16/1/7   15/1/7   18/1/7
f   16/1/5   14/1/5   13/1/5
f   14/1/5   16/1/5   18/1/5
f   19/1/8   20/1/8   21/1/8
f   20/1/8   19/1/8   22/1/8
f   22/1/8   19/1/8   23/1/8
f   20/1/8   24/1/8   25/1/8
f   24/1/8   20/1/8   22/1/8
f   26/1/9   27/1/9   28/1/9
f   27/1/9   26/1/9   29/1/9
f   29/1/9   26/1/9   30/1/9
f   27/1/9   31/1/9   32/1/9
f   31/1/9   27/1/9   29/1/9
f   33/1/9   34/1/9   35/1/9
f   34/1/9   33/1/9   36/1/9
f   36/1/9   33/1/9   37/1/9
f   34/1/9   38/1/9   39/1/9
f   38/1/9   34/1/9   36/1/9
f   40/1/9   41/1/9   42/1/9
f   41/1/9   40/1/9   43/1/9
f   43/1/9   40/1/9   44/1/9
f   41/1/9   45/1/9   46/1/9
f   45/1/9   41/1/9   43/1/9
f   47/1/8   48/1/8   49/1/8
f   48/1/8   47/1/8   50/1/8
f   50/1/8   47/1/8   51/1/8
f   48/1/8   52/1/8   53/1/8
f   52/1/8   48/1/8   50/1/8
f   54/1/10   45/1/10   55/1/10
f   45/1/10   54/1/10   46/1/10
f   56/1/11   24/1/11   57/1/11
f   24/1/11   56/1/11   25/1/11
f   58/1/11   31/1/11   59/1/11
f   31/1/11   58/1/11   32/1/11
f   60/1/11   39/1/11   38/1/11
f   39/1/11   60/1/11   61/1/11
f   59/1/1   62/1/1   58/1/1
f   62/1/1   59/1/1   63/1/1
f   62/1/1   64/1/1   65/1/1
f   64/1/1   62/1/1   63/1/1
f   64/1/1   63/1/1   66/1/1
f   67/1/12   68/1/12   69/1/12
f   68/1/12   67/1/12   70/1/12
f   68/1/12   71/1/12   72/1/12
f   71/1/12   68/1/12   70/1/12
f   71/1/12   70/1/12   73/1/12
f   60/1/12   74/1/12   61/1/12
f   74/1/12   60/1/12   75/1/12
f   74/1/12   76/1/12   77/1/12
f   76/1/12   74/1/12   75/1/12
f   76/1/12   75/1/12   78/1/12
f   55/1/12   79/1/12   54/1/12
f   79/1/12   55/1/12   80/1/12
f   79/1/12   80/1/12   81/1/12
f   79/1/12   81/1/12   82/1/12
f   82/1/12   83/1/12   79/1/12
f   84/1/13   85/1/13   86/1/13
f   85/1/13   84/1/13   87/1/13
f   57/1/12   88/1/12   56/1/12
f   88/1/12   57/1/12   89/1/12
f   88/1/12   90/1/12   91/1/12
f   90/1/12   88/1/12   89/1/12
f   90/1/12   89/1/12   92/1/12
f   93/1/14   87/1/14   84/1/14
f   87/1/14   93/1/14   94/1/14
f   10/1/9   93/1/9   9/1/9
f   93/1/9   10/1/9   94/1/9
f   94/1/15   56/1/15   87/1/15
f   56/1/15   94/1/15   25/1/15
f   95/1/15   96/1/15   97/1/15
f   96/1/15   95/1/15   85/1/15
f   96/1/15   85/1/15   53/1/15
f   53/1/15   85/1/15   87/1/15
f   53/1/15   87/1/15   54/1/15
f   53/1/15   54/1/15   48/1/15
f   48/1/15   54/1/15   79/1/15
f   54/1/15   87/1/15   46/1/15
f   46/1/15   87/1/15   41/1/15
f   41/1/15   87/1/15   88/1/15
f   88/1/15   87/1/15   56/1/15
f   11/1/15   94/1/15   10/1/15
f   94/1/15   11/1/15   25/1/15
f   25/1/15   62/1/15   20/1/15
f   62/1/15   25/1/15   14/1/15
f   14/1/15   25/1/15   11/1/15
f   62/1/15   14/1/15   58/1/15
f   18/1/15   58/1/15   14/1/15
f   58/1/15   18/1/15   32/1/15
f   32/1/15   18/1/15   27/1/15
f   27/1/15   18/1/15   61/1/15
f   61/1/15   18/1/15   39/1/15
f   39/1/15   18/1/15   15/1/15
f   39/1/15   15/1/15   34/1/15
f   34/1/15   15/1/15   69/1/15
f   69/1/15   15/1/15   98/1/15
f   98/1/15   15/1/15   99/1/15
f   98/1/15   99/1/15   100/1/15
f   100/1/15   101/1/15   98/1/15
f   68/1/15   34/1/15   69/1/15
f   74/1/15   27/1/15   61/1/15
f   102/1/15   97/1/15   96/1/15
f   51/1/16   82/1/16   81/1/16
f   82/1/16   51/1/16   47/1/16
f   49/1/17   82/1/17   47/1/17
f   82/1/17   49/1/17   83/1/17
f   91/1/18   41/1/18   88/1/18
f   41/1/18   91/1/18   42/1/18
f   77/1/18   27/1/18   74/1/18
f   27/1/18   77/1/18   28/1/18
f   83/1/18   48/1/18   79/1/18
f   48/1/18   83/1/18   49/1/18
f   62/1/18   21/1/18   20/1/18
f   21/1/18   62/1/18   65/1/18
f   40/1/16   92/1/16   44/1/16
f   92/1/16   40/1/16   90/1/16
f   72/1/18   34/1/18   68/1/18
f   34/1/18   72/1/18   35/1/18
f   33/1/19   73/1/19   37/1/19
f   73/1/19   33/1/19   71/1/19
f   35/1/17   71/1/17   33/1/17
f   71/1/17   35/1/17   72/1/17
f   28/1/17   76/1/17   26/1/17
f   76/1/17   28/1/17   77/1/17
f   42/1/17   90/1/17   40/1/17
f   90/1/17   42/1/17   91/1/17
f   21/1/17   64/1/17   19/1/17
f   64/1/17   21/1/17   65/1/17
f   26/1/19   78/1/19   30/1/19
f   78/1/19   26/1/19   76/1/19
f   23/1/16   64/1/16   66/1/16
f   64/1/16   23/1/16   19/1/16
f   73/1/20   36/1/20   37/1/20
f   36/1/20   73/1/20   70/1/20
f   78/1/20   29/1/20   30/1/20
f   29/1/20   78/1/20   75/1/20
f   66/1/21   22/1/21   23/1/21
f   22/1/21   66/1/21   63/1/21
f   92/1/21   43/1/21   44/1/21
f   43/1/21   92/1/21   89/1/21
f   81/1/20   50/1/20   51/1/20
f   50/1/20   81/1/20   80/1/20
f   103/1/18   101/1/18   100/1/18
f   101/1/18   103/1/18   104/1/18
f   105/1/1   100/1/1   99/1/1
f   100/1/1   105/1/1   106/1/1
f   100/1/1   107/1/1   103/1/1
f   107/1/1   100/1/1   106/1/1
f   107/1/1   106/1/1   108/1/1
f   109/1/8   101/1/8   104/1/8
f   101/1/8   109/1/8   110/1/8
f   110/1/8   109/1/8   111/1/8
f   101/1/8   112/1/8   98/1/8
f   112/1/8   101/1/8   110/1/8
f   109/1/16   108/1/16   111/1/16
f   108/1/16   109/1/16   107/1/16
f   104/1/17   107/1/17   109/1/17
f   107/1/17   104/1/17   103/1/17
f   105/1/22   15/1/22   17/1/22
f   15/1/22   105/1/22   99/1/22
f   108/1/20   110/1/20   111/1/20
f   110/1/20   108/1/20   106/1/20
f   69/1/11   112/1/11   67/1/11
f   112/1/11   69/1/11   98/1/11
f   113/1/16   114/1/16   115/1/16
f   114/1/16   113/1/16   116/1/16
f   117/1/23   116/1/23   113/1/23
f   116/1/23   117/1/23   118/1/23
f   118/1/18   97/1/18   102/1/18
f   97/1/18   118/1/18   117/1/18
f   119/1/12   102/1/12   96/1/12
f   102/1/12   119/1/12   120/1/12
f   102/1/12   116/1/12   118/1/12
f   116/1/12   102/1/12   120/1/12
f   116/1/12   120/1/12   114/1/12
f   113/1/9   97/1/9   117/1/9
f   97/1/9   113/1/9   121/1/9
f   121/1/9   113/1/9   115/1/9
f   97/1/9   122/1/9   95/1/9
f   122/1/9   97/1/9   121/1/9
f   86/1/22   95/1/22   122/1/22
f   95/1/22   86/1/22   85/1/22
f   96/1/10   52/1/10   119/1/10
f   52/1/10   96/1/10   53/1/10
f   120/1/24   119/1/24   121/1/24
f   122/1/24   119/1/24   86/1/24
f   119/1/24   122/1/24   121/1/24
f   86/1/24   119/1/24   52/1/24
f   80/1/24   52/1/24   50/1/24
f   52/1/24   80/1/24   86/1/24
f   86/1/24   80/1/24   55/1/24
f   55/1/24   84/1/24   86/1/24
f   84/1/24   55/1/24   45/1/24
f   84/1/24   45/1/24   43/1/24
f   84/1/24   43/1/24   89/1/24
f   84/1/24   89/1/24   57/1/24
f   84/1/24   57/1/24   93/1/24
f   93/1/24   57/1/24   24/1/24
f   63/1/24   24/1/24   22/1/24
f   24/1/24   63/1/24   13/1/24
f   13/1/24   63/1/24   59/1/24
f   75/1/24   60/1/24   29/1/24
f   70/1/24   67/1/24   36/1/24
f   106/1/24   112/1/24   110/1/24
f   59/1/24   16/1/24   13/1/24
f   16/1/24   59/1/24   31/1/24
f   16/1/24   31/1/24   29/1/24
f   16/1/24   29/1/24   60/1/24
f   16/1/24   60/1/24   38/1/24
f   16/1/24   38/1/24   17/1/24
f   17/1/24   38/1/24   36/1/24
f   17/1/24   36/1/24   67/1/24
f   17/1/24   67/1/24   112/1/24
f   17/1/24   112/1/24   105/1/24
f   105/1/24   112/1/24   106/1/24
f   93/1/24   12/1/24   9/1/24
f   12/1/24   93/1/24   24/1/24
f   12/1/24   24/1/24   13/1/24
f   114/1/20   121/1/20   115/1/20
f   121/1/20   114/1/20   120/1/20
