#Exported from SketchUp with ZbylsXExporter

mtllib shovel2.mtl

  v   0.0100   0.0100  -0.0000
  v  -0.0100  -0.0100   0.0000
  v   0.0100  -0.0100   0.0000
  v  -0.0100   0.0100  -0.0000
  v   0.0100  -0.0100  -0.1000
  v   0.0100   0.0100  -0.1000
  v  -0.0100  -0.0100  -0.1000
  v  -0.0100   0.0100  -0.1000
  v   0.0050  -0.0050  -0.2400
  v   0.0049   0.0050  -0.1000
  v   0.0050  -0.0050  -0.1000
  v   0.0049   0.0050  -0.2400
  v  -0.0050  -0.0050  -0.1000
  v  -0.0050   0.0050  -0.1000
  v  -0.0050  -0.0050  -0.2400
  v  -0.0050   0.0050  -0.2400
  v  -0.0350  -0.0050  -0.3400
  v  -0.0450  -0.0050  -0.2600
  v  -0.0450  -0.0050  -0.3400
  v  -0.0250  -0.0050  -0.2400
  v   0.0350  -0.0050  -0.3400
  v   0.0249  -0.0050  -0.2400
  v   0.0450  -0.0050  -0.2600
  v   0.0450  -0.0050  -0.3400
  v  -0.0250   0.0050  -0.2400
  v  -0.0150   0.0050  -0.2400
  v   0.0249   0.0050  -0.2400
  v   0.0149   0.0050  -0.2400
  v   0.0350   0.0050  -0.2600
  v  -0.0350   0.0050  -0.2600
  v   0.0299   0.0100  -0.2500
  v   0.0450   0.0150  -0.2600
  v  -0.0301   0.0100  -0.2500
  v  -0.0450   0.0150  -0.2600

  vt   0.0000   0.0000

  vn   0.0000   0.0000   1.0000
  vn   1.0000  -0.0000  -0.0000
  vn  -0.0000  -1.0000  -0.0000
  vn  -1.0000  -0.0000  -0.0000
  vn   0.0000   1.0000  -0.0000
  vn   1.0000   0.0074   0.0000
  vn  -0.0000  -0.0000  -1.0000
  vn  -1.0000  -0.0000   0.0000
  vn   0.0000  -1.0000   0.0000
  vn  -0.0000  -0.0000   1.0000
  vn  -0.0000   1.0000  -0.0000
  vn  -0.0000   0.9923  -0.1241
  vn   0.0000   0.8948   0.4464
  vn   0.7071   0.0000   0.7071
  vn   1.0000   0.0000  -0.0000
  vn  -0.0000   0.9701  -0.2427
  vn  -0.7044   0.7043  -0.0881
  vn  -0.0000   0.8945   0.4470
  vn   0.5777   0.5777  -0.5767
  vn   0.7044   0.7044  -0.0881
  vn   0.0000   0.9701  -0.2426
  vn  -0.7071  -0.0000   0.7071
  vn   0.0001   0.8948   0.4466
  vn  -0.0001  -0.8948  -0.4466
  vn  -0.5772   0.5767  -0.5781
  vn  -0.0001   0.8943  -0.4475

usemtl __Color_A01_
f   1/1/1   2/1/1   3/1/1
f   2/1/1   1/1/1   4/1/1
f   5/1/2   1/1/2   3/1/2
f   1/1/2   5/1/2   6/1/2
f   7/1/3   3/1/3   2/1/3
f   3/1/3   7/1/3   5/1/3
f   4/1/4   7/1/4   2/1/4
f   7/1/4   4/1/4   8/1/4
f   1/1/5   8/1/5   4/1/5
f   8/1/5   1/1/5   6/1/5
f   9/1/6   10/1/6   11/1/6
f   10/1/6   9/1/6   12/1/6
f   8/1/7   13/1/7   7/1/7
f   13/1/7   8/1/7   14/1/7
f   14/1/7   8/1/7   10/1/7
f   5/1/7   11/1/7   6/1/7
f   11/1/7   5/1/7   7/1/7
f   11/1/7   7/1/7   13/1/7
f   6/1/7   11/1/7   10/1/7
f   6/1/7   10/1/7   8/1/7
f   14/1/8   15/1/8   13/1/8
f   15/1/8   14/1/8   16/1/8
f   17/1/9   18/1/9   19/1/9
f   18/1/9   17/1/9   20/1/9
f   20/1/9   17/1/9   21/1/9
f   20/1/9   21/1/9   15/1/9
f   15/1/9   21/1/9   9/1/9
f   15/1/9   9/1/9   13/1/9
f   13/1/9   9/1/9   11/1/9
f   9/1/9   21/1/9   22/1/9
f   22/1/9   21/1/9   23/1/9
f   23/1/9   21/1/9   24/1/9
f   16/1/10   20/1/10   15/1/10
f   20/1/10   16/1/10   25/1/10
f   25/1/10   16/1/10   26/1/10
f   22/1/1   12/1/1   9/1/1
f   12/1/1   22/1/1   27/1/1
f   12/1/1   27/1/1   28/1/1
usemtl __0020_Red_
f   10/1/11   16/1/11   14/1/11
f   16/1/11   10/1/11   12/1/11
f   29/1/12   17/1/12   30/1/12
f   17/1/12   29/1/12   21/1/12
f   27/1/13   31/1/13   28/1/13
f   31/1/13   27/1/13   32/1/13
f   23/1/14   27/1/14   22/1/14
f   27/1/14   23/1/14   32/1/14
f   24/1/15   32/1/15   23/1/15
f   24/1/16   21/1/16   32/1/16
f   21/1/17   29/1/17   32/1/17
f   25/1/18   33/1/18   34/1/18
f   33/1/18   25/1/18   26/1/18
f   33/1/19   30/1/19   34/1/19
f   17/1/20   34/1/20   30/1/20
f   17/1/21   19/1/21   34/1/21
f   34/1/22   20/1/22   25/1/22
f   20/1/22   34/1/22   18/1/22
usemtl __Color_A01_
f   19/1/8   18/1/8   34/1/8
usemtl __0087_Cyan_
f   26/1/23   31/1/23   33/1/23
f   31/1/23   26/1/23   16/1/23
f   31/1/23   16/1/23   12/1/23
f   31/1/23   12/1/23   28/1/23
usemtl Default_Material
f   26/1/23   31/1/23   33/1/23
f   31/1/23   26/1/23   16/1/23
f   31/1/23   16/1/23   12/1/23
f   31/1/23   12/1/23   28/1/23
f   33/1/24   31/1/24   26/1/24
f   16/1/24   26/1/24   31/1/24
f   12/1/24   16/1/24   31/1/24
f   28/1/24   12/1/24   31/1/24
usemtl __0020_Red_
f   32/1/25   29/1/25   31/1/25
f   33/1/26   29/1/26   30/1/26
f   29/1/26   33/1/26   31/1/26
