#Exported from SketchUp with ZbylsXExporter

mtllib shovel6.mtl

  v   0.0024  -0.0091  -0.0000
  v  -0.0024  -0.0091   0.0000
  v  -0.0000  -0.0094  -0.0000
  v   0.0047  -0.0081  -0.0000
  v  -0.0047  -0.0081   0.0000
  v   0.0066  -0.0066  -0.0000
  v  -0.0066  -0.0066   0.0000
  v   0.0081  -0.0047  -0.0000
  v  -0.0081  -0.0047   0.0000
  v   0.0091  -0.0024  -0.0000
  v  -0.0091  -0.0024   0.0000
  v   0.0094  -0.0000  -0.0000
  v  -0.0094   0.0000   0.0000
  v   0.0091   0.0024  -0.0000
  v  -0.0091   0.0024   0.0000
  v   0.0081   0.0047  -0.0000
  v  -0.0081   0.0047   0.0000
  v   0.0066   0.0066  -0.0000
  v  -0.0066   0.0066   0.0000
  v   0.0047   0.0081  -0.0000
  v  -0.0047   0.0081   0.0000
  v   0.0024   0.0091  -0.0000
  v  -0.0024   0.0091   0.0000
  v   0.0000   0.0094  -0.0000
  v   0.0024  -0.0091  -0.0700
  v  -0.0000  -0.0094  -0.0700
  v  -0.0024  -0.0091  -0.0700
  v  -0.0047  -0.0081  -0.0700
  v  -0.0066  -0.0066  -0.0700
  v  -0.0081  -0.0047  -0.0700
  v  -0.0091  -0.0024  -0.0700
  v  -0.0094   0.0000  -0.0700
  v  -0.0091   0.0024  -0.0700
  v  -0.0081   0.0047  -0.0700
  v  -0.0066   0.0066  -0.0700
  v  -0.0047   0.0081  -0.0700
  v  -0.0024   0.0091  -0.0700
  v  -0.0000   0.0094  -0.0700
  v   0.0024   0.0091  -0.0700
  v   0.0047   0.0081  -0.0700
  v   0.0066   0.0066  -0.0700
  v   0.0081   0.0047  -0.0700
  v   0.0091   0.0024  -0.0700
  v   0.0094  -0.0000  -0.0700
  v   0.0091  -0.0024  -0.0700
  v   0.0081  -0.0047  -0.0700
  v   0.0066  -0.0066  -0.0700
  v   0.0047  -0.0081  -0.0700
  v  -0.0047  -0.0047  -0.0700
  v  -0.0047   0.0047  -0.0700
  v   0.0047   0.0047  -0.0700
  v   0.0047  -0.0047  -0.0700
  v   0.0460   0.0059  -0.2055
  v   0.0460   0.0185  -0.1752
  v   0.0460   0.0059  -0.1752
  v   0.0460   0.0178  -0.1788
  v   0.0460   0.0163  -0.1870
  v   0.0460   0.0147  -0.2055
  v   0.0000   0.0047  -0.1752
  v  -0.0003   0.0047  -0.1752
  v   0.0000  -0.0047  -0.1752
  v  -0.0047   0.0047  -0.1752
  v  -0.0047  -0.0047  -0.1752
  v  -0.0006   0.0047  -0.1752
  v   0.0000  -0.0067  -0.1752
  v   0.0047  -0.0047  -0.1752
  v   0.0047   0.0047  -0.1752
  v  -0.0000   0.0116  -0.1752
  v  -0.0230   0.0026  -0.2443
  v  -0.0161   0.0053  -0.2468
  v  -0.0083   0.0048  -0.2497
  v  -0.0222   0.0061  -0.2446
  v  -0.0230   0.0063  -0.2443
  v   0.0000   0.0049  -0.2528
  v   0.0000  -0.0009  -0.2528
  v  -0.0003   0.0048  -0.2526
  v   0.0230   0.0025  -0.2443
  v   0.0077   0.0048  -0.2499
  v   0.0212   0.0059  -0.2449
  v   0.0230   0.0064  -0.2443
  v   0.0156   0.0052  -0.2470
  v  -0.0460   0.0178  -0.1788
  v  -0.0460   0.0061  -0.1752
  v  -0.0460   0.0185  -0.1752
  v  -0.0460   0.0061  -0.2055
  v  -0.0460   0.0163  -0.1872
  v  -0.0460   0.0147  -0.2055
  v   0.0457   0.0145  -0.2059
  v   0.0369   0.0095  -0.2208
  v   0.0301   0.0071  -0.2323
  v   0.0244   0.0063  -0.2419
  v   0.0240   0.0063  -0.2425
  v   0.0324   0.0079  -0.1919
  v   0.0335   0.0074  -0.2053
  v   0.0324   0.0069  -0.2187
  v   0.0110   0.0017  -0.2002
  v   0.0114   0.0015  -0.2047
  v   0.0099   0.0012  -0.2136
  v   0.0110   0.0013  -0.2093
  v   0.0290   0.0064  -0.2312
  v  -0.0121   0.0016  -0.2048
  v  -0.0117   0.0018  -0.2002
  v  -0.0117   0.0014  -0.2093
  v  -0.0106   0.0019  -0.1959
  v  -0.0106   0.0013  -0.2136
  v  -0.0088   0.0011  -0.2173
  v  -0.0088   0.0021  -0.1922
  v  -0.0064   0.0010  -0.2201
  v  -0.0064   0.0022  -0.1894
  v  -0.0036   0.0009  -0.2218
  v  -0.0036   0.0022  -0.1877
  v  -0.0003   0.0008  -0.2225
  v  -0.0003   0.0014  -0.2067
  v  -0.0003   0.0022  -0.1870
  v  -0.0003   0.0016  -0.2028
  v  -0.0243   0.0062  -0.2420
  v  -0.0297   0.0067  -0.2312
  v   0.0030   0.0009  -0.2218
  v   0.0030   0.0022  -0.1877
  v   0.0057   0.0009  -0.2201
  v   0.0057   0.0021  -0.1894
  v   0.0081   0.0020  -0.1922
  v   0.0081   0.0010  -0.2173
  v   0.0099   0.0019  -0.1959
  v   0.0170   0.0059  -0.1788
  v   0.0290   0.0084  -0.1794
  v   0.0287   0.0084  -0.1788
  v   0.0052   0.0049  -0.1752
  v   0.0111   0.0056  -0.1752
  v  -0.0003   0.0040  -0.1788
  v  -0.0297   0.0086  -0.1794
  v  -0.0294   0.0087  -0.1788
  v  -0.0176   0.0060  -0.1788
  v  -0.0118   0.0056  -0.1752
  v  -0.0058   0.0050  -0.1752
  v   0.0237   0.0060  -0.2420
  v  -0.0370   0.0095  -0.2206
  v  -0.0330   0.0072  -0.2187
  v  -0.0303   0.0071  -0.2319
  v  -0.0457   0.0145  -0.2059
  v  -0.0342   0.0077  -0.2053
  v  -0.0330   0.0082  -0.1919
  v  -0.0304   0.0092  -0.1788
  v  -0.0003   0.0116  -0.1788
  v   0.0460   0.0078  -0.1788
  v   0.0111   0.0049  -0.1788
  v   0.0297   0.0089  -0.1788
  v  -0.0109   0.0048  -0.1788
  v  -0.0200   0.0071  -0.1752
  v   0.0194   0.0069  -0.1752

  vt   0.0000   0.0000

  vn   0.0000  -0.0000   1.0000
  vn   0.2588  -0.9659  -0.0000
  vn  -0.0000  -1.0000  -0.0000
  vn  -0.2588  -0.9659   0.0000
  vn  -0.5000  -0.8660   0.0000
  vn  -0.7071  -0.7071   0.0000
  vn  -0.8660  -0.5000   0.0000
  vn  -0.9659  -0.2588   0.0000
  vn  -1.0000   0.0000   0.0000
  vn  -0.9659   0.2588   0.0000
  vn  -0.8660   0.5000   0.0000
  vn  -0.7071   0.7071   0.0000
  vn  -0.5000   0.8660   0.0000
  vn  -0.2588   0.9659   0.0000
  vn   0.0000   1.0000   0.0000
  vn   0.2588   0.9659  -0.0000
  vn   0.5000   0.8660  -0.0000
  vn   0.7071   0.7071  -0.0000
  vn   0.8660   0.5000  -0.0000
  vn   0.9659   0.2588  -0.0000
  vn   1.0000  -0.0000  -0.0000
  vn   0.9659  -0.2588  -0.0000
  vn   0.8660  -0.5000  -0.0000
  vn   0.7071  -0.7071  -0.0000
  vn   0.5000  -0.8660  -0.0000
  vn   0.0000   0.0000  -1.0000
  vn  -0.0000  -0.0000   1.0000
  vn  -0.0000   0.0000   1.0000
  vn  -0.3467  -0.0000  -0.9380
  vn   0.3467  -0.0000  -0.9380
  vn  -1.0000   0.0000  -0.0000
  vn  -0.0000   1.0000  -0.0000
  vn   0.0439   0.9990  -0.0022
  vn  -0.0359   0.9994   0.0016
  vn   0.0000   1.0000  -0.0000
  vn   0.8602  -0.0000  -0.5100
  vn  -0.3788   0.9201  -0.0999
  vn  -0.4843   0.8656  -0.1273
  vn  -0.3890   0.9206  -0.0354
  vn  -0.5007   0.8643  -0.0482
  vn  -0.5009   0.8622  -0.0755
  vn  -0.3765   0.9260   0.0286
  vn  -0.4856   0.8730   0.0457
  vn  -0.1341   0.9892  -0.0595
  vn  -0.1376   0.9898  -0.0378
  vn  -0.1221   0.9925   0.0048
  vn  -0.1336   0.9909  -0.0163
  vn  -0.3414   0.9356   0.0894
  vn   0.1454   0.9887  -0.0378
  vn   0.1420   0.9881  -0.0594
  vn   0.1415   0.9898  -0.0162
  vn   0.1308   0.9881  -0.0807
  vn   0.1299   0.9915   0.0048
  vn   0.1104   0.9936   0.0243
  vn   0.1116   0.9886  -0.1007
  vn   0.0830   0.9957   0.0411
  vn   0.0841   0.9894  -0.1180
  vn   0.0480   0.9974   0.0532
  vn   0.0487   0.9903  -0.1305
  vn   0.0039   0.9983   0.0577
  vn   0.0040   0.9993  -0.0381
  vn   0.0278   0.9904  -0.1352
  vn   0.0079   0.9992  -0.0381
  vn   0.1383   0.9844   0.1085
  vn   0.0716   0.9894   0.1263
  vn   0.1992   0.9752   0.0969
  vn   0.1955   0.9732   0.1212
  vn   0.3248   0.9167   0.2327
  vn   0.3488   0.9329   0.0895
  vn   0.0000   0.9993  -0.0381
  vn  -0.0402   0.9978   0.0531
  vn  -0.0198   0.9906  -0.1352
  vn  -0.0408   0.9906  -0.1305
  vn  -0.0751   0.9963   0.0411
  vn  -0.0762   0.9901  -0.1180
  vn  -0.1037   0.9895  -0.1007
  vn  -0.1026   0.9944   0.0243
  vn  -0.1230   0.9891  -0.0807
  vn  -0.1818   0.9702  -0.1603
  vn  -0.3457   0.9242  -0.1624
  vn  -0.2874   0.9410  -0.1784
  vn  -0.0728   0.9765  -0.2027
  vn  -0.1396   0.9732  -0.1826
  vn  -0.0351   0.9772  -0.2095
  vn   0.3531   0.9214  -0.1623
  vn   0.2950   0.9387  -0.1783
  vn   0.1895   0.9687  -0.1602
  vn   0.1474   0.9721  -0.1825
  vn   0.0806   0.9759  -0.2027
  vn   0.0429   0.9769  -0.2095
  vn  -0.2841   0.9479   0.1442
  vn  -0.0639   0.9899   0.1263
  vn  -0.1306   0.9855   0.1085
  vn  -0.0048   0.9913   0.1315
  vn  -0.0345   0.9907   0.1314
  vn   0.4925   0.8691   0.0458
  vn   0.3838   0.9230   0.0287
  vn   0.4419   0.8871   0.1336
  vn   0.5075   0.8603  -0.0481
  vn   0.3963   0.9175  -0.0353
  vn   0.5077   0.8582  -0.0753
  vn   0.4912   0.8617  -0.1272
  vn   0.3861   0.9170  -0.0998
  vn   0.4801   0.8626  -0.1595
  vn   0.4690   0.8656  -0.1753
  vn  -0.4350   0.8905   0.1334
  vn  -0.1879   0.9747   0.1211
  vn  -0.3178   0.9192   0.2326
  vn  -0.3506   0.9128   0.2094
  vn  -0.4070   0.8979   0.1676
  vn   0.1721  -0.9823  -0.0733
  vn   0.2638  -0.9646  -0.0000
  vn   0.2314  -0.9715  -0.0521
  vn  -0.1763  -0.9816  -0.0733
  vn  -0.2677  -0.9635  -0.0000
  vn  -0.2354  -0.9705  -0.0521
  vn   1.0000  -0.0000   0.0000
  vn   0.0000  -1.0000   0.0000
  vn  -1.0000  -0.0000   0.0000
  vn  -0.1322   0.9912   0.0124
  vn  -0.1447   0.9731  -0.1793
  vn   0.0000  -0.0000  -1.0000
  vn  -0.8616  -0.0000  -0.5076
  vn  -0.8602   0.0000  -0.5100
  vn  -0.8597   0.0027  -0.5108
  vn  -0.4621   0.8693  -0.1754
  vn  -0.4732   0.8664  -0.1597
  vn   0.1459   0.9728  -0.1799
  vn   0.1353   0.9907  -0.0127
  vn   0.1699   0.9701  -0.1735
  vn  -0.1621   0.9714  -0.1736

usemtl __Color_A01_
f   1/1/1   2/1/1   3/1/1
f   2/1/1   1/1/1   4/1/1
f   2/1/1   4/1/1   5/1/1
f   5/1/1   4/1/1   6/1/1
f   5/1/1   6/1/1   7/1/1
f   7/1/1   6/1/1   8/1/1
f   7/1/1   8/1/1   9/1/1
f   9/1/1   8/1/1   10/1/1
f   9/1/1   10/1/1   11/1/1
f   11/1/1   10/1/1   12/1/1
f   11/1/1   12/1/1   13/1/1
f   13/1/1   12/1/1   14/1/1
f   13/1/1   14/1/1   15/1/1
f   15/1/1   14/1/1   16/1/1
f   15/1/1   16/1/1   17/1/1
f   17/1/1   16/1/1   18/1/1
f   17/1/1   18/1/1   19/1/1
f   19/1/1   18/1/1   20/1/1
f   19/1/1   20/1/1   21/1/1
f   21/1/1   20/1/1   22/1/1
f   21/1/1   22/1/1   23/1/1
f   23/1/1   22/1/1   24/1/1
f   25/1/2   3/1/3   26/1/3
f   3/1/3   25/1/2   1/1/2
f   26/1/3   2/1/4   27/1/4
f   2/1/4   26/1/3   3/1/3
f   27/1/4   5/1/5   28/1/5
f   5/1/5   27/1/4   2/1/4
f   28/1/5   7/1/6   29/1/6
f   7/1/6   28/1/5   5/1/5
f   30/1/7   7/1/6   9/1/7
f   7/1/6   30/1/7   29/1/6
f   31/1/8   9/1/7   11/1/8
f   9/1/7   31/1/8   30/1/7
f   32/1/9   11/1/8   13/1/9
f   11/1/8   32/1/9   31/1/8
f   15/1/10   32/1/9   13/1/9
f   32/1/9   15/1/10   33/1/10
f   17/1/11   33/1/10   15/1/10
f   33/1/10   17/1/11   34/1/11
f   19/1/12   34/1/11   17/1/11
f   34/1/11   19/1/12   35/1/12
f   19/1/12   36/1/13   35/1/12
f   36/1/13   19/1/12   21/1/13
f   21/1/13   37/1/14   36/1/13
f   37/1/14   21/1/13   23/1/14
f   23/1/14   38/1/15   37/1/14
f   38/1/15   23/1/14   24/1/15
f   24/1/15   39/1/16   38/1/15
f   39/1/16   24/1/15   22/1/16
f   22/1/16   40/1/17   39/1/16
f   40/1/17   22/1/16   20/1/17
f   20/1/17   41/1/18   40/1/17
f   41/1/18   20/1/17   18/1/18
f   16/1/19   41/1/18   18/1/18
f   41/1/18   16/1/19   42/1/19
f   14/1/20   42/1/19   16/1/19
f   42/1/19   14/1/20   43/1/20
f   12/1/21   43/1/20   14/1/20
f   43/1/20   12/1/21   44/1/21
f   45/1/22   12/1/21   10/1/22
f   12/1/21   45/1/22   44/1/21
f   46/1/23   10/1/22   8/1/23
f   10/1/22   46/1/23   45/1/22
f   47/1/24   8/1/23   6/1/24
f   8/1/23   47/1/24   46/1/23
f   47/1/24   4/1/25   48/1/25
f   4/1/25   47/1/24   6/1/24
f   48/1/25   1/1/2   25/1/2
f   1/1/2   48/1/25   4/1/25
f   30/1/26   49/1/26   29/1/26
f   49/1/26   30/1/26   50/1/26
f   50/1/26   30/1/26   31/1/26
f   50/1/26   31/1/26   32/1/26
f   50/1/26   32/1/26   33/1/26
f   50/1/26   33/1/26   34/1/26
f   50/1/26   34/1/26   35/1/26
f   50/1/26   35/1/26   51/1/26
f   51/1/26   35/1/26   41/1/26
f   41/1/26   35/1/26   40/1/26
f   40/1/26   35/1/26   36/1/26
f   40/1/26   36/1/26   39/1/26
f   39/1/26   36/1/26   37/1/26
f   39/1/26   37/1/26   38/1/26
f   27/1/26   25/1/26   26/1/26
f   25/1/26   27/1/26   48/1/26
f   48/1/26   27/1/26   28/1/26
f   48/1/26   28/1/26   47/1/26
f   47/1/26   28/1/26   29/1/26
f   47/1/26   29/1/26   46/1/26
f   46/1/26   29/1/26   52/1/26
f   52/1/26   29/1/26   49/1/26
f   46/1/26   52/1/26   51/1/26
f   46/1/26   51/1/26   45/1/26
f   45/1/26   51/1/26   44/1/26
f   44/1/26   51/1/26   43/1/26
f   43/1/26   51/1/26   42/1/26
f   42/1/26   51/1/26   41/1/26
usemtl __0020_Red_
f   53/1/21   54/1/21   55/1/21
f   54/1/21   53/1/21   56/1/21
f   56/1/21   53/1/21   57/1/21
f   57/1/21   53/1/21   58/1/21
usemtl Default_Material
f   59/1/27   60/1/27   61/1/27
f   61/1/27   62/1/27   63/1/27
f   62/1/27   61/1/27   60/1/27
f   62/1/27   60/1/27   64/1/27
f   61/1/26   60/1/26   59/1/26
f   63/1/26   62/1/26   61/1/26
f   60/1/26   61/1/26   62/1/26
f   64/1/26   60/1/26   62/1/26
usemtl __0020_Red_
f   65/1/28   66/1/28   61/1/28
f   66/1/28   65/1/28   55/1/28
f   66/1/28   55/1/28   67/1/28
f   67/1/28   55/1/28   59/1/28
f   59/1/28   55/1/28   68/1/28
f   68/1/28   55/1/28   54/1/28
f   69/1/29   70/1/29   71/1/29
f   70/1/29   69/1/29   72/1/29
f   72/1/29   69/1/29   73/1/29
f   69/1/29   74/1/29   75/1/29
f   74/1/29   69/1/29   76/1/29
f   76/1/29   69/1/29   71/1/29
f   74/1/30   77/1/30   75/1/30
f   77/1/30   74/1/30   78/1/30
f   77/1/30   79/1/30   80/1/30
f   79/1/30   77/1/30   81/1/30
f   81/1/30   77/1/30   78/1/30
f   82/1/31   83/1/31   84/1/31
f   83/1/31   82/1/31   85/1/31
f   85/1/31   82/1/31   86/1/31
f   85/1/31   86/1/31   87/1/31
f   51/1/32   62/1/32   50/1/32
f   62/1/32   51/1/32   64/1/32
f   51/1/33   60/1/33   64/1/33
f   51/1/34   59/1/34   60/1/34
f   67/1/35   59/1/35   51/1/35
f   53/1/36   88/1/36   58/1/36
f   88/1/36   53/1/36   89/1/36
f   89/1/36   53/1/36   77/1/36
f   89/1/36   77/1/36   90/1/36
f   90/1/36   77/1/36   91/1/36
f   91/1/36   77/1/36   92/1/36
f   92/1/36   77/1/36   80/1/36
usemtl __0080_DarkCyan_
f   93/1/37   57/1/38   94/1/39
f   88/1/40   94/1/39   57/1/38
f   58/1/41   88/1/40   57/1/38
f   95/1/42   94/1/39   89/1/43
f   88/1/40   89/1/43   94/1/39
f   96/1/44   93/1/37   97/1/45
f   94/1/39   97/1/45   93/1/37
f   98/1/46   99/1/47   100/1/48
f   95/1/42   100/1/48   99/1/47
f   101/1/49   102/1/50   103/1/51
f   104/1/52   103/1/51   102/1/50
f   105/1/53   103/1/51   104/1/52
f   106/1/54   105/1/53   104/1/52
f   107/1/55   106/1/54   104/1/52
f   108/1/56   106/1/54   107/1/55
f   109/1/57   108/1/56   107/1/55
f   110/1/58   108/1/56   109/1/57
f   111/1/59   110/1/58   109/1/57
f   112/1/60   110/1/58   111/1/59
f   113/1/61   112/1/60   111/1/59
f   111/1/59   114/1/62   113/1/61
f   115/1/63   113/1/61   114/1/62
f   70/1/64   108/1/56   71/1/65
f   110/1/58   71/1/65   108/1/56
f   116/1/66   106/1/54   72/1/67
f   70/1/64   72/1/67   106/1/54
f   108/1/56   70/1/64   106/1/54
f   73/1/68   116/1/66   72/1/67
f   117/1/69   105/1/53   116/1/66
f   106/1/54   116/1/66   105/1/53
f   99/1/47   97/1/45   95/1/42
f   94/1/39   95/1/42   97/1/45
f   113/1/61   115/1/70   112/1/60
f   118/1/71   112/1/60   115/1/70
f   114/1/72   118/1/71   115/1/70
f   119/1/73   118/1/71   114/1/72
f   120/1/74   118/1/71   119/1/73
f   121/1/75   120/1/74   119/1/73
f   122/1/76   120/1/74   121/1/75
f   123/1/77   120/1/74   122/1/76
f   98/1/46   123/1/77   122/1/76
f   124/1/78   98/1/46   122/1/76
f   99/1/47   98/1/46   124/1/78
f   96/1/44   99/1/47   124/1/78
f   97/1/45   99/1/47   96/1/44
f   122/1/76   125/1/79   124/1/78
f   126/1/80   124/1/78   125/1/79
f   127/1/81   126/1/80   125/1/79
f   119/1/73   128/1/82   121/1/75
f   129/1/83   121/1/75   128/1/82
f   114/1/72   130/1/84   119/1/73
f   60/1/84   119/1/73   130/1/84
f   59/1/84   119/1/73   60/1/84
f   128/1/82   119/1/73   59/1/84
f   131/1/85   132/1/86   104/1/52
f   133/1/87   104/1/52   132/1/86
f   107/1/55   104/1/52   133/1/87
f   134/1/88   135/1/89   109/1/57
f   111/1/59   109/1/57   135/1/89
f   135/1/89   64/1/90   111/1/59
f   114/1/62   111/1/59   64/1/90
f   130/1/90   114/1/62   64/1/90
f   60/1/90   130/1/90   64/1/90
f   123/1/77   98/1/46   136/1/91
f   100/1/48   136/1/91   98/1/46
f   118/1/71   120/1/74   78/1/92
f   81/1/93   78/1/92   120/1/74
f   112/1/60   118/1/71   76/1/94
f   74/1/95   76/1/94   118/1/71
f   78/1/92   74/1/95   118/1/71
f   71/1/65   110/1/58   76/1/94
f   112/1/60   76/1/94   110/1/58
f   137/1/96   138/1/97   139/1/98
f   117/1/69   139/1/98   138/1/97
f   138/1/97   103/1/51   117/1/69
f   105/1/53   117/1/69   103/1/51
f   140/1/99   141/1/100   137/1/96
f   138/1/97   137/1/96   141/1/100
f   141/1/100   101/1/49   138/1/97
f   103/1/51   138/1/97   101/1/49
f   87/1/101   86/1/102   140/1/99
f   142/1/103   140/1/99   86/1/102
f   141/1/100   140/1/99   142/1/103
f   141/1/100   142/1/103   101/1/49
f   102/1/50   101/1/49   142/1/103
f   82/1/104   143/1/105   86/1/102
f   142/1/103   86/1/102   143/1/105
f   131/1/85   142/1/103   143/1/105
f   142/1/103   131/1/85   102/1/50
f   104/1/52   102/1/50   131/1/85
f   124/1/78   126/1/80   96/1/44
f   93/1/37   96/1/44   126/1/80
f   100/1/48   95/1/42   90/1/106
f   89/1/43   90/1/106   95/1/42
f   79/1/107   136/1/91   80/1/108
f   92/1/109   80/1/108   136/1/91
f   136/1/91   100/1/48   92/1/109
f   91/1/110   92/1/109   100/1/48
f   90/1/106   91/1/110   100/1/48
f   120/1/74   123/1/77   81/1/93
f   136/1/91   81/1/93   123/1/77
f   79/1/107   81/1/93   136/1/91
f   139/1/98   117/1/69   116/1/66
usemtl __0020_Red_
f   77/1/111   65/1/111   75/1/111
f   55/1/112   65/1/112   53/1/112
f   53/1/113   65/1/113   77/1/113
f   75/1/114   65/1/114   69/1/114
f   65/1/115   83/1/115   85/1/115
f   65/1/116   85/1/116   69/1/116
f   66/1/117   51/1/117   52/1/117
f   51/1/117   66/1/117   67/1/117
usemtl Default_Material
f   66/1/27   59/1/27   61/1/27
f   59/1/27   66/1/27   67/1/27
f   61/1/26   59/1/26   66/1/26
f   67/1/26   66/1/26   59/1/26
usemtl __0020_Red_
f   61/1/118   49/1/118   63/1/118
f   49/1/118   61/1/118   52/1/118
f   52/1/118   61/1/118   66/1/118
f   61/1/27   63/1/27   65/1/27
f   59/1/27   64/1/27   60/1/27
f   63/1/27   83/1/27   65/1/27
f   83/1/27   63/1/27   62/1/27
f   83/1/27   62/1/27   64/1/27
f   83/1/27   64/1/27   59/1/27
f   83/1/27   59/1/27   68/1/27
f   83/1/27   68/1/27   84/1/27
f   62/1/119   49/1/119   50/1/119
f   49/1/119   62/1/119   63/1/119
f   56/1/120   144/1/120   68/1/120
f   54/1/121   56/1/121   68/1/121
usemtl Default_Material
f   125/1/122   145/1/122   146/1/122
f   145/1/122   125/1/122   127/1/122
f   145/1/122   127/1/122   147/1/122
f   145/1/122   147/1/122   56/1/122
f   146/1/28   145/1/28   125/1/28
f   127/1/28   125/1/28   145/1/28
f   147/1/28   127/1/28   145/1/28
f   56/1/28   147/1/28   145/1/28
usemtl __0020_Red_
f   73/1/123   69/1/123   116/1/123
f   140/1/124   85/1/124   87/1/124
f   85/1/124   140/1/124   137/1/124
f   85/1/124   137/1/124   69/1/124
f   69/1/124   137/1/124   139/1/124
f   69/1/125   139/1/125   116/1/125
f   144/1/122   146/1/122   130/1/122
f   146/1/122   144/1/122   125/1/122
f   125/1/122   144/1/122   127/1/122
f   127/1/122   144/1/122   147/1/122
f   147/1/122   144/1/122   56/1/122
usemtl __0080_DarkCyan_
f   126/1/80   147/1/126   93/1/37
f   56/1/127   93/1/37   147/1/126
f   57/1/38   93/1/37   56/1/127
f   126/1/80   127/1/81   147/1/126
usemtl __0020_Red_
f   68/1/128   82/1/128   84/1/128
f   68/1/129   144/1/129   82/1/129
f   148/1/26   144/1/26   130/1/26
f   144/1/26   148/1/26   133/1/26
f   144/1/26   133/1/26   132/1/26
f   144/1/26   132/1/26   143/1/26
f   144/1/26   143/1/26   82/1/26
usemtl __0080_DarkCyan_
f   131/1/85   143/1/105   132/1/86
f   149/1/130   134/1/88   133/1/87
f   107/1/55   133/1/87   134/1/88
f   109/1/57   107/1/55   134/1/88
f   121/1/75   129/1/83   122/1/76
f   125/1/79   122/1/76   129/1/83
f   150/1/131   125/1/79   129/1/83
