#Exported from SketchUp with ZbylsXExporter

mtllib stick1.mtl

  v   0.0100   0.0100  -0.0000
  v  -0.0100  -0.0100   0.0000
  v   0.0100  -0.0100   0.0000
  v  -0.0100   0.0100  -0.0000
  v   0.0100  -0.0100  -0.1200
  v   0.0100   0.0100  -0.1200
  v  -0.0100  -0.0100  -0.1200
  v  -0.0100   0.0100  -0.1200
  v   0.0049   0.0050  -0.1200
  v  -0.0050   0.0050  -0.2400
  v  -0.0050   0.0050  -0.1200
  v   0.0049   0.0050  -0.2400
  v   0.0050  -0.0050  -0.2400
  v  -0.0050  -0.0050  -0.2400
  v   0.0050  -0.0050  -0.1200
  v  -0.0050  -0.0050  -0.1200

  vt   0.0000   0.0000

  vn   0.0000   0.0000   1.0000
  vn   1.0000  -0.0000  -0.0000
  vn  -0.0000  -1.0000  -0.0000
  vn  -1.0000  -0.0000  -0.0000
  vn   0.0000   1.0000  -0.0000
  vn  -0.0000   1.0000  -0.0000
  vn   0.0000   0.0000  -1.0000
  vn   1.0000   0.0074   0.0000
  vn   0.0000  -0.0000  -1.0000
  vn   0.0000  -1.0000   0.0000
  vn  -1.0000  -0.0000   0.0000

usemtl __Color_A01_
f   1/1/1   2/1/1   3/1/1
f   2/1/1   1/1/1   4/1/1
f   5/1/2   1/1/2   3/1/2
f   1/1/2   5/1/2   6/1/2
f   7/1/3   3/1/3   2/1/3
f   3/1/3   7/1/3   5/1/3
f   4/1/4   7/1/4   2/1/4
f   7/1/4   4/1/4   8/1/4
f   1/1/5   8/1/5   4/1/5
f   8/1/5   1/1/5   6/1/5
f   9/1/6   10/1/6   11/1/6
f   10/1/6   9/1/6   12/1/6
f   10/1/7   13/1/7   14/1/7
f   13/1/7   10/1/7   12/1/7
f   13/1/8   9/1/8   15/1/8
f   9/1/8   13/1/8   12/1/8
f   8/1/9   16/1/9   7/1/9
f   16/1/9   8/1/9   11/1/9
f   11/1/9   8/1/9   9/1/9
f   5/1/9   15/1/9   6/1/9
f   15/1/9   5/1/9   7/1/9
f   15/1/9   7/1/9   16/1/9
f   6/1/9   15/1/9   9/1/9
f   6/1/9   9/1/9   8/1/9
f   13/1/10   16/1/10   14/1/10
f   16/1/10   13/1/10   15/1/10
f   11/1/11   14/1/11   16/1/11
f   14/1/11   11/1/11   10/1/11
