ply
format ascii 1.0
element vertex 1275
property float x
property float y
property float z
property uchar diffuse_red
property uchar diffuse_green
property uchar diffuse_blue
end_header
-0.269522 0.0628608 0.289988 92 133 61
-0.26906 0.0635366 0.289936 93 134 62
-0.268929 0.0625478 0.28935 92 134 60
-0.268601 0.063273 0.28927 92 134 61
-0.268404 0.0640484 0.289161 93 133 62
-0.268867 0.062433 0.288597 91 134 61
-0.26801 0.06296 0.288633 91 134 61
-0.26729 0.0635338 0.288641 91 132 60
-0.266573 0.0641051 0.288648 91 132 58
-0.26599 0.0647245 0.288626 90 132 60
-0.267159 0.0625492 0.288058 90 134 62
-0.266443 0.0631225 0.288066 90 132 61
-0.265731 0.0636933 0.288074 91 132 58
-0.265408 0.0644121 0.287995 91 133 62
-0.265213 0.0651816 0.287886 91 132 61
-0.266443 0.0621897 0.287456 91 132 60
-0.266118 0.0629104 0.287376 91 133 62
-0.265407 0.0634818 0.287386 90 132 60
-0.265084 0.0642007 0.287307 92 131 62
-0.264888 0.0649701 0.287198 89 131 61
-0.265989 0.0619288 0.286796 91 134 64
-0.265793 0.0626983 0.286686 90 132 61
-0.265083 0.0632703 0.286698 91 128 58
-0.265859 0.0609481 0.286216 81 119 56
-0.265664 0.0617167 0.286106 92 129 61
-0.26521 0.0623883 0.286057 91 131 61
-0.265015 0.0631575 0.285948 89 131 63
-0.523634 0.199232 0.21719 56 88 38
-0.265859 0.0600155 0.285605 57 101 40
-0.265663 0.0607838 0.285495 69 108 47
-0.265467 0.061553 0.285385 88 124 57
-0.264886 0.0621764 0.285368 91 130 60
-0.26469 0.0629456 0.285258 87 127 61
-0.52331 0.196726 0.215722 58 85 33
-0.519651 0.197217 0.21626 56 85 34
-0.519152 0.199176 0.215979 52 84 32
-0.265472 0.0589429 0.285089 48 102 36
-0.265276 0.0597092 0.284978 51 101 37
-0.265338 0.0605716 0.284805 59 101 41
-0.265142 0.0613407 0.284694 78 115 52
-0.264689 0.0620131 0.284647 89 125 59
-0.264493 0.0627828 0.284536 84 122 58
-0.524583 0.194954 0.213836 59 86 30
-0.522485 0.19619 0.213972 58 84 32
-0.518831 0.196685 0.214521 55 84 33
-0.518332 0.198644 0.214239 55 84 32
-0.26489 0.0586387 0.284464 45 101 33
-0.264695 0.0594038 0.284354 48 100 34
-0.264884 0.0603118 0.284147 50 98 32
-0.264688 0.0610803 0.284036 67 105 41
-0.26462 0.0618982 0.283893 82 116 55
-0.522162 0.193687 0.212505 57 85 30
-0.520079 0.194924 0.212644 58 84 30
-0.518011 0.196154 0.212782 59 84 33
-0.516733 0.197744 0.21271 62 85 35
-0.264311 0.0583353 0.283841 46 98 30
-0.264243 0.0591457 0.283698 45 98 29
-0.264175 0.0599581 0.283555 44 97 28
-0.264363 0.0608681 0.283346 56 97 32
-0.520546 0.19279 0.21097 57 86 33
-0.518473 0.194027 0.211114 58 86 33
-0.514867 0.194535 0.211679 60 86 37
-0.514369 0.196483 0.211397 61 88 42
-0.263987 0.058124 0.283154 45 96 29
-0.263665 0.0588417 0.283076 43 95 28
-0.263723 0.0596994 0.282899 43 96 29
-0.264038 0.0606558 0.282655 44 94 29
-0.520512 0.192616 0.209005 56 86 35
-0.517651 0.193495 0.209372 57 87 37
-0.515595 0.194728 0.20952 57 88 39
-0.51587 0.197048 0.209019 57 89 39
-0.263537 0.0578672 0.282501 44 96 28
-0.263341 0.0586304 0.28239 43 93 31
-0.263272 0.0594412 0.282245 44 93 30
-0.514181 0.183093 0.210062 54 87 32
-0.519686 0.19208 0.207255 56 86 35
-0.518396 0.193685 0.20719 54 87 37
-0.515551 0.194558 0.207564 54 87 34
-0.51505 0.196516 0.207279 54 87 31
-0.263213 0.057656 0.281815 40 95 29
-0.262891 0.0583733 0.281737 44 92 32
-0.262695 0.0591368 0.281625 45 94 30
-0.513865 0.180639 0.208625 56 89 33
-0.512607 0.18223 0.208558 54 87 32
-0.513642 0.184838 0.207843 53 87 31
-0.518578 0.189224 0.206016 56 89 32
-0.518861 0.191545 0.205504 56 88 32
-0.516009 0.192429 0.205889 53 87 32
-0.514731 0.194026 0.205825 51 86 31
-0.515004 0.19635 0.205315 51 85 31
-0.549309 0.140192 0.207579 44 36 23
-0.262694 0.0582079 0.281016 44 93 30
-0.512291 0.179781 0.207124 60 91 37
-0.511038 0.18137 0.20706 55 90 36
-0.511303 0.18363 0.206559 53 89 35
-0.512333 0.186245 0.205835 51 89 31
-0.514913 0.189585 0.204659 50 89 29
-0.514412 0.191539 0.204372 50 89 30
-0.513138 0.193134 0.20431 50 85 31
-0.513408 0.195452 0.203797 53 83 36
-0.535878 0.131545 0.20997 36 29 16
-0.536212 0.133716 0.209468 34 29 17
-0.541579 0.137477 0.207625 34 32 22
-0.547087 0.141341 0.205732 37 34 25
-0.562772 0.148554 0.201099 40 36 26
-0.511482 0.179255 0.205409 53 92 37
-0.510988 0.181179 0.205125 54 90 34
-0.511254 0.183443 0.204619 53 88 32
-0.511519 0.185717 0.204111 51 87 30
-0.512552 0.188351 0.203374 52 87 28
-0.51282 0.190651 0.20286 52 88 29
-0.510025 0.191535 0.203253 52 86 31
-0.511817 0.194557 0.202285 54 84 36
-0.525259 0.122002 0.212084 56 41 28
-0.524781 0.123863 0.211809 48 39 27
-0.525874 0.126197 0.211112 41 40 26
-0.53424 0.13076 0.208457 38 38 23
-0.535393 0.13318 0.207731 35 33 18
-0.535726 0.13536 0.207223 32 30 16
-0.545379 0.140514 0.204182 33 30 18
-0.51919 0.182433 0.201179 52 92 36
-0.510938 0.180987 0.203183 51 90 38
-0.511203 0.183255 0.202672 52 88 35
-0.513004 0.186223 0.2017 57 86 29
-0.511735 0.187821 0.201642 61 86 29
-0.511235 0.189767 0.201354 61 88 34
-0.50921 0.191006 0.201525 57 89 38
-0.512536 0.19475 0.200081 53 88 39
-0.530668 0.117227 0.209947 73 62 50
-0.526998 0.118207 0.210525 72 62 49
-0.524943 0.119622 0.210672 70 60 46
-0.523682 0.121254 0.210608 67 53 39
-0.523204 0.123112 0.210332 64 45 33
-0.523506 0.125205 0.209844 59 40 30
-0.524594 0.127545 0.209138 55 37 28
-0.532932 0.132137 0.206442 50 36 24
-0.53408 0.134564 0.205707 45 35 21
-0.539417 0.138338 0.203812 38 32 22
-0.520454 0.180617 0.199246 54 88 32
-0.518365 0.181896 0.199428 52 89 34
-0.514733 0.182484 0.200078 53 89 37
-0.514231 0.184434 0.199788 55 88 38
-0.513729 0.186386 0.199498 58 86 36
-0.513225 0.188341 0.199208 58 86 36
-0.512722 0.190297 0.198918 57 88 37
-0.512218 0.192256 0.198627 57 87 36
-0.51326 0.194944 0.197861 55 87 35
-0.514309 0.197654 0.197089 55 86 33
-0.542873 0.114113 0.205968 76 64 51
-0.538186 0.114915 0.206815 75 62 53
-0.531153 0.115045 0.208305 74 62 52
-0.527472 0.116041 0.208894 74 63 52
-0.525412 0.117464 0.209048 73 64 54
-0.524149 0.119101 0.208985 72 63 54
-0.522889 0.120734 0.208923 71 60 51
-0.52241 0.122591 0.208646 71 58 48
-0.523492 0.124916 0.207938 70 55 45
-0.523795 0.127022 0.207442 68 53 39
-0.530489 0.131102 0.205164 66 53 34
-0.533261 0.134027 0.203968 61 50 32
-0.536073 0.136998 0.202754 57 44 32
-0.514963 0.184591 0.197572 57 87 37
-0.513682 0.186201 0.197519 59 86 35
-0.513177 0.188159 0.197227 59 87 36
-0.512672 0.190119 0.196935 57 87 36
-0.512167 0.192081 0.196643 57 87 32
-0.513989 0.195139 0.195625 57 85 29
-0.513479 0.197117 0.19533 56 84 30
-0.542545 0.111658 0.204509 71 64 55
-0.538693 0.112697 0.205141 74 66 57
-0.533262 0.113288 0.206212 77 67 58
-0.530349 0.114517 0.206599 77 67 57
-0.527468 0.115735 0.206981 76 64 55
-0.526193 0.117382 0.206921 75 64 56
-0.524137 0.118801 0.20708 74 64 57
-0.522875 0.120438 0.20702 74 62 55
-0.522395 0.122298 0.206742 73 62 54
-0.521914 0.124161 0.206464 71 63 55
-0.522995 0.126498 0.205745 70 62 52
-0.529676 0.13057 0.203438 70 60 47
-0.531623 0.133236 0.20246 69 58 44
-0.53359 0.135933 0.201472 67 55 43
-0.51265 0.196579 0.193571 58 85 30
-0.513699 0.199307 0.192778 58 86 30
-0.543916 0.109632 0.202583 41 38 34
-0.54088 0.110902 0.202998 50 46 38
-0.537047 0.111944 0.203639 64 54 42
-0.533269 0.112974 0.204271 69 60 48
-0.530351 0.114206 0.204668 70 63 54
-0.527463 0.115428 0.20506 71 64 57
-0.526186 0.117078 0.205003 73 66 57
-0.524126 0.118501 0.205168 74 66 58
-0.522079 0.119916 0.205332 75 64 58
-0.521599 0.121777 0.205053 75 63 57
-0.521118 0.123639 0.204774 74 64 57
-0.522196 0.125974 0.204047 73 64 57
-0.527254 0.129544 0.202174 73 63 55
-0.528371 0.131943 0.201426 72 62 53
-0.530309 0.134619 0.200436 71 63 53
-0.54006 0.110363 0.201257 30 26 21
-0.536232 0.111409 0.20191 40 32 21
-0.53246 0.112442 0.202553 46 39 28
-0.529546 0.113678 0.202958 51 45 38
-0.528258 0.115338 0.202904 56 50 44
-0.526179 0.116773 0.203077 62 56 48
-0.524114 0.1182 0.203249 68 62 53
-0.521284 0.119395 0.203644 71 64 56
-0.520803 0.121255 0.203364 74 65 56
-0.520322 0.123117 0.203083 75 65 57
-0.51984 0.124982 0.202803 75 65 58
-0.520912 0.127323 0.202068 75 64 58
-0.525953 0.130912 0.200168 73 64 57
-0.527064 0.133318 0.199411 73 65 57
-0.530352 0.113581 0.200784 30 26 21
-0.528254 0.115028 0.200965 35 29 24
-0.526968 0.116688 0.200913 42 35 30
-0.524892 0.11812 0.201092 49 42 39
-0.521267 0.119096 0.201727 56 50 44
-0.520007 0.120733 0.201674 61 55 46
-0.518752 0.122366 0.20162 67 59 49
-0.519043 0.124459 0.201111 69 61 52
-0.520112 0.126799 0.200369 69 62 55
-0.519627 0.128674 0.200086 69 62 54
-0.519141 0.130551 0.199803 70 64 53
-0.523363 0.133932 0.19811 71 64 53
-0.525676 0.118039 0.19892 30 23 22
-0.522816 0.119243 0.199339 35 29 25
-0.519987 0.120436 0.199753 40 35 29
-0.519504 0.122302 0.19947 44 39 33
-0.518246 0.123937 0.199419 47 42 35
-0.517763 0.125803 0.199136 50 45 38
-0.517279 0.127671 0.198853 51 48 38
-0.516026 0.1293 0.198803 54 51 39
-0.515542 0.131169 0.198519 59 53 41
-0.515057 0.13304 0.198236 60 54 47
-0.240747 0.0592267 0.277225 57 88 33
-0.240565 0.0599282 0.277118 55 88 36
-0.240633 0.0583335 0.276704 60 87 30
-0.240451 0.0590342 0.276597 58 88 34
-0.240269 0.0597357 0.276489 59 89 35
-0.240086 0.0604379 0.276382 57 87 33
-0.239903 0.061141 0.276274 58 87 29
-0.240519 0.0574412 0.276184 62 88 31
-0.240337 0.0581411 0.276076 60 87 31
-0.240155 0.0588417 0.275969 58 89 29
-0.239972 0.0595431 0.275861 61 88 29
-0.23979 0.0602453 0.275753 60 87 30
-0.239607 0.0609483 0.275645 61 90 33
-0.239424 0.0616521 0.275537 60 88 33
-0.513471 0.143557 0.186244 71 67 46
-0.514523 0.146014 0.18543 68 68 52
-0.240041 0.0579486 0.275449 61 88 37
-0.239859 0.0586492 0.275341 58 88 35
-0.239676 0.0593506 0.275233 60 85 36
-0.239493 0.0600527 0.275124 60 86 38
-0.23931 0.0607556 0.275016 61 88 35
-0.239127 0.0614594 0.274907 59 88 35
-0.507524 0.131047 0.188532 76 63 54
-0.507038 0.132911 0.188243 75 61 50
-0.506551 0.134777 0.187955 68 63 49
-0.506064 0.136645 0.187666 56 61 46
-0.507071 0.139029 0.186872 63 54 48
-0.50884 0.141695 0.185816 83 58 42
-0.512162 0.144935 0.184226 83 65 46
-0.514763 0.147956 0.182873 58 72 58
-0.241048 0.0582954 0.27436 61 89 38
-0.239562 0.0584567 0.274712 59 89 40
-0.23938 0.059158 0.274604 61 89 39
-0.239197 0.0598601 0.274495 62 89 40
-0.239013 0.0605629 0.274387 62 88 39
-0.23883 0.0612666 0.274278 63 89 37
-0.238646 0.061971 0.274169 64 90 34
-0.513428 0.120504 0.187315 76 64 58
-0.511418 0.121916 0.187532 76 65 57
-0.510175 0.12355 0.187496 76 64 56
-0.508185 0.124947 0.18771 73 64 56
-0.506953 0.126571 0.187673 74 61 55
-0.506469 0.128427 0.187385 87 56 50
-0.506729 0.130527 0.186844 109 47 45
-0.506243 0.132391 0.186555 126 45 31
-0.505756 0.134257 0.186266 117 50 25
-0.505268 0.136125 0.185976 93 55 28
-0.50478 0.137995 0.185685 87 70 55
-0.50653 0.140646 0.184626 89 70 57
-0.507542 0.143061 0.183815 85 67 54
-0.510852 0.146315 0.182206 42 35 34
-0.240565 0.0588077 0.273617 60 88 36
-0.239083 0.0589653 0.273975 61 90 36
-0.2389 0.0596674 0.273866 64 89 36
-0.238717 0.0603702 0.273757 64 87 36
-0.238533 0.0610738 0.273648 63 89 37
-0.238349 0.0617782 0.273539 60 90 37
-0.238165 0.0624833 0.273429 60 90 36
-0.511593 0.117673 0.18642 80 58 52
-0.511107 0.119533 0.18613 103 53 47
-0.509865 0.121168 0.186096 115 53 45
-0.508626 0.1228 0.186061 122 50 38
-0.507391 0.124428 0.186026 125 57 32
-0.506161 0.126052 0.18599 125 60 29
-0.505676 0.127908 0.185701 130 57 30
-0.504449 0.129527 0.185666 136 55 36
-0.503964 0.131384 0.185377 142 55 36
-0.503478 0.133244 0.185087 135 52 31
-0.503731 0.135354 0.184542 111 60 45
-0.503983 0.137474 0.183994 94 71 59
-0.504981 0.139863 0.183185 88 71 60
-0.50449 0.141744 0.182892 75 65 50
-0.505492 0.14416 0.182075 36 15 13
-0.24208 0.0585794 0.272502 62 92 38
-0.240872 0.0588668 0.272763 62 89 37
-0.240283 0.0594059 0.2728 63 88 35
-0.238604 0.0594747 0.273237 61 90 36
-0.23842 0.0601774 0.273128 61 89 36
-0.238236 0.060881 0.273018 60 89 35
-0.238052 0.0615853 0.272909 60 90 35
-0.237868 0.0622904 0.272799 62 90 36
-0.512528 0.113651 0.185053 78 53 38
-0.511282 0.115294 0.18502 74 42 30
-0.51004 0.116933 0.184987 90 45 30
-0.509555 0.118789 0.184697 123 50 37
-0.508317 0.120423 0.184664 136 49 37
-0.507083 0.122052 0.184631 142 46 31
-0.505853 0.123679 0.184597 142 49 25
-0.504626 0.125301 0.184564 142 52 29
-0.504142 0.127154 0.184274 146 51 30
-0.503657 0.129009 0.183984 148 52 28
-0.503171 0.130866 0.183694 150 51 27
-0.50195 0.132481 0.183661 151 46 26
-0.502198 0.134586 0.183113 130 53 39
-0.502447 0.136701 0.182563 99 64 53
-0.502697 0.138826 0.18201 87 69 59
-0.502946 0.14096 0.181455 63 64 56
-0.503197 0.143104 0.180898 43 22 12
-0.241284 0.0589688 0.271863 60 91 37
-0.240387 0.0593817 0.272015 61 87 37
-0.239798 0.0599202 0.272054 61 91 38
-0.238123 0.0599847 0.272498 62 90 35
-0.237939 0.0606881 0.272388 60 92 37
-0.237755 0.0613924 0.272278 59 91 33
-0.237571 0.0620975 0.272168 61 91 34
-0.237386 0.0628033 0.272058 59 92 36
-0.509731 0.114558 0.18359 84 64 54
-0.509245 0.116412 0.183299 95 58 48
-0.508008 0.118048 0.183268 125 55 43
-0.506775 0.11968 0.183237 141 50 44
-0.506289 0.121533 0.182946 148 48 35
-0.50506 0.12316 0.182915 146 55 36
-0.503835 0.124783 0.182883 146 62 44
-0.50335 0.126636 0.182593 148 49 34
-0.502864 0.128491 0.182302 147 52 33
-0.501643 0.130108 0.182271 151 53 35
-0.500426 0.131721 0.182239 152 57 41
-0.499941 0.133575 0.181949 141 55 44
-0.500185 0.135681 0.181397 111 59 48
-0.500429 0.137796 0.180844 86 65 56
-0.501409 0.140179 0.180024 62 63 58
-0.501655 0.142317 0.179464 60 38 19
-0.241289 0.0589007 0.271109 61 92 37
-0.240086 0.0591866 0.271378 61 89 37
-0.239498 0.0597255 0.271418 60 91 37
-0.237826 0.0597918 0.271869 61 91 38
-0.237642 0.0604953 0.271758 62 92 41
-0.237458 0.0611995 0.271648 61 91 37
-0.237273 0.0619045 0.271537 61 93 34
-0.237088 0.0626103 0.271427 59 93 35
-0.506467 0.117309 0.181845 117 50 38
-0.505982 0.11916 0.181553 140 48 33
-0.505496 0.121013 0.181262 150 49 27
-0.504268 0.122641 0.181233 153 51 29
-0.503782 0.124495 0.180941 152 54 36
-0.502558 0.126118 0.180912 150 55 33
-0.501338 0.127737 0.180882 148 57 40
-0.500121 0.129352 0.180852 154 55 38
-0.499636 0.131204 0.180561 153 55 37
-0.498423 0.132814 0.180531 151 50 35
-0.497938 0.134667 0.18024 129 54 40
-0.498904 0.137024 0.179422 90 60 46
-0.498415 0.138888 0.179128 66 63 56
-0.498655 0.141013 0.178569 67 43 24
-0.239786 0.0589914 0.270741 61 90 38
-0.239199 0.0595308 0.270783 61 92 38
-0.237529 0.059599 0.271239 60 92 41
-0.237345 0.0603024 0.271128 61 93 40
-0.237161 0.0610065 0.271017 61 91 39
-0.236976 0.0617115 0.270907 61 93 36
-0.236791 0.0624172 0.270796 61 93 36
-0.236606 0.0631237 0.270684 61 92 37
-0.505674 0.116789 0.180162 102 54 42
-0.505189 0.11864 0.17987 130 52 37
-0.504702 0.120493 0.179577 146 58 41
-0.503475 0.122122 0.17955 153 55 31
-0.502252 0.123747 0.179522 151 53 36
-0.501766 0.125599 0.17923 145 60 42
-0.500546 0.127219 0.179203 143 61 51
-0.499331 0.128835 0.179175 151 60 47
-0.498119 0.130447 0.179147 151 55 44
-0.496911 0.132056 0.179119 153 53 38
-0.496426 0.133906 0.178827 140 56 43
-0.49594 0.135757 0.178535 107 56 40
-0.496174 0.137863 0.177977 78 58 46
-0.495686 0.139722 0.177684 57 31 24
-0.495919 0.141842 0.177123 58 51 40
-0.239486 0.0587962 0.270104 61 91 41
-0.2387 0.059251 0.270224 62 92 40
-0.237232 0.0594061 0.270609 61 92 39
-0.237048 0.0601094 0.270498 61 92 36
-0.236863 0.0608136 0.270387 62 92 37
-0.236678 0.0615185 0.270276 61 93 38
-0.236493 0.0622241 0.270164 62 92 39
-0.236308 0.0629306 0.270053 62 92 37
-0.504881 0.11627 0.178479 91 59 50
-0.503654 0.117902 0.178453 119 56 43
-0.503169 0.119751 0.17816 142 63 52
-0.501946 0.121378 0.178135 148 60 46
-0.50146 0.123228 0.177842 146 59 51
-0.500241 0.12485 0.177816 143 62 51
-0.499026 0.126468 0.17779 143 63 49
-0.497815 0.128083 0.177764 148 61 48
-0.496608 0.129693 0.177738 151 54 39
-0.493974 0.130822 0.17824 153 53 35
-0.492781 0.132421 0.178212 149 51 38
-0.492298 0.134259 0.177921 128 50 36
-0.491815 0.1361 0.17763 91 57 38
-0.490626 0.137692 0.177603 64 38 26
-0.489441 0.139281 0.177575 52 36 26
-0.488957 0.141121 0.177284 56 47 34
-0.238885 0.0584745 0.269584 63 93 42
-0.2384 0.0590565 0.269589 63 92 39
-0.236935 0.0592132 0.269979 63 92 38
-0.236751 0.0599165 0.269868 63 92 36
-0.236566 0.0606205 0.269756 63 93 36
-0.236381 0.0613254 0.269645 61 92 38
-0.236195 0.062031 0.269533 61 93 43
-0.23601 0.0627374 0.269421 62 93 40
-0.235824 0.0634446 0.269309 64 92 36
-0.502125 0.117166 0.177041 104 54 36
-0.50164 0.119012 0.176748 140 54 36
-0.501154 0.12086 0.176454 151 55 37
-0.499936 0.122484 0.176431 149 56 45
-0.49945 0.124333 0.176137 149 61 47
-0.498236 0.125951 0.176113 150 58 38
-0.496304 0.127333 0.176358 145 57 48
-0.494386 0.128706 0.1766 148 56 43
-0.49248 0.130072 0.176841 150 58 44
-0.491997 0.131909 0.176549 149 51 45
-0.491514 0.133747 0.176257 140 53 42
-0.490326 0.135342 0.176232 121 53 36
-0.489141 0.136933 0.176206 86 51 37
-0.48796 0.13852 0.17618 69 46 30
-0.487477 0.140357 0.175888 59 41 24
-0.4863 0.14194 0.175862 67 50 36
-0.485817 0.143777 0.17557 79 68 55
-0.238685 0.0583216 0.268909 65 95 43
-0.238101 0.0588619 0.268954 62 93 39
-0.236638 0.0590203 0.269349 62 94 37
-0.236453 0.0597235 0.269237 62 94 37
-0.236268 0.0604275 0.269125 62 93 37
-0.236083 0.0611323 0.269013 60 93 40
-0.235898 0.0618379 0.268901 61 93 43
-0.235712 0.0625442 0.268789 61 93 44
-0.235526 0.0632514 0.268677 63 93 41
-0.23534 0.0639593 0.268564 61 92 41
-0.501335 0.116648 0.175363 90 54 39
-0.500117 0.118275 0.17534 126 50 28
-0.499631 0.120119 0.175047 147 59 35
-0.499145 0.121966 0.174752 152 57 36
-0.498659 0.123815 0.174458 156 54 35
-0.497446 0.125435 0.174436 157 51 31
-0.495517 0.126818 0.174685 145 53 44
-0.4936 0.128193 0.174933 142 64 55
-0.492405 0.129797 0.17491 145 65 58
-0.491214 0.131397 0.174886 142 65 58
-0.490026 0.132993 0.174862 141 51 45
-0.488842 0.134586 0.174838 144 47 29
-0.487661 0.136176 0.174814 103 54 44
-0.486484 0.137762 0.174789 83 62 45
-0.486002 0.139595 0.174497 73 55 36
-0.484141 0.140923 0.174739 64 42 31
-0.483659 0.142754 0.174447 62 49 42
-0.483177 0.144587 0.174155 74 79 55
-0.236526 0.0581249 0.268831 62 94 41
-0.236341 0.0588273 0.268719 61 95 40
-0.236156 0.0595305 0.268607 61 94 38
-0.235971 0.0602344 0.268495 61 94 39
-0.235786 0.0609392 0.268382 59 94 42
-0.2356 0.0616447 0.26827 61 93 43
-0.235414 0.062351 0.268157 62 92 44
-0.235228 0.0630581 0.268045 62 92 43
-0.235042 0.063766 0.267932 61 92 41
-0.499812 0.115915 0.173958 84 60 50
-0.498599 0.11754 0.173938 102 53 36
-0.498841 0.119602 0.173369 133 60 42
-0.498355 0.121449 0.173074 146 61 44
-0.497142 0.12307 0.173054 153 50 36
-0.496656 0.124918 0.172758 155 47 27
-0.495447 0.126534 0.172738 150 50 33
-0.494243 0.128147 0.172718 141 58 44
-0.49233 0.12952 0.172971 145 53 42
-0.491844 0.131362 0.172677 142 57 42
-0.489243 0.132482 0.1732 145 41 28
-0.487363 0.133833 0.173449 150 40 22
-0.486186 0.135421 0.173426 123 49 36
-0.485704 0.137252 0.173133 85 57 41
-0.484531 0.138836 0.17311 76 64 52
-0.483362 0.140415 0.173087 74 54 42
-0.48288 0.142246 0.172794 62 43 30
-0.482397 0.144079 0.172501 59 51 37
-0.236229 0.057932 0.268201 62 95 44
-0.236044 0.0586343 0.268089 62 94 42
-0.235859 0.0593374 0.267976 62 93 38
-0.235673 0.0600413 0.267864 61 95 40
-0.235488 0.060746 0.267751 61 94 42
-0.235302 0.0614515 0.267638 61 94 41
-0.235116 0.0621577 0.267525 62 92 41
-0.23493 0.0628648 0.267412 62 92 39
-0.234743 0.0635726 0.267299 62 92 39
-0.497086 0.116808 0.17254 88 59 43
-0.496602 0.118646 0.172245 114 55 42
-0.496839 0.120708 0.171673 136 60 53
-0.496352 0.122553 0.171377 144 55 49
-0.495865 0.124401 0.17108 151 50 30
-0.495378 0.12625 0.170784 150 49 27
-0.49417 0.127866 0.170766 144 43 27
-0.492967 0.129479 0.170748 148 39 18
-0.492479 0.131327 0.170451 147 39 21
-0.490571 0.132693 0.170711 152 38 15
-0.487277 0.133565 0.171518 151 37 19
-0.483066 0.138079 0.171728 63 55 44
-0.482584 0.139908 0.171435 78 67 56
-0.482101 0.141738 0.171141 76 58 41
-0.235747 0.0584413 0.267458 62 93 43
-0.235562 0.0591443 0.267345 62 93 41
-0.235376 0.0598482 0.267233 63 94 41
-0.23519 0.0605528 0.267119 63 94 40
-0.235004 0.0612582 0.267006 63 93 39
-0.234818 0.0619644 0.266893 63 94 40
-0.234631 0.0626714 0.26678 63 94 40
-0.234445 0.0633792 0.266666 64 92 37
-0.495095 0.117913 0.170851 98 57 46
-0.495328 0.11997 0.170277 128 56 54
-0.495562 0.122036 0.1697 140 59 56
-0.495075 0.123884 0.169402 150 48 32
-0.493868 0.125502 0.169386 149 45 24
-0.49338 0.12735 0.169089 149 37 20
-0.492892 0.1292 0.168791 152 37 13
-0.49169 0.130812 0.168775 150 38 19
-0.491201 0.132662 0.168478 145 36 17
-0.481805 0.1394 0.169783 55 52 42
-0.481322 0.14123 0.169488 74 63 50
-0.235264 0.0589512 0.266715 61 94 43
-0.235078 0.059655 0.266601 63 94 41
-0.234892 0.0603596 0.266488 63 94 42
-0.234706 0.061065 0.266374 65 94 43
-0.23452 0.0617711 0.266261 64 95 46
-0.234333 0.062478 0.266147 64 94 45
-0.493823 0.119235 0.168885 117 54 50
-0.493337 0.121073 0.168588 141 49 42
-0.493566 0.12314 0.168008 152 39 27
-0.493078 0.124985 0.16771 152 36 20
-0.49259 0.126833 0.167412 155 36 18
-0.492101 0.128683 0.167113 151 37 14
-0.491612 0.130535 0.166814 132 32 18
-0.234595 0.0601664 0.265856 63 95 46
-0.234408 0.0608717 0.265742 65 96 49
-0.234222 0.0615778 0.265628 63 95 51
-0.492323 0.118502 0.167498 102 58 47
-0.491837 0.120337 0.167201 139 35 21
-0.492063 0.122398 0.166618 156 36 18
-0.492288 0.124469 0.166034 153 35 20
-0.4918 0.126316 0.165734 143 35 21
-0.492024 0.128402 0.165146 123 30 14
-0.490828 0.117771 0.166116 94 66 55
-0.491051 0.119822 0.165532 119 45 32
-0.490565 0.121659 0.165234 145 33 18
-0.490787 0.123725 0.164646 134 29 18
-0.491009 0.1258 0.164057 103 25 14
-0.489558 0.119089 0.164152 97 58 53
-0.489778 0.121145 0.163563 119 32 25
-0.489998 0.123209 0.162972 95 21 17
-0.238994 0.0660549 0.260582 55 87 36
-0.238387 0.0665988 0.260647 54 87 35
-0.236973 0.06675 0.261078 52 86 32
-0.487584 0.120189 0.162478 97 54 44
-0.487799 0.122244 0.161886 84 43 35
-0.48872 0.124537 0.160996 74 43 34
-0.238878 0.065114 0.260041 53 86 32
-0.238271 0.0656596 0.260107 53 86 33
-0.237161 0.0659616 0.260405 51 86 33
-0.236564 0.0665017 0.260469 50 87 29
-0.23597 0.0670397 0.260533 51 86 30
-0.238566 0.064912 0.25938 53 86 29
-0.237858 0.0654101 0.259495 52 86 31
-0.237054 0.0658574 0.259655 50 87 31
-0.236456 0.0663984 0.259721 50 87 30
-0.236061 0.0670346 0.259694 54 87 33
-0.235467 0.0675719 0.25976 55 88 32
-0.238451 0.0639721 0.258841 53 89 31
-0.238152 0.0646624 0.258767 51 88 28
-0.237547 0.0652087 0.258836 52 88 28
-0.236744 0.0656568 0.258999 52 88 30
-0.236247 0.0662465 0.259019 54 88 34
-0.235952 0.066932 0.258945 59 89 34
-0.235557 0.0675682 0.258919 58 92 36
-0.235461 0.0683522 0.258751 60 94 37
-0.235365 0.069138 0.258582 62 94 40
-0.236272 0.0704368 0.257936 60 96 42
-0.238139 0.0637701 0.25818 54 89 30
-0.237841 0.0644605 0.258106 52 89 30
-0.237236 0.0650073 0.258177 55 89 31
-0.236737 0.0655999 0.258199 58 89 33
-0.236238 0.0661909 0.25822 60 90 34
-0.235742 0.0667804 0.258242 60 94 35
-0.235447 0.0674662 0.258168 60 95 35
-0.235251 0.0682015 0.258047 60 96 37
-0.235055 0.0689376 0.257925 61 94 38
-0.235859 0.0701836 0.257322 59 92 38
-0.236165 0.0711861 0.256956 56 90 37
-0.238552 0.0750149 0.255131 77 107 61
-0.238558 0.0758917 0.254902 79 99 62
-0.238127 0.0628775 0.257593 55 87 30
-0.237725 0.0635212 0.257568 55 88 33
-0.237325 0.064164 0.257543 58 89 30
-0.237027 0.0648535 0.257469 58 90 34
-0.236628 0.0654947 0.257444 60 90 35
-0.236129 0.0660867 0.257467 61 93 39
-0.235933 0.0668233 0.257345 58 95 38
-0.235736 0.0675607 0.257222 58 95 35
-0.235841 0.0684487 0.256954 57 93 34
-0.235744 0.0692399 0.256783 56 90 30
-0.235748 0.0700841 0.256562 56 88 32
-0.235852 0.0709835 0.256291 54 88 36
-0.236261 0.0720459 0.255869 53 89 37
-0.23812 0.0738798 0.254732 58 90 42
-0.238231 0.074808 0.254452 70 103 54
-0.238132 0.0756281 0.254273 79 110 65
-0.237713 0.0626291 0.256981 56 89 34
-0.237312 0.0632727 0.256956 57 91 36
-0.236912 0.0639153 0.256931 57 93 32
-0.236716 0.0646518 0.256809 57 93 36
-0.236418 0.0653413 0.256735 59 92 33
-0.23612 0.0660305 0.256662 58 92 35
-0.235924 0.0667686 0.256539 54 92 35
-0.235726 0.0675074 0.256416 54 91 32
-0.235932 0.0684473 0.256096 51 90 30
-0.235734 0.0691898 0.255973 52 89 29
-0.235737 0.0700357 0.25575 53 87 32
-0.23574 0.0708847 0.255526 51 87 31
-0.235946 0.0718424 0.255201 50 86 31
-0.237593 0.073564 0.254158 56 87 36
-0.237911 0.0746011 0.253772 65 100 49
-0.237811 0.075421 0.253593 80 118 66
-0.237712 0.076243 0.253413 81 104 68
-0.237716 0.0771244 0.253181 69 69 56
-0.459205 0.138499 0.15546 59 54 42
-0.237597 0.061691 0.256443 60 92 34
-0.237197 0.062335 0.256419 57 93 37
-0.236899 0.0630244 0.256345 60 93 36
-0.2365 0.0636669 0.256321 56 94 33
-0.236303 0.0644029 0.256198 59 91 33
-0.236107 0.0651397 0.256075 57 91 32
-0.23591 0.0658774 0.255952 53 90 29
-0.235813 0.0666647 0.25578 51 90 29
-0.235918 0.067553 0.255507 51 90 30
-0.235922 0.0683955 0.255283 51 91 31
-0.235723 0.0691395 0.255159 53 89 29
-0.235625 0.0699356 0.254985 51 86 30
-0.23583 0.0708898 0.254658 49 85 28
-0.236548 0.0721157 0.254074 52 84 30
-0.23717 0.0733033 0.253534 58 88 36
-0.23759 0.0743942 0.253093 66 100 47
-0.237595 0.07527 0.25286 80 120 62
-0.237495 0.0760923 0.252679 85 116 67
-0.23729 0.0768594 0.252551 73 75 52
-0.237189 0.0776852 0.25237 59 45 34
-0.458923 0.136223 0.154149 59 58 42
-0.237286 0.061489 0.255782 62 93 34
-0.236886 0.0621332 0.255759 59 94 38
-0.236588 0.0628227 0.255685 57 92 35
-0.236189 0.0634654 0.255662 56 91 31
-0.235992 0.0642013 0.255539 54 88 32
-0.235896 0.0649858 0.255366 54 89 33
-0.235699 0.0657239 0.255242 53 88 28
-0.235803 0.0666094 0.254968 52 89 29
-0.235807 0.0674497 0.254743 50 89 28
-0.236013 0.0683938 0.254416 52 89 31
-0.235814 0.0691398 0.254292 51 86 30
-0.235817 0.0699896 0.254065 52 84 29
-0.235921 0.0708948 0.253785 53 84 29
-0.236333 0.071964 0.253349 57 85 32
-0.236851 0.0730973 0.252857 61 90 38
-0.237269 0.0741872 0.252413 67 102 47
-0.237378 0.0751187 0.252125 80 120 57
-0.237277 0.0759415 0.251944 91 129 67
-0.237072 0.076709 0.251815 82 94 59
-0.236867 0.0774774 0.251687 62 54 40
-0.236661 0.0782467 0.251558 51 45 31
-0.458019 0.133717 0.153133 54 51 43
-0.237076 0.0613324 0.255072 62 92 35
-0.236676 0.0619771 0.255049 60 92 35
-0.236277 0.062621 0.255025 54 91 34
-0.23608 0.0633571 0.254902 54 91 33
-0.235883 0.064094 0.254778 52 89 33
-0.235786 0.0648794 0.254604 52 89 32
-0.235891 0.0657634 0.254328 54 87 30
-0.235794 0.0665538 0.254153 54 88 30
-0.235898 0.0674454 0.253875 54 88 29
-0.236105 0.0683921 0.253544 55 87 31
-0.236109 0.0692423 0.253316 55 85 34
-0.235908 0.0699922 0.25319 57 85 33
-0.236115 0.0709523 0.252855 59 86 32
-0.236118 0.0718122 0.252624 62 89 35
-0.236532 0.0728912 0.252181 64 97 43
-0.237053 0.0740354 0.25168 68 105 50
-0.23716 0.0749672 0.25139 78 119 55
-0.236955 0.0757338 0.251261 94 135 65
-0.23675 0.0765013 0.251133 91 119 67
-0.236338 0.0780388 0.250875 53 45 33
-0.456501 0.130993 0.152416 59 51 38
-0.236568 0.0618666 0.254287 59 90 37
-0.23637 0.0626038 0.254163 55 88 33
-0.236071 0.0632951 0.254089 59 89 29
-0.235975 0.0640807 0.253914 56 90 32
-0.235776 0.0648204 0.25379 52 89 30
-0.235679 0.0656092 0.253614 54 87 30
-0.235784 0.066498 0.253334 57 89 32
-0.23599 0.0674411 0.253002 54 89 32
-0.236197 0.0683903 0.252668 57 90 35
-0.236099 0.0691915 0.252489 61 88 36
-0.235999 0.0699947 0.25231 62 88 37
-0.236002 0.0708523 0.252078 61 89 39
-0.23621 0.0718197 0.251738 63 93 41
-0.236418 0.0727933 0.251397 67 101 46
-0.236835 0.0738833 0.250945 72 109 50
-0.236838 0.0747595 0.250708 79 119 55
-0.236737 0.0755825 0.250524 91 134 65
-0.236635 0.0764075 0.25034 97 134 72
-0.236223 0.0779471 0.250081 58 49 36
-0.236261 0.0624938 0.253398 55 89 32
-0.235961 0.0631861 0.253325 56 87 29
-0.235864 0.0639726 0.253148 55 88 32
-0.235666 0.0647133 0.253023 53 89 31
-0.235669 0.0655515 0.252794 53 89 34
-0.235672 0.0663928 0.252565 57 92 35
-0.236082 0.0674367 0.252124 56 92 36
-0.23629 0.0683885 0.251786 60 91 36
-0.236089 0.0691405 0.251659 61 90 37
-0.235989 0.0699453 0.251478 60 91 39
-0.236094 0.0708572 0.251191 61 93 42
-0.236302 0.0718272 0.250847 65 99 44
-0.236202 0.0726409 0.250665 71 106 47
-0.236618 0.073731 0.250209 76 114 51
-0.23662 0.0746075 0.249971 82 121 56
-0.236519 0.0754309 0.249786 89 132 62
-0.236416 0.0762563 0.249601 100 142 72
-0.236456 0.0625225 0.252474 57 87 29
-0.235952 0.0631235 0.252506 55 88 33
-0.235753 0.0638643 0.25238 58 89 35
-0.235554 0.0646059 0.252255 56 91 34
-0.235557 0.065445 0.252024 59 90 36
-0.236171 0.0665829 0.251475 60 89 35
-0.236277 0.0674825 0.251187 59 92 40
-0.236383 0.0683866 0.250899 61 91 39
-0.236181 0.0691407 0.250771 60 92 40
-0.236081 0.0699477 0.250589 62 94 41
-0.236186 0.0708621 0.250298 64 98 44
-0.236086 0.0716742 0.250115 69 103 47
-0.236191 0.0725965 0.249822 73 110 51
-0.2364 0.0735785 0.249473 76 116 55
-0.236402 0.0744553 0.249232 81 123 57
-0.2363 0.0752791 0.249047 87 132 61
-0.236197 0.076105 0.24886 97 143 70
-0.236198 0.0769904 0.248618 97 137 74
-0.235943 0.0630606 0.251683 57 92 36
-0.235744 0.0638028 0.251557 57 92 36
-0.235849 0.0646897 0.251272 57 91 35
-0.236158 0.0656787 0.250878 60 92 36
-0.236264 0.0665761 0.250589 61 91 34
-0.236268 0.0674278 0.250353 61 92 37
-0.236271 0.0682827 0.250116 63 93 40
-0.23648 0.0692442 0.249769 63 95 42
-0.236277 0.0700023 0.24964 64 96 45
-0.236176 0.070814 0.249456 66 101 50
-0.236075 0.0716277 0.249272 70 107 52
-0.236077 0.0724976 0.249032 74 112 52
-0.236078 0.0733708 0.248791 76 117 54
-0.23608 0.0742473 0.248549 80 123 57
-0.236081 0.0751271 0.248306 85 130 60
-0.235978 0.0759533 0.248119 92 139 66
-0.236082 0.0768968 0.247818 101 146 73
-0.236753 0.0633743 0.250427 61 93 32
-0.236142 0.0639311 0.250516 61 93 36
-0.236248 0.0648225 0.250226 60 92 35
-0.236252 0.0656694 0.24999 62 93 34
-0.236152 0.0664699 0.249807 63 92 37
-0.236155 0.0673226 0.24957 64 94 39
-0.236468 0.0683316 0.249165 64 96 40
-0.236264 0.0690893 0.249036 64 97 43
-0.236163 0.0699 0.248852 65 98 43
-0.236062 0.0707128 0.248666 68 103 48
-0.235961 0.0715275 0.248481 72 109 51
-0.235962 0.0723984 0.248239 75 113 52
-0.23586 0.0732178 0.248052 77 118 53
-0.235861 0.0740946 0.247809 80 125 55
-0.235758 0.0749186 0.247621 83 129 59
-0.235758 0.0758015 0.247376 89 136 64
-0.235862 0.0767452 0.247073 100 145 71
-0.235862 0.0776355 0.246826 99 134 73
-0.236441 0.0640127 0.249519 62 96 38
-0.236239 0.0647624 0.24939 63 95 33
-0.236037 0.065513 0.249262 65 95 36
-0.235835 0.0662644 0.249134 63 95 43
-0.236352 0.0673682 0.248617 63 96 44
-0.236252 0.068176 0.248432 64 97 41
-0.236047 0.0689341 0.248302 65 97 43
-0.235946 0.0697453 0.248117 65 99 44
-0.235845 0.0705584 0.24793 69 105 47
-0.235743 0.0713736 0.247744 74 111 51
-0.23564 0.0721907 0.247557 76 115 52
-0.235538 0.0730099 0.247369 77 118 53
-0.235538 0.0738864 0.247124 79 122 55
-0.235434 0.0747102 0.246936 82 127 58
-0.235537 0.0756494 0.246632 87 132 62
-0.235641 0.0765934 0.246327 94 139 67
-0.23564 0.077484 0.246078 102 143 73
-0.236227 0.0638551 0.248791 62 98 43
-0.236024 0.0646052 0.248662 65 99 35
-0.235822 0.0653562 0.248533 67 98 37
-0.235619 0.0661081 0.248405 64 99 44
-0.236033 0.0671615 0.24794 63 98 47
-0.235829 0.0679182 0.24781 64 100 43
-0.235727 0.0687272 0.247624 64 98 44
-0.235626 0.0695381 0.247437 67 101 48
-0.235524 0.0703511 0.24725 70 107 51
-0.235524 0.0712193 0.247006 72 112 54
-0.235422 0.0720369 0.246818 75 115 53
-0.235215 0.0728019 0.246686 76 118 53
-0.235215 0.0736781 0.24644 80 122 55
-0.235111 0.0745017 0.246251 84 126 57
-0.235213 0.0754404 0.245945 85 131 60
-0.23542 0.0764413 0.24558 90 137 63
-0.235418 0.0773323 0.24533 101 146 70
-0.235313 0.0781678 0.245137 96 133 72
-0.235707 0.0643996 0.247989 64 99 45
-0.235504 0.0651505 0.24786 66 98 42
-0.235609 0.0660504 0.247562 64 98 43
-0.235713 0.0669548 0.247263 66 99 43
-0.235509 0.0677114 0.247132 65 100 45
-0.235407 0.0685202 0.246945 67 101 46
-0.235305 0.069331 0.246758 69 104 49
-0.235306 0.0701963 0.246513 70 108 51
-0.235203 0.0710116 0.246324 71 112 55
-0.2351 0.071829 0.246135 75 115 54
-0.235099 0.0727028 0.245888 77 119 54
-0.234892 0.0734698 0.245756 80 122 57
-0.234788 0.0742932 0.245566 83 126 58
-0.234786 0.0751749 0.245317 84 129 59
-0.235094 0.0762316 0.24489 87 134 61
-0.235093 0.0771222 0.244639 95 142 67
-0.234987 0.0779576 0.244446 100 142 74
-0.235594 0.0642901 0.247202 63 102 49
-0.235391 0.065042 0.247073 65 99 47
-0.235392 0.0658934 0.246829 65 100 46
-0.235394 0.0667481 0.246585 66 101 44
-0.235189 0.0675047 0.246455 65 101 44
-0.235087 0.0683132 0.246267 68 104 48
-0.234985 0.0691238 0.246078 70 107 50
-0.234984 0.0699887 0.245832 70 110 51
-0.234881 0.0708039 0.245642 71 112 53
-0.23488 0.0716747 0.245394 75 116 53
-0.234776 0.0724945 0.245204 78 118 54
-0.234569 0.0732614 0.245071 81 121 57
-0.234464 0.0740846 0.24488 83 125 59
-0.234462 0.074966 0.24463 85 127 61
-0.234666 0.0759648 0.24426 87 130 62
-0.234766 0.0769122 0.243948 93 138 65
-0.23466 0.0777473 0.243754 103 147 71
-0.234554 0.0785845 0.24356 96 129 69
-0.235378 0.0641322 0.246471 65 99 47
-0.235175 0.0648846 0.246341 65 98 47
-0.235073 0.065687 0.246153 66 100 44
-0.235074 0.0665413 0.245907 65 102 46
-0.234972 0.0673483 0.245719 65 105 44
-0.234767 0.0681062 0.245588 67 106 50
-0.234766 0.0689682 0.24534 71 109 51
-0.234663 0.0697812 0.24515 72 112 51
-0.234662 0.0706491 0.244902 74 115 52
-0.234661 0.0715203 0.244652 76 117 52
-0.234556 0.0723405 0.244461 79 118 54
-0.234349 0.0731078 0.244328 81 121 56
-0.234141 0.073876 0.244195 82 124 60
-0.234036 0.074701 0.244003 84 125 60
-0.23434 0.0757552 0.243571 85 128 60
-0.234337 0.0766444 0.243317 88 134 63
-0.234334 0.077537 0.243062 97 142 69
-0.234227 0.078374 0.242867 102 140 74
-0.23506 0.063926 0.245796 65 103 49
-0.234958 0.0647268 0.245607 66 101 46
-0.234754 0.0654806 0.245477 68 100 44
-0.234754 0.0663345 0.24523 66 103 47
-0.234652 0.0671413 0.24504 65 106 50
-0.234549 0.0679501 0.24485 68 108 51
-0.234446 0.0687608 0.24466 73 111 50
-0.234444 0.0696258 0.24441 73 113 50
-0.234442 0.070494 0.24416 73 115 51
-0.234441 0.0713655 0.243909 75 118 55
-0.234233 0.0721319 0.243776 79 119 55
-0.234026 0.0728992 0.243643 82 122 55
-0.233818 0.0736674 0.243509 82 125 58
-0.23361 0.0744364 0.243376 82 126 60
-0.234015 0.0755455 0.242882 85 128 60
-0.234011 0.0764344 0.242626 87 132 62
-0.234007 0.0773266 0.24237 92 138 66
-0.234003 0.0782223 0.242113 103 146 73
-0.235048 0.0638635 0.244946 68 101 49
-0.23464 0.0645204 0.244931 65 100 45
-0.234639 0.0653721 0.244683 66 103 47
-0.234537 0.0661773 0.244493 66 105 50
-0.234434 0.0669845 0.244303 68 109 52
-0.23433 0.0677937 0.244112 70 109 54
-0.234227 0.0686048 0.243921 73 112 53
-0.234123 0.069418 0.243729 75 115 51
-0.234223 0.0703387 0.243417 75 117 51
-0.23422 0.0712105 0.243165 76 118 53
-0.234012 0.0719774 0.243031 78 119 56
-0.233702 0.0726906 0.242957 80 122 56
-0.233494 0.0734587 0.242824 81 125 57
-0.233286 0.0742277 0.24269 82 126 60
-0.233588 0.0752793 0.242253 85 127 59
-0.233685 0.0762244 0.241936 89 130 60
-0.233681 0.0771163 0.241678 91 135 62
-0.233676 0.0780116 0.241419 99 143 68
-0.23367 0.0789103 0.24116 102 138 73
-0.234934 0.0637527 0.244152 70 103 51
-0.234524 0.0644106 0.244138 68 104 49
-0.234422 0.0652143 0.243947 67 105 46
-0.234217 0.0659703 0.243815 67 106 49
-0.234113 0.0667773 0.243624 69 109 51
-0.234112 0.067637 0.243372 70 110 52
-0.234007 0.0684486 0.24318 73 112 54
-0.233903 0.0692621 0.242987 74 115 54
-0.2339 0.0701303 0.242734 76 117 52
-0.233897 0.0710019 0.242479 77 119 53
-0.233689 0.0717687 0.242346 79 120 55
-0.233481 0.0725364 0.242212 80 121 56
-0.233171 0.07325 0.242138 82 123 58
-0.232962 0.0740189 0.242004 83 124 59
-0.233262 0.0750697 0.241564 83 126 60
-0.233257 0.0759572 0.241306 86 128 60
-0.233354 0.0769059 0.240986 89 132 61
-0.233348 0.0778008 0.240726 94 138 65
-0.233342 0.0786992 0.240465 103 145 71
-0.234716 0.0635936 0.243414 69 98 50
-0.234409 0.0643005 0.243342 70 106 51
-0.234204 0.0650562 0.243209 68 107 51
-0.233999 0.0658127 0.243077 69 110 51
-0.233895 0.0666201 0.242884 71 110 51
-0.233892 0.0674801 0.242632 74 111 51
-0.233686 0.0682408 0.242498 76 113 53
-0.233581 0.0690541 0.242305 76 115 54
-0.233577 0.069922 0.24205 76 117 53
-0.233574 0.0707932 0.241794 77 120 54
-0.233366 0.07156 0.24166 80 120 56
-0.233157 0.0723276 0.241526 80 122 58
-0.232949 0.0730961 0.241391 81 124 59
-0.23274 0.0738655 0.241256 82 126 58
-0.232937 0.0748602 0.240875 84 127 59
-0.232931 0.0757472 0.240616 85 128 60
-0.232925 0.0766377 0.240356 87 132 62
-0.233021 0.07759 0.240032 91 136 63
-0.233014 0.078488 0.23977 100 144 68
-0.233316 0.0795697 0.239317 101 138 73
-0.234806 0.0627266 0.242749 52 49 30
-0.234499 0.0634342 0.242676 64 79 38
-0.234191 0.0641417 0.242603 74 105 52
-0.233986 0.0648978 0.242471 73 107 51
-0.23378 0.0656548 0.242338 71 109 52
-0.233676 0.0664626 0.242144 73 111 52
-0.233571 0.0672724 0.24195 75 111 52
-0.233364 0.068033 0.241817 75 115 52
-0.233259 0.0688461 0.241622 76 115 52
-0.233255 0.0697136 0.241366 78 116 54
-0.233149 0.0705314 0.24117 80 120 53
-0.233042 0.0713512 0.240974 83 120 54
-0.232834 0.0721188 0.24084 80 123 55
-0.232523 0.0728325 0.240766 78 125 56
-0.232416 0.0736565 0.240569 81 126 57
-0.232511 0.0745945 0.240248 84 128 58
-0.232504 0.0754805 0.239988 84 129 59
-0.232598 0.0764274 0.239664 85 130 60
-0.232693 0.0773792 0.239338 88 133 61
-0.232994 0.0784544 0.238884 94 141 66
-0.232987 0.0793577 0.238619 104 146 73
-0.234281 0.0632746 0.241937 56 62 34
-0.233973 0.0639826 0.241864 69 93 47
-0.233767 0.0647392 0.241731 75 108 52
-0.233561 0.0654967 0.241597 73 108 51
-0.233355 0.066255 0.241464 72 110 53
-0.23325 0.0670646 0.241269 74 113 53
-0.233043 0.0678251 0.241135 76 113 51
-0.232937 0.0686381 0.240939 75 115 53
-0.232932 0.0695052 0.240682 77 117 54
-0.232826 0.0703228 0.240486 77 119 53
-0.232617 0.0710889 0.240351 78 120 55
-0.232409 0.0718559 0.240215 80 122 55
-0.2322 0.0726237 0.24008 81 124 55
-0.232092 0.0734475 0.239882 83 124 56
-0.232185 0.074385 0.239559 84 125 58
-0.232178 0.0752706 0.239298 84 128 60
-0.23217 0.0761597 0.239035 86 130 61
-0.232366 0.0771683 0.238644 87 132 61
-0.232665 0.0782427 0.238187 90 137 64
-0.23276 0.0792056 0.237856 100 145 70
-0.232855 0.0801734 0.237523 100 137 72
-0.23396 0.0630671 0.241257 50 49 36
-0.233754 0.0638233 0.241123 62 76 36
-0.233548 0.0645804 0.24099 75 104 50
-0.233342 0.0653383 0.240856 76 112 51
-0.233135 0.0660971 0.240722 73 111 52
-0.232928 0.0668567 0.240587 75 113 52
-0.232721 0.0676172 0.240453 74 116 52
-0.232615 0.06843 0.240257 75 117 53
-0.232609 0.0692968 0.239998 77 119 53
-0.232502 0.0701141 0.239801 76 120 56
-0.232294 0.0708802 0.239665 78 121 56
-0.232085 0.0716471 0.23953 81 121 57
-0.231977 0.0724693 0.239331 82 124 57
-0.231767 0.0732385 0.239195 85 125 56
-0.231962 0.0742312 0.238807 86 127 58
-0.231852 0.0750607 0.238607 84 128 60
-0.231844 0.0759494 0.238343 85 128 60
-0.232345 0.0771319 0.237758 86 130 60
-0.232336 0.078031 0.23749 88 135 63
-0.23243 0.0789933 0.237157 94 142 67
-0.232525 0.0799607 0.236823 102 145 72
-0.233433 0.0636157 0.240443 55 57 34
-0.233227 0.0643727 0.240309 67 84 42
-0.23302 0.0651306 0.240175 78 111 54
-0.232814 0.0658893 0.24004 76 114 53
-0.232607 0.0666489 0.239906 77 116 53
-0.232399 0.0674093 0.239771 75 117 50
-0.232293 0.0682218 0.239574 74 119 51
-0.232287 0.0690883 0.239314 75 120 53
-0.232179 0.0699054 0.239115 76 121 55
-0.23197 0.0706715 0.23898 79 121 55
-0.231761 0.0714383 0.238844 81 123 58
-0.231653 0.0722603 0.238645 83 126 59
-0.231443 0.0730294 0.238508 85 126 57
-0.231737 0.0740772 0.238054 84 126 57
-0.231628 0.0749072 0.237853 84 127 59
-0.231517 0.0757392 0.237652 84 128 59
-0.232016 0.0769205 0.237062 85 131 59
-0.232007 0.0778193 0.236793 87 133 61
-0.231998 0.0787215 0.236524 91 137 64
-0.232091 0.0796875 0.236188 99 145 71
-0.232082 0.0805974 0.235916 98 134 73
-0.232906 0.064165 0.239629 61 63 34
-0.232699 0.0649228 0.239494 74 99 50
-0.232492 0.0656815 0.239359 76 113 54
-0.232285 0.066441 0.239224 76 115 53
-0.232078 0.0672014 0.239089 74 117 51
-0.231971 0.0680137 0.238891 75 119 52
-0.231863 0.068828 0.238692 75 120 54
-0.231856 0.0696967 0.23843 77 121 55
-0.231647 0.0704627 0.238294 79 121 56
-0.231438 0.0712295 0.238158 80 124 57
-0.231329 0.0720513 0.237958 81 124 57
-0.231119 0.0728204 0.237821 83 126 55
-0.231412 0.0738673 0.237364 83 129 56
-0.231302 0.0746971 0.237162 84 128 58
-0.231596 0.0757569 0.2367 84 128 58
-0.231586 0.0766512 0.236432 86 130 58
-0.231678 0.0776075 0.236096 88 132 60
-0.231669 0.0785093 0.235825 89 136 63
-0.231761 0.0794748 0.235487 93 143 67
-0.231648 0.0803234 0.235281 98 143 72
-0.232585 0.0639572 0.238948 57 51 35
-0.232378 0.064715 0.238813 63 78 42
-0.232171 0.0654736 0.238678 75 107 53
-0.231964 0.066233 0.238542 77 115 53
-0.231756 0.0669934 0.238407 76 116 54
-0.231648 0.0678055 0.238208 76 116 55
-0.23154 0.0686196 0.238008 77 119 54
-0.231533 0.069488 0.237745 77 121 55
-0.231324 0.0702539 0.237608 77 123 56
-0.231114 0.0710206 0.237472 78 124 57
-0.231005 0.0718422 0.237271 81 123 57
-0.230795 0.0726112 0.237134 85 126 57
-0.231086 0.0736574 0.236674 84 126 57
-0.231177 0.0745993 0.236341 83 127 56
-0.231268 0.075546 0.236006 82 127 57
-0.231258 0.0764399 0.235736 85 130 60
-0.231349 0.0773957 0.235399 87 132 62
-0.231339 0.0782972 0.235127 87 134 63
-0.23143 0.0792622 0.234787 90 139 65
-0.231317 0.0801105 0.234579 99 146 71
-0.232057 0.0645071 0.238132 52 63 33
-0.231849 0.0652657 0.237996 68 90 50
-0.231642 0.0660251 0.23786 80 114 55
-0.231434 0.0667854 0.237724 78 117 50
-0.231326 0.0675973 0.237525 75 118 52
-0.231218 0.0684112 0.237324 79 120 52
-0.231209 0.0692792 0.237059 78 120 55
-0.231 0.070045 0.236923 80 121 56
-0.230891 0.070865 0.236721 82 124 57
-0.230681 0.0716331 0.236584 83 124 57
-0.23057 0.0724565 0.236381 84 124 57
-0.231062 0.0736137 0.235787 82 125 58
-0.231153 0.0745574 0.235451 82 127 58
-0.231042 0.075392 0.235246 82 128 57
-0.23093 0.0762286 0.235041 84 130 59
-0.23102 0.0771839 0.234702 87 130 61
-0.231009 0.078085 0.234428 86 130 64
-0.231099 0.0790494 0.234086 87 136 65
-0.230986 0.0798976 0.233878 95 143 67
-0.230872 0.0807479 0.233669 99 140 73
-0.231528 0.0650578 0.237315 56 70 40
-0.23132 0.0658171 0.237178 71 101 52
-0.231112 0.0665773 0.237042 78 117 54
-0.231004 0.067389 0.236841 78 119 55
-0.230895 0.0682027 0.23664 78 119 54
-0.230886 0.0690704 0.236374 78 119 55
-0.230676 0.0698362 0.236237 80 122 55
-0.230567 0.0706559 0.236034 80 124 57
-0.230456 0.0714777 0.235831 79 125 57
-0.230847 0.0725743 0.2353 81 128 57
-0.230938 0.0735142 0.234963 81 127 58
-0.230826 0.0743465 0.234758 81 126 57
-0.230815 0.0752377 0.234485 82 127 55
-0.230703 0.0760747 0.234278 84 128 56
-0.23059 0.0769138 0.234071 85 131 60
-0.230679 0.0778727 0.233729 85 132 63
-0.230769 0.0788367 0.233385 86 133 64
-0.230655 0.0796847 0.233176 91 139 64
-0.23054 0.0805347 0.232966 99 145 70
-0.230998 0.0656091 0.236496 64 80 44
-0.23079 0.0663692 0.236359 78 111 53
-0.230681 0.0671807 0.236158 79 117 55
-0.230572 0.0679942 0.235956 79 119 56
-0.230463 0.0688098 0.235753 78 121 55
-0.230353 0.0696273 0.235551 80 121 55
-0.230242 0.0704468 0.235347 81 123 56
-0.230532 0.0714834 0.23488 82 125 57
-0.230622 0.0724187 0.234543 83 125 58
-0.230711 0.0733589 0.234204 83 125 58
-0.230599 0.0741916 0.233997 82 125 57
-0.230588 0.0750831 0.233723 80 126 57
-0.230475 0.0759206 0.233515 81 128 57
-0.230261 0.076702 0.233374 83 130 58
-0.230349 0.0776605 0.23303 85 129 60
-0.230438 0.0786239 0.232684 85 129 61
-0.230324 0.0794717 0.232474 88 132 63
-0.230209 0.0803215 0.232264 95 138 67
-0.230093 0.0811735 0.232053 97 137 68
-0.230468 0.0661611 0.235677 68 95 44
-0.230359 0.0669724 0.235474 79 117 56
-0.230249 0.0677857 0.235272 78 120 56
-0.230139 0.068601 0.235068 79 119 55
-0.230029 0.0694184 0.234864 80 121 55
-0.230118 0.0703435 0.234528 83 122 55
-0.230206 0.0712735 0.23419 81 124 56
-0.230295 0.0722083 0.233851 79 124 58
-0.230485 0.0732033 0.233443 81 125 57
-0.230372 0.0740364 0.233235 81 125 56
-0.23026 0.0748716 0.233027 81 127 56
-0.230146 0.0757088 0.232818 82 129 56
-0.230033 0.0765481 0.232609 84 128 55
-0.23002 0.0774482 0.232331 86 128 55
-0.230208 0.0784706 0.231915 86 129 59
-0.230094 0.0793188 0.231703 85 132 62
-0.229877 0.0801083 0.231561 90 137 64
-0.229761 0.08096 0.231349 98 142 69
-0.229746 0.081876 0.231067 92 126 62
-0.230136 0.0668144 0.234725 71 106 49
-0.229926 0.0675772 0.234587 80 119 53
-0.229915 0.0684438 0.234317 79 120 54
-0.229904 0.0693137 0.234046 80 120 56
-0.229893 0.070187 0.233773 81 124 56
-0.229881 0.0710635 0.2335 79 126 57
-0.23027 0.0721614 0.232957 80 125 57
-0.230157 0.0729922 0.232748 82 125 55
-0.230044 0.0738251 0.23254 81 126 55
-0.230032 0.0747166 0.232262 80 126 56
-0.230019 0.0756116 0.231984 83 125 57
-0.229905 0.0764519 0.231774 84 126 57
-0.229891 0.0773531 0.231494 84 128 58
-0.229877 0.0782576 0.231213 85 129 60
-0.229762 0.0791056 0.231001 85 132 62
-0.229646 0.0799557 0.230788 88 133 63
-0.22953 0.0808079 0.230575 93 136 65
-0.229414 0.0816622 0.230361 91 131 69
-0.229802 0.0674702 0.23377 80 114 52
-0.229791 0.0683378 0.233497 79 121 54
-0.229779 0.0692087 0.233224 76 121 56
-0.229767 0.070083 0.23295 79 122 55
-0.229655 0.070907 0.232743 80 123 56
-0.229943 0.0719504 0.232263 80 123 56
-0.22983 0.072781 0.232054 81 124 55
-0.229817 0.0736695 0.231776 80 124 54
-0.229904 0.074618 0.231428 80 125 55
-0.229992 0.0755713 0.231078 82 125 58
-0.229776 0.0763554 0.230936 84 126 59
-0.229661 0.077199 0.230724 83 125 58
-0.229647 0.0781039 0.230441 84 125 58
-0.229531 0.0789523 0.230228 85 126 58
-0.229415 0.0798028 0.230014 85 128 59
-0.229198 0.0805942 0.229871 88 132 61
-0.229081 0.0814483 0.229656 88 128 65
-0.229865 0.0683347 0.232541 78 118 53
-0.229753 0.0691557 0.232333 81 119 54
-0.229541 0.0699258 0.232193 81 120 55
-0.229628 0.0708574 0.231848 81 123 56
-0.229615 0.0717394 0.23157 80 122 55
-0.229502 0.0725698 0.23136 81 121 55
-0.229489 0.0734579 0.23108 80 122 54
-0.229877 0.0745756 0.230521 77 123 55
-0.229763 0.0754161 0.230309 78 124 56
-0.229547 0.0762006 0.230166 79 124 55
-0.229431 0.0770446 0.229953 80 124 56
-0.229416 0.07795 0.229668 82 124 58
-0.229199 0.0787389 0.229525 82 124 57
-0.229083 0.0795892 0.22931 82 125 58
-0.228966 0.0804416 0.229095 79 119 59
-0.229839 0.0682798 0.231647 78 107 49
-0.229627 0.0690501 0.231506 81 118 54
-0.229514 0.0698741 0.231296 81 121 54
-0.229402 0.0707003 0.231087 80 121 55
-0.229288 0.0715284 0.230876 79 121 55
-0.229274 0.0724135 0.230596 80 120 55
-0.22926 0.0733019 0.230315 79 122 54
-0.229648 0.0744197 0.229752 76 124 55
-0.229432 0.0752033 0.229609 78 123 55
-0.229317 0.0760456 0.229395 79 123 55
-0.229201 0.07689 0.22918 79 122 57
-0.229085 0.0777366 0.228965 79 121 58
-0.228968 0.0785852 0.22875 78 120 57
-0.22875 0.0793755 0.228606 75 116 58
-0.229501 0.0689441 0.230677 79 117 54
-0.229288 0.0697163 0.230535 80 120 55
-0.229174 0.0705428 0.230324 79 122 56
-0.228961 0.0713173 0.230182 78 122 57
-0.229046 0.0722568 0.229831 77 120 55
-0.229032 0.0731456 0.229548 76 120 56
-0.229318 0.0742069 0.229052 77 121 56
-0.229202 0.0750476 0.228837 77 120 55
-0.229086 0.0758903 0.228622 79 119 54
-0.22897 0.0767352 0.228407 79 119 54
-0.228853 0.0775821 0.228191 78 118 56
-0.228636 0.0783715 0.228046 76 113 56
-0.229274 0.0687855 0.229915 71 102 48
-0.229061 0.0695582 0.229773 76 114 53
-0.228847 0.0703318 0.229631 77 120 53
-0.228733 0.0711602 0.229418 78 120 54
-0.228718 0.0720452 0.229135 78 119 54
-0.228703 0.0729337 0.228851 77 119 54
-0.229088 0.0740505 0.22828 77 119 53
-0.228972 0.0748916 0.228065 77 118 53
-0.228755 0.0756771 0.22792 76 118 53
-0.228638 0.0765218 0.227704 76 117 53
-0.228521 0.0773685 0.227487 71 108 53
-0.228734 0.0693472 0.22908 74 109 51
-0.22852 0.0701208 0.228937 78 117 54
-0.228405 0.0709489 0.228724 76 117 54
-0.22829 0.0717791 0.22851 74 114 54
-0.228274 0.0726665 0.228225 73 114 54
-0.228757 0.0738376 0.22758 74 115 53
-0.228641 0.0746784 0.227363 74 114 53
-0.228524 0.0755214 0.227146 75 111 53
-0.228407 0.0763665 0.226928 67 97 47
-0.228193 0.0699097 0.228244 74 109 50
-0.228078 0.0707376 0.228029 75 113 54
-0.227962 0.0715676 0.227815 72 109 53
-0.227945 0.0724546 0.227528 73 111 54
-0.228527 0.0736807 0.226806 68 107 54
-0.22841 0.074522 0.226589 57 90 50
-0.228293 0.0753654 0.22637 49 77 42
