ply
format ascii 1.0
element vertex 39
property float x
property float y
property float z
property uchar diffuse_red
property uchar diffuse_green
property uchar diffuse_blue
end_header
-0.267568 -0.00887409 0.323909 119 190 182
-0.267387 -0.00814805 0.324071 120 186 188
-0.267206 -0.00742194 0.324232 101 172 181
-0.267156 -0.00667586 0.324393 85 156 167
-0.267237 -0.00590816 0.324555 70 144 153
-0.26754 -0.00949424 0.323021 121 183 180
-0.267359 -0.00876818 0.323182 140 203 194
-0.267178 -0.00804206 0.323344 144 208 208
-0.266998 -0.00731589 0.323505 107 170 182
-0.266948 -0.00656967 0.323666 74 130 142
-0.266897 -0.00582233 0.323827 61 114 121
-0.266978 -0.00505274 0.323987 71 93 96
-0.2672 -0.00940636 0.322296 130 196 193
-0.26702 -0.00868075 0.322457 171 224 212
-0.26697 -0.00793607 0.322617 171 252 236
-0.26692 -0.00719026 0.322777 131 208 202
-0.266869 -0.00644334 0.322937 85 138 143
-0.267173 -0.0100262 0.321408 82 160 162
-0.266992 -0.00930056 0.321569 135 186 179
-0.266811 -0.00857487 0.321731 179 238 221
-0.266761 -0.00783004 0.32189 145 236 226
-0.266711 -0.0070841 0.322049 112 194 194
-0.266964 -0.00992042 0.320681 54 120 127
-0.266653 -0.00921285 0.320845 120 166 162
-0.266603 -0.00846897 0.321004 155 236 221
-0.266552 -0.007724 0.321162 121 199 193
-0.266371 -0.00699764 0.321324 94 155 148
-0.266886 -0.00979694 0.319951 37 98 100
-0.266575 -0.00908888 0.320116 73 125 127
-0.266394 -0.00836306 0.320277 94 172 182
-0.266343 -0.00761794 0.320435 87 158 163
-0.266163 -0.00689151 0.320596 81 136 138
-0.266677 -0.00969106 0.319224 29 78 80
-0.266496 -0.00896471 0.319385 53 89 91
-0.266315 -0.00823832 0.319546 75 122 117
-0.266135 -0.00751187 0.319708 81 135 128
-0.266468 -0.00958517 0.318496 53 71 72
-0.266288 -0.00885875 0.318657 66 79 76
-0.266107 -0.00813229 0.318819 85 103 91
