ply
format ascii 1.0
element vertex 1305
property float x
property float y
property float z
property uchar diffuse_red
property uchar diffuse_green
property uchar diffuse_blue
end_header
-0.439279 0.137154 0.356642 86 75 76
-0.437914 0.138223 0.356874 86 76 70
-0.469884 0.131915 0.353077 84 84 75
-0.468314 0.133082 0.353338 79 92 81
-0.466755 0.134241 0.353598 73 97 92
-0.464559 0.135101 0.353822 70 97 99
-0.463025 0.136244 0.354077 71 99 97
-0.459602 0.136505 0.354228 70 103 97
-0.456233 0.136762 0.354377 67 110 102
-0.45231 0.136729 0.354489 68 113 107
-0.446095 0.135572 0.354464 68 116 114
-0.444102 0.136385 0.354673 70 115 119
-0.441551 0.136912 0.354846 74 115 117
-0.438466 0.137155 0.354984 83 112 103
-0.437105 0.138223 0.355221 88 96 87
-0.435752 0.139285 0.355456 84 82 78
-0.473879 0.132203 0.351181 81 88 85
-0.470945 0.132795 0.35139 75 92 93
-0.468707 0.13367 0.351627 68 106 96
-0.467143 0.134829 0.351892 53 108 105
-0.464297 0.135396 0.352094 41 98 108
-0.462124 0.136246 0.352324 37 89 100
-0.458087 0.136217 0.352457 35 83 93
-0.454742 0.136476 0.352619 33 82 93
-0.450244 0.136162 0.352716 33 87 99
-0.445844 0.135855 0.352811 35 95 103
-0.443851 0.136667 0.353028 42 105 113
-0.440158 0.136636 0.353149 52 118 122
-0.437655 0.137157 0.35333 65 126 123
-0.436298 0.138223 0.353572 74 122 122
-0.435507 0.139562 0.353844 79 110 109
-0.434163 0.140616 0.354083 88 98 82
-0.474541 0.131027 0.349111 75 87 88
-0.47361 0.132503 0.349416 68 110 97
-0.472012 0.13368 0.349691 47 95 105
-0.469762 0.134554 0.349937 39 82 91
-0.467533 0.13542 0.350181 39 75 76
-0.464034 0.135691 0.350365 37 72 69
-0.461863 0.13654 0.350604 35 71 67
-0.457205 0.136219 0.350725 40 70 67
-0.453872 0.136478 0.350901 45 70 67
-0.44999 0.136448 0.351045 44 71 70
-0.445592 0.136138 0.351159 42 68 67
-0.443021 0.136669 0.351355 46 75 74
-0.439341 0.136638 0.351491 45 85 90
-0.437409 0.137434 0.351711 46 103 110
-0.435494 0.138223 0.351928 51 119 127
-0.434705 0.13956 0.352202 64 128 131
-0.433918 0.140892 0.352475 80 124 116
-0.433134 0.142221 0.352747 87 99 86
-0.475717 0.126302 0.346368 84 89 77
-0.474783 0.127789 0.346678 74 93 91
-0.474528 0.129558 0.34701 66 115 100
-0.474272 0.131328 0.347342 45 86 103
-0.473342 0.132804 0.34765 37 78 79
-0.473087 0.134572 0.347981 31 75 74
-0.471491 0.135742 0.348262 41 76 72
-0.469243 0.136606 0.348515 57 73 70
-0.465063 0.136573 0.348688 68 72 67
-0.462239 0.137127 0.34891 70 74 67
-0.456946 0.13651 0.349025 72 76 68
-0.453615 0.136766 0.349214 77 77 69
-0.449735 0.136734 0.349374 79 80 70
-0.445341 0.136421 0.349506 77 76 66
-0.442193 0.136671 0.349686 77 73 64
-0.439093 0.136917 0.349863 66 74 70
-0.436601 0.137435 0.350064 52 78 82
-0.435249 0.1385 0.350315 45 93 101
-0.433906 0.139558 0.350565 49 116 123
-0.433121 0.140889 0.35084 64 133 136
-0.432339 0.142215 0.351114 87 128 125
-0.431559 0.143538 0.351387 85 88 83
-0.477325 0.123617 0.343968 82 84 73
-0.476385 0.125113 0.344283 75 94 84
-0.475448 0.126603 0.344596 63 105 96
-0.475192 0.128376 0.344929 43 85 101
-0.474259 0.12986 0.345241 32 77 76
-0.474004 0.13163 0.345573 27 74 70
-0.473748 0.1334 0.345905 55 69 69
-0.434681 0.136887 0.348376 76 74 68
-0.433894 0.138224 0.348654 59 78 77
-0.432559 0.139279 0.348908 45 94 98
-0.431779 0.140607 0.349185 53 122 127
-0.431001 0.14193 0.349461 85 141 145
-0.430225 0.143249 0.349736 91 113 114
-0.429995 0.144848 0.350036 91 80 75
-0.478686 0.122698 0.341886 72 94 87
-0.477741 0.1242 0.342205 61 100 96
-0.477484 0.125982 0.34254 46 86 95
-0.477227 0.127764 0.342874 37 78 77
-0.476969 0.129546 0.343208 37 72 73
-0.476028 0.131035 0.343524 61 70 69
-0.434436 0.137163 0.346765 83 80 73
-0.433649 0.138499 0.347046 72 78 74
-0.432315 0.139555 0.347305 54 80 82
-0.431535 0.140882 0.347584 47 100 103
-0.430757 0.142205 0.347862 69 133 132
-0.429982 0.143524 0.348139 88 138 136
-0.429752 0.145123 0.348439 91 92 86
-0.479364 0.121494 0.339779 62 93 95
-0.479106 0.123281 0.340114 44 87 93
-0.478158 0.124785 0.340437 36 81 80
-0.4779 0.12657 0.340771 41 72 73
-0.477643 0.128355 0.341106 62 70 67
-0.478074 0.130433 0.341455 72 77 68
-0.4426 0.138076 0.3448 75 87 102
-0.435537 0.136373 0.344887 74 91 103
-0.434746 0.137715 0.345172 71 94 102
-0.433404 0.138775 0.345437 74 92 95
-0.432071 0.13983 0.345701 65 86 86
-0.431291 0.141157 0.345982 49 87 87
-0.43106 0.14276 0.346283 48 105 107
-0.430283 0.144081 0.346563 69 135 130
-0.430052 0.145682 0.346863 80 111 108
-0.429821 0.147284 0.347163 85 86 78
-0.47935 0.120009 0.337656 54 85 86
-0.479092 0.121797 0.337991 40 80 83
-0.478834 0.123585 0.338326 44 73 75
-0.478576 0.125373 0.338661 55 73 72
-0.47531 0.142945 0.341999 77 77 79
-0.473012 0.143786 0.342287 77 84 83
-0.470069 0.144305 0.342556 78 97 84
-0.469815 0.146071 0.342887 73 112 95
-0.434501 0.137991 0.343558 57 128 124
-0.433713 0.139329 0.343845 61 120 114
-0.432927 0.140662 0.34413 63 110 101
-0.431595 0.141711 0.344398 52 92 87
-0.430816 0.143035 0.344681 36 78 83
-0.430585 0.144639 0.344982 47 109 112
-0.430353 0.146243 0.345282 68 122 122
-0.430122 0.147848 0.345583 81 90 84
-0.479079 0.120312 0.335868 60 72 73
-0.479513 0.12238 0.336208 59 72 69
-0.479254 0.124171 0.336544 68 73 67
-0.480662 0.140054 0.339283 77 79 78
-0.479702 0.141547 0.339611 78 82 84
-0.47805 0.142718 0.339925 78 94 87
-0.47641 0.143881 0.340238 67 110 104
-0.475465 0.145355 0.340561 52 106 114
-0.472486 0.145867 0.340843 42 88 104
-0.469546 0.146372 0.341122 38 74 83
-0.467964 0.147503 0.341425 32 66 70
-0.434022 0.139884 0.342247 27 81 91
-0.432682 0.140938 0.342521 36 91 98
-0.43245 0.14255 0.342823 38 79 84
-0.431667 0.143877 0.343109 31 64 69
-0.431435 0.145486 0.343411 33 84 88
-0.431203 0.147095 0.343712 59 119 114
-0.430971 0.148704 0.344014 76 101 98
-0.48117 0.13494 0.33646 76 81 68
-0.481612 0.137055 0.336805 82 85 81
-0.481351 0.138865 0.337144 79 89 87
-0.480388 0.140362 0.337476 71 111 101
-0.480127 0.14217 0.337815 55 100 112
-0.478471 0.143341 0.338136 46 86 99
-0.477518 0.144823 0.338464 36 79 83
-0.475879 0.14598 0.338782 31 76 75
-0.474935 0.14745 0.339107 29 73 72
-0.471959 0.147948 0.3394 28 71 69
-0.467697 0.147804 0.339666 34 70 69
-0.470103 0.150854 0.340043 53 67 67
-0.433776 0.140161 0.340632 33 58 64
-0.432989 0.141495 0.340923 30 61 63
-0.432205 0.142826 0.341213 30 61 62
-0.431972 0.144437 0.341515 27 60 63
-0.431191 0.145762 0.341804 29 69 74
-0.431507 0.147661 0.342119 44 98 102
-0.431275 0.149273 0.342421 65 114 116
-0.431592 0.15118 0.342738 74 90 85
-0.482565 0.134045 0.334319 78 86 82
-0.482303 0.135859 0.334659 72 101 87
-0.482042 0.137672 0.334998 63 102 107
-0.48178 0.139486 0.335338 49 86 102
-0.481518 0.1413 0.335678 42 82 85
-0.481256 0.143114 0.336018 33 78 78
-0.479591 0.144286 0.336346 31 73 74
-0.477937 0.14545 0.336672 38 70 71
-0.476985 0.146929 0.337003 52 70 70
-0.474663 0.147756 0.337318 62 73 70
-0.473042 0.148897 0.337638 64 76 70
-0.470089 0.149384 0.337939 66 76 71
-0.432511 0.143386 0.339613 56 68 64
-0.431727 0.144714 0.339905 35 67 64
-0.431495 0.146326 0.340207 26 67 68
-0.431812 0.148229 0.34052 31 82 86
-0.431579 0.149843 0.340823 57 114 110
-0.431898 0.151754 0.341137 72 105 100
-0.431664 0.153371 0.34144 76 82 79
-0.484233 0.131324 0.331822 75 97 82
-0.484683 0.133448 0.332161 70 101 95
-0.48442 0.13527 0.332503 55 93 101
-0.484157 0.137093 0.332844 46 87 89
-0.483894 0.138917 0.333185 35 82 84
-0.48363 0.14074 0.333527 28 76 80
-0.432818 0.143948 0.338008 76 76 65
-0.432585 0.145564 0.338311 62 74 63
-0.432352 0.147181 0.338614 40 71 64
-0.432118 0.148798 0.338917 29 73 78
-0.431885 0.150415 0.339219 43 96 102
-0.431652 0.152032 0.339522 66 113 116
-0.431418 0.153649 0.339825 74 92 91
-0.484219 0.129814 0.329661 61 87 87
-0.432893 0.146131 0.336701 74 74 65
-0.432106 0.147459 0.336998 65 70 67
-0.431873 0.149076 0.337301 39 70 70
-0.431639 0.150693 0.337604 28 85 87
-0.431406 0.15231 0.337907 54 115 109
-0.431724 0.154229 0.338217 71 108 101
-0.432043 0.156153 0.338529 79 86 79
-0.483942 0.130123 0.327841 56 76 79
-0.485824 0.13285 0.328156 49 73 78
-0.48556 0.13468 0.328499 54 73 73
-0.486015 0.13682 0.328834 60 76 72
-0.470781 0.154833 0.333289 72 73 70
-0.441049 0.14724 0.334508 79 90 86
-0.43737 0.147113 0.334801 77 91 86
-0.433758 0.146989 0.335089 70 86 89
-0.432413 0.148028 0.335386 66 78 92
-0.432179 0.149648 0.335689 60 74 81
-0.431945 0.151268 0.335993 35 66 74
-0.431712 0.152887 0.336296 41 94 98
-0.432031 0.15481 0.336605 60 111 115
-0.432351 0.156738 0.336914 76 93 92
-0.483806 0.155812 0.330428 71 73 73
-0.479283 0.155583 0.330795 73 78 76
-0.473481 0.154686 0.331161 80 94 78
-0.473222 0.156481 0.331497 74 111 94
-0.458628 0.154828 0.332522 50 112 125
-0.450296 0.152406 0.33285 51 114 126
-0.447033 0.152538 0.333167 51 121 130
-0.439743 0.150531 0.333473 56 133 135
-0.433277 0.148893 0.33377 66 135 131
-0.432487 0.150221 0.334072 67 117 111
-0.432252 0.151844 0.334376 52 80 75
-0.432018 0.153466 0.33468 28 80 79
-0.432338 0.155393 0.334986 49 110 104
-0.433217 0.157633 0.335298 72 109 103
-0.434101 0.159887 0.335611 81 90 82
-0.488411 0.154507 0.32785 77 81 74
-0.488142 0.156364 0.328197 76 95 81
-0.485689 0.157168 0.328568 66 104 96
-0.483262 0.157964 0.328935 53 101 106
-0.477346 0.157026 0.32933 52 92 98
-0.473633 0.157127 0.329698 52 88 87
-0.470655 0.157563 0.330054 41 82 85
-0.468384 0.158331 0.330402 30 79 82
-0.458365 0.155125 0.33079 24 78 78
-0.454345 0.154916 0.331133 19 73 76
-0.43844 0.153814 0.332441 42 97 103
-0.436491 0.154542 0.332751 46 85 97
-0.436254 0.156184 0.333059 30 59 70
-0.436017 0.157827 0.333366 39 89 94
-0.436347 0.159784 0.333675 58 109 114
-0.43611 0.16143 0.333983 72 99 98
-0.436441 0.163396 0.334293 76 78 70
-0.491619 0.152482 0.325243 78 85 76
-0.491349 0.154352 0.325593 70 100 92
-0.49108 0.156221 0.325943 58 96 101
-0.49081 0.158091 0.326293 52 94 94
-0.487592 0.158538 0.326688 43 90 88
-0.485142 0.159331 0.327066 34 84 86
-0.482003 0.159765 0.327451 34 79 82
-0.475422 0.15846 0.327874 42 73 74
-0.469711 0.157531 0.328277 54 67 68
-0.462847 0.155967 0.328683 59 70 67
-0.458101 0.155422 0.329057 59 70 66
-0.458486 0.157483 0.329376 55 66 65
-0.439916 0.155022 0.330782 29 61 68
-0.4391 0.156369 0.331095 25 58 65
-0.438286 0.157711 0.331407 18 41 53
-0.437475 0.159049 0.331719 14 69 72
-0.437236 0.1607 0.332027 41 105 100
-0.436998 0.162351 0.332336 67 112 103
-0.437331 0.164325 0.332645 79 89 81
-0.447333 0.159423 0.329044 52 65 61
-0.439425 0.156966 0.329435 32 62 54
-0.439185 0.158624 0.329745 13 32 42
-0.43837 0.159965 0.33006 7 36 56
-0.438131 0.161621 0.33037 28 79 88
-0.437892 0.163277 0.330679 55 109 109
-0.438227 0.165259 0.330986 75 103 99
-0.437988 0.166918 0.331296 82 73 65
-0.447678 0.160038 0.327343 60 66 60
-0.443257 0.159467 0.327719 29 44 44
-0.44009 0.159543 0.328072 12 26 30
-0.439271 0.160887 0.32839 9 27 39
-0.439031 0.162548 0.328701 11 62 66
-0.438214 0.163886 0.329018 38 102 98
-0.437975 0.165545 0.329328 67 112 104
-0.437735 0.167204 0.329639 77 90 83
-0.44742 0.160329 0.325648 40 52 57
-0.446573 0.161698 0.325976 15 34 38
-0.44276 0.161433 0.326356 9 29 29
-0.44076 0.162137 0.3267 11 38 36
-0.439356 0.163158 0.327031 5 49 59
-0.439116 0.164822 0.327342 23 80 88
-0.438876 0.166486 0.327653 51 106 108
-0.438636 0.168151 0.327965 70 102 104
-0.438974 0.17015 0.328268 80 71 67
-0.451803 0.155745 0.322584 75 100 89
-0.450328 0.156812 0.322937 68 103 105
-0.448863 0.157872 0.323287 58 92 106
-0.448617 0.159573 0.323605 41 68 84
-0.447766 0.160947 0.323938 20 42 52
-0.446917 0.162317 0.324269 8 32 39
-0.445472 0.163353 0.324613 7 40 47
-0.443443 0.164054 0.324968 19 55 60
-0.440848 0.16442 0.325331 13 54 66
-0.440023 0.165764 0.325655 12 69 76
-0.439202 0.167103 0.325979 34 98 96
-0.438961 0.16877 0.32629 66 113 107
-0.4393 0.170774 0.326592 76 89 83
-0.489858 0.161923 0.31726 73 74 67
-0.483737 0.160912 0.317825 73 76 72
-0.480607 0.161336 0.318274 75 82 74
-0.480342 0.163171 0.318617 73 91 81
-0.450315 0.155398 0.320911 57 93 89
-0.449458 0.156783 0.321249 49 91 91
-0.448604 0.158164 0.321586 35 76 84
-0.448358 0.159865 0.321904 21 55 66
-0.447507 0.161239 0.322239 10 40 47
-0.447262 0.162938 0.322557 10 44 52
-0.445814 0.163974 0.322907 31 75 78
-0.444971 0.165335 0.323239 42 93 98
-0.442944 0.166026 0.3236 38 78 82
-0.441523 0.167043 0.323944 22 63 74
-0.440695 0.168387 0.324271 28 76 86
-0.440453 0.170062 0.324584 60 106 106
-0.440796 0.172077 0.324885 73 106 106
-0.442319 0.174789 0.325161 80 72 66
-0.491334 0.161091 0.314971 75 81 72
-0.489573 0.162243 0.315385 67 89 87
-0.483456 0.161229 0.315976 60 91 98
-0.48247 0.162719 0.316351 57 91 97
-0.450302 0.153985 0.318886 38 79 86
-0.449445 0.155372 0.319227 42 75 77
-0.448591 0.156755 0.319567 35 69 70
-0.448345 0.158456 0.319885 23 59 63
-0.447494 0.159832 0.320223 12 48 54
-0.447249 0.161531 0.320541 8 48 55
-0.447004 0.16323 0.320858 21 74 76
-0.446156 0.164597 0.321195 54 113 109
-0.445311 0.165959 0.32153 55 113 113
-0.444469 0.167317 0.321865 54 96 98
-0.44363 0.168671 0.322198 33 70 78
-0.442793 0.170021 0.32253 28 67 77
-0.442549 0.171707 0.322845 47 92 95
-0.442898 0.173738 0.323145 67 116 110
-0.443248 0.175775 0.323445 77 90 83
-0.494877 0.157191 0.311884 77 83 74
-0.494604 0.159085 0.312238 70 92 88
-0.492068 0.159891 0.312701 63 91 95
-0.490302 0.16105 0.313124 62 93 89
-0.489288 0.162564 0.313509 53 98 94
-0.489018 0.164439 0.31386 40 92 100
-0.449432 0.15396 0.317204 45 72 70
-0.448578 0.155346 0.317547 47 77 75
-0.448332 0.157047 0.317865 51 83 80
-0.447481 0.158426 0.318207 42 73 76
-0.447236 0.160124 0.318524 24 62 69
-0.44699 0.161823 0.318842 24 73 77
-0.446745 0.163522 0.319159 47 104 102
-0.445898 0.164889 0.319499 58 120 120
-0.445653 0.166585 0.319816 57 113 114
-0.444809 0.167945 0.320153 59 106 104
-0.443968 0.1693 0.32049 40 84 83
-0.443129 0.170651 0.320825 27 70 73
-0.442885 0.17234 0.321141 35 82 84
-0.443235 0.174375 0.321438 58 109 105
-0.443586 0.176417 0.321736 71 108 107
-0.444536 0.17882 0.322018 76 83 73
-0.494862 0.15562 0.309635 67 82 83
-0.494589 0.157514 0.309989 65 100 87
-0.494315 0.159409 0.310342 52 102 98
-0.491781 0.160214 0.310815 42 89 98
-0.491509 0.162098 0.311167 43 78 87
-0.489745 0.16325 0.311596 42 72 76
-0.451871 0.153814 0.315066 71 71 67
-0.448564 0.153936 0.315528 65 72 68
-0.448319 0.155638 0.315846 61 84 84
-0.448073 0.157339 0.316164 66 98 98
-0.447222 0.158717 0.316508 60 92 93
-0.446977 0.160416 0.316825 46 85 89
-0.446732 0.162116 0.317143 45 98 102
-0.445885 0.163484 0.317485 61 120 121
-0.44564 0.165181 0.317802 58 117 119
-0.445395 0.166878 0.318119 58 113 113
-0.444551 0.168237 0.318459 61 110 105
-0.444306 0.169931 0.318776 54 85 82
-0.443466 0.171283 0.319115 38 69 69
-0.443222 0.172975 0.319431 32 76 76
-0.443572 0.175015 0.319726 44 94 95
-0.443924 0.177061 0.320022 67 115 113
-0.444878 0.17947 0.320298 71 93 84
-0.444632 0.181173 0.320616 71 76 69
-0.495334 0.156299 0.307693 55 80 93
-0.494301 0.157838 0.308092 46 75 82
-0.493271 0.159371 0.30849 42 72 71
-0.492998 0.161262 0.308843 44 71 66
-0.449159 0.152841 0.313477 72 72 66
-0.448305 0.154228 0.313826 64 82 78
-0.44806 0.15593 0.314144 68 102 101
-0.447209 0.15731 0.314491 58 99 106
-0.446964 0.159009 0.314808 53 98 103
-0.446116 0.160383 0.315154 56 104 106
-0.445871 0.162079 0.315471 59 114 118
-0.445626 0.163776 0.315788 59 121 125
-0.445381 0.165473 0.316105 62 117 118
-0.445136 0.16717 0.316422 62 116 113
-0.444891 0.168867 0.316739 62 101 105
-0.444048 0.170223 0.317082 65 77 83
-0.443804 0.171918 0.317398 57 66 68
-0.444156 0.173959 0.31769 42 68 69
-0.443911 0.175656 0.318007 35 80 83
-0.444264 0.177707 0.318301 57 108 104
-0.444618 0.179764 0.318595 67 104 102
-0.444974 0.181828 0.318891 74 82 78
-0.450368 0.152056 0.311384 76 70 65
-0.4489 0.153133 0.311772 67 76 72
-0.448047 0.15452 0.312123 63 100 93
-0.447801 0.156222 0.312441 62 110 107
-0.446951 0.157602 0.312791 53 99 101
-0.446103 0.158978 0.313141 49 98 104
-0.445858 0.160675 0.313457 57 112 115
-0.445613 0.162371 0.313774 63 122 122
-0.445368 0.164068 0.314091 60 117 120
-0.445123 0.165765 0.314408 63 117 116
-0.444878 0.167462 0.314725 62 119 115
-0.444633 0.169159 0.315042 60 107 114
-0.444388 0.170857 0.315359 67 95 100
-0.444143 0.172554 0.315676 71 87 82
-0.444496 0.1746 0.315966 62 81 74
-0.444251 0.1763 0.316283 40 75 79
-0.444605 0.178355 0.316575 40 89 92
-0.44496 0.180417 0.316867 63 111 110
-0.445317 0.182485 0.31716 73 92 88
-0.44628 0.184928 0.317429 77 75 68
-0.452202 0.15158 0.309239 76 72 67
-0.449496 0.152035 0.309711 70 77 76
-0.44864 0.153426 0.310066 61 87 88
-0.447788 0.154812 0.310421 71 110 109
-0.447542 0.156514 0.310739 55 96 101
-0.446692 0.157894 0.311091 49 101 102
-0.445845 0.15927 0.311443 54 110 112
-0.4456 0.160966 0.31176 58 116 120
-0.445355 0.162663 0.312077 58 117 122
-0.44571 0.164692 0.312361 61 117 118
-0.445465 0.166392 0.312678 62 116 114
-0.445821 0.168431 0.312964 52 105 104
-0.445575 0.170133 0.313281 49 107 107
-0.445329 0.171836 0.313599 52 108 105
-0.445083 0.17354 0.313917 61 110 101
-0.444837 0.175243 0.314235 63 104 97
-0.444591 0.176946 0.314553 49 85 92
-0.444346 0.178649 0.314871 30 70 78
-0.445303 0.181072 0.315132 54 104 103
-0.445661 0.183145 0.315423 69 102 101
-0.446019 0.185225 0.315715 75 84 80
-0.452188 0.150157 0.307199 71 77 78
-0.449483 0.15062 0.307684 67 78 88
-0.448627 0.152014 0.308042 60 85 99
-0.448381 0.153718 0.308361 63 104 106
-0.447529 0.155105 0.308718 51 100 111
-0.447283 0.156807 0.309036 54 95 100
-0.446433 0.158186 0.309391 55 105 106
-0.445587 0.159561 0.309746 57 120 122
-0.445342 0.161258 0.310062 58 122 125
-0.445697 0.163285 0.310343 59 117 120
-0.445452 0.164985 0.31066 62 116 116
-0.445808 0.167021 0.310942 63 106 106
-0.445562 0.168724 0.31126 52 75 75
-0.445316 0.170427 0.311578 44 70 72
-0.44507 0.17213 0.311896 39 74 80
-0.444824 0.173833 0.312214 40 85 93
-0.444578 0.175537 0.312532 43 95 103
-0.444332 0.17724 0.31285 44 89 99
-0.444687 0.1793 0.313136 33 58 69
-0.445647 0.181729 0.313392 41 86 89
-0.446006 0.183806 0.31368 61 105 107
-0.446975 0.186261 0.313939 71 94 92
-0.44795 0.188733 0.314199 73 75 70
-0.449716 0.147499 0.305338 70 98 85
-0.44886 0.148897 0.3057 63 106 95
-0.448614 0.150601 0.306018 54 109 111
-0.448368 0.152306 0.306337 53 110 121
-0.447515 0.153695 0.306697 62 119 114
-0.447269 0.155397 0.307015 51 92 101
-0.44642 0.156778 0.307373 49 98 110
-0.445573 0.158156 0.307731 64 120 118
-0.445328 0.159853 0.308048 63 122 122
-0.445083 0.16155 0.308365 59 118 121
-0.445438 0.163577 0.308642 59 115 117
-0.445794 0.165612 0.308921 61 107 108
-0.445548 0.167314 0.309239 62 84 84
-0.445303 0.169017 0.309557 73 73 63
-0.445659 0.171064 0.309838 75 72 64
-0.445413 0.17277 0.310156 72 68 63
-0.444565 0.174127 0.310511 58 66 63
-0.444319 0.175831 0.310828 48 70 67
-0.444673 0.177889 0.311111 44 72 72
-0.445029 0.179953 0.311395 32 54 62
-0.445992 0.182388 0.311645 31 70 73
-0.446352 0.18447 0.311931 50 101 99
-0.448551 0.18768 0.312117 64 103 100
-0.449536 0.190168 0.312373 71 86 82
-0.447765 0.141483 0.302867 61 98 94
-0.44752 0.143179 0.303184 49 99 111
-0.447879 0.145176 0.303453 44 87 104
-0.448239 0.147179 0.303723 42 78 90
-0.447994 0.148881 0.304041 41 80 87
-0.447748 0.150583 0.304358 54 99 101
-0.446898 0.151972 0.304721 71 114 114
-0.446652 0.153671 0.305038 53 97 105
-0.446407 0.155371 0.305355 53 105 106
-0.44556 0.15675 0.305716 65 112 117
-0.445315 0.158447 0.306033 63 118 127
-0.44507 0.160145 0.30635 61 119 125
-0.444825 0.161842 0.306666 61 117 119
-0.445179 0.16387 0.306941 61 111 110
-0.445535 0.165905 0.307217 64 96 91
-0.445289 0.167608 0.307535 68 74 62
-0.445016 0.178539 0.309367 65 65 58
-0.445373 0.180608 0.309648 47 59 55
-0.446338 0.183049 0.309893 36 59 63
-0.448538 0.18625 0.310065 43 86 89
-0.449523 0.188733 0.310314 57 103 105
-0.450514 0.191233 0.310565 69 94 94
-0.451512 0.193749 0.310817 74 70 64
-0.446772 0.146861 0.302119 58 73 74
-0.446527 0.148558 0.302435 57 93 93
-0.446282 0.150254 0.302752 56 110 114
-0.446037 0.151951 0.303068 53 106 115
-0.445792 0.153648 0.303385 59 100 103
-0.445547 0.155345 0.303701 57 111 116
-0.445302 0.157042 0.304018 66 132 132
-0.445057 0.158739 0.304335 63 122 125
-0.444812 0.160436 0.304651 60 117 120
-0.444566 0.162134 0.304968 62 115 115
-0.44492 0.164163 0.30524 66 100 97
-0.445276 0.166198 0.305513 70 77 73
-0.447296 0.184081 0.308095 57 57 57
-0.449509 0.187299 0.308256 46 71 72
-0.4505 0.189794 0.308499 53 96 94
-0.451499 0.192305 0.308745 67 103 99
-0.451874 0.194442 0.309031 74 83 79
-0.445558 0.144855 0.300208 71 68 68
-0.445314 0.146546 0.300524 64 87 83
-0.44507 0.148237 0.300839 61 115 108
-0.444825 0.149928 0.301155 60 119 118
-0.444581 0.15162 0.30147 50 100 108
-0.444934 0.153625 0.301736 53 112 118
-0.44469 0.155319 0.302052 78 134 126
-0.444445 0.157014 0.302368 65 122 126
-0.4442 0.158708 0.302684 59 119 121
-0.443955 0.160403 0.303 60 117 117
-0.444308 0.162426 0.303269 63 105 104
-0.444662 0.164455 0.303539 66 84 80
-0.450487 0.188354 0.306434 59 65 64
-0.450859 0.190477 0.306715 53 82 82
-0.45186 0.192996 0.306955 59 99 99
-0.451607 0.194745 0.307281 71 95 97
-0.443865 0.146232 0.298939 70 110 108
-0.443029 0.147615 0.299307 64 116 119
-0.442786 0.149299 0.299621 52 107 112
-0.443728 0.1516 0.29983 58 117 113
-0.444079 0.153602 0.300092 62 117 125
-0.443835 0.155294 0.300408 58 122 135
-0.444187 0.157305 0.300672 61 118 122
-0.443942 0.158999 0.300988 58 117 119
-0.443697 0.160694 0.301304 63 114 110
-0.443452 0.162389 0.30162 69 93 84
-0.451218 0.191163 0.304925 53 72 71
-0.451593 0.193299 0.305205 53 87 83
-0.45134 0.195048 0.305532 67 95 90
-0.442079 0.143944 0.297107 65 101 103
-0.44125 0.145324 0.297476 57 116 121
-0.441008 0.147 0.297789 55 110 116
-0.440766 0.148675 0.298101 59 106 111
-0.442287 0.151271 0.298249 58 120 125
-0.442634 0.153266 0.298508 66 140 136
-0.442983 0.155268 0.298768 58 120 123
-0.442739 0.156957 0.299084 57 117 123
-0.443089 0.158968 0.299345 61 115 119
-0.443439 0.160986 0.299607 62 92 99
-0.443194 0.162681 0.299923 67 75 73
-0.440894 0.141968 0.295233 63 96 92
-0.440652 0.143641 0.295545 64 126 119
-0.439828 0.145017 0.295915 58 117 117
-0.439586 0.146688 0.296227 51 107 114
-0.439345 0.148358 0.296538 57 122 125
-0.439685 0.150333 0.296793 68 132 131
-0.440027 0.152315 0.297048 58 123 130
-0.441544 0.154928 0.297191 56 118 123
-0.441301 0.156612 0.297505 58 117 119
-0.441647 0.158617 0.297763 61 102 106
-0.441994 0.160627 0.298022 66 78 80
-0.440297 0.140293 0.293308 66 86 89
-0.440056 0.141963 0.29362 73 119 121
-0.439234 0.14334 0.293992 58 113 123
-0.438414 0.144713 0.294364 54 112 116
-0.438174 0.146378 0.294674 60 120 119
-0.437933 0.148044 0.294985 61 125 130
-0.43827 0.150012 0.295236 59 126 133
-0.438608 0.151987 0.295488 58 118 123
-0.439529 0.154279 0.295682 54 116 120
-0.439871 0.15627 0.295936 63 116 111
-0.440801 0.158586 0.296132 68 87 82
-0.439702 0.138622 0.291389 73 82 79
-0.438882 0.140002 0.291765 69 109 112
-0.438642 0.141668 0.292075 57 118 128
-0.438401 0.143333 0.292386 56 111 120
-0.438161 0.144998 0.292696 58 113 121
-0.437344 0.146367 0.293069 62 128 132
-0.437104 0.14803 0.293379 63 134 134
-0.437439 0.149995 0.293627 57 120 124
-0.437775 0.151967 0.293876 56 118 120
-0.438112 0.153945 0.294126 59 116 117
-0.43845 0.155929 0.294377 61 88 98
-0.437956 0.136394 0.289612 70 73 70
-0.438292 0.138338 0.289854 63 104 98
-0.437476 0.139714 0.290231 67 131 128
-0.437236 0.141374 0.29054 53 112 119
-0.436996 0.143034 0.29085 50 113 122
-0.436757 0.144695 0.291159 62 127 130
-0.436517 0.146355 0.291468 67 132 132
-0.436277 0.148016 0.291778 60 124 127
-0.43661 0.149978 0.292023 57 119 119
-0.436944 0.151947 0.292269 57 116 117
-0.43728 0.153922 0.292516 64 105 105
-0.437039 0.155591 0.292827 70 74 75
-0.437943 0.135018 0.28764 68 78 69
-0.437129 0.136397 0.288019 60 91 91
-0.437463 0.138338 0.288258 70 128 125
-0.437223 0.139998 0.288568 54 113 122
-0.436983 0.141658 0.288877 54 117 119
-0.436744 0.143319 0.289186 59 124 126
-0.436504 0.144979 0.289495 63 129 135
-0.436264 0.14664 0.289805 61 125 132
-0.436024 0.1483 0.290114 57 118 123
-0.435784 0.149961 0.290424 56 117 117
-0.436116 0.151927 0.290667 63 110 109
-0.43645 0.153899 0.290911 71 83 83
-0.436544 0.134746 0.286123 66 83 82
-0.436305 0.136401 0.286431 66 118 121
-0.436637 0.138338 0.286667 52 122 131
-0.436398 0.139996 0.286976 53 113 117
-0.436158 0.141654 0.287285 54 120 126
-0.435919 0.143312 0.287594 63 134 137
-0.435679 0.14497 0.287902 64 129 134
-0.436011 0.146925 0.288141 59 118 126
-0.435771 0.148585 0.28845 57 116 120
-0.435531 0.150246 0.28876 59 111 113
-0.435291 0.151907 0.289069 66 93 95
-0.43596 0.133099 0.284232 75 81 75
-0.435722 0.134752 0.28454 64 109 103
-0.435483 0.136404 0.284848 65 132 133
-0.435244 0.138057 0.285155 49 110 121
-0.435574 0.139994 0.285389 50 119 127
-0.435335 0.141649 0.285697 62 133 136
-0.435096 0.143305 0.286005 62 133 137
-0.435426 0.145254 0.286241 58 124 129
-0.435187 0.146912 0.28655 56 118 122
-0.435518 0.14887 0.286786 58 114 116
-0.435278 0.150532 0.287096 65 105 102
-0.435379 0.131458 0.282347 74 74 76
-0.435141 0.133107 0.282654 67 98 98
-0.434902 0.134757 0.282962 66 129 128
-0.434664 0.136407 0.283269 51 116 122
-0.434425 0.138057 0.283576 54 122 121
-0.434754 0.139992 0.283807 58 130 133
-0.434515 0.141645 0.284114 60 134 140
-0.434844 0.143589 0.284346 57 126 132
-0.434605 0.145244 0.284655 55 120 125
-0.434934 0.147197 0.284888 56 118 119
-0.434695 0.148855 0.285197 64 107 104
-0.434234 0.129553 0.280549 74 71 66
-0.433997 0.131198 0.280855 70 88 90
-0.433759 0.132843 0.281161 65 121 123
-0.433521 0.134488 0.281468 53 124 131
-0.433284 0.136133 0.281774 54 111 117
-0.433046 0.137778 0.28208 56 126 130
-0.433936 0.13999 0.282229 62 138 140
-0.433697 0.141641 0.282536 58 129 134
-0.434024 0.143581 0.282765 56 122 126
-0.434352 0.145528 0.282995 56 118 121
-0.434113 0.147184 0.283304 59 108 111
-0.433874 0.14884 0.283612 66 90 91
-0.4323 0.129034 0.27915 68 83 76
-0.432064 0.130671 0.279455 65 114 108
-0.43127 0.132039 0.279842 62 131 134
-0.431034 0.133674 0.280146 48 112 123
-0.430798 0.135309 0.28045 53 120 129
-0.431117 0.137222 0.280674 63 137 141
-0.432558 0.139705 0.280737 59 132 138
-0.433446 0.141924 0.280882 57 122 127
-0.433772 0.143865 0.281108 56 117 121
-0.4341 0.145812 0.281336 59 114 113
-0.433861 0.147468 0.281644 64 98 93
-0.43062 0.12689 0.277461 67 75 74
-0.430384 0.12852 0.277764 64 103 100
-0.430149 0.13015 0.278067 65 129 127
-0.429913 0.13178 0.27837 52 119 128
-0.429678 0.13341 0.278674 52 121 126
-0.429994 0.135314 0.278894 59 132 137
-0.430312 0.137224 0.279115 63 136 143
-0.431188 0.139421 0.279254 58 124 130
-0.432631 0.141919 0.27931 56 117 121
-0.432956 0.143857 0.279534 59 116 117
-0.433282 0.145802 0.279759 63 102 101
-0.430054 0.12528 0.275611 67 71 70
-0.429819 0.126907 0.275914 65 91 96
-0.429034 0.128272 0.276303 61 121 126
-0.428799 0.129897 0.276606 54 124 129
-0.428564 0.131522 0.276908 52 115 122
-0.428878 0.133418 0.277125 55 129 135
-0.429194 0.135319 0.277342 63 140 144
-0.42951 0.137226 0.277561 59 128 134
-0.429827 0.139139 0.27778 57 118 123
-0.431259 0.141628 0.277829 57 116 118
-0.432141 0.14385 0.277965 60 108 108
-0.432466 0.145791 0.278186 66 88 85
-0.430041 0.12393 0.273676 67 71 66
-0.429256 0.1253 0.274069 65 89 87
-0.428473 0.126665 0.274461 62 117 118
-0.428238 0.128287 0.274763 57 125 133
-0.428004 0.12991 0.275064 49 115 125
-0.427769 0.131533 0.275366 53 124 130
-0.428082 0.133426 0.27558 64 139 142
-0.428395 0.135324 0.275795 61 132 141
-0.42871 0.137229 0.276011 56 122 126
-0.429025 0.139139 0.276227 56 117 120
-0.430451 0.141624 0.276269 58 114 113
-0.43133 0.143842 0.2764 64 95 92
-0.429478 0.122327 0.271835 66 69 64
-0.428694 0.123697 0.27223 63 81 79
-0.42846 0.125319 0.272532 63 109 109
-0.427679 0.126682 0.272925 60 128 132
-0.427445 0.128303 0.273226 51 119 129
-0.427211 0.129923 0.273528 54 123 128
-0.426977 0.131544 0.273829 59 133 138
-0.427287 0.133434 0.27404 63 138 143
-0.427599 0.135329 0.274253 57 122 130
-0.427912 0.137231 0.274465 55 118 122
-0.428225 0.139139 0.274679 59 115 116
-0.429092 0.141336 0.274804 62 99 98
-0.428682 0.122351 0.2703 65 74 74
-0.4279 0.123719 0.270697 64 100 102
-0.427666 0.125339 0.270999 61 124 128
-0.427432 0.126959 0.2713 54 123 131
-0.427198 0.12858 0.271601 52 119 126
-0.426964 0.1302 0.271902 56 131 137
-0.42673 0.131821 0.272204 62 138 143
-0.426495 0.133442 0.272505 56 126 134
-0.426806 0.135335 0.272714 54 119 122
-0.427116 0.137234 0.272924 56 117 120
-0.427428 0.139138 0.273135 59 104 108
-0.427741 0.141049 0.273347 64 81 80
-0.428122 0.120755 0.268469 67 68 68
-0.427888 0.122375 0.268771 64 92 94
-0.427654 0.123995 0.269072 62 122 124
-0.426875 0.125358 0.26947 56 127 133
-0.426641 0.126976 0.269771 50 117 126
-0.426407 0.128594 0.270071 55 127 133
-0.426174 0.130213 0.270372 62 138 142
-0.426483 0.132098 0.270578 59 132 139
-0.426248 0.133719 0.270879 55 120 124
-0.426014 0.13534 0.27118 53 118 120
-0.426323 0.137236 0.271388 59 114 113
-0.426634 0.139138 0.271596 63 89 89
-0.42733 0.120781 0.266944 62 82 81
-0.427096 0.122398 0.267245 63 116 116
-0.42632 0.123762 0.267645 58 128 133
-0.426086 0.125378 0.267945 51 120 129
-0.425853 0.126994 0.268246 54 124 130
-0.426161 0.128871 0.268448 58 134 140
-0.425927 0.130489 0.268749 62 137 140
-0.425693 0.132108 0.269049 56 122 126
-0.426001 0.133996 0.269253 55 119 120
-0.425767 0.135617 0.269554 56 117 117
-0.426076 0.137514 0.269759 63 97 96
-0.426774 0.119191 0.265124 61 75 75
-0.426541 0.120807 0.265424 62 106 105
-0.426307 0.122422 0.265724 59 127 130
-0.425533 0.123784 0.266126 52 122 131
-0.4253 0.125397 0.266425 52 120 128
-0.425607 0.12727 0.266624 58 132 138
-0.425373 0.128885 0.266925 61 136 142
-0.42568 0.130766 0.267125 56 125 130
-0.425446 0.132385 0.267426 54 118 119
-0.425754 0.134273 0.267627 57 120 117
-0.42552 0.135895 0.267928 61 106 106
-0.425828 0.137792 0.26813 65 78 76
-0.42622 0.117607 0.263308 64 68 67
-0.425986 0.11922 0.263608 61 95 97
-0.425753 0.120833 0.263907 61 123 126
-0.424981 0.122195 0.264311 54 124 132
-0.424748 0.123806 0.26461 49 119 129
-0.425054 0.125673 0.264806 56 130 135
-0.424821 0.127286 0.265106 61 137 142
-0.425127 0.129162 0.265303 58 130 136
-0.425434 0.131043 0.265501 55 119 121
-0.4252 0.132661 0.265801 54 117 116
-0.425507 0.134551 0.266 61 114 110
-0.425273 0.136172 0.266301 64 84 84
-0.425581 0.13807 0.266501 67 70 65
-0.425434 0.117637 0.261797 64 86 82
-0.425201 0.119248 0.262096 64 119 118
-0.424969 0.120859 0.262395 56 125 130
-0.424736 0.12247 0.262694 51 119 128
-0.424503 0.124081 0.262994 53 126 133
-0.42427 0.125692 0.263293 58 136 142
-0.424575 0.127562 0.263487 60 134 139
-0.42488 0.129438 0.263681 54 119 127
-0.425187 0.131319 0.263876 54 117 118
-0.424953 0.132938 0.264177 58 115 113
-0.42526 0.134828 0.264373 61 97 94
-0.425026 0.13645 0.264675 65 74 64
-0.424883 0.11606 0.259991 64 78 77
-0.424651 0.117668 0.26029 65 112 110
-0.424419 0.119276 0.260589 58 126 129
-0.424186 0.120885 0.260887 52 120 128
-0.423954 0.122494 0.261186 52 123 129
-0.423721 0.124102 0.261485 58 134 138
-0.424025 0.125967 0.261676 60 135 140
-0.424329 0.127838 0.261867 55 123 131
-0.424634 0.129714 0.262059 53 116 122
-0.42494 0.131596 0.262252 55 115 116
-0.424706 0.133215 0.262552 60 103 105
-0.425013 0.135106 0.262746 61 73 73
-0.424334 0.114487 0.258191 64 71 71
-0.423568 0.115852 0.258602 62 102 104
-0.423336 0.117456 0.2589 59 125 130
-0.423104 0.11906 0.259197 51 121 129
-0.423406 0.120911 0.259384 50 120 127
-0.423174 0.122517 0.259682 57 131 135
-0.423476 0.124377 0.25987 60 136 140
-0.423243 0.125986 0.260169 57 128 133
-0.423546 0.127854 0.260357 53 118 121
-0.423849 0.129727 0.260547 54 115 119
-0.424693 0.131873 0.260627 57 109 111
-0.424459 0.133492 0.260928 61 75 83
-0.423555 0.114522 0.256694 61 92 92
-0.42226 0.115646 0.25722 62 125 125
-0.4215 0.117004 0.25763 52 124 131
-0.42127 0.118601 0.257927 49 119 127
-0.421567 0.120443 0.258111 54 126 133
-0.422396 0.122541 0.258182 60 135 140
-0.422697 0.124398 0.258368 60 131 135
-0.422998 0.126261 0.258553 54 117 122
-0.4233 0.128129 0.25874 53 116 118
-0.423603 0.130003 0.258927 58 113 113
-0.424446 0.13215 0.259002 64 94 93
-0.421949 0.112486 0.255138 60 81 83
-0.421191 0.113847 0.255551 61 121 118
-0.420435 0.115204 0.255962 54 128 132
-0.420205 0.116796 0.256258 50 121 128
-0.419975 0.118388 0.256553 50 125 131
-0.420269 0.120224 0.256734 56 135 139
-0.421092 0.122315 0.256802 59 132 137
-0.42192 0.124419 0.25687 54 121 128
-0.42222 0.126279 0.257053 53 115 119
-0.423055 0.128404 0.257122 55 114 115
-0.423357 0.130279 0.257306 60 101 101
-0.423661 0.13216 0.257491 66 72 71
-0.420882 0.110699 0.253477 60 75 77
-0.420652 0.112291 0.253773 60 107 108
-0.419898 0.113648 0.254186 56 127 132
-0.419668 0.115238 0.254481 47 119 130
-0.419439 0.116827 0.254776 49 123 130
-0.419209 0.118417 0.255071 55 134 137
-0.419502 0.120251 0.25525 56 133 138
-0.419796 0.122091 0.255429 55 124 132
-0.420617 0.124188 0.255493 53 117 123
-0.421975 0.126553 0.255439 54 114 118
-0.422275 0.12842 0.255621 60 104 106
-0.422576 0.130292 0.255803 60 77 82
-0.423414 0.132436 0.255868 65 67 62
-0.419822 0.108923 0.251826 66 68 72
-0.419592 0.11051 0.252121 59 95 99
-0.418842 0.111866 0.252535 59 125 130
-0.418613 0.11345 0.252829 47 121 131
-0.418384 0.115035 0.253123 46 118 128
-0.418675 0.116859 0.253299 52 127 134
-0.418966 0.118688 0.253474 57 135 138
-0.418737 0.120278 0.253769 58 128 132
-0.419029 0.122115 0.253946 54 117 122
-0.419847 0.124209 0.254005 53 116 119
-0.421199 0.126571 0.253945 57 110 110
-0.422029 0.128695 0.254005 63 91 87
-0.42233 0.130568 0.254184 66 65 56
-0.419059 0.108966 0.250355 59 85 88
-0.41883 0.11055 0.250649 62 123 122
-0.418081 0.111904 0.251065 51 125 132
-0.417853 0.113487 0.251359 45 118 127
-0.417624 0.11507 0.251652 49 125 133
-0.417913 0.116891 0.251825 57 134 140
-0.418203 0.118717 0.251999 57 130 136
-0.418494 0.120549 0.252172 53 119 126
-0.418264 0.12214 0.252467 53 115 118
-0.419079 0.124231 0.252522 54 114 114
-0.420425 0.12659 0.252455 61 99 95
-0.421252 0.12871 0.25251 66 68 62
-0.418527 0.107426 0.248595 59 75 79
-0.418298 0.109008 0.248888 58 112 111
-0.418069 0.110591 0.249182 58 128 131
-0.41784 0.112173 0.249475 49 117 126
-0.417611 0.113756 0.249769 48 122 129
-0.417383 0.115339 0.250062 56 133 137
-0.417154 0.116922 0.250356 56 131 138
-0.417442 0.118746 0.250527 52 122 129
-0.417732 0.120576 0.250698 51 116 121
-0.418022 0.122411 0.25087 54 114 116
-0.418835 0.124503 0.25092 59 104 104
-0.419128 0.126353 0.251093 62 78 78
-0.418514 0.106112 0.246712 66 65 69
-0.418285 0.107695 0.247005 62 97 104
-0.418056 0.109277 0.247298 60 127 132
-0.417828 0.11086 0.247592 48 117 127
-0.417599 0.112443 0.247885 48 120 126
-0.41737 0.114026 0.248179 53 129 135
-0.417141 0.115609 0.248472 55 133 139
-0.416912 0.117192 0.248766 54 126 131
-0.4172 0.119017 0.248934 52 118 121
-0.416971 0.120602 0.249228 53 116 117
-0.41726 0.122435 0.249397 56 108 110
-0.417549 0.124273 0.249567 61 86 83
-0.417983 0.104579 0.244959 67 66 64
-0.417755 0.106159 0.245252 63 86 88
-0.417527 0.107739 0.245545 64 125 128
-0.417298 0.109319 0.245838 49 120 129
-0.41707 0.1109 0.246131 45 116 124
-0.416841 0.112481 0.246424 46 125 134
-0.416613 0.114061 0.246717 54 135 141
-0.4169 0.115878 0.246882 54 129 134
-0.416671 0.117462 0.247175 51 118 124
-0.416442 0.119045 0.247469 52 114 118
-0.416729 0.120873 0.247635 56 111 113
-0.417018 0.122706 0.247802 64 95 95
-0.416788 0.124295 0.248096 72 66 63
-0.417226 0.104627 0.243504 59 81 79
-0.416998 0.106205 0.243796 61 122 116
-0.41677 0.107783 0.244088 55 129 132
-0.416542 0.109362 0.244381 46 115 122
-0.416314 0.11094 0.244673 47 124 129
-0.416085 0.112518 0.244966 54 134 138
-0.416371 0.11433 0.245128 53 130 136
-0.416143 0.115911 0.245421 49 121 126
-0.416429 0.117732 0.245584 48 117 119
-0.4162 0.119315 0.245878 52 113 116
-0.415972 0.120899 0.246171 60 97 103
-0.416258 0.12273 0.246336 68 71 78
-0.416699 0.1031 0.24176 63 71 72
-0.416471 0.104676 0.242052 57 106 107
-0.416244 0.106252 0.242344 58 129 134
-0.416016 0.107828 0.242636 46 114 124
-0.415788 0.109404 0.242928 46 121 125
-0.41556 0.11098 0.24322 51 131 134
-0.415845 0.112787 0.24338 53 133 138
-0.415617 0.114366 0.243672 51 124 130
-0.415902 0.116181 0.243832 49 116 122
-0.416188 0.118002 0.243993 50 115 118
-0.415959 0.119585 0.244286 53 105 108
-0.41573 0.121169 0.24458 58 84 85
-0.415501 0.122753 0.244873 66 66 63
-0.415435 0.102935 0.240451 63 93 97
-0.415208 0.104506 0.240742 64 129 132
-0.41498 0.106077 0.241033 47 119 129
-0.414753 0.107648 0.241324 47 116 123
-0.415036 0.109445 0.24148 50 127 133
-0.414808 0.111019 0.241771 57 138 140
-0.415092 0.112824 0.241928 54 128 131
-0.415376 0.114634 0.242085 48 118 124
-0.415661 0.11645 0.242243 48 116 122
-0.415946 0.118272 0.242402 54 113 113
-0.415717 0.119855 0.242695 62 93 88
-0.415488 0.121439 0.242988 66 68 58
-0.413898 0.100991 0.238996 61 83 85
-0.414178 0.10277 0.239148 61 125 124
-0.413951 0.104337 0.239438 51 127 131
-0.413725 0.105904 0.239728 45 113 122
-0.413498 0.107471 0.240019 48 124 131
-0.413778 0.109262 0.240172 57 136 138
-0.414059 0.111059 0.240326 53 129 136
-0.414341 0.112861 0.240481 51 118 126
-0.415135 0.114903 0.240498 50 116 120
-0.415419 0.11672 0.240654 55 115 116
-0.415191 0.118301 0.240947 61 99 97
-0.415476 0.120126 0.241103 64 72 69
-0.411873 0.0988569 0.237695 62 76 76
-0.412651 0.100833 0.237704 60 113 111
-0.412425 0.102393 0.237993 58 131 135
-0.4122 0.103953 0.238282 46 112 121
-0.411974 0.105513 0.23857 47 123 126
-0.411748 0.107073 0.238859 55 133 136
-0.413033 0.109304 0.238734 54 132 138
-0.413312 0.111099 0.238885 53 122 127
-0.413592 0.112899 0.239037 52 115 119
-0.414894 0.115172 0.238911 52 112 116
-0.414666 0.116752 0.239204 54 99 105
-0.414949 0.118571 0.239357 60 77 77
-0.411361 0.09736 0.235984 67 72 72
-0.411137 0.0989129 0.236272 60 97 100
-0.411411 0.100676 0.236418 64 132 135
-0.411186 0.102231 0.236706 46 113 127
-0.411461 0.104002 0.236854 46 118 121
-0.411235 0.10556 0.237142 48 128 132
-0.41101 0.107118 0.237431 57 134 139
-0.411285 0.108899 0.237579 54 124 132
-0.412567 0.111138 0.237448 50 116 123
-0.412846 0.112936 0.237598 52 114 118
-0.414142 0.115206 0.237466 57 108 109
-0.414425 0.117021 0.237616 62 86 86
-0.411349 0.0960704 0.234135 64 69 68
-0.411124 0.0976233 0.234422 59 87 91
-0.410403 0.0989689 0.234853 65 131 127
-0.410178 0.10052 0.23514 48 122 129
-0.410451 0.102283 0.235285 43 113 120
-0.410226 0.103836 0.235573 44 123 131
-0.410499 0.105607 0.235718 56 133 138
-0.410274 0.107163 0.236006 55 126 134
-0.410547 0.108941 0.236152 52 117 123
-0.410821 0.110725 0.236299 50 114 118
-0.412606 0.113203 0.236019 56 113 112
-0.413393 0.11524 0.236024 63 93 90
-0.410615 0.0961302 0.232719 59 81 83
-0.41039 0.097681 0.233006 57 120 116
-0.409671 0.0990247 0.233438 53 131 134
-0.409447 0.100573 0.233725 42 109 118
-0.409223 0.102122 0.234012 45 125 128
-0.409493 0.103885 0.234154 52 134 136
-0.409269 0.105437 0.234442 50 130 136
-0.40954 0.107208 0.234585 49 119 127
-0.409811 0.108984 0.234729 50 114 120
-0.410583 0.110991 0.23473 53 112 115
-0.411862 0.11324 0.234586 56 97 102
-0.412139 0.115041 0.234731 61 75 76
-0.410602 0.0948422 0.230872 67 71 70
-0.410378 0.0963931 0.231159 60 106 102
-0.409658 0.0977386 0.231594 62 132 133
-0.409434 0.0992874 0.23188 41 109 121
-0.40921 0.100836 0.232167 45 121 120
-0.408986 0.102385 0.232454 49 130 132
-0.408762 0.103935 0.23274 55 135 136
-0.409032 0.105701 0.232881 52 122 124
-0.408808 0.107252 0.233168 48 114 119
-0.409078 0.109026 0.23331 50 113 118
-0.409846 0.11103 0.233307 55 104 107
-0.410619 0.113046 0.233303 59 82 83
-0.40987 0.0949037 0.229463 61 87 96
-0.409646 0.0964524 0.229749 62 128 131
-0.408929 0.097796 0.230185 47 113 123
-0.408705 0.0993428 0.230471 44 112 116
-0.408481 0.10089 0.230758 47 126 130
-0.408257 0.102437 0.231044 57 136 137
-0.408034 0.103984 0.23133 53 124 128
-0.408302 0.105747 0.231469 50 114 120
-0.408571 0.107516 0.231608 49 114 116
-0.408841 0.10929 0.231747 54 111 110
-0.409111 0.11107 0.231887 60 90 86
-0.409364 0.0934185 0.227771 63 80 89
-0.40914 0.094965 0.228057 61 125 125
-0.408916 0.0965116 0.228343 47 124 129
-0.408693 0.0980584 0.228629 43 109 116
-0.408469 0.0996052 0.228915 44 121 128
-0.408245 0.101152 0.229201 55 133 136
-0.408021 0.102699 0.229487 54 129 133
-0.407798 0.104246 0.229774 51 118 122
-0.408066 0.106011 0.22991 49 113 118
-0.407842 0.10756 0.230197 53 113 114
-0.40811 0.109332 0.230334 56 95 97
-0.409351 0.0921338 0.225928 64 77 78
-0.409128 0.0936804 0.226214 58 116 112
-0.408904 0.0952271 0.2265 55 130 133
-0.40868 0.0967739 0.226786 43 109 118
-0.408457 0.0983208 0.227073 46 122 125
-0.408233 0.0998678 0.227359 51 130 132
-0.408009 0.101415 0.227645 53 130 136
-0.407785 0.102962 0.227931 51 120 124
-0.407562 0.104509 0.228217 49 115 119
-0.407338 0.106057 0.228503 49 112 116
-0.407605 0.107824 0.228638 53 100 105
-0.407865 0.0902672 0.224559 63 73 72
-0.408132 0.0920027 0.224687 58 100 101
-0.4084 0.0937434 0.224815 59 130 135
-0.408176 0.095288 0.225101 42 111 124
-0.407953 0.0968326 0.225386 44 115 120
-0.407729 0.0983774 0.225672 47 125 130
-0.407997 0.10013 0.225802 53 133 136
-0.407773 0.101678 0.226088 52 121 127
-0.407549 0.103225 0.226374 51 115 120
-0.407325 0.104772 0.22666 50 113 118
-0.407102 0.10632 0.226946 52 108 110
-0.407368 0.108088 0.227078 59 86 86
-0.406877 0.0886064 0.223042 66 68 66
-0.406655 0.0901419 0.223326 60 90 95
-0.406919 0.0918723 0.223452 61 129 132
-0.407185 0.0936079 0.223578 44 118 131
-0.406962 0.0951482 0.223863 43 111 121
-0.407227 0.0968913 0.22399 46 122 131
-0.407494 0.0986395 0.224117 55 133 138
-0.40727 0.100185 0.224403 52 125 132
-0.407047 0.10173 0.224688 50 117 121
-0.407313 0.103488 0.224817 50 114 116
-0.407089 0.105035 0.225103 54 112 112
-0.406865 0.106583 0.225389 58 93 93
-0.406642 0.108131 0.225675 61 70 68
-0.405412 0.0867681 0.221694 62 69 66
-0.405191 0.088297 0.221977 58 83 89
-0.40497 0.089826 0.22226 66 131 128
-0.405231 0.0915487 0.222383 66 145 150
-0.405009 0.0930801 0.222666 46 113 128
-0.404788 0.0946116 0.222949 45 121 130
-0.406017 0.0967473 0.222756 50 131 137
-0.406281 0.0984904 0.222882 52 128 135
-0.406546 0.100239 0.223007 52 118 124
-0.406323 0.101782 0.223292 50 114 118
-0.406587 0.103538 0.223419 52 113 114
-0.406364 0.105083 0.223704 57 99 101
-0.406629 0.106846 0.223831 62 76 74
-0.403482 0.0847623 0.220519 68 66 63
-0.403262 0.0862825 0.2208 65 75 74
-0.403042 0.0878028 0.221081 59 114 113
-0.402823 0.0893232 0.221362 65 151 154
-0.402603 0.0908437 0.221643 67 151 162
-0.402858 0.0925583 0.221765 61 137 144
-0.402638 0.0940812 0.222046 55 134 139
-0.404332 0.096403 0.22169 54 135 140
-0.405076 0.0983422 0.221653 50 123 129
-0.405338 0.100085 0.221776 51 115 121
-0.4056 0.101834 0.2219 51 113 117
-0.405864 0.103587 0.222024 55 105 106
-0.406128 0.105346 0.222149 62 83 82
-0.40325 0.0850193 0.218988 61 70 67
-0.402081 0.0861701 0.219593 56 89 92
-0.401862 0.0876862 0.219873 58 134 136
-0.401642 0.0892024 0.220153 63 153 159
-0.401423 0.0907187 0.220433 64 150 159
-0.401204 0.0922351 0.220713 66 146 151
-0.401457 0.093947 0.220834 60 137 143
-0.402185 0.0958626 0.220794 55 130 136
-0.403397 0.0979917 0.220593 52 120 125
-0.404136 0.099933 0.220553 52 115 120
-0.404397 0.101676 0.220674 55 110 111
-0.404658 0.103424 0.220796 59 89 89
-0.402763 0.0835749 0.217341 61 68 62
-0.402069 0.0849103 0.217786 55 79 81
-0.401377 0.0862421 0.21823 51 109 113
-0.401158 0.0877562 0.218509 50 132 136
-0.400469 0.0890822 0.218951 58 140 147
-0.40025 0.0905944 0.219231 62 141 150
-0.400031 0.0921067 0.21951 63 140 146
-0.400282 0.0938136 0.219628 58 137 142
-0.401005 0.0957235 0.219585 57 131 137
-0.401733 0.0976444 0.219542 56 124 128
-0.401988 0.0993718 0.219661 56 115 118
-0.4032 0.10152 0.219455 60 94 98
-0.402978 0.103052 0.219738 64 72 71
-0.402057 0.0836505 0.215979 59 75 72
-0.401365 0.0849841 0.216425 52 102 102
-0.400676 0.086314 0.21687 49 122 128
-0.400457 0.0878261 0.217149 49 129 136
-0.400238 0.0893383 0.217428 55 134 141
-0.400019 0.0908506 0.217708 61 138 144
-0.399801 0.092363 0.217987 58 134 141
-0.399582 0.0938755 0.218266 56 135 141
-0.399832 0.0955852 0.218383 61 136 141
-0.400554 0.0975004 0.218336 64 129 132
-0.400806 0.0992228 0.218453 61 107 112
-0.401534 0.101157 0.218407 63 78 82
-0.401789 0.102892 0.218525 64 63 61
-0.402045 0.0823905 0.214172 62 70 66
-0.401353 0.0837259 0.21462 54 94 92
-0.400664 0.0850577 0.215068 49 117 121
-0.400445 0.0865698 0.215347 47 126 135
-0.400226 0.088082 0.215626 53 130 140
-0.399539 0.089406 0.216071 59 134 142
-0.399789 0.0911068 0.216184 59 135 143
-0.39957 0.0926193 0.216464 55 130 137
-0.399351 0.094132 0.216743 52 131 137
-0.399132 0.0956447 0.217022 63 135 140
-0.399381 0.0973573 0.217137 68 124 128
-0.399631 0.0990748 0.217252 62 92 96
-0.400354 0.101003 0.217202 60 70 69
-0.402033 0.0811304 0.212364 61 69 64
-0.401341 0.0824676 0.212815 55 83 84
-0.400652 0.0838012 0.213265 50 111 114
-0.400433 0.0853134 0.213544 48 126 130
-0.400214 0.0868256 0.213823 50 130 137
-0.399995 0.088338 0.214103 57 133 142
-0.399308 0.0896618 0.21455 61 134 141
-0.399558 0.0913631 0.214661 56 132 139
-0.399339 0.0928757 0.21494 52 125 132
-0.39912 0.0943885 0.21522 49 123 128
-0.398901 0.0959014 0.215499 63 125 127
-0.39915 0.0976145 0.215611 67 104 106
-0.3994 0.0993325 0.215724 63 76 72
-0.401548 0.0796951 0.210731 64 61 61
-0.401329 0.0812092 0.21101 56 77 79
-0.40064 0.0825446 0.211463 49 103 109
-0.400421 0.0840568 0.211742 48 122 128
-0.400202 0.0855691 0.212021 49 130 134
-0.399983 0.0870815 0.2123 55 133 140
-0.399764 0.088594 0.212579 58 135 141
-0.399546 0.0901066 0.212858 58 132 137
-0.399327 0.0916193 0.213137 52 128 133
-0.399108 0.0931322 0.213417 49 120 126
-0.398889 0.0946451 0.213696 51 115 118
-0.39867 0.0961581 0.213975 60 104 104
-0.398919 0.0978717 0.214085 68 78 79
-0.401065 0.0782638 0.209102 64 60 52
-0.400846 0.0797758 0.209381 61 66 72
-0.400628 0.0812879 0.20966 51 97 101
-0.400409 0.0828001 0.209939 47 119 127
-0.40019 0.0843124 0.210218 47 128 134
-0.399503 0.0856419 0.210671 52 132 138
-0.399284 0.0871523 0.210949 57 133 141
-0.399534 0.0888501 0.211055 58 132 138
-0.399315 0.0903628 0.211334 53 129 133
-0.399096 0.0918757 0.211613 48 123 127
-0.398877 0.0933887 0.211893 48 116 122
-0.398658 0.0949017 0.212172 54 106 109
-0.398439 0.0964149 0.212451 61 80 83
-0.398717 0.0761592 0.208185 65 63 57
-0.399896 0.0781741 0.207933 61 65 62
-0.399678 0.079682 0.208211 56 87 90
-0.399928 0.0813664 0.208313 49 117 121
-0.399709 0.0828766 0.208591 46 126 134
-0.399491 0.0843869 0.20887 49 132 138
-0.399272 0.0858973 0.209149 54 133 140
-0.399054 0.0874079 0.209427 57 133 138
-0.398835 0.0889185 0.209706 55 128 133
-0.399084 0.0906191 0.20981 51 123 128
-0.398865 0.0921321 0.210089 47 118 122
-0.398646 0.0936452 0.210368 50 111 115
-0.398427 0.0951584 0.210647 55 88 95
-0.397103 0.0759085 0.207204 62 66 62
-0.397347 0.0775733 0.207304 55 79 80
-0.398517 0.0795887 0.207048 51 112 111
-0.398299 0.0810926 0.207326 48 126 131
-0.398082 0.0825966 0.207603 47 129 137
-0.398328 0.0842807 0.207703 52 133 140
-0.39811 0.085787 0.207981 56 133 139
-0.398823 0.0876635 0.207905 54 130 136
-0.398605 0.0891743 0.208184 51 125 131
-0.398853 0.0908754 0.208286 48 118 123
-0.398634 0.0923885 0.208565 49 113 116
-0.398415 0.0939018 0.208844 54 100 101
-0.398196 0.0954151 0.209123 61 74 74
-0.395047 0.0754939 0.206408 58 71 72
-0.394379 0.0768133 0.206859 52 101 101
-0.396901 0.0793235 0.20607 48 124 126
-0.396685 0.0808212 0.206346 48 129 134
-0.396928 0.0824957 0.206445 51 131 138
-0.396711 0.0839957 0.206721 54 134 139
-0.397417 0.0858593 0.206642 55 131 137
-0.397662 0.0875483 0.206741 52 125 135
-0.397908 0.0892423 0.20684 48 120 127
-0.398155 0.0909412 0.20694 50 115 116
-0.398403 0.092645 0.20704 55 107 104
-0.398184 0.0941584 0.207319 61 80 78
-0.393915 0.0754135 0.205266 57 75 79
-0.39325 0.0767294 0.205717 55 116 116
-0.392587 0.0780419 0.206166 47 126 130
-0.393722 0.0800344 0.205909 51 131 137
-0.39396 0.0816939 0.206006 53 133 138
-0.394197 0.0833582 0.206103 56 132 136
-0.394436 0.0850272 0.2062 55 127 134
-0.396048 0.0872499 0.205762 53 122 129
-0.396752 0.089123 0.20568 48 116 120
-0.39746 0.0910068 0.205598 54 109 110
-0.397706 0.0927085 0.205696 57 83 84
-0.393238 0.0754984 0.20395 63 75 75
-0.392575 0.0768125 0.204402 65 103 104
-0.391467 0.0779551 0.205031 58 119 122
-0.390809 0.0792606 0.205479 54 130 136
-0.391933 0.0812501 0.20522 51 132 136
-0.392166 0.0829047 0.205316 52 130 132
-0.392851 0.0847421 0.205233 52 122 129
-0.393539 0.0865899 0.205151 50 117 122
-0.395602 0.0890044 0.204527 51 111 115
-0.396304 0.0908828 0.204441 56 91 96
-0.392563 0.0755831 0.202638 79 79 72
-0.391456 0.0767291 0.203271 90 94 83
-0.390797 0.0780363 0.203722 87 99 96
-0.389699 0.079171 0.20435 67 114 122
-0.390371 0.0809828 0.204265 56 128 127
-0.391047 0.0828048 0.204181 49 125 129
-0.391279 0.0844594 0.204274 48 119 123
-0.39196 0.0862989 0.204189 50 113 116
-0.393096 0.0883324 0.203923 56 102 102
-0.390786 0.0768119 0.201965 95 95 86
-0.389688 0.07795 0.202598 96 94 85
-0.389035 0.0792504 0.203048 89 91 87
-0.387946 0.0803774 0.203674 72 106 103
-0.389491 0.0825316 0.203231 55 115 115
-0.391053 0.0847098 0.202782 52 115 117
-0.391733 0.0865501 0.202693 57 108 107
-0.392868 0.0885848 0.202421 58 79 79
-0.387063 0.0788261 0.202288 87 86 74
-0.386418 0.0801167 0.202736 81 84 75
-0.387075 0.0819165 0.202647 66 94 87
-0.389053 0.0842523 0.202018 63 107 107
-0.390613 0.0864403 0.201563 60 87 93
-0.386417 0.0819921 0.201354 69 72 66
-0.387949 0.0841496 0.200899 66 77 72
